<?xml version="1.0" encoding="UTF-8" standalone="no"?>
<!-- Created with Inkscape (http://www.inkscape.org/) -->

<svg
   xmlns:dc="http://purl.org/dc/elements/1.1/"
   xmlns:cc="http://creativecommons.org/ns#"
   xmlns:rdf="http://www.w3.org/1999/02/22-rdf-syntax-ns#"
   xmlns:svg="http://www.w3.org/2000/svg"
   xmlns="http://www.w3.org/2000/svg"
   xmlns:sodipodi="http://sodipodi.sourceforge.net/DTD/sodipodi-0.dtd"
   xmlns:inkscape="http://www.inkscape.org/namespaces/inkscape"
   width="246.5217"
   height="273.63492"
   id="svg3548"
   version="1.1"
   inkscape:version="0.48.4 r9939"
   sodipodi:docname="mushroom.svg"
   inkscape:export-filename="/home/tomkent/src/laura-science/mushroom.png"
   inkscape:export-xdpi="90"
   inkscape:export-ydpi="90">
  <defs
     id="defs3550" />
  <sodipodi:namedview
     id="base"
     pagecolor="#ffffff"
     bordercolor="#666666"
     borderopacity="1.0"
     inkscape:pageopacity="0.0"
     inkscape:pageshadow="2"
     inkscape:zoom="0.35"
     inkscape:cx="655.78539"
     inkscape:cy="141.78528"
     inkscape:document-units="px"
     inkscape:current-layer="layer1-6"
     showgrid="false"
     fit-margin-top="0"
     fit-margin-left="0"
     fit-margin-right="0"
     fit-margin-bottom="0"
     inkscape:window-width="666"
     inkscape:window-height="551"
     inkscape:window-x="509"
     inkscape:window-y="284"
     inkscape:window-maximized="0" />
  <g
     inkscape:label="Layer 1"
     inkscape:groupmode="layer"
     id="layer1"
     transform="translate(-251.73915,-395.54472)">
    <g
       id="layer1-6"
       inkscape:label="Layer 1"
       transform="translate(19.790432,129.67467)">
      <path
         inkscape:connector-curvature="0"
         id="path3473"
         d="m 351.28571,537.17707 c -19.46083,-3.4729 -25.77239,-6.33781 -38.98361,-17.69522 -8.89884,-7.65016 -10.79168,-21.47428 -5.99577,-43.78928 1.11135,-5.17098 3.5752,-17.72679 5.47524,-27.90179 1.90004,-10.175 4.62588,-23.675 6.05744,-30 2.98575,-13.19189 7.97592,-36.77953 9.58377,-45.30086 1.29761,-6.87707 0.95743,-7.40446 -3.93394,-6.09888 -2.55709,0.68252 -7.98367,0.61954 -17.21849,-0.19984 -14.1543,-1.25587 -16.66624,-1.68635 -23.98464,-4.11025 -2.475,-0.81973 -9.72979,-2.97897 -16.12175,-4.7983 -6.39196,-1.81932 -13.06826,-4.05589 -14.83622,-4.97014 -1.76797,-0.91425 -6.14557,-2.27553 -9.728,-3.02507 -7.89457,-1.65176 -7.05255,-0.62123 -7.35092,-8.99666 -0.40075,-11.24914 -0.23586,-11.84467 5.71019,-20.62369 17.85567,-26.36287 30.04174,-35.48336 60.05161,-44.94477 6.7237,-2.11983 13.6987,-4.65912 15.5,-5.64288 5.90372,-3.22426 49.27138,-2.38307 66.77509,1.29521 40.14375,8.43593 64.99543,24.49642 84.73963,54.76331 9.98096,15.30033 13.18216,43.08498 6.47807,56.22609 -7.71777,15.12808 -35.61178,11.68364 -80.32986,-9.91937 -21.24186,-10.2618 -27.8309,-13.21015 -39.38784,-17.62457 -5.5,-2.10085 -10.7875,-4.14003 -11.75,-4.53152 -2.38245,-0.96903 -2.2411,1.01109 0.25,3.50219 2.38108,2.38108 2.50022,4.95183 0.53614,11.5685 -1.68627,5.68075 -5.88815,24.59863 -8.5361,38.4315 -1.00019,5.225 -3.001,14.9 -4.44626,21.5 -3.31874,15.15562 -5.23066,24.76262 -6.0699,30.5 -0.36203,2.475 -1.98923,11.38131 -3.616,19.79181 -3.54549,18.33036 -4.08227,29.70585 -1.58181,33.52204 5.92004,9.03512 24.07531,15.68615 42.81841,15.68615 25.17007,0 39.59188,-36.28926 30.00464,-75.5 -1.21031,-4.95 -3.04226,-14.625 -4.07101,-21.5 -2.23029,-14.90465 -4.05678,-22.93076 -7.50132,-32.96276 -4.05046,-11.79673 -4.49791,-20.36138 -1.17741,-22.53706 5.298,-3.47138 10.80268,0.90497 11.94908,9.49982 0.33012,2.475 2.22664,9.85276 4.21448,16.39502 1.98785,6.54227 4.21164,16.44227 4.94176,22 0.73012,5.55774 2.48241,15.05498 3.89398,21.10498 14.61394,62.63554 -8.15831,104.7741 -52.35868,96.88629 z M 460.45929,374.75209 c 1.90217,-2.2665 4.95443,-14.52352 4.35672,-17.49537 -0.21747,-1.08127 -0.94317,-6.14355 -1.61267,-11.24952 -0.6695,-5.10596 -1.60667,-9.52424 -2.0826,-9.81838 -0.47593,-0.29414 -1.49182,-2.0342 -2.25753,-3.8668 -0.76571,-1.83259 -3.45889,-5.86933 -5.98485,-8.97053 -2.52596,-3.10119 -4.59265,-6.07478 -4.59265,-6.60797 0,-1.50057 -13.02565,-13.91547 -16.45003,-15.67871 -1.67748,-0.86375 -4.39997,-2.57605 -6.04997,-3.80511 -3.20997,-2.39105 -25.3012,-10.46892 -28.63025,-10.46892 -1.09944,0 -4.10741,-0.85374 -6.68437,-1.8972 -6.01661,-2.43625 -19.73664,-5.48897 -21.54706,-4.79425 -0.76645,0.29411 -6.28612,-0.12609 -12.26593,-0.93379 -5.97982,-0.80771 -12.67239,-1.19103 -14.87239,-0.85184 -2.2,0.33919 -7.05456,0.83688 -10.78792,1.10598 -3.73335,0.2691 -9.80835,1.63161 -13.5,3.02781 -3.69164,1.39619 -10.98708,3.7768 -16.21208,5.29025 -9.02923,2.61535 -12.03482,3.97767 -25.10494,11.37906 -10.32956,5.84946 -18.56179,14.99943 -25.56803,28.4184 -4.3795,8.38799 -3.50153,8.50509 18.21735,2.42979 8.9841,-2.51307 37.73294,-2.43974 45.95562,0.11722 2.75,0.85515 8.2087,2.03515 12.13044,2.62221 10.37583,1.55322 30.00304,8.60967 49.36956,17.74954 3.025,1.42763 9.775,4.38373 15,6.56912 5.225,2.18539 13.55,5.92521 18.5,8.31071 4.95,2.38549 11.925,5.07035 15.5,5.96634 3.575,0.89599 8.525,2.32149 11,3.16777 10.66878,3.64803 21.2461,3.77238 24.17358,0.28419 z M 333.94396,350.14586 c 2.85974,-2.99786 1.93377,-3.62408 -9.15825,-6.19358 -24.06852,-5.57553 -58.08923,-5.42919 -56.19892,0.24175 0.90825,2.72475 33.49666,9.5299 46.19892,9.64731 3.85,0.0356 8.8,0.41547 11,0.84418 3.10924,0.6059 4.22269,0.43914 5,-0.74884 0.55,-0.84059 1.97121,-2.54645 3.15825,-3.79082 z"
         style="fill:#372c35" />
    </g>
  </g>
  <metadata
     id="metadata7048">
    <rdf:RDF>
      <cc:Work>
        <dc:format>image/svg+xml</dc:format>
        <dc:type
           rdf:resource="http://purl.org/dc/dcmitype/StillImage" />
        <cc:license
           rdf:resource="http://creativecommons.org/licenses/publicdomain/" />
        <dc:publisher>
          <cc:Agent
             rdf:about="http://openclipart.org/">
            <dc:title>Open Clip Art Library</dc:title>
          </cc:Agent>
        </dc:publisher>
        <dc:title>mushroom</dc:title>
        <dc:date>2013-03-01T15:36:03</dc:date>
        <dc:description />
        <dc:source>http://openclipart.org/detail/175398/mushroom-by-global-quiz-175398</dc:source>
        <dc:creator>
          <cc:Agent>
            <dc:title>global quiz</dc:title>
          </cc:Agent>
        </dc:creator>
        <dc:subject>
          <rdf:Bag>
            <rdf:li>clip art</rdf:li>
            <rdf:li>clipart</rdf:li>
            <rdf:li>mushroom</rdf:li>
          </rdf:Bag>
        </dc:subject>
      </cc:Work>
      <cc:License
         rdf:about="http://creativecommons.org/licenses/publicdomain/">
        <cc:permits
           rdf:resource="http://creativecommons.org/ns#Reproduction" />
        <cc:permits
           rdf:resource="http://creativecommons.org/ns#Distribution" />
        <cc:permits
           rdf:resource="http://creativecommons.org/ns#DerivativeWorks" />
      </cc:License>
    </rdf:RDF>
  </metadata>
</svg>
