<?xml version="1.0" encoding="UTF-8" standalone="no"?>
<!-- Created with Inkscape (http://www.inkscape.org/) -->

<svg
   xmlns:dc="http://purl.org/dc/elements/1.1/"
   xmlns:cc="http://creativecommons.org/ns#"
   xmlns:rdf="http://www.w3.org/1999/02/22-rdf-syntax-ns#"
   xmlns:svg="http://www.w3.org/2000/svg"
   xmlns="http://www.w3.org/2000/svg"
   xmlns:sodipodi="http://sodipodi.sourceforge.net/DTD/sodipodi-0.dtd"
   xmlns:inkscape="http://www.inkscape.org/namespaces/inkscape"
   width="500"
   height="400"
   id="svg7055"
   version="1.1"
   inkscape:version="0.48.4 r9939"
   sodipodi:docname="prokaryote.svg">
  <defs
     id="defs7057" />
  <sodipodi:namedview
     id="base"
     pagecolor="#ffffff"
     bordercolor="#666666"
     borderopacity="1.0"
     inkscape:pageopacity="0.0"
     inkscape:pageshadow="2"
     inkscape:zoom="0.49497475"
     inkscape:cx="401.97395"
     inkscape:cy="572.56226"
     inkscape:document-units="px"
     inkscape:current-layer="layer1"
     showgrid="false"
     inkscape:window-width="846"
     inkscape:window-height="738"
     inkscape:window-x="430"
     inkscape:window-y="197"
     inkscape:window-maximized="0" />
  <metadata
     id="metadata7060">
    <rdf:RDF>
      <cc:Work
         rdf:about="">
        <dc:format>image/svg+xml</dc:format>
        <dc:type
           rdf:resource="http://purl.org/dc/dcmitype/StillImage" />
        <dc:title></dc:title>
      </cc:Work>
    </rdf:RDF>
  </metadata>
  <g
     inkscape:label="Layer 1"
     inkscape:groupmode="layer"
     id="layer1"
     transform="translate(0,-652.36218)">
    <path
       style="fill:#000000"
       d="m 123.05879,1039.4475 c -0.30962,-0.8068 -0.10603,-2.7193 0.45243,-4.25 0.63262,-1.7338 1.04515,-2.1232 1.09433,-1.0329 0.17297,3.8341 1.86322,1.3356 4.53407,-6.7021 3.63925,-10.9521 3.288,-17.6013 -1.13872,-21.5565 -1.61731,-1.4451 -5.27512,-5.4327 -8.12848,-8.86143 -5.05761,-6.0773 -5.18792,-6.3942 -5.18792,-12.61686 0,-3.51064 0.49991,-7.64978 1.11091,-9.19808 1.47778,-3.74474 3.81874,-13.61992 3.39225,-14.30998 -0.18606,-0.30106 -0.63438,-2.56287 -0.99627,-5.02625 -0.89707,-6.10646 -4.048,-12.97887 -5.95066,-12.97887 -1.95121,0 -1.95275,2.27781 -0.005,7.86987 2.05007,5.8867 1.72617,18.95313 -0.6601,26.63013 -3.10677,9.99488 -2.35169,16.64164 2.48231,21.85114 4.62513,4.98443 7.26742,8.17003 10.65056,12.84033 2.83352,3.9115 2.99014,4.585 2.38324,10.2476 -0.35728,3.3335 -0.95459,6.398 -1.32736,6.81 -0.37277,0.412 -0.49313,-0.8324 -0.26746,-2.7655 1.0036,-8.5965 -0.50166,-12.2843 -8.39724,-20.5729 -4.07942,-4.2825 -7.86661,-8.96863 -8.416,-10.41363 -1.13565,-2.987 -1.35646,-13.80612 -0.30326,-14.85932 0.74813,-0.74813 1.19826,-2.38299 1.98088,-7.19447 l 0.4972,-3.05675 -8.83685,-1.87509 c -4.860264,-1.03129 -10.474804,-1.88556 -12.476744,-1.89837 -2.21896,-0.0142 -3.47584,-0.45082 -3.21964,-1.11847 0.33186,-0.86561 -5.40217,-4.49457 -7.10207,-4.49457 -0.21639,0 -1.51247,2.3625 -2.88016,5.25 -3.03906,6.41613 -6.45294,9.76775 -10.22906,10.04253 -4.28217,0.31161 -4.28326,-2.62161 -0.002,-6.65891 3.38349,-3.19101 3.57303,-3.71372 3.57303,-9.85343 0,-6.12058 -0.28258,-6.90797 -5.04618,-14.06089 l -5.04618,-7.57724 -11.72996,0.17897 c -10.498,0.16017 -12.0302,0.41528 -14.58868,2.42897 -1.57229,1.2375 -3.69803,2.25 -4.72386,2.25 -1.02583,0 -1.86514,0.41994 -1.86514,0.93321 0,1.41562 -7.006101,0.65365 -11.338081,-1.23311 -2.13897,-0.93162 -3.65535,-2.21981 -3.42533,-2.90988 0.22701,-0.68104 3.00005,-1.75653 6.1623,-2.39 4.039841,-0.80926 6.693901,-2.05854 8.925331,-4.20119 4.25567,-4.08636 11.07664,-6.772 13.94678,-5.49131 1.91039,0.85244 1.64221,1.05054 -2.26875,1.67593 -4.051,0.64778 -8.32953,3.14219 -13.44081,7.83609 -1.06621,0.97914 -3.428711,1.78026 -5.250001,1.78026 -3.91772,0 -4.40435,1.68759 -0.75104,2.60452 3.006601,0.7546 10.460211,-0.0874 11.333721,-1.28029 1.94814,-2.66047 6.66708,-3.60507 18.79424,-3.76209 7.0464,-0.0912 13.71164,-0.53426 14.81164,-0.98451 9.95639,-4.0753 15.8742,-9.03043 15.04773,-12.59984 -0.97123,-4.19458 -1.91517,-5.97779 -3.16436,-5.97779 -0.76085,0 -1.40256,-0.5625 -1.42601,-1.25 -0.0547,-1.60202 -7.95105,7.33207 -7.95465,9 -0.002,0.6875 -0.52978,1.25 -1.17397,1.25 -0.64419,0 -1.88169,0.59132 -2.75,1.31404 -2.37441,1.9763 -14.09502,4.06968 -15.41201,2.75269 -0.75564,-0.75564 0.33513,-1.06673 3.74026,-1.06673 4.20069,0 4.71121,-0.22073 4.04765,-1.75 -0.41764,-0.9625 -0.81837,-7.825 -0.89052,-15.25 l -0.13118,-13.5 -6.19477,-6.44231 c -5.99208,-6.23152 -6.35771,-6.44231 -11.17523,-6.44231 -6.54901,0 -9.06294,2.1746 -9.06294,7.83961 0,2.27975 0.50975,4.65476 1.13278,5.27779 0.62303,0.62303 0.86216,1.83803 0.53139,2.7 -1.08795,2.83514 -4.22739,1.69172 -7.00549,-2.55147 -2.900791,-4.43058 -3.125351,-9.28071 -0.712151,-15.38131 1.434701,-3.62696 4.908971,-7.5 6.727781,-7.5 0.72913,0 1.32569,-0.45 1.32569,-1 0,-0.55 2.1375,-0.99832 4.75,-0.99626 5.82795,0.005 9.6769,2.20963 16.67888,9.55529 2.85253,2.99253 5.68722,5.44097 6.29931,5.44097 0.6121,0 1.39976,-1.30605 1.75036,-2.90233 0.3506,-1.59628 1.51321,-4.62007 2.58358,-6.71953 1.29928,-2.54848 1.77806,-4.99065 1.44049,-7.34768 -0.2781,-1.94175 -0.24246,-2.96796 0.0792,-2.28046 1.03606,2.21441 1.9233,1.39278 7.30495,-6.76473 2.9081,-4.4081 7.56246,-10.50395 10.34303,-13.54634 l 5.05558,-5.53161 -2.7575,-2.87822 c -1.51663,-1.58302 -3.32104,-2.66197 -4.00979,-2.39767 -0.68875,0.2643 -2.71605,-0.98323 -4.5051,-2.77228 -6.20642,-6.20642 -9.16189,-17.47539 -6.08904,-23.21706 1.90421,-3.55806 3.07286,-3.32822 3.0911,0.60791 0.0367,7.92813 6.10094,16.56976 12.793,18.23029 1.48057,0.36738 3.67463,1.58505 4.8757,2.70592 l 2.18375,2.03795 4.03876,-3.36208 c 2.92604,-2.4358 3.87905,-3.87872 3.4591,-5.23731 -0.37681,-1.21906 -0.19307,-1.63632 0.52511,-1.19246 1.007374,0.62259 5.289084,-2.54517 14.993514,-11.09271 l 3.58815,-3.1604 -1.98607,-2.19601 c -1.09235,-1.2078 -3.56416,-3.00145 -5.49291,-3.98587 -4.22777,-2.15782 -13.609714,-11.85856 -14.996494,-15.50608 -0.54817,-1.44179 -0.99667,-5.69229 -0.99667,-9.44556 0,-5.23282 0.4463,-7.37462 1.91392,-9.1849 1.05266,-1.29843 2.17661,-2.09933 2.49767,-1.77978 0.32106,0.31955 0.87792,3.39553 1.237474,6.83551 0.35955,3.43998 1.45132,7.81894 2.42616,9.73102 2.0545,4.02979 10.98258,10.77742 15.59123,11.78346 1.74155,0.38017 3.42622,1.36815 3.74371,2.19551 0.44815,1.16786 0.0755,1.3527 -1.66646,0.8265 -1.23404,-0.37279 -2.67121,-1.07721 -3.19371,-1.56539 -0.5225,-0.48819 -1.65069,-0.88761 -2.50709,-0.88761 -2.23218,0 -11.91234,-8.19445 -13.66036,-11.56376 -0.81242,-1.56594 -1.742014,-4.77971 -2.065764,-7.1417 -0.82163,-5.99447 -2.32128,-5.37008 -2.29482,0.95546 0.04,9.55205 4.435934,15.91031 16.223984,23.46613 3.16027,2.02565 6.0031,4.49319 6.31739,5.48343 0.31429,0.99024 0.94544,1.80044 1.40256,1.80044 0.45711,0 1.14285,3.1041 1.52386,6.89799 0.56787,5.65463 1.38839,7.96266 4.55211,12.8046 4.01608,6.14643 7.71775,8.98736 10.37948,7.96596 1.25114,-0.4801 1.35469,-1.1274 0.52815,-3.30138 -0.56547,-1.4873 -1.79794,-3.28904 -2.73881,-4.00387 -0.94088,-0.71483 -1.26069,-1.3209 -0.71069,-1.34681 0.55,-0.0259 0.4813,-0.37772 -0.15266,-0.7818 -1.7188,-1.09554 -6.43307,-12.28696 -5.68537,-13.49676 0.35588,-0.57582 0.17953,-0.75801 -0.39187,-0.40486 -0.61056,0.37735 -1.49147,-1.15513 -2.13649,-3.71674 -0.60366,-2.39735 -1.39177,-5.12552 -1.75136,-6.06259 -0.44066,-1.14833 -0.20203,-1.61092 0.73197,-1.41895 1.82608,0.37532 5.36743,-1.60148 10.88578,-6.07648 2.475,-2.00705 5.76451,-4.44431 7.31001,-5.41612 l 2.81001,-1.76694 -3.33817,-3.69496 c -5.07234,-5.61447 -6.11017,-8.92545 -5.03152,-16.05209 0.88901,-5.87375 0.66804,-7.28843 -2.28484,-14.6282 -0.78254,-1.94511 -0.74779,-1.95017 1.26592,-0.18463 2.58995,2.27077 3.5613,7.10452 3.32046,16.52366 -0.15896,6.21678 0.16678,7.85959 2.13024,10.74317 1.27484,1.87227 2.84289,3.40721 3.48456,3.41097 0.64166,0.004 1.33654,0.51646 1.54416,1.13933 0.20763,0.62288 2.37119,1.86897 4.80792,2.76909 5.09364,1.88157 9.98323,8.1567 10.9305,14.0278 0.56752,3.51742 0.65428,3.57512 5.82461,3.87326 4.179,0.24097 5.38012,-0.0403 5.89441,-1.38057 0.65288,-1.70136 -2.33661,-8.42208 -3.74629,-8.42208 -0.41969,0 -1.05478,-1.32817 -1.41132,-2.95148 -0.54388,-2.47626 -1.96551,-3.61741 -8.82946,-7.08748 -4.49966,-2.2748 -8.8049,-4.65253 -9.56721,-5.28384 -3.37493,-2.79499 -6.17179,-8.93681 -6.79802,-14.92823 -0.35874,-3.43225 -1.59842,-8.04237 -2.75484,-10.24471 -1.8262,-3.47792 -2.55991,-4.01102 -5.58185,-4.05567 -3.73997,-0.0553 -5.00943,-2.53335 -1.55732,-3.04002 4.66572,-0.68478 10.57804,5.7057 10.57804,11.43354 0,1.12192 0.45,2.31797 1,2.65789 0.55,0.33992 1,2.4094 1,4.59886 0,4.853 2.98779,11.00789 6.44239,13.27144 1.40669,0.92169 2.55761,1.21543 2.55761,0.65275 0,-0.56268 0.48142,-1.02305 1.06982,-1.02305 0.58841,0 3.03199,-1.35 5.43018,-3 4.3832,-3.01572 6.5,-3.7188 6.5,-2.15893 0,0.46259 -2.23614,2.05813 -4.96919,3.54565 -6.26944,3.41225 -6.78999,4.28763 -3.03954,5.11136 1.6548,0.36346 3.00873,0.99987 3.00873,1.41426 0,0.41438 1.0125,0.67047 2.25,0.56908 1.59859,-0.13098 2.16555,-0.73401 1.9583,-2.08288 -0.23263,-1.51413 -0.0962,-1.60785 0.67379,-0.46284 0.83898,1.2476 1.20474,1.2476 2.79169,0 1.00442,-0.78964 2.17562,-1.97951 2.60267,-2.64417 0.42704,-0.66465 1.44302,-0.95268 2.25772,-0.64005 1.667,0.63969 5.71947,-1.7431 9.01837,-5.30268 l 2.20061,-2.37449 1.605,2.44955 c 0.88276,1.34725 2.05823,4.39053 2.61217,6.76284 2.92772,12.53835 6.27529,16.26475 6.83273,7.60597 0.16668,-2.58904 -0.13189,-6.86404 -0.66347,-9.5 -2.72109,-13.49298 -4.00875,-15.82067 -14.73821,-26.64188 -3.35424,-3.38294 -6.44856,-7.05079 -6.87627,-8.15079 -0.42771,-1.1 -0.86254,-8.79192 -0.96629,-17.09315 -0.17464,-13.97243 -0.35005,-15.2664 -2.36229,-17.42629 -1.19551,-1.28322 -2.41301,-3.0873 -2.70557,-4.00907 -0.5872,-1.85011 -9.31795,-6.97149 -11.88475,-6.97149 -1.37282,0 -1.43052,0.30845 -0.37413,2 0.68696,1.1 1.99416,2 2.90488,2 0.91073,0 3.01701,1.55026 4.68063,3.44502 3.36223,3.82937 4.93544,11.52246 3.73839,18.28091 -0.36765,2.07574 -0.90962,7.87873 -1.20437,12.89553 -0.64636,11.00154 -0.23234,11.95914 9.6076,22.22186 6.85586,7.15043 8.50544,9.65594 5.63106,8.55294 -0.77536,-0.29753 -2.77801,0.16659 -4.45034,1.03139 -6.12661,3.16819 -5.76102,0.99065 0.52552,-3.13021 1.67358,-1.09704 1.19838,-1.81676 -5.41544,-8.20205 -8.47262,-8.17987 -8.28643,-7.17097 -6.61495,-35.84352 0.6997,-12.00278 -0.034,-13.8143 -6.95106,-17.1628 -5.06842,-2.45358 -8.1789,-5.47927 -7.22293,-7.02606 0.36133,-0.58465 2.8129,-1.06301 5.44792,-1.06301 6.26137,0 11.90917,3.95878 15.20831,10.66014 2.13347,4.33359 2.41834,6.44001 2.72335,20.13713 l 0.34065,15.29727 8.04948,7.95273 c 4.42721,4.374 8.38706,7.95273 8.79966,7.95273 0.4126,0 3.83704,-1.49891 7.60987,-3.33091 3.77284,-1.832 8.4347,-3.90976 10.3597,-4.61724 1.925,-0.70749 4.91801,-1.90858 6.65113,-2.66909 1.73312,-0.76052 3.61906,-1.38276 4.19098,-1.38276 2.48092,0 2.03359,-2.22627 -1.00498,-5.00158 -1.80557,-1.64913 -3.66259,-2.99842 -4.12671,-2.99842 -1.70147,0 -7.65791,-5.24687 -9.4552,-8.32882 -3.86505,-6.62773 -0.8568,-21.85214 5.6745,-28.71796 4.24723,-4.46476 5.64611,-4.86502 6.59161,-1.88602 0.46757,1.47317 -0.51883,3.81696 -3.43261,8.15628 -2.94552,4.38658 -4.08872,7.12045 -4.08872,9.77782 0,4.07953 2.37492,6.9987 5.69388,6.9987 1.12002,0 3.18057,0.9 4.57899,2 1.39842,1.1 3.00347,2 3.56677,2 1.5868,0 4.79901,5.04678 6.20575,9.75 0.69915,2.3375 1.43688,4.25 1.63939,4.25 0.20252,0 3.84379,-0.89635 8.09172,-1.99189 6.03504,-1.55644 22.00941,-3.87213 27.52973,-3.99078 0.44343,-0.01 1.66738,-1.92983 2.7199,-4.26733 1.05253,-2.3375 3.2753,-6.275 4.93949,-8.75 3.39452,-5.04833 3.93364,-10.73586 1.62934,-17.18886 -1.6461,-4.60979 -0.54748,-6.03915 3.54515,-4.61245 3.49557,1.21856 5.85989,5.37135 5.85989,10.29255 0,3.60596 -2.95992,14.2801 -5.59031,20.15989 -1.97533,4.41552 -1.79136,5.22716 1.34031,5.91315 1.5125,0.33131 6.07781,1.77398 10.14512,3.20593 l 7.39513,2.60354 2.10487,-2.57806 c 2.6127,-3.20006 17.26086,-12.79569 19.53319,-12.79569 0.91943,0 2.13198,-0.46029 2.69455,-1.02286 0.94174,-0.94174 10.90049,-4.7638 22.72415,-8.72128 2.94805,-0.98674 5.48412,-2.62794 6.4732,-4.1891 3.01072,-4.75209 12.39672,-16.06676 13.32806,-16.06676 0.50764,0 6.74027,-5.83234 13.85028,-12.96076 7.11001,-7.12842 14.63147,-13.82158 16.71437,-14.87369 2.73493,-1.38148 6.1757,-1.96137 12.38462,-2.08728 12.37166,-0.25086 15.98489,1.8365 22.54017,13.02139 4.55237,7.76744 10.13955,12.07644 16.44415,12.68223 4.51752,0.43407 5.32424,0.15179 10.29794,-3.60339 2.96804,-2.24089 8.38348,-7.09093 12.03431,-10.77787 5.56332,-5.61832 7.15853,-6.68871 9.85409,-6.61207 3.44044,0.0978 6.7318,3.11611 6.7318,6.17329 0,2.08865 -2.71693,7.20819 -10.8659,20.47478 -6.74751,10.98501 -11.17928,16.10691 -14.70155,16.99094 -3.97421,0.99747 -21.46032,-6.60242 -27.43255,-11.92284 -2.41878,-2.1548 -20.32722,-14.00394 -24.71102,-16.35007 -4.98862,-2.66983 -13.11085,-0.24162 -18.40974,5.50376 -1.44142,1.56287 -6.57936,7.79158 -11.41764,13.84158 -8.29594,10.37359 -12.55483,15.00245 -17.03247,18.51207 -6.06444,4.75336 -15.08082,10.03871 -19.6664,11.52833 -11.16941,3.62837 -17.51444,7.5106 -21.06983,12.89165 -4.22654,6.39684 -5.94268,11.23272 -4.76629,13.43083 0.50645,0.94631 4.82115,2.89055 9.99168,4.50234 5.00517,1.56024 10.58351,3.84333 12.3963,5.07352 2.45227,1.66416 5.45767,2.41459 11.7407,2.93158 18.16498,1.49471 20.54665,1.82157 23.50662,3.22612 5.36645,2.54648 12.05815,10.55116 17.47479,20.90356 7.50185,14.33768 10.9476,19.40146 16.7552,24.62299 7.4431,6.69199 11.4956,8.40706 16.39582,6.93891 5.43453,-1.62822 9.1064,-5.33943 13.91282,-14.0619 3.75955,-6.82266 10.89946,-23.37272 10.89946,-25.26456 0,-0.42808 1.15221,-2.51943 2.56047,-4.64745 1.79832,-2.71745 4.25402,-4.62701 8.25,-6.41524 4.92088,-2.20212 7.07681,-2.54249 15.95815,-2.51938 10.43152,0.0272 13.23138,0.94474 13.23138,4.33627 0,4.57518 -3.62996,6.94539 -12.29481,8.02799 -7.05952,0.88203 -9.81793,3.31681 -15.57507,13.74772 -4.93894,8.94846 -11.2522,23.55869 -10.89541,25.21428 0.4436,2.05838 -10.23921,16.27274 -13.36897,17.78853 -4.73521,2.29333 -12.45966,0.50994 -22.89962,-5.28697 -4.93398,-2.73966 -9.17098,-4.98119 -9.41554,-4.98119 -0.77754,0 -13.91655,-10.08029 -17.40482,-13.35302 -1.84482,-1.73084 -6.23644,-7.52301 -9.75914,-12.87149 -10.66878,-16.19829 -19.23599,-21.34684 -36.87609,-22.16104 -6.35424,-0.29329 -11.12247,-0.95026 -11.32588,-1.5605 -0.19322,-0.57967 -0.92813,-1.05395 -1.63312,-1.05395 -0.705,0 -2.4675,-0.93266 -3.91667,-2.07258 l -2.63486,-2.07258 -0.0765,6.32258 c -0.0421,3.47742 -0.25535,6.99758 -0.47393,7.82258 -0.21858,0.825 -1.09626,4.425 -1.9504,8 -0.85414,3.575 -1.94546,7.4 -2.42515,8.5 -0.47969,1.1 -1.44367,3.575 -2.14218,5.5 -0.69851,1.925 -2.76892,6.58686 -4.60092,10.3597 -3.77738,7.77914 -3.95339,8.6403 -1.766,8.6403 2.17818,0 11.43508,9.7204 11.43508,12.00764 0,1.03088 0.45,2.15244 1,2.49236 0.55,0.33992 1,2.31642 1,4.39224 0,5.83446 2.16321,15.23316 3.63617,15.79839 2.1443,0.82284 5.18024,6.6042 4.8886,9.30937 -0.14824,1.375 -0.32695,3.5455 -0.39715,4.82332 -0.0877,1.59629 -0.64932,2.22215 -1.79475,2 -2.12654,-0.41242 -2.99016,-2.82332 -1.01136,-2.82332 2.03887,0 1.06508,-7.75996 -1.31763,-10.5 -3.98688,-4.58478 -5.14268,-7.65288 -5.995,-15.9139 -0.63158,-6.12157 -1.50237,-9.4704 -3.01491,-11.59457 -2.71033,-3.80631 -9.25889,-8.21511 -14.84186,-9.99226 -2.91432,-0.92767 -4.64471,-2.16471 -5.24813,-3.75181 -0.49513,-1.30229 -1.31868,-2.1092 -1.83011,-1.79311 -0.83969,0.51895 -1.85705,-1.33571 -2.16913,-3.95435 -0.0655,-0.55 -0.99126,-2.70942 -2.05714,-4.79872 -2.10238,-4.12101 -4.59632,-5.72589 -5.82031,-3.74544 -0.91841,1.48603 0.36672,7.83817 1.89497,9.36642 0.59276,0.59276 1.07774,1.78521 1.07774,2.6499 0,3.36533 6.36516,9.30799 13.44172,12.5495 8.72342,3.99587 10.8562,6.79091 12.96581,16.9919 1.80961,8.75033 3.29337,11.61431 7.3564,14.19941 3.59464,2.2871 4.20245,3.23695 4.22076,6.59605 0.0206,3.77863 -1.59611,2.5758 -2.41664,-1.79797 -0.37134,-1.97942 -1.25448,-3.51105 -2.02447,-3.51105 -1.87504,0 -6.40399,-5.56652 -7.18176,-8.82707 -0.35068,-1.47011 -0.96878,-3.12293 -1.37356,-3.67293 -0.40479,-0.55 -1.05271,-3.18685 -1.43984,-5.85968 -0.85354,-5.8931 -5.0697,-10.64032 -9.45001,-10.64032 -2.20148,0 -3.42823,0.9 -5.50564,4.03918 -3.10843,4.69716 -15.40043,18.81283 -20.84113,23.93317 -2.06159,1.94021 -3.74909,3.88156 -3.75,4.31412 -9e-4,0.43256 4.47778,0.66184 9.95263,0.50951 l 9.95426,-0.27697 3.34334,3.2405 c 3.06308,2.96885 3.88423,3.24177 9.79574,3.2558 8.16737,0.0194 10.11825,1.03895 7.50764,3.92364 -1.02587,1.13358 -2.66892,2.06105 -3.65122,2.06105 -0.9823,0 -2.04641,0.42137 -2.3647,0.93637 -0.94191,1.52404 -4.5311,0.97147 -13.40481,-2.06373 -8.27598,-2.83075 -8.42489,-2.8441 -13.91702,-1.24749 -5.00966,1.45635 -8.94089,1.48057 -16.31999,0.10057 -0.88137,-0.16483 -3.0534,-1.52055 -4.82673,-3.01271 -1.77333,-1.49215 -3.56969,-2.71301 -3.99192,-2.71301 -0.42222,0 -3.33888,2.25 -6.48146,5 -3.14258,2.75 -6.0251,5.00035 -6.40559,5.00078 -0.3805,4.3e-4 -2.3706,1.49496 -4.42245,3.32117 -3.55663,3.16552 -3.67467,3.46865 -2.53076,6.49922 0.65993,1.74835 1.78258,3.17883 2.49477,3.17883 1.40001,0 9.88259,-6.33762 17.5297,-13.09703 6.13622,-5.42391 7.23025,-4.53418 1.22789,0.99859 -2.50246,2.3067 -4.26651,4.65259 -3.9201,5.2131 0.34642,0.56051 0.0222,0.89758 -0.72051,0.74905 -1.61023,-0.32202 -6.23697,2.17149 -10.24184,5.51969 -2.79006,2.33257 -2.87408,2.66083 -2.395,9.35667 0.37632,5.25952 1.11997,7.8568 3.0721,10.72961 2.51844,3.70623 10.06804,9.51753 12.3755,9.52604 2.42212,0.009 6.45512,6.17739 6.14183,9.39392 -0.462,4.74344 -3.76301,4.68457 -6.30294,-0.1124 -1.8437,-3.48205 -2.40796,-3.81826 -7.2202,-4.30219 -4.15868,-0.4182 -5.91507,-1.19845 -8.63735,-3.83698 -3.3715,-3.26779 -5.96441,-8.14025 -7.05725,-13.26162 -0.30791,-1.44295 -1.39611,-3.65631 -2.41823,-4.91857 l -1.85839,-2.29503 -3.80896,2.91858 c -2.09493,1.60521 -5.30224,3.81857 -7.12736,4.91857 -13.43568,8.09771 -17.37226,10.70663 -17.37226,11.51327 0,0.50818 -0.60084,0.6934 -1.33519,0.4116 -0.73436,-0.2818 -2.41795,0.3644 -3.74131,1.436 -2.38597,1.93204 -2.38996,1.96621 -0.47632,4.08077 1.06139,1.17282 2.58985,2.00325 3.39658,1.84538 0.80672,-0.15786 5.1094,1.51298 9.56151,3.71298 6.38647,3.15587 8.50569,4.76752 10.04209,7.63698 1.77074,3.30712 1.823,4.03268 0.57612,8 -0.75418,2.39966 -1.6922,4.73973 -2.08449,5.20015 -0.80717,0.94736 -2.34289,-1.07282 -2.53686,-3.33713 -0.47112,-5.49947 -3.71427,-8.95386 -10.90213,-11.6122 -1.9119,-0.7071 -1.90054,-0.75707 0.25787,-1.13432 1.24183,-0.21706 4.16683,0.65546 6.5,1.93892 3.3075,1.81944 4.31416,2.99167 4.56908,5.32059 0.17982,1.64285 0.79917,3.43701 1.37634,3.98701 2.03677,1.9409 0.0117,-7.64278 -2.08098,-9.84829 -2.33917,-2.46529 -13.40117,-8.32666 -17.12231,-9.07252 -2.45044,-0.49116 -9.12475,-9.20652 -9.63326,-12.57919 -0.51006,-3.38289 -2.50238,-10.38493 -3.46854,-12.19022 -0.64332,-1.20205 -1.85746,-1.81385 -3.21586,-1.62046 -1.95362,0.27812 -2.17323,0.8871 -2.09541,5.81068 0.11003,6.96161 3.54861,15.91751 7.65165,19.929 1.7336,1.69492 5.17764,4.06226 7.65342,5.26076 2.47578,1.19851 3.99392,2.34827 3.37366,2.55502 -0.62027,0.20676 -4.18432,-1.27443 -7.92013,-3.29152 -6.4414,-3.47794 -6.94875,-3.59316 -9.81895,-2.22995 -1.66462,0.79062 -4.60158,2.18535 -6.52658,3.09939 -1.925,0.91405 -5.3,2.27024 -7.5,3.01376 -3.43984,1.16253 -4.04486,1.80689 -4.32033,4.60123 -0.32035,3.24954 1.94533,7.04502 4.22532,7.07828 1.79162,0.0261 7.16401,5.24403 8.94151,8.68437 0.90943,1.76019 1.6535,5.40554 1.6535,8.10078 0,7.43102 1.58648,10.71422 7.08688,14.66585 4.9683,3.5694 5.9081,5.0347 3.70086,5.7705 -1.79539,0.5984 -5.78774,-0.3355 -5.78774,-1.354 0,-0.4859 -0.58529,-0.8834 -1.30064,-0.8834 -5.44355,0 -11.69936,-7.33993 -11.69936,-13.72683 0,-5.87118 -1.14749,-7.70717 -6.4821,-10.3714 -2.4687,-1.23293 -5.32978,-3.17772 -6.35795,-4.32176 -1.40567,-1.56409 -5.82795,-9.02392 -6.70849,-11.3164 -0.0499,-0.12998 -3.63848,0.44246 -7.97456,1.27209 -4.33608,0.82963 -10.37973,1.73786 -13.43034,2.01829 -6.77689,0.62297 -9.58285,3.43894 -10.56861,10.6063 -1.28399,9.33568 -0.0589,12.33078 8.56736,20.94551 6.75388,6.7448 7.90973,8.4115 8.48268,12.2322 0.85008,5.6687 -0.95637,14.4771 -4.59634,22.412 -2.8446,6.201 -4.47481,7.604 -5.55736,4.7829 z m 55.71133,-39.345 c -4.30613,-3.71333 -4.42473,-3.97693 -4.83648,-10.74733 -0.54468,-8.95634 -2.12611,-12.09583 -8.41781,-16.71123 -6.91685,-5.07399 -7.83133,-7.17458 -7.83133,-17.98886 0,-8.12986 -0.27436,-9.46512 -2.75,-13.3839 -3.39624,-5.37604 -7.28678,-5.9293 -6.29808,-0.89564 0.10381,0.52856 0.34069,5.25356 0.52639,10.5 0.56839,16.05821 3.29737,22.2022 12.05752,27.14612 6.69293,3.77725 7.10067,4.32015 7.80574,10.39291 0.88583,7.6296 1.48373,8.7497 6.50396,12.18463 6.47035,4.427 8.57561,4.1043 3.24009,-0.4967 z M 76.351616,960.91453 c 0.87888,-3.025 1.87658,-5.725 2.21712,-6 0.34054,-0.275 2.0809,-2.20316 3.86747,-4.2848 1.78656,-2.08163 3.2483,-3.50861 3.2483,-3.17105 0,0.33756 2.025,-1.41126 4.5,-3.88626 8.80796,-8.80795 2.9319,-11.88534 -6.61885,-3.4664 -1.44037,1.26968 -3.97402,3.43351 -5.63032,4.80851 -3.62879,3.01248 -6.25083,10.18521 -6.25083,17.09951 0,4.36083 -0.39891,5.36527 -3,7.55394 -1.65,1.38839 -3,3.21596 -3,4.06128 0,0.96522 1.68681,-0.0908 4.53458,-2.8389 3.34973,-3.23246 4.95212,-5.81294 6.13253,-9.87583 z m 34.143384,0.38951 c -0.29451,-4.6378 -0.44819,-4.8753 -2.98536,-4.61344 -1.47118,0.15184 -2.96024,-0.18566 -3.30902,-0.75 -0.34878,-0.56434 -1.70329,-1.02607 -3.01003,-1.02607 -1.306734,0 -3.642684,-0.52267 -5.190984,-1.16148 -1.54831,-0.63882 -3.22386,-1.06506 -3.72346,-0.94722 -0.4996,0.11785 -1.1746,-0.19883 -1.5,-0.70373 -0.3254,-0.50491 -1.51929,-1.20705 -2.65308,-1.56033 -2.40828,-0.75039 -8.43856,4.02957 -8.43856,6.68891 0,1.80107 3.11485,4.09682 7,5.15924 1.375,0.376 3.91019,1.31915 5.63376,2.09588 3.64398,1.64218 16.486684,3.3731 17.676734,2.38244 0.44577,-0.37108 0.67077,-2.87497 0.5,-5.5642 z m 31.70411,2.90763 c 5.24659,-1.72345 5.47058,-1.94065 5.46284,-5.29714 -0.0109,-4.72182 -1.20054,-6.46536 -3.60028,-5.27658 -1.03244,0.51145 -3.38974,1.01887 -5.23843,1.12761 -1.8487,0.10873 -4.0987,0.56317 -5,1.00987 -0.90131,0.4467 -3.56437,0.72496 -5.91793,0.61836 -4.78992,-0.21696 -5.23582,0.20065 -6.84514,6.41087 l -1.13766,4.39014 8.40285,-0.593 c 4.62156,-0.32615 10.86475,-1.40171 13.87375,-2.39013 z m 23.08175,-7.6442 c 1.597,-0.74088 5.74024,-2.64941 9.20721,-4.24116 5.25369,-2.41209 6.21364,-3.22868 5.76365,-4.90294 -0.29695,-1.10486 -0.54606,-2.79634 -0.55357,-3.75884 -0.0159,-2.0382 -1.75716,-2.21659 -5.69855,-0.58379 -1.54831,0.64141 -3.1301,1.20391 -3.5151,1.25 -0.385,0.0461 -1.2625,0.64629 -1.95,1.33379 -0.6875,0.6875 -2.2299,1.25 -3.42756,1.25 -2.9325,0 -4.49373,2.11263 -5.14401,6.96078 -0.60978,4.54628 0.31365,5.01375 5.31793,2.69216 z m -56.84497,-3.89879 c -0.35253,-1.05759 -6.30239,-3.14098 -15.501384,-5.42793 -3.45551,-0.85907 -2.66834,1.31318 1,2.7596 9.110444,3.59222 15.181734,4.70937 14.501384,2.66833 z m 30.52248,-0.62802 c 0.61937,-0.61937 1.88103,-1.12613 2.80369,-1.12613 0.92265,0 2.29515,-0.74754 3.05,-1.6612 1.227,-1.48516 1.10752,-1.60343 -1.12756,-1.11608 -1.375,0.2998 -6.66099,1.38484 -11.74665,2.41119 -5.08566,1.02635 -9.24816,2.24919 -9.25,2.71742 -0.005,1.23512 14.93521,0.11011 16.27052,-1.2252 z m 121.72613,-0.99127 c 0,-1.06407 -3.90065,-6.19186 -5.97651,-7.8567 -0.83792,-0.67202 -2.04572,-1.03909 -2.684,-0.81573 -0.63828,0.22336 -3.1808,-1.50223 -5.65005,-3.83466 -3.54533,-3.34888 -4.9312,-5.67068 -6.5895,-11.03961 -1.15497,-3.73936 -2.09994,-7.68026 -2.09994,-8.75757 0,-2.4125 -4.67618,-12.83059 -5.75904,-12.83059 -0.43238,0 -1.66173,-1.62584 -2.73187,-3.61298 -2.11886,-3.93448 -5.28201,-5.74259 -7.25909,-4.14941 -1.81294,1.46091 -1.53497,4.44798 0.70284,7.55288 1.07405,1.49023 2.22154,3.84223 2.54997,5.22668 0.5341,2.25146 -0.14829,2.99036 -6.46467,7 -3.88399,2.46555 -9.70574,6.39533 -12.93721,8.73283 -3.23147,2.3375 -6.60115,4.25 -7.48817,4.25 -0.88702,0 -1.61276,0.37797 -1.61276,0.83994 0,0.46197 -1.8,1.43399 -4,2.16006 -2.2,0.72607 -4,1.74116 -4,2.25577 0,1.50494 3.34887,6.74423 4.3108,6.74423 1.82848,0 13.73498,-7.0745 23.09781,-13.72407 2.14974,-1.52676 5.52474,-3.72761 7.5,-4.89077 2.8742,-1.69251 3.53391,-2.64107 3.30354,-4.75 -0.57817,-5.29297 3.04613,-2.22634 6.62302,5.60394 1.19066,2.60651 2.16483,5.20897 2.16483,5.78325 0,1.73535 4.73291,10.5111 6.42714,11.91718 0.87074,0.72265 3.60584,1.27331 6.07801,1.22369 2.47217,-0.0496 4.49485,0.34335 4.49485,0.87328 0,0.52992 0.66344,0.9635 1.47432,0.9635 0.81088,0 2.17243,1.35 3.02568,3 1.4556,2.81481 3.5,4.06182 3.5,2.13486 z M 73.434506,946.41618 c 1.2375,-1.91048 2.25,-3.9144 2.25,-4.45315 0,-1.75712 -6.16981,-7.39177 -6.86397,-6.2686 -0.36083,0.58384 -1.88906,1.37099 -3.39605,1.74922 -1.50699,0.37823 -2.73998,0.98242 -2.73998,1.34264 0,1.11099 7.00852,11.129 7.77657,11.11586 0.39788,-0.007 1.73593,-1.5755 2.97343,-3.48597 z m 33.576924,-0.87452 c -0.58849,-3.62644 -0.29492,-3.9996 3.94405,-5.01319 2.33856,-0.55918 3.46226,-10e-4 7.20107,3.57675 3.68555,3.52682 5.19464,4.28919 8.97903,4.53606 2.78178,0.18147 4.54892,-0.1241 4.54892,-0.78657 0,-0.59582 1.0125,-0.98906 2.25,-0.87385 1.2375,0.1152 4.1625,-0.13511 6.5,-0.55625 4.17303,-0.75183 4.25,-0.83892 4.25,-4.80915 0,-5.30301 2.21332,-7.70093 7.10807,-7.70093 3.35766,0 3.99069,0.40587 5.45895,3.5 1.815,3.82482 3.5153,4.27144 8.02934,2.10906 1.597,-0.76502 4.59114,-2.16629 6.65364,-3.11394 3.57387,-1.64208 3.75,-1.94865 3.75,-6.52727 0,-6.73749 0.67425,-7.96785 4.36644,-7.96785 2.9874,0 5.95751,2.66955 6.11923,5.5 0.0314,0.55 1.3328,0.86298 2.89194,0.6955 2.83148,-0.30414 5.70331,-1.96038 15.12239,-8.72138 2.75,-1.97394 6.6875,-4.74794 8.75,-6.16444 2.0625,-1.4165 3.75,-2.96565 3.75,-3.44257 0,-0.47691 0.9,-0.86711 2,-0.86711 2.55991,0 2.54766,-2.03405 -0.032,-5.31355 -2.23966,-2.84727 -1.83647,-7.68645 0.64041,-7.68645 0.76537,0 1.39159,-0.45 1.39159,-1 0,-0.55 1.3271,-1 2.94911,-1 2.19694,0 3.63203,0.89536 5.62673,3.51054 l 2.67762,3.51055 4.30647,-3.76055 c 2.36856,-2.0683 6.57366,-5.44477 9.34467,-7.50328 5.64988,-4.19714 5.72979,-5.20691 0.82569,-10.43389 -2.54542,-2.71301 -2.88455,-3.68758 -2.32363,-6.67751 0.54098,-2.88368 1.2012,-3.62046 3.74489,-4.17915 2.33949,-0.51383 3.72575,-0.16938 5.71829,1.42088 5.08319,4.05693 8.00155,5.25161 10.09361,4.13197 2.18782,-1.17088 14.92256,-15.34722 17.68977,-19.69229 0.99032,-1.555 2.03598,-3.05227 2.32368,-3.32727 1.35574,-1.29588 3.03496,-5.1718 2.56799,-5.92737 -0.28758,-0.46531 0.14718,-1.4021 0.96612,-2.08177 1.85933,-1.54311 1.90335,-3.40208 0.11569,-4.88571 -1.61496,-1.3403 -3.93581,-12.13604 -3.0854,-14.35218 0.32261,-0.8407 1.98109,-1.80745 3.68551,-2.14833 3.51689,-0.70338 6.77319,1.48426 6.77319,4.55035 0,1.01475 0.675,1.84501 1.5,1.84501 0.825,0 1.5,0.675 1.5,1.5 0,2.98898 1.82033,1.38753 4.38781,-3.86022 5.31048,-10.85422 8.07561,-27.75896 5.39385,-32.97543 -1.57029,-3.05447 -2.08884,-1.09234 -1.87265,7.08597 0.19754,7.47333 -0.39473,11.24702 -1.766,11.25203 -0.35365,10e-4 -0.49455,-3.65275 -0.31309,-8.12008 0.20008,-4.92583 -0.0951,-8.54744 -0.75,-9.20235 -0.77323,-0.77323 -1.07992,-0.76169 -1.07992,0.0406 0,0.6163 -1.34704,1.41641 -2.99342,1.77801 -3.52857,0.77501 -5.99858,-1.14342 -6.02189,-4.67712 -0.008,-1.27679 -0.37242,-2.88384 -0.80889,-3.57122 -0.43647,-0.68739 -0.42744,-4.51239 0.0201,-8.5 1.05818,-9.42948 0.63764,-10.80834 -4.1175,-13.50021 -5.99902,-3.39602 -7.45099,-3.06662 -6.61182,1.5 0.379,2.0625 1.09338,4.16679 1.58749,4.67621 1.41257,1.4563 -0.98275,3.57379 -4.04269,3.57379 -2.08013,0 -3.6227,-1.12813 -6.37756,-4.66411 -1.99862,-2.56524 -3.63382,-5.43514 -3.63382,-6.37753 0,-3.93004 -7.00187,-5.43295 -14.21728,-3.05165 -1.89853,0.62658 -6.78882,1.69399 -10.8673,2.37204 l -7.41542,1.23282 0.20095,4.36128 c 0.11363,2.46623 0.9455,5.18401 1.91447,6.2547 1.62496,1.79557 1.60073,2.01348 -0.46869,4.21628 -1.20021,1.27757 -2.93167,2.32286 -3.84769,2.32286 -1.79858,0 -5.29904,-2.5957 -5.29904,-3.9294 0,-0.45004 -1.01098,-2.26253 -2.24662,-4.02776 -1.23564,-1.76523 -2.34774,-3.38411 -2.47132,-3.5975 -0.30185,-0.52118 -9.64829,2.07507 -10.28206,2.85615 -0.275,0.33892 -3.27402,1.94646 -6.66449,3.57232 l -6.16448,2.9561 0.47182,6.00171 c 0.25951,3.30094 0.89603,6.42921 1.41449,6.95171 1.51262,1.52439 1.08721,6.7328 -0.71233,8.72126 -3.43155,3.79183 -10.27439,0.81989 -10.44469,-4.53627 -0.11166,-3.51162 -0.87012,-6.23961 -2.50015,-8.99234 -1.04475,-1.76433 -1.31461,-1.71425 -5.38903,1 -2.35906,1.57154 -5.80164,3.64839 -7.65017,4.61522 -3.81575,1.99573 -3.97095,2.41063 -1.79937,4.8102 0.85888,0.94905 1.81294,4.16078 2.12013,7.13718 0.44088,4.27164 0.20251,5.76765 -1.13153,7.10169 -2.31024,2.31024 -6.25982,3.16068 -8.87725,1.91148 -1.19512,-0.57038 -2.96045,-1.28875 -3.92295,-1.59636 -1.28478,-0.41061 -1.75,-1.63099 -1.75,-4.59068 0,-3.38547 -0.32547,-4.03138 -2.03138,-4.03138 -1.11727,0 -2.29041,0.675 -2.60699,1.5 -0.31659,0.825 -1.10696,1.5 -1.75639,1.5 -0.64943,0 -2.73879,1.33171 -4.64301,2.95936 -1.90423,1.62765 -3.98723,2.97765 -4.6289,3 -0.64166,0.0223 -1.31666,0.37814 -1.5,0.79064 -0.18333,0.4125 -2.69583,2.52997 -5.58333,4.70549 -2.8875,2.17551 -5.23999,4.42551 -5.22776,5 0.0122,0.57448 0.90222,2.16951 1.97776,3.54451 1.07554,1.375 1.96553,3.0625 1.97776,3.75 0.0122,0.6875 0.38623,1.25 0.83111,1.25 3.97807,0 6.63081,8.18641 3.43813,10.61015 -3.16684,2.40412 -5.35723,1.4648 -11.94406,-5.12202 l -6.51187,-6.51187 -3.64553,3.15616 c -10.22627,8.85351 -17.14553,16.03337 -17.14553,17.79129 0,0.3597 2.475,1.94887 5.5,3.53149 4.80804,2.51548 5.49999,3.25554 5.49999,5.88241 0,4.05681 -2.57098,6.66239 -6.57394,6.66239 -3.60087,0 -8.934794,-2.46673 -11.644724,-5.38524 -1.48972,-1.60438 -1.99178,-1.68499 -3.37009,-0.54109 -0.89078,0.73927 -2.02449,2.26263 -2.51937,3.38523 -0.49488,1.12261 -2.44313,4.0661 -4.32944,6.5411 -1.88631,2.475 -3.45953,4.84644 -3.49604,5.26987 -0.0365,0.42343 -1.15999,2.50225 -2.49661,4.6196 -1.33663,2.11734 -2.73212,5.45895 -3.1011,7.42579 -0.60897,3.24607 -1.00759,3.60415 -4.31978,3.8804 -5.0165,0.41841 -13.15222,-1.05612 -14.77369,-2.6776 -0.73672,-0.73672 -1.698,-1.49217 -2.13618,-1.67877 -0.43817,-0.18661 -2.56252,-2.47203 -4.72077,-5.07871 -4.37994,-5.28998 -8.56545,-7.15871 -15.45049,-6.89829 -4.82228,0.1824 -8.12079,2.45241 -10.66278,7.33805 -1.720471,3.30669 -1.830081,8.97457 -0.20499,10.59966 0.66,0.66 0.87344,1.2 0.47432,1.2 -0.39912,0 -0.02,1.36471 0.84259,3.0327 2.18201,4.21953 3.25466,2.98168 2.50177,-2.88708 -0.34929,-2.72268 -0.29559,-5.86804 0.11934,-6.98968 1.11969,-3.02682 5.33775,-5.3734 10.07154,-5.60298 3.86854,-0.18761 4.6504,0.24715 10.2394,5.69365 3.32807,3.24323 7.33917,6.57725 8.91356,7.40895 3.85927,2.03872 11.80756,2.75089 21.04303,1.88546 7.06677,-0.66221 7.74281,-0.92724 9.11016,-3.57141 1.79016,-3.46177 0.79837,-4.30676 -3.9987,-3.40682 -2.37368,0.4453 -3.51701,0.28427 -3.51701,-0.49534 0,-0.63532 0.5625,-1.06323 1.25,-0.95092 0.6875,0.11232 2.57995,-0.34197 4.20545,-1.00952 2.66115,-1.09287 3.13193,-0.98437 4.72776,1.08963 0.97478,1.26685 1.78232,3.47112 1.79455,4.89837 0.0374,4.36902 -2.92774,6.02214 -11.90552,6.63749 l -8.07224,0.55329 0,7.0571 c 0,5.48886 0.26667,6.79044 1.2,5.85711 2.05816,-2.05816 6.09108,-1.36903 8.51816,1.45554 3.20848,3.73394 2.91141,7.76175 -0.9302,12.61218 l -3.21204,4.05553 2.57169,-0.64545 c 1.86015,-0.46687 3.06252,-0.10309 4.34569,1.31479 1.58095,1.74694 4.1684,1.90286 3.12493,0.18831 -0.71399,-1.17317 7.63333,-1.21702 9.04252,-0.0475 1.79985,1.49374 1.70121,6.3213 -0.16075,7.86659 -0.825,0.68469 -1.5,1.60489 -1.5,2.04489 0,0.96951 6.997234,3.45971 8.750004,3.11399 0.6875,-0.1356 1.25,0.22317 1.25,0.79728 0,0.57411 0.87171,1.04384 1.93713,1.04384 1.64147,0 1.85359,-0.51479 1.38979,-3.37287 z m 6.91605,-19.78415 c -1.58305,-1.58305 -1.60833,-6.07763 -0.043,-7.64298 1.83709,-1.83709 5.28109,-1.43087 7.36185,0.86834 1.70826,1.88761 1.74089,2.30265 0.37344,4.75 -1.65186,2.95635 -5.69614,4.02081 -7.69231,2.02464 z m 6.75702,-3.93024 c 0,-2.78876 -3.48143,-4.28846 -5.43055,-2.33933 -2.21831,2.2183 -1.94708,4.34794 0.68055,5.34365 2.64757,1.00326 4.75,-0.3265 4.75,-3.00432 z m 22.51821,1.46261 c -2.26239,-2.26239 -1.51908,-5.5283 1.66345,-7.30876 2.4483,-1.3697 2.86165,-1.33737 4.75,0.37156 2.29921,2.08076 2.70543,5.52476 0.86834,7.36185 -1.70073,1.70073 -5.37041,1.48673 -7.28179,-0.42465 z m 6.55136,-0.95917 c 1.77963,-2.14433 -0.0125,-4.91618 -3.17856,-4.91618 -1.75927,0 -2.48018,0.63065 -2.7285,2.38691 -0.53415,3.77776 3.45377,5.4853 5.90706,2.52927 z m -51.797564,-4.68378 c -4.1861,-1.91342 -3.9746,-7.13457 0.3557,-8.78095 3.138394,-1.19322 5.258594,-0.2527 5.988784,2.65662 1.17803,4.69365 -2.24517,7.99807 -6.344484,6.12433 z m 4.797574,-2.31622 c 1.77963,-2.14433 -0.0125,-4.91618 -3.178564,-4.91618 -1.75927,0 -2.48018,0.63065 -2.7285,2.38691 -0.53415,3.77776 3.453774,5.4853 5.907064,2.52927 z m 67.81135,-7.31151 c -2.01203,-1.62925 -2.20049,-2.2961 -1.34238,-4.75 1.7881,-5.11334 9.46145,-4.13115 9.46145,1.21107 0,2.02621 -3.20577,5.43426 -5.11172,5.43426 -0.36669,0 -1.72,-0.8529 -3.00735,-1.89533 z m 6.06602,-1.54075 c 1.26549,-1.52482 -0.11406,-5.56392 -1.90035,-5.56392 -3.3363,0 -5.5553,4.15797 -3.37993,6.33333 1.14912,1.14913 4.03731,0.72828 5.28028,-0.76941 z m -50.44695,-6.74952 c -2.23419,-1.25649 -9.45871,-8.50531 -9.57431,-9.60651 -0.0409,-0.38934 -0.29322,-1.83289 -0.56077,-3.20789 -1.68167,-8.6423 -0.3546,-16.21943 4.51115,-25.75707 5.06966,-9.93737 16.19321,-14.99098 24.12393,-10.95989 3.70592,1.88368 6.09476,1.52011 10.09439,-1.5363 2.04645,-1.56384 4.84571,-2.73827 6.5,-2.72707 5.27662,0.0357 17.84767,2.63745 21.24854,4.39762 1.83861,0.9516 3.44475,1.5845 3.56919,1.40645 0.12444,-0.17806 1.08304,-3.24874 2.13022,-6.82374 2.34767,-8.01475 5.95549,-15.73723 8.80593,-18.84899 2.95745,-3.22856 10.95473,-7.15101 14.57984,-7.15101 2.167,0 4.08907,1.10546 6.95483,4 2.17812,2.2 4.39092,4 4.91732,4 1.5902,0 3.20195,5.27851 2.71537,8.89286 -2.19268,16.28711 -12.6496,28.10714 -24.86577,28.10714 -3.4288,0 -4.82775,0.46388 -5.5675,1.84612 -0.54341,1.01536 -3.57317,4.39036 -6.7328,7.5 -5.12697,5.04584 -6.19233,5.65388 -9.9064,5.65388 -4.71642,0 -13.849,-4.40344 -18.84472,-9.08633 -1.70414,-1.59743 -3.57631,-2.9065 -4.16038,-2.90904 -1.88701,-0.008 -5.25614,5.56877 -9.44626,15.63661 -2.25243,5.41203 -4.9158,10.74426 -5.9186,11.84941 -1.0028,1.10514 -2.34534,3.02185 -2.98342,4.25935 -0.92977,1.8032 -1.99711,2.24396 -5.37496,2.21959 -2.31815,-0.0167 -5.11482,-0.53656 -6.21482,-1.15519 z m 10.5,-1.88112 c 0,-0.5867 1.10177,-2.51121 2.44837,-4.2767 1.3466,-1.76549 4.1265,-7.24797 6.17755,-12.18328 2.05104,-4.93532 4.7109,-10.5483 5.91079,-12.4733 2.46133,-3.94874 8.29784,-9.92654 9.90313,-10.14286 5.00525,-0.67447 10.80493,-0.36682 14.56016,0.77234 2.475,0.7508 9.734,1.85101 16.13111,2.4449 11.44255,1.0623 11.71004,1.03954 16.5,-1.40404 7.81525,-3.98692 12.5717,-9.99428 14.93102,-18.85776 1.94135,-7.29323 1.82085,-10.53725 -0.43626,-11.74522 -2.365,-1.26571 -3.183,-0.34242 -10.12884,11.43264 -6.7565,11.45407 -9.53125,13.79007 -16.89246,14.22138 -4.80151,0.28133 -6.60758,-0.1783 -12.60457,-3.20777 -5.9205,-2.99082 -8.39596,-3.63244 -16.05206,-4.16057 -8.59151,-0.59266 -9.18182,-0.50305 -11.60231,1.76127 -2.67514,2.50253 -9.81388,13.5695 -13.14978,20.38569 -1.0767,2.2 -3.59935,7.375 -5.6059,11.5 -3.4944,7.18367 -3.7941,7.5 -7.10564,7.5 -4.05044,0 -5.5876,-2.32685 -6.27584,-9.5 -0.49174,-5.12505 0.35156,-7.97093 3.88361,-13.10597 2.94794,-4.28585 5.26873,-5.46296 13.64749,-6.92206 5.29971,-0.92291 6.55292,-1.54529 7.92485,-3.93573 1.60498,-2.79652 1.58959,-2.84679 -1.0174,-3.32351 -1.45586,-0.26622 -4.06901,-1.06886 -5.807,-1.78364 -2.58731,-1.06408 -3.94202,-1.0653 -7.47528,-0.007 -6.09754,1.82687 -10.94546,7.19178 -14.6914,16.2581 -3.189,7.71838 -3.67325,11.16238 -2.53643,18.03911 0.8613,5.21004 6.95571,11.44963 12.01186,12.298 2.11818,0.35541 4.30123,0.79882 4.85123,0.98536 1.88063,0.63783 2.5,0.49669 2.5,-0.56967 z m -4.78326,-10.68328 c 1.41455,-1.62142 12.78326,-24.47191 12.78326,-25.69365 0,-0.83389 -7.09978,0.47028 -10.688,1.96329 -1.7534,0.72957 -4.60818,3.27361 -6.34396,5.65343 -2.86738,3.93125 -3.10151,4.80144 -2.56044,9.51596 1.1077,9.65157 3.37299,12.49966 6.80914,8.56097 z m 57.20831,-16.34207 c 3.12501,-3.25928 5.40623,-6.37191 5.06938,-6.91695 -0.33686,-0.54504 -3.04507,-0.99098 -6.01826,-0.99098 -4.48347,0 -5.59929,0.36153 -6.53981,2.11891 -0.96209,1.79768 -1.79419,2.0445 -5.48861,1.62809 -2.70226,-0.30458 -5.53972,-1.48804 -7.4779,-3.11891 -3.6361,-3.05958 -7.96069,-3.40068 -10.30285,-0.81262 -1.54089,1.70266 -1.44178,2.00332 1.59501,4.83843 6.55271,6.11754 17.05091,10.71181 21.85959,9.56629 0.89189,-0.21247 4.17843,-3.05298 7.30345,-6.31226 z m -8.95606,-6.85776 c 0.53365,-0.86345 -3.28653,-3.61661 -4.46899,-3.22074 -0.275,0.0921 -1.98348,-0.11091 -3.79663,-0.45106 -4.54899,-0.85339 -4.88675,-0.0118 -0.99529,2.48004 3.43858,2.20181 8.25371,2.82145 9.26091,1.19176 z m 17.42212,-16.92454 c 2.5999,-8.23783 7.29186,-15.65177 11.17669,-17.66069 1.55808,-0.80572 4.91237,-1.46494 7.45397,-1.46494 3.9104,0 4.41786,-0.21353 3.29966,-1.38841 -0.72679,-0.76362 -2.10453,-2.33862 -3.06164,-3.5 -0.95712,-1.16137 -2.86051,-2.11159 -4.22977,-2.11159 -3.7133,0 -10.72192,3.03302 -13.30553,5.75803 -4.5879,4.83902 -12.28059,23.72415 -10.70335,26.27617 0.32829,0.53119 2.08268,0.9658 3.89864,0.9658 3.20505,0 3.36528,-0.20131 5.47133,-6.87437 z m 4.88876,5.316 c 2.03534,-1.4256 10.22013,-12.56273 10.22013,-13.90663 0,-0.31611 1.1252,-2.35718 2.50045,-4.53571 l 2.50044,-3.96096 -2.43882,-0.61211 c -3.14089,-0.78831 -7.45674,1.74679 -10.4765,6.15386 -2.15596,3.14641 -7.08557,15.29754 -7.08557,17.46541 0,1.43651 2.27765,1.14877 4.77987,-0.60386 z m -1.34172,46.49003 c -1.70893,-1.88835 -1.74126,-2.3017 -0.37156,-4.75 2.79,-4.98707 8.93341,-3.67661 8.93341,1.9056 0,4.73901 -5.26447,6.48796 -8.56185,2.8444 z m 7.37253,-2.72285 c 0.40822,-2.72439 -3.28293,-4.89169 -5.3746,-3.15576 -1.7177,1.42556 -1.86655,4.11648 -0.31361,5.66942 1.61199,1.61199 5.31525,-0.0245 5.68821,-2.51366 z m -52.97981,-6.45881 c -2.39435,-1.92919 -2.82506,-4.31328 -1.19873,-6.6352 1.62857,-2.3251 5.29024,-2.79242 7.16786,-0.9148 0.66,0.66 1.2,2.47114 1.2,4.02475 0,2.11205 -0.64719,3.07081 -2.5651,3.8 -3.14709,1.19652 -2.74849,1.22031 -4.60403,-0.27475 z m 5.15856,-2.23727 c 2.58962,-3.1203 -1.80264,-7.12809 -4.66975,-4.26098 -1.93702,1.93701 -0.85943,5.74825 1.62526,5.74825 0.9956,0 2.36561,-0.66927 3.04449,-1.48727 z m -60.38408,-0.81204 c -2.760994,-2.01889 -1.784664,-6.92639 1.61438,-8.11468 5.09759,-1.78209 8.90382,4.18223 4.95154,7.759 -2.20101,1.99189 -4.18154,2.09918 -6.56592,0.35568 z m 6.39466,-3.70069 c 0,-2.3093 -2.3463,-4.18808 -4.29593,-3.43993 -3.175894,1.2187 -3.082924,5.97419 0.13107,6.70425 2.17974,0.49513 4.16486,-1.06076 4.16486,-3.26432 z m 118.51713,-14.62572 c -1.95789,-1.95789 -1.63155,-6.28812 0.57808,-7.67067 4.97802,-3.1147 10.47916,3.79336 5.94475,7.46511 -2.78886,2.25828 -4.41875,2.30964 -6.52283,0.20556 z m 6.291,-3.53844 c 0.22967,-1.98569 -0.22822,-2.83439 -1.79799,-3.33262 -3.73587,-1.18572 -6.4515,2.65543 -3.77183,5.3351 2.09226,2.09226 5.22655,0.96541 5.56982,-2.00248 z m 22.19186,-9.83584 c -2.40751,-2.40751 -2.44663,-2.91734 -0.4433,-5.77749 1.69357,-2.41791 5.334,-2.93181 7.2433,-1.02251 1.90147,1.90147 1.45796,6.59158 -0.73426,7.76482 -2.74787,1.47061 -3.79721,1.30371 -6.06574,-0.96482 z m 5.41821,-0.60699 c 1.99548,-0.76573 2.04808,-3.76113 0.0945,-5.38244 -2.75454,-2.28607 -6.49885,0.97727 -5.1511,4.48943 0.60699,1.58179 2.42498,1.90285 5.05658,0.89301 z m -104.9706,-20.83263 c -1.57017,-2.39638 -1.57017,-2.72438 0,-5.12076 3.34697,-5.10813 10.95048,-0.8921 8.24141,4.56973 -1.77663,3.58192 -6.06752,3.86882 -8.24141,0.55103 z m 7.36307,-2.24272 c 0.40288,-2.82991 -3.23549,-5.03991 -5.3746,-3.26461 -1.52283,1.26384 -1.91307,4.13663 -0.7235,5.32619 1.55775,1.55776 5.78636,0.1282 6.0981,-2.06158 z m 103.17997,-5.62864 c -3.58192,-1.77663 -3.86882,-6.06752 -0.55103,-8.24141 2.39638,-1.57017 2.72438,-1.57017 5.12076,0 5.10813,3.34697 0.8921,10.95048 -4.56973,8.24141 z m 4.43594,-2.25847 c 1.97243,-1.97242 0.43643,-5.43055 -2.41208,-5.43055 -2.52676,0 -4.13601,2.90445 -2.89453,5.22418 1.17449,2.19455 3.23817,2.27481 5.30661,0.20637 z m -27.42659,-0.43055 c -2.40772,-2.40772 -2.53533,-4.32182 -0.42857,-6.42857 1.86505,-1.86505 5.54582,-2.05418 7.22857,-0.37143 1.68275,1.68275 1.49362,5.36352 -0.37143,7.22857 -2.10675,2.10676 -4.02085,1.97915 -6.42857,-0.42857 z m 6.06957,-1.58382 c 0.95388,-1.14936 1.02615,-2.04088 0.26345,-3.25 -1.33724,-2.11998 -4.31145,-2.14749 -5.63318,-0.0521 -2.38692,3.78405 2.48388,6.77933 5.36973,3.3021 z m 50.93043,1.64284 c 0,-0.51754 0.424,-1.20303 0.94222,-1.52331 0.51822,-0.32028 1.24432,-2.59684 1.61355,-5.05902 0.36922,-2.46218 1.10598,-4.47669 1.63723,-4.47669 1.08987,0 0.26511,5.01497 -1.52125,9.25 -1.12592,2.66928 -2.67175,3.71594 -2.67175,1.80902 z m -118.59196,-2.55902 c -1.51741,-2.31587 -1.51741,-2.68413 0,-5 1.01066,-1.54245 2.57796,-2.5 4.09196,-2.5 1.514,0 3.0813,0.95755 4.09196,2.5 1.51741,2.31587 1.51741,2.68413 0,5 -1.01066,1.54245 -2.57796,2.5 -4.09196,2.5 -1.514,0 -3.0813,-0.95755 -4.09196,-2.5 z m 7.59196,-2.5 c 0,-2.62432 -3.63368,-4.54891 -5.56392,-2.94695 -3.35622,2.78541 -0.0452,7.8785 3.7881,5.82697 0.9767,-0.52271 1.77582,-1.81872 1.77582,-2.88002 z m 96.51714,-9.62572 c -4.31667,-4.31666 1.92821,-10.99619 6.45258,-6.90168 2.51887,2.27954 2.59017,4.71073 0.20154,6.87241 -2.31471,2.09478 -4.57865,2.10474 -6.65412,0.0293 z m 6.28112,-2.96179 c 0.57102,-3.9966 -4.75425,-5.57552 -6.18956,-1.83517 -0.99816,2.60116 0.50685,4.5471 3.26905,4.22678 1.77127,-0.20541 2.71904,-0.98154 2.92051,-2.39161 z m -79.59826,1.38751 c -2.79495,-2.79495 -0.25888,-8.8 3.71644,-8.8 2.14043,0 5.08356,3.04372 5.08356,5.25731 0,3.82188 -6.07511,6.26758 -8.8,3.54269 z m 5.6,-1 c 2.96225,-2.96225 -0.13,-7.34318 -3.6264,-5.1377 -2.27351,1.43408 -2.47361,2.89483 -0.64681,4.72163 1.93125,1.93125 2.68467,2.00461 4.27321,0.41607 z m 15.95,-9.8801 c -2.01024,-1.17086 -2.34868,-5.92122 -0.55,-7.7199 1.76719,-1.76719 5.25444,-1.46032 7.14501,0.62874 2.15105,2.37688 2.09544,4.46269 -0.17375,6.51627 -2.08037,1.88271 -3.89668,2.04533 -6.42126,0.57489 z m 6.25,-3.75508 c 0,-1.78423 -1.78827,-4.16482 -3.12857,-4.16482 -1.01072,0 -3.87143,2.95572 -3.87143,4 0,0.47143 0.70625,1.56339 1.56945,2.42659 1.92387,1.92387 5.43055,0.46337 5.43055,-2.26177 z m 23.57143,2.26375 c -2.08791,-2.08791 -1.98707,-4.74245 0.25731,-6.77358 2.29668,-2.07847 4.57607,-2.10733 6.59983,-0.0836 3.03271,3.03275 0.83779,8.42861 -3.42857,8.42861 -1.02143,0 -2.56429,-0.70714 -3.42857,-1.57143 z m 6.92058,-2.26835 c 0.89714,-2.33791 -3.24149,-5.61303 -5.1214,-4.05284 -1.64399,1.36439 -1.78338,4.07985 -0.28628,5.57695 1.43541,1.43541 4.616,0.53898 5.40768,-1.52411 z m -96.82554,149.12258 c 8.82796,-4.47001 6.28946,-6.08999 -2.89432,-1.84705 -2.89968,1.33967 -6.05965,2.67555 -7.02215,2.96862 -0.9625,0.29307 -1.75,1.05323 -1.75,1.68925 0,1.6844 5.32017,0.4026 11.66647,-2.81082 z m -91.859464,-2.36179 c -0.52689,-1.5807 -5.6077,-4.45365 -6.42711,-3.63423 -1.07331,1.0733 2.67876,4.71322 4.85843,4.71322 1.06059,0 1.7665,-0.48555 1.56868,-1.07899 z M 197.50643,929.2039 c 6.11513,-3.5433 23.58287,-16.17562 24.0114,-17.36456 0.68303,-1.89502 -1.78802,-0.79949 -7.97127,3.53404 -13.93033,9.76307 -21.34819,14.54115 -22.5748,14.54115 -0.708,0 -1.28726,0.45 -1.28726,1 0,1.74261 2.99124,1.08844 7.82193,-1.71063 z M 61.437836,926.13548 c 2.09581,-1.61332 2.25829,-2.53069 2.32431,-13.12282 0.075,-12.0312 -0.29588,-13.05146 -4.75568,-13.08282 -1.88761,-0.0133 -2.25783,0.68477 -2.77631,5.23469 -0.92558,8.12231 0.57771,22.79008 2.32935,22.72776 0.34375,-0.0122 1.639,-0.80279 2.87833,-1.75681 z m 6.24667,-14.27997 c 0,-4.62732 -0.41729,-7.94098 -1,-7.94098 -0.58878,0 -1,3.51967 -1,8.55902 0,5.45136 0.36308,8.33462 1,7.94098 0.55,-0.33992 1,-4.19148 1,-8.55902 z M 246.18358,895.45727 c 8.20226,-7.56532 9.94044,-11.41884 2.43552,-5.3995 -7.26465,5.82662 -12.9346,11.07992 -12.9346,11.98412 0,2.18375 3.10113,0.23884 10.49908,-6.58462 z m 65.92949,-0.11417 c 2.2665,-2.2665 1.96016,-2.67286 -1.4503,-1.9238 -4.35481,0.95648 -10.78207,-0.3778 -12.93103,-2.68444 -2.53164,-2.71739 -8.64983,-3.98163 -13.28704,-2.74558 -5.37982,1.43399 -13.67215,0.1042 -16.40753,-2.63117 -4.75727,-4.75727 -16.64342,-13.44358 -18.39589,-13.44358 -2.31186,0 -3.31354,1.54009 -2.24433,3.45067 2.08466,3.72507 14.14591,14.94256 18.02916,16.7679 3.70935,1.7436 5.50213,1.94223 12.54316,1.38968 11.92646,-0.93594 14.55751,-0.74371 19.11963,1.39696 5.07364,2.38068 12.84779,2.59975 15.02417,0.42336 z M 70.243386,889.83215 c 1.41985,0.0195 2.42706,-0.97201 3.24509,-3.19464 0.65242,-1.77264 4.56342,-8.35285 8.69112,-14.62269 4.1277,-6.26983 7.50491,-11.78233 7.50491,-12.25 0,-2.64084 -2.70694,0.34954 -9.1574,10.11623 -3.98359,6.03159 -7.40418,10.80523 -7.60132,10.60809 -0.73361,-0.7336 2.94939,-8.20001 5.80387,-11.76597 1.62517,-2.03025 2.95485,-4.14223 2.95485,-4.6933 0,-0.55106 0.7875,-1.59543 1.75,-2.32081 4.07177,-3.06868 5.79016,-11.27142 2.8691,-13.69568 -1.09281,-0.90695 -1.97945,-0.41259 -4.25,2.36964 -1.578,1.93362 -4.14101,4.98174 -5.69556,6.7736 -1.55455,1.79185 -4.10533,5.75983 -5.6684,8.81774 -1.56306,3.05791 -3.55366,6.15051 -4.42354,6.87245 -0.86988,0.72193 -1.5816,2.27667 -1.5816,3.45497 0,1.1783 -0.9,3.82157 -2,5.87393 -3.40918,6.36079 -2.35107,9.23131 3,8.1386 1.375,-0.28078 3.4265,-0.49775 4.55888,-0.48216 z m 207.159324,-9.69226 c 7.53467,-7.5234 13.79102,-14.78363 18.85611,-21.88171 l 4.67685,-6.55402 -2.99051,-2.99051 -2.99051,-2.99051 -5.38507,7.16337 c -7.14998,9.51108 -17.69005,21.87842 -21.26032,24.94609 l -2.87523,2.47048 2.87523,2.30076 c 1.58138,1.26541 3.19843,2.30299 3.59345,2.30572 0.39501,0.003 2.87001,-2.14362 5.5,-4.76967 z m -1.245,-13.47536 c 7.94321,-9.73671 15.52679,-20.42575 15.52679,-21.88497 0,-2.30627 -2.10842,-0.33463 -4.86455,4.54896 -3.30322,5.85298 -17.62644,23.58601 -19.05076,23.58601 -0.47889,0 -1.12973,0.675 -1.44632,1.5 -0.34652,0.90302 -0.006,1.5 0.85654,1.5 0.78768,0 4.82791,-4.1625 8.9783,-9.25 z m -167.4732,-4.9035 c 0,-1.15206 -1.2851,-2.63115 -3.1652,-3.64301 -6.283724,-3.38185 -10.291334,-7.82311 -12.244594,-13.5695 -2.1921,-6.44905 -4.51348,-8.92153 -11.78999,-12.55738 -5.93652,-2.9663 -9.31851,-7.2659 -10.30415,-13.0999 -0.66281,-3.9231 -2.53766,-5.62573 -2.45194,-2.22671 0.17913,7.10312 6.87505,19.25 10.61148,19.25 2.64324,0 8.12027,5.99178 8.80283,9.63014 0.37311,1.98884 1.03334,4.34818 1.46718,5.24297 4.56908,9.42367 6.10711,10.98791 12.516364,12.72971 4.84244,1.31599 6.55802,0.85654 6.55802,-1.75632 z M 443.05843,847.2435 c 5.06998,-5.73961 8.55338,-11.24851 8.59486,-13.59254 0.0172,-0.96996 0.44131,-2.54496 0.94255,-3.5 0.50124,-0.95504 1.63063,-3.78797 2.50976,-6.29541 1.91917,-5.47385 10.92912,-21.50096 13.93394,-24.78603 2.88998,-3.15952 6.34417,-4.73231 11.13233,-5.06886 2.19305,-0.15415 5.23055,-0.92314 6.75,-1.70888 3.44845,-1.78326 3.78387,-5.34626 0.51263,-5.44552 -23.89031,-0.72489 -28.76442,1.83133 -34.45192,18.06827 -2.6626,7.60134 -10.50675,23.05412 -14.11989,27.81585 -5.34797,7.04805 -14.94383,9.29685 -21.8707,5.12542 -9.33418,-5.62115 -15.39464,-13.2975 -24.72287,-31.31466 -7.92284,-15.30272 -13.52291,-20.11994 -24.50262,-21.07733 -10.54808,-0.91976 -24.2928,-3.62157 -28.082,-5.52009 -8.29003,-4.1536 -16.29206,-6.02064 -24.25198,-5.65849 -6.61602,0.301 -7.49525,0.15776 -6,-0.97749 0.96359,-0.73159 3.21448,-1.61943 5.00198,-1.97298 3.73026,-0.7378 3.61701,-0.52062 2.05686,-3.94479 -0.73046,-1.60317 -0.82741,-2.88174 -0.25,-3.29705 0.51873,-0.37312 1.97848,-2.74107 3.2439,-5.26212 3.80377,-7.57816 7.9187,-11.74611 14.74985,-14.93993 3.50129,-1.63699 6.94725,-2.98074 7.65769,-2.98611 4.16352,-0.0315 23.25424,-12.16547 27.79662,-17.66741 0.8277,-1.00255 4.76619,-5.87282 8.75221,-10.82282 12.41857,-15.42191 15.34898,-18.51345 19.61012,-20.68841 5.31578,-2.71326 12.63569,-2.56024 17.55426,0.36697 5.52208,3.28638 13.02486,8.304 19.07849,12.75908 3.025,2.22621 6.625,4.59752 8,5.26958 1.375,0.67207 4.09688,2.19882 6.04862,3.39278 1.95175,1.19396 6.11899,2.98108 9.26055,3.97137 l 5.71192,1.80052 3.54525,-3.43594 c 3.16844,-3.07075 13.36207,-18.91072 17.88628,-27.79365 2.12796,-4.17809 1.36336,-8.1423 -1.57046,-8.1423 -2.15543,0 -7.88214,5.34423 -7.88219,7.35576 -3e-5,1.20986 -6.31321,6.64424 -7.7187,6.64424 -0.45407,0 -2.39061,1.28277 -4.30343,2.8506 -5.26163,4.31266 -10.12916,5.60053 -15.78485,4.17641 -2.56603,-0.64613 -5.49284,-1.92904 -6.50401,-2.8509 -4.71315,-4.29687 -7.94059,-8.18334 -10.93518,-13.16812 -4.91183,-8.1762 -7.98621,-9.40048 -22.85332,-9.10073 -3.27365,0.066 -5.80488,0.90227 -8.78099,2.90105 -6.03725,4.05466 -35.29073,33.14532 -38.71648,38.50098 -3.48187,5.4434 -6.88471,7.49457 -19.40301,11.69579 -5.225,1.75355 -9.98885,3.58874 -10.58633,4.07821 -0.59749,0.48946 -3.06444,1.58785 -5.48213,2.44086 -5.33787,1.88331 -17.63946,10.06157 -19.023,12.64674 -0.55057,1.02875 -0.7578,2.26399 -0.46053,2.74499 0.29728,0.481 -0.11362,1.12556 -0.9131,1.43235 -1.76664,0.67792 -6.53491,9.82437 -6.53491,12.53519 0,1.07245 -0.41927,2.09991 -0.93171,2.28325 -1.00917,0.36104 -2.93436,12.73511 -2.28463,14.68432 0.2369,0.7107 1.19161,0.17888 2.37143,-1.32102 1.08618,-1.38086 1.69726,-2.95985 1.35796,-3.50886 -0.36833,-0.59596 0.0667,-0.73586 1.07962,-0.34718 1.05637,0.40537 2.18986,-0.0236 3.00389,-1.13688 1.29723,-1.77405 4.40344,-1.52375 4.40344,0.35484 0,1.85409 -5.11279,7.00206 -6.44608,6.49043 -0.74339,-0.28527 -1.69596,0.0385 -2.11681,0.71945 -0.53391,0.86387 -0.26222,1.0451 0.89885,0.59955 1.04996,-0.40291 1.66404,-0.13607 1.66404,0.72308 0,0.74889 -0.675,1.62064 -1.5,1.93723 -1.65507,0.63511 -2.02217,3.19762 -0.5853,4.08565 0.50308,0.31092 4.58378,-0.78752 9.06822,-2.44098 4.48443,-1.65347 9.90165,-3.0063 12.03825,-3.0063 4.07152,0 8.97883,1.72735 8.97883,3.16052 0,0.46171 0.6375,0.83948 1.41667,0.83948 0.77916,0 1.60289,0.55869 1.83051,1.24153 0.39615,1.18845 7.42153,1.76142 22.84632,1.86329 5.11312,0.0338 6.05768,0.4177 10.99847,4.47063 2.97274,2.43853 5.56071,3.9665 5.75105,3.3955 0.19033,-0.57101 -0.21013,-1.70837 -0.88992,-2.52746 -1.03724,-1.2498 -0.93184,-1.38029 0.65546,-0.81151 2.52229,0.90382 6.31059,5.43682 6.35548,7.60486 0.0537,2.59362 7.92044,15.34876 12.91615,20.94228 4.8943,5.47997 13.56234,12.42035 19.61981,15.7093 2.2,1.19451 6.475,3.55383 9.5,5.24294 6.48037,3.61852 12.37955,5.70877 16.37393,5.80174 2.20909,0.0514 3.82843,-1.01368 7,-4.60413 z M 119.62064,831.4348 c 2.15604,-0.6843 3.61576,-3.53814 1.78248,-3.48483 -2.94133,0.0855 -10.56475,6.43708 -19.0026,15.83225 -7.059634,7.8606 -2.837664,5.86538 6.27505,-2.96546 4.98628,-4.83206 9.91157,-9.05394 10.94507,-9.38196 z m -16.10589,7.72973 c 3.27651,-3.1625 8.25509,-7.83119 11.06351,-10.37486 4.73901,-4.29226 5.10624,-4.95749 5.10624,-9.25 0,-2.79328 -0.45116,-4.62514 -1.1391,-4.62514 -1.17261,0 -14.06919,10.82176 -14.73134,12.36134 -0.20374,0.47374 -1.32874,1.66518 -2.5,2.64764 -1.17125,0.98247 -3.456024,2.89816 -5.077264,4.2571 -2.85824,2.3958 -2.91013,2.59618 -1.70985,6.60235 0.68081,2.27237 1.64119,4.13157 2.13417,4.13157 0.49299,0 3.577124,-2.5875 6.853634,-5.75 z m 206.65415,-2.5 c 0.98328,-2.3375 1.72654,-4.5875 1.65169,-5 -0.0749,-0.4125 0.33364,-0.75 0.90775,-0.75 0.57411,0 0.93588,-0.5625 0.80395,-1.25 -0.36526,-1.90329 1.15912,-5.75 2.27861,-5.75 0.5454,0 0.71352,-0.45 0.3736,-1 -0.33992,-0.55 -0.11115,-1 0.50837,-1 0.67133,0 0.86995,-0.80801 0.49163,-2 -0.34913,-1.1 -0.2107,-2 0.30761,-2 0.9033,0 2.64153,-5.58038 2.29108,-7.35526 -0.0929,-0.47039 0.28975,-1.40785 0.85028,-2.08325 0.56052,-0.67539 1.31896,-5.80302 1.6854,-11.39474 l 0.66627,-10.16675 -3.60327,0 c -1.98179,0 -4.74159,0.51866 -6.13289,1.15257 -2.37175,1.08064 -2.5251,1.59552 -2.45717,8.25 0.0818,8.01653 -1.54789,18.61996 -3.55,23.09743 -0.73781,1.65 -2.54437,5.66498 -4.01458,8.92217 -2.99197,6.62855 -2.76752,10.1475 0.73719,11.55774 3.72725,1.49978 4.35165,1.17473 6.20448,-3.22991 z m -170.873,-21.74059 c 2.65604,-2.19482 6.24304,-4.66152 7.97112,-5.48154 1.72808,-0.82003 3.73368,-2.20394 4.45689,-3.07535 0.72321,-0.87142 2.63691,-2.26802 4.25266,-3.10355 2.12791,-1.10039 2.63597,-1.82093 1.84304,-2.61386 -1.25225,-1.25225 -4.29781,0.073 -8.29835,3.61103 -1.33949,1.18462 -3.53824,2.78774 -4.8861,3.56249 -3.5224,2.02466 -11.95066,9.25205 -11.95066,10.24791 0,1.66449 1.86027,0.77897 6.6114,-3.14713 z m -0.63002,-6.47668 c 3.01476,-2.53164 7.85226,-5.94102 10.75,-7.5764 2.89774,-1.63539 5.26862,-3.39847 5.26862,-3.91796 0,-0.5195 -1.53967,-1.67516 -3.4215,-2.56814 l -3.42149,-1.62361 -7.32851,5.0178 c -4.03067,2.75978 -8.83465,6.28749 -10.6755,7.83935 l -3.347,2.82156 1.7252,3.61778 c 1.50084,3.14729 1.93611,3.44708 3.347,2.30519 0.89199,-0.72192 4.08842,-3.38393 7.10318,-5.91557 z m 43.81263,-21.55497 c 1.38598,-0.0436 5.66405,-3.85304 5.0343,-4.48278 -0.78843,-0.78843 -10.64931,3.78977 -14.23112,6.60723 -4.34053,3.41426 -1.88624,4.01633 3.47832,0.85327 2.75688,-1.62551 5.3302,-2.96549 5.7185,-2.97772 z m 121.70599,-7.97776 c 0.33992,-0.55 0.14148,-1 -0.44098,-1 -0.58246,0 -1.05902,0.45 -1.05902,1 0,0.55 0.19844,1 0.44098,1 0.24254,0 0.7191,-0.45 1.05902,-1 z m -70.43333,-6.75584 c -0.73976,-2.60929 -1.40539,-9.46916 -1.47918,-15.24416 -0.10084,-7.89268 -0.57669,-11.36911 -1.91628,-14 -0.98016,-1.925 -2.31966,-4.5578 -2.97666,-5.85067 -0.69882,-1.37516 -4.41074,-3.97349 -8.94455,-6.26116 -8.0469,-4.0603 -8.30809,-4.42682 -7.75889,-10.88817 0.2631,-3.09537 1.58829,-5.75492 4.48448,-9 2.72805,-3.05667 3.75511,-5.73939 2.49536,-6.51796 -1.12354,-0.69438 -6.98316,7.32681 -8.64487,11.8339 -1.83745,4.98376 -1.56613,12.2932 0.61501,16.56858 2.23115,4.37342 8.35,10.11548 10.77926,10.11548 0.90791,0 2.69225,0.97844 3.9652,2.17431 2.11072,1.98292 2.31445,3.02806 2.31445,11.87289 0,7.69713 0.43902,10.70502 2.12739,14.57568 2.7907,6.39776 3.89694,7.75279 5.23607,6.41366 0.73097,-0.73097 0.64114,-2.48411 -0.29679,-5.79238 z m -22.17272,-0.74416 c 5.39941,-2.475 10.36962,-4.5 11.04491,-4.5 0.67529,0 1.03112,-0.5625 0.79073,-1.25 -0.24039,-0.6875 -1.29039,-1.11604 -2.33333,-0.95231 -3.23255,0.50746 -20.39626,9.05658 -20.39626,10.15922 0,1.51496 0.15405,1.46608 10.89395,-3.45691 z m -7.39395,-1.55832 c 1.65,-0.70044 3.62131,-1.39267 4.3807,-1.5383 0.75938,-0.14563 1.86188,-0.74596 2.45,-1.33408 0.58811,-0.58811 1.8793,-1.0693 2.8693,-1.0693 0.99,0 1.8,-0.49814 1.8,-1.10699 0,-0.60884 0.66059,-0.8535 1.46797,-0.54367 0.80739,0.30982 1.73395,0.13297 2.05902,-0.39301 0.32508,-0.52598 1.42106,-0.95633 2.43551,-0.95633 1.50669,0 1.91906,-0.96143 2.25174,-5.25 0.224,-2.8875 0.37512,-5.32981 0.33583,-5.42735 -0.13439,-0.33364 -10.04467,3.32699 -14.05007,5.18977 -2.2,1.02315 -6.8125,3.14941 -10.25,4.72501 -3.4375,1.5756 -6.25,3.04102 -6.25,3.25649 0,0.21547 0.93412,1.97498 2.07583,3.91004 1.60915,2.7273 2.45222,3.32639 3.75,2.66476 0.92079,-0.46944 3.02417,-1.4266 4.67417,-2.12704 z m 72.96291,-6.63646 c -2.58536,-6.86867 -2.56816,-9.15126 0.13043,-17.30522 2.25936,-6.82683 5.6976,-15.33997 6.7944,-16.82309 0.53816,-0.7277 1.1814,-5.18961 1.42944,-9.91537 0.39266,-7.48115 0.21495,-8.76488 -1.37423,-9.92691 -2.6797,-1.95945 -3.76162,-1.63279 -3.03172,0.91537 1.51156,5.27697 1.63572,13.04085 0.23418,14.64218 -2.18413,2.49548 -7.63374,13.99494 -9.599,20.25529 -2.25126,7.17139 -1.97678,13.02383 0.90762,19.35253 3.08875,6.77705 3.98347,7.79676 5.63698,6.42447 1.08593,-0.90124 0.88192,-2.27911 -1.1281,-7.61925 z m 14.30864,-0.62646 c -3.84079,-2.86757 -10.65401,-5.67796 -11.28601,-4.65537 -0.30776,0.49797 1.59459,2.01053 4.22745,3.36124 2.63285,1.35071 5.68701,3.13528 6.78701,3.96572 1.39173,1.05067 2.12301,1.16209 2.40447,0.36636 0.22246,-0.62894 -0.73736,-1.99601 -2.13292,-3.03795 z m -43.27155,-2.81582 c 2.2,-0.48758 6.91522,-1.34392 10.47826,-1.90298 3.56304,-0.55906 6.93804,-1.50646 7.5,-2.10534 2.0648,-2.20043 -23.96036,1.29415 -26.18184,3.51562 -1.06117,1.06118 0.99442,2.72887 2.55473,2.07265 0.90687,-0.3814 3.44885,-1.09238 5.64885,-1.57995 z m 49.95785,-3.2008 c 1.39818,-2.38582 2.53515,-4.74832 2.5266,-5.25 -0.024,-1.40815 -8.98311,-5.34668 -13.75661,-6.04757 -2.34969,-0.345 -4.54891,-1.07506 -4.88716,-1.62236 -1.04786,-1.69547 -3.08544,4.63679 -2.58631,8.03757 0.35796,2.43892 0.99099,3.23995 2.60913,3.30153 1.17507,0.0447 4.3865,1.33935 7.1365,2.87695 2.75,1.53761 5.31853,2.85102 5.70785,2.91869 0.38931,0.0677 1.85181,-1.82899 3.25,-4.21481 z m -54.45785,-1.25198 c 13.01616,-3.04295 14.57085,-3.3238 18.63606,-3.36661 3.70341,-0.039 4.30488,-0.39932 5.75,-3.44468 0.88767,-1.87062 1.61394,-3.89562 1.61394,-4.5 0,-1.57118 -8.29766,-1.37744 -16,0.37359 -3.575,0.81273 -8.975,1.95084 -12,2.52913 -7.49521,1.43287 -8.85608,2.36283 -7.25,4.95433 0.6875,1.10932 1.25,2.69805 1.25,3.53051 0,1.82192 -0.12455,1.8231 8,-0.0763 z m -73.55385,19.50271 c -0.36954,-0.59793 -0.17109,-1.58793 0.44098,-2.2 0.81716,-0.81716 1.11287,-0.52829 1.11287,1.08713 0,2.41451 -0.51946,2.78655 -1.55385,1.11287 z"
       id="path7074"
       inkscape:connector-curvature="0" />
  </g>
</svg>
