<?xml version="1.0" encoding="UTF-8" standalone="no"?>
<!-- Created with Inkscape (http://www.inkscape.org/) -->
<svg xmlns:dc="http://purl.org/dc/elements/1.1/" xmlns:cc="http://creativecommons.org/ns#" xmlns:rdf="http://www.w3.org/1999/02/22-rdf-syntax-ns#" xmlns:svg="http://www.w3.org/2000/svg" xmlns="http://www.w3.org/2000/svg" xmlns:sodipodi="http://sodipodi.sourceforge.net/DTD/sodipodi-0.dtd" xmlns:inkscape="http://www.inkscape.org/namespaces/inkscape" width="627.04022" height="862.64819" id="svg18273" version="1.1" inkscape:version="0.48.1 r9760" sodipodi:docname="Nouveau document 2">
  <defs id="defs18275">
    <filter height="1.1448742" y="-0.072437122" width="1.6743641" x="-0.33718207" id="filter6074-3" inkscape:collect="always" color-interpolation-filters="sRGB">
      <feGaussianBlur id="feGaussianBlur6076-9" stdDeviation="4.5929567" inkscape:collect="always"/>
    </filter>
    <filter color-interpolation-filters="sRGB" inkscape:collect="always" id="filter15895">
      <feGaussianBlur inkscape:collect="always" stdDeviation="6.2446699" id="feGaussianBlur15897"/>
    </filter>
  </defs>
  <sodipodi:namedview id="base" pagecolor="#ffffff" bordercolor="#666666" borderopacity="1.0" inkscape:pageopacity="0.0" inkscape:pageshadow="2" inkscape:zoom="0.35" inkscape:cx="317.57014" inkscape:cy="419.13633" inkscape:document-units="px" inkscape:current-layer="layer1" showgrid="false" fit-margin-top="0" fit-margin-left="0" fit-margin-right="0" fit-margin-bottom="0" inkscape:window-width="1600" inkscape:window-height="880" inkscape:window-x="-12" inkscape:window-y="-3" inkscape:window-maximized="1"/>
  <g inkscape:label="Calque 1" inkscape:groupmode="layer" id="layer1" transform="translate(-57.429864,-88.850332)">
    <g id="g18577">
      <path style="fill:#d4af94;fill-opacity:1;stroke:#3c3c3c;stroke-width:12.37064934;stroke-linecap:round;stroke-linejoin:miter;stroke-miterlimit:4;stroke-opacity:1;stroke-dasharray:none" d="m 204.30434,158.80654 c 0,0 -3.05664,-50.06565 -42.79304,-50.06565 -39.73637,0 -45.84966,25.03283 -42.79301,62.58206 3.05664,37.54927 64.51245,82.07059 47.37798,118.90595 -30.56646,65.7112 -76.416144,7.82275 -99.340962,97.00224 -14.002134,54.46939 64.189562,237.8119 158.945552,244.0701 94.756,6.25821 161.29735,-147.67401 234.65683,-144.54491 73.35952,3.12911 142.13402,140.02323 114.62421,202.60531 -27.50981,62.58208 -113.33036,156.79917 -186.68983,159.92829 -73.3595,3.12909 -96.87335,76.14711 -58.66528,88.66353 38.20805,12.51641 122.26581,12.51641 180.34205,-28.16195 C 568.04511,869.11315 676.85327,777.92646 675.02769,687.62514 672.54091,564.61755 586.38499,368.45651 451.8926,390.36023 317.40021,412.26397 297.53201,513.95987 239.45574,517.08896 c -58.07624,3.12911 -72.18426,-57.71647 -78.29755,-98.39484 -5.19644,-34.5776 90.52414,-45.54395 84.41084,-104.99693 -6.11329,-59.45297 -41.26469,-154.89065 -41.26469,-154.89065 z" id="path15815" inkscape:connector-curvature="0" sodipodi:nodetypes="csssssssszssssssc"/>
      <path transform="matrix(2.5526931,0,0,2.5526931,-1726.943,-95.747359)" style="fill:none;stroke:#ffffff;stroke-width:9.27464771;stroke-linecap:round;stroke-linejoin:miter;stroke-miterlimit:4;stroke-opacity:1;stroke-dasharray:none;display:inline;filter:url(#filter15895)" d="m 818.68865,390.18536 c 18.09962,-1.36055 36.9352,-3.70946 46.37566,-10.24928 22.83314,-15.81751 60.678,-45.39346 59.96284,-80.76838 -0.97418,-48.18738 -35.88658,-96.16657 -77.23302,-89.83047 -22.01444,3.37358 -64.38455,49.20228 -87.13553,50.42808 -22.75097,1.22581 -34.54146,-50.01402 -36.9363,-65.94949 -2.03567,-13.54554 35.46221,-17.84153 33.06737,-41.13183 -2.39484,-23.29029 -16.16516,-60.677354 -16.16516,-60.677354" id="path15815-0" inkscape:connector-curvature="0" sodipodi:nodetypes="cssssssc"/>
      <g transform="matrix(2.5526931,0,0,2.5526931,-1726.943,-95.747359)" id="g15929" style="stroke-width:6.27754021;stroke-miterlimit:4;stroke-dasharray:none">
        <path transform="matrix(8.8583069,0,0,8.8583069,641.14518,19.61356)" inkscape:connector-curvature="0" id="path15899" d="m 10.32091,11.394819 c 0.795495,-1.414213 2.937342,-1.257963 2.937342,-1.257963" style="fill:none;stroke:#3c3c3c;stroke-width:0.70866144;stroke-linecap:round;stroke-linejoin:miter;stroke-miterlimit:4;stroke-opacity:1;stroke-dasharray:none" sodipodi:nodetypes="cc"/>
        <path transform="matrix(8.8583069,0,0,8.8583069,641.14518,19.61356)" inkscape:connector-curvature="0" id="path15901" d="m 11.372417,14.98527 c 1.502602,-0.265165 3.079078,2.24475 3.079078,2.24475" style="fill:none;stroke:#3c3c3c;stroke-width:0.70866144;stroke-linecap:round;stroke-linejoin:miter;stroke-miterlimit:4;stroke-opacity:1;stroke-dasharray:none" sodipodi:nodetypes="cc"/>
        <path transform="matrix(8.8583069,0,0,8.8583069,641.14518,19.61356)" inkscape:connector-curvature="0" id="path15903" d="M 6.9605823,20.787652 C 8.2864075,19.550215 11.092738,20.412001 11.092738,20.412001" style="fill:none;stroke:#3c3c3c;stroke-width:0.70866144;stroke-linecap:round;stroke-linejoin:miter;stroke-miterlimit:4;stroke-opacity:1;stroke-dasharray:none" sodipodi:nodetypes="cc"/>
        <path transform="matrix(8.8583069,0,0,8.8583069,641.14518,19.61356)" inkscape:connector-curvature="0" id="path15905" d="M 9.2807764,26.223535 C 10.076272,24.720933 12.197591,23.814952 12.197591,23.814952" style="fill:none;stroke:#3c3c3c;stroke-width:0.70866144;stroke-linecap:round;stroke-linejoin:miter;stroke-miterlimit:4;stroke-opacity:1;stroke-dasharray:none" sodipodi:nodetypes="cc"/>
        <path transform="matrix(8.8583069,0,0,8.8583069,641.14518,19.61356)" inkscape:connector-curvature="0" id="path15907" d="m 14.849242,29.847457 c -0.53033,-2.474874 0.662912,-5.214912 0.662912,-5.214912" style="fill:none;stroke:#3c3c3c;stroke-width:0.70866144;stroke-linecap:round;stroke-linejoin:miter;stroke-miterlimit:4;stroke-opacity:1;stroke-dasharray:none" sodipodi:nodetypes="cc"/>
        <path transform="matrix(8.8583069,0,0,8.8583069,641.14518,19.61356)" inkscape:connector-curvature="0" id="path15909" d="m 20.152543,26.135146 c 0,0 -2.541165,-2.276 -1.480505,-4.308932" style="fill:none;stroke:#3c3c3c;stroke-width:0.70866144;stroke-linecap:round;stroke-linejoin:miter;stroke-miterlimit:4;stroke-opacity:1;stroke-dasharray:none" sodipodi:nodetypes="cc"/>
        <path transform="matrix(8.8583069,0,0,8.8583069,641.14518,19.61356)" inkscape:connector-curvature="0" id="path15911" d="m 23.599689,23.571884 c 0,0 -1.410423,-2.429108 0.710897,-4.196875" style="fill:none;stroke:#3c3c3c;stroke-width:0.70866144;stroke-linecap:round;stroke-linejoin:miter;stroke-miterlimit:4;stroke-opacity:1;stroke-dasharray:none" sodipodi:nodetypes="cc"/>
        <path transform="matrix(8.8583069,0,0,8.8583069,641.14518,19.61356)" inkscape:connector-curvature="0" id="path15913" d="m 27.267805,25.184971 c 0.795495,-2.386485 3.314563,-2.408582 3.314563,-2.408582" style="fill:none;stroke:#3c3c3c;stroke-width:0.70866144;stroke-linecap:round;stroke-linejoin:miter;stroke-miterlimit:4;stroke-opacity:1;stroke-dasharray:none" sodipodi:nodetypes="cc"/>
        <path transform="matrix(8.8583069,0,0,8.8583069,641.14518,19.61356)" inkscape:connector-curvature="0" id="path15919" d="M 29.698484,29.935845 C 31.289475,28.61002 33.322407,29.14035 33.322407,29.14035" style="fill:none;stroke:#3c3c3c;stroke-width:0.70866144;stroke-linecap:round;stroke-linejoin:miter;stroke-miterlimit:4;stroke-opacity:1;stroke-dasharray:none"/>
        <path sodipodi:nodetypes="cc" inkscape:connector-curvature="0" id="path15923" d="m 891.89167,324.53026 c 21.14022,-4.69784 36.21242,19.37853 36.21242,19.37853" style="fill:none;stroke:#3c3c3c;stroke-width:6.27754021;stroke-linecap:round;stroke-linejoin:miter;stroke-miterlimit:4;stroke-opacity:1;stroke-dasharray:none"/>
        <path transform="matrix(8.8583069,0,0,8.8583069,641.14518,19.61356)" inkscape:connector-curvature="0" id="path15925" d="M 25.013902,37.890796 C 27.400387,37.448855 28.195883,40.896 28.195883,40.896" style="fill:none;stroke:#3c3c3c;stroke-width:0.70866144;stroke-linecap:round;stroke-linejoin:miter;stroke-miterlimit:4;stroke-opacity:1;stroke-dasharray:none" sodipodi:nodetypes="cc"/>
        <path transform="matrix(8.8583069,0,0,8.8583069,641.14518,19.61356)" inkscape:connector-curvature="0" id="path15927" d="m 21.806033,39.682231 c 1.325825,1.149048 0.34061,3.974335 0.34061,3.974335" style="fill:none;stroke:#3c3c3c;stroke-width:0.70866144;stroke-linecap:round;stroke-linejoin:miter;stroke-miterlimit:4;stroke-opacity:1;stroke-dasharray:none" sodipodi:nodetypes="cc"/>
      </g>
    </g>
  </g>
  <metadata>
    <rdf:RDF>
      <cc:Work>
        <dc:format>image/svg+xml</dc:format>
        <dc:type rdf:resource="http://purl.org/dc/dcmitype/StillImage"/>
        <cc:license rdf:resource="http://creativecommons.org/licenses/publicdomain/"/>
        <dc:publisher>
          <cc:Agent rdf:about="http://openclipart.org/">
            <dc:title>Open Clip Art Library</dc:title>
          </cc:Agent>
        </dc:publisher>
        <dc:title>Earthworms</dc:title>
        <dc:date>2011-10-24T19:22:56</dc:date>
        <dc:description>This is a worm ! Isn't he nice ? :o)</dc:description>
        <dc:source>http://openclipart.org/detail/164701/earthworms-by-nbcorp</dc:source>
        <dc:creator>
          <cc:Agent>
            <dc:title>nbcorp</dc:title>
          </cc:Agent>
        </dc:creator>
        <dc:subject>
          <rdf:Bag>
            <rdf:li>biology</rdf:li>
            <rdf:li>clip art</rdf:li>
            <rdf:li>clipart</rdf:li>
            <rdf:li>insect</rdf:li>
            <rdf:li>invertebrates</rdf:li>
            <rdf:li>soil</rdf:li>
            <rdf:li>worm</rdf:li>
          </rdf:Bag>
        </dc:subject>
      </cc:Work>
      <cc:License rdf:about="http://creativecommons.org/licenses/publicdomain/">
        <cc:permits rdf:resource="http://creativecommons.org/ns#Reproduction"/>
        <cc:permits rdf:resource="http://creativecommons.org/ns#Distribution"/>
        <cc:permits rdf:resource="http://creativecommons.org/ns#DerivativeWorks"/>
      </cc:License>
    </rdf:RDF>
  </metadata>
</svg>
