<?xml version="1.0" encoding="utf-8"?>
<!-- Generator: Adobe Illustrator 12.0.1, SVG Export Plug-In . SVG Version: 6.00 Build 51448)  -->
<!DOCTYPE svg PUBLIC "-//W3C//DTD SVG 1.1//EN" "http://www.w3.org/Graphics/SVG/1.1/DTD/svg11.dtd" [
<!ENTITY ns_svg "http://www.w3.org/2000/svg">
<!ENTITY ns_xlink "http://www.w3.org/1999/xlink">
]>
<svg xmlns="http://www.w3.org/2000/svg" xmlns:xlink="http://www.w3.org/1999/xlink" xmlns:svg="http://www.w3.org/2000/svg" xmlns:dc="http://purl.org/dc/elements/1.1/" xmlns:cc="http://web.resource.org/cc/" xmlns:rdf="http://www.w3.org/1999/02/22-rdf-syntax-ns#" version="1.1" id="Layer_1" width="361.931" height="321.523" viewBox="0 0 361.931 321.523" overflow="visible" enable-background="new 0 0 361.931 321.523" xml:space="preserve">
<g>
	<path fill-rule="evenodd" clip-rule="evenodd" fill="#FFFFFF" d="M79.743,31.001c8.569,13.965,9.927,30.683,11,47   c0.131,2.001,2.136,5.005,2,7c-0.389,5.721-5.372,11.243-6,17c-1.104,10.118,4.573,21.328,5,32c0.474,11.847-2.143,21.98-3,33   c-5.125-9.697-1.789-25.497-4-36c-8.979-0.807-2.853,12.349-5,16c-5.431-6.527,4.026-21.912-7-23c-6.191,1.476-3.563,11.771-11,12   c1.626-7.959-3.413-9.254-5-14c-0.286-6.532,2.937-12.082-3-14c-7.272,1.395-3.529,13.804-9,17c-4.125,0.125-6.262-1.738-11-1   c-6.237-20.07-1.258-46.535-17-58c2.94-9.393,13.002-11.665,24-13c5.79,12.677,12.66,25.697,9,45c8.457-4.315,7.222-22.994,5-31   c-3.029-10.914-12.492-18.718-9-29C56.831,35.422,69.836,34.76,79.743,31.001z M79.743,107.001c0.895-6.158,2.633-16.649-3-19   C75.067,93.28,78.949,100.931,79.743,107.001z"/>
	<path fill-rule="evenodd" clip-rule="evenodd" fill="#FFFFFF" d="M240.743,56.001c6.338-0.671,7.421,3.913,12,5   c-2.089,5.073,1.404,5.316,3,9c-5.029-2.259-11.927-4.704-16-5C239.785,61.709,241.432,60.022,240.743,56.001z"/>
	<path fill-rule="evenodd" clip-rule="evenodd" fill="#FFFFFF" d="M275.743,66.001c5.024-0.024,7.308,2.693,12,3   c0.943,8.203-7.528,20.508,1,24c5.738-5.262,3.16-18.839,9-24c6.89,0.268,9.162-0.164,14,1c-1.504,9.829-3.986,18.68-3,31   c-4.506,3.722-15.956-1.846-20,4c-3.511,0.178-3.289-3.378-6-4c-2.545,0.122-3.878,1.456-4,4c-2.909-0.181-4.801-7.117-7-2   C269.51,88.905,273.236,80.538,275.743,66.001z"/>
	<path fill-rule="evenodd" clip-rule="evenodd" fill="#FFFFFF" d="M238.743,72.001c8.21,0.79,14.467,3.533,20,7   c-4.952,3.879-15.048-2.762-18,2c1.332,8.341,15.225,4.809,22,5c-0.271,3.396,0.774,8.107-1,10c-7.032-2.634-12.645-6.689-23-6   c-2.693,1.183,0.004,5.214,0,7c-11.277,0.72-6.826-12.645-7-19C234.893,78.117,238.533,77.242,238.743,72.001z"/>
	<path fill-rule="evenodd" clip-rule="evenodd" fill="#FFFFFF" d="M317.743,73.001c5.553-2.333,8.811,5.031,15,8   c4.66,2.235,9.04,0.185,12,4c1.803,2.324,4.589,13.167,4,16c-1.97,9.48-18.307,9.029-28,13c0.611-8.055,10.912-6.421,13-13   c-0.577-3.298-3.776-1.434-6-1c1.628-7.483,5.068-14.925-1-20c-5.152,0.014-6.396,1.299-10-1   C316.018,75.942,318.469,76.06,317.743,73.001z"/>
	<path fill-rule="evenodd" clip-rule="evenodd" fill="#FFFFFF" d="M12.743,74.001c10.193,4.282,5.566,19.198,7,28   C17.961,92.116,13.441,84.97,12.743,74.001z"/>
	<path fill-rule="evenodd" clip-rule="evenodd" d="M76.743,88.001c5.633,2.351,3.895,12.842,3,19   C78.949,100.931,75.067,93.28,76.743,88.001z"/>
	<path fill-rule="evenodd" clip-rule="evenodd" fill="#FFFFFF" d="M312.743,97.001c2.032,0.729,4.083,3.009,2,5   C311.281,102.702,311.156,98.495,312.743,97.001z"/>
	<path fill-rule="evenodd" clip-rule="evenodd" fill="#FFFFFF" d="M245.743,100.001c4.318-2.286,13.408-0.767,14,4   C253.417,107.947,251.684,99.67,245.743,100.001z"/>
	<path fill-rule="evenodd" clip-rule="evenodd" fill="#FFFFFF" d="M209.743,106.001c3.373,4.294,1.232,14.101,5,18   c2.3-2.367,0.358-8.975,1-13c5.269,4.935,0.213,14.534,3,21c-1.888-1.446-4.433-2.234-4-6c-3.314,0.019-1.016,5.651-3,7   C207.835,126.044,208.742,115.514,209.743,106.001z"/>
	<path fill-rule="evenodd" clip-rule="evenodd" fill="#FFFFFF" d="M19.743,107.001c4.294,1.706,4.146,7.854,4,14   c-3.044-0.044-3.889,2.111-6,3c0.637,2.288,1.983,6.032,0,8C13.659,123.334,12.404,112.4,19.743,107.001z"/>
	<path fill-rule="evenodd" clip-rule="evenodd" fill="#FFFFFF" d="M284.743,118.001c-2.355-0.022-2.944,1.723-6,1   c-0.429-1.904-2.154-2.512-2-5C279.7,111.774,285.867,113.02,284.743,118.001z"/>
	<path fill-rule="evenodd" clip-rule="evenodd" fill="#FFFFFF" d="M246.743,125.001c-6.963-3.203-9.312,4.81-16,5   C226.745,111.712,246.61,115.984,246.743,125.001z"/>
	<path fill-rule="evenodd" clip-rule="evenodd" fill="#FFFFFF" d="M314.743,126.001c-2.579,15.465-10.185,38.727-11,58   c-5.188-9.404-11.648-23.833-7-36C299.818,139.951,316.618,136.499,314.743,126.001z"/>
	<path fill-rule="evenodd" clip-rule="evenodd" fill="#FFFFFF" d="M262.743,128.001c1.548-2.753,6.002-0.097,7,1   c-1.676,2.991-4.577,4.756-7,7C258.958,134.06,266.528,129.942,262.743,128.001z"/>
	<path fill-rule="evenodd" clip-rule="evenodd" fill="#FFFFFF" d="M51.743,136.001c4.267,3.978,5.302,25.231,0,29   C52.221,156.339,49.61,144.465,51.743,136.001z"/>
	<path fill-rule="evenodd" clip-rule="evenodd" fill="#FFFFFF" d="M257.743,137.001c1.701-0.368,1.887,0.78,2,2   c-1.785,1.548-0.664,6.002-3,7c0.902,11.928-3.456,23.203-5,33c-0.725,4.6,2.033,13.547-6,14   C235.922,176.039,237.802,144.296,257.743,137.001z"/>
	<path fill-rule="evenodd" clip-rule="evenodd" fill="#FFFFFF" d="M220.743,149.001c-1.681,7.986-7.534,11.799-9,20   c-11.582,5.528-17.209,21.974-32,21c2.562-3.271,0.647-5.161,2-10c5.164-2.836,11.776-4.224,15-9c-5.057-3.683-7.482,3.821-13,3   c4.123-9.878,16.251-11.749,22-20c0.473-3.14-2.691-2.642-3-5C206.822,138.357,213.505,151.779,220.743,149.001z"/>
	<path fill-rule="evenodd" clip-rule="evenodd" fill="#FFFFFF" d="M71.743,147.001c4.033,2.634,0.53,12.803,5,15   c3.316-0.351,1.569-5.764,2-9c2.65,1.776,1.589,8.594,2,15C71.674,167.069,71.562,157.182,71.743,147.001z"/>
	<path fill-rule="evenodd" clip-rule="evenodd" fill="#FFFFFF" d="M101.743,151.001c3.221,5.429,4.055,12.805,5,18   C102.074,166.003,101.296,159.114,101.743,151.001z"/>
	<path fill-rule="evenodd" clip-rule="evenodd" fill="#FFFFFF" d="M300.743,195.001c1.502,7.089-8.302,24.812-16,26   C281.28,206.852,291.18,199.263,300.743,195.001z"/>
	<path fill-rule="evenodd" clip-rule="evenodd" fill="#FFFFFF" d="M242.743,196.001c1.794-0.127,2.109,1.224,4,1   c1.146,4.146-2.104,3.896-2,7C240.794,202.822,245.245,199.043,242.743,196.001z"/>
	<path fill-rule="evenodd" clip-rule="evenodd" fill="#FFFFFF" d="M165.743,198.001c4.118-0.785,5.132,1.535,9,1   c-2.02,2.313-3.323,5.344-7,6C166.966,202.778,165.643,201.102,165.743,198.001z"/>
	<path fill-rule="evenodd" clip-rule="evenodd" fill="#FFFFFF" d="M158.743,209.001c-6.437,7.23-18.298,9.035-32,9   c-0.828-3.589,2.255-4.838,0-7c-2.825-2.508-11.178,0.512-11-5c3.406-1.261,7.598-1.735,11-3c6.481,3.186,10.445,8.889,20,9   c0.374-6.041-5.69-5.644-6-11C152.765,197.749,154.404,201.083,158.743,209.001z"/>
	<path fill-rule="evenodd" clip-rule="evenodd" fill="#FFFFFF" d="M105.743,208.001c2.715-0.716-0.715,4.716,2,4   c-0.257,2.341-4.394,0.576-5,0C101.866,208.791,105.336,209.928,105.743,208.001z"/>
	<path fill-rule="evenodd" clip-rule="evenodd" fill="#FFFFFF" d="M245.743,215.001c-2.193,1.14-4.086,2.581-8,2   C237.273,211.671,246.423,206.361,245.743,215.001z"/>
	<path fill-rule="evenodd" clip-rule="evenodd" fill="#FFFFFF" d="M232.743,219.001c-8.979,2.108-19.849,7.366-29,6   C207.73,216.478,224.285,209.004,232.743,219.001z"/>
	<path fill-rule="evenodd" clip-rule="evenodd" fill="#FFFFFF" d="M91.743,223.001c-2.034,6.3-6.477,10.19-10,15   C81.311,233.217,84.077,223.016,91.743,223.001z"/>
	<path fill-rule="evenodd" clip-rule="evenodd" fill="#FFFFFF" d="M234.743,228.001c0.282,2.615-0.365,4.302-3,4   C230.721,229.188,230.607,227.74,234.743,228.001z"/>
	<path fill-rule="evenodd" clip-rule="evenodd" fill="#FFFFFF" d="M185.743,236.001c2.09-0.424,2.648,0.686,4,1   c-0.542,6.124-3.09,10.243-9,11C182.479,244.07,183.763,239.688,185.743,236.001z"/>
	<path fill-rule="evenodd" clip-rule="evenodd" fill="#FFFFFF" d="M312.743,267.001c-0.345,2.322-0.647,4.687-4,4   C308.279,267.87,309.612,266.537,312.743,267.001z"/>
	<path fill-rule="evenodd" clip-rule="evenodd" fill="#FFFFFF" d="M135.743,296.001c4.027-0.977,4.027,5.977,0,5   C135.743,299.334,135.743,297.668,135.743,296.001z"/>
	<path fill-rule="evenodd" clip-rule="evenodd" fill="#FFFFFF" d="M137.743,70.001c3.826-15.684-5.124-35.29-7-54   c12.589-6.223,29.108,1.428,39,7c3.222,15.787-0.185,34.013-1,47c10.472-7.861,7.76-28.906,9-46c15.407-0.934,23.788,13.442,21,34   c4.07-4.55,2.214-15.125,2-22c18.06,5.63,43.279,10.085,35,36c-3.05,2.55-2.676-4.729-7-4c-4.051,7.29-8.818,15.733-7,26   c-5.478,2.494-4.873-1.848-10-2c-3.906,0.941-0.851,5.045-1,8c-2.323,2.416-2.677-1.562-5-2c-6.842,9.788,0.27,24.965-3,39   c-5.922,1.284-11.468-17.212-10-27c1.353-9.022,9.553-11.812,11-18c-11.491,0.181-13.12,18.876-22,25   c-1.439,12.377,9.165,34.061-4,37c-0.681-14.994-11.867-27.365-10-40c1.875-12.685,18.417-15.812,19-30   c-11.457,6.023-28.116,19.253-28,36c0.051,7.299,7.229,17.86,9,28c1.291,7.396,2.232,14.359,5,21c-3.821,2.793-10.007,2.09-13-1   c0-2,0-4,0-6c-5.345-5.569-5.854-14.907-10-24c-3.275-7.183-9.246-12.773-10-20c-1.312-12.56,5.658-20.567,11-31   c-12.091,3.243-10.52,20.147-20,26c3.607,15.06,12.945,24.388,13,43c-2.029-0.638-0.659-4.675-3-5c-1.87,2.261-1.366,10.656,0,13   c1.172-0.161,0.843-1.823,1-3c3.111,2.223,1.982,8.684,4,12c-4.581,2.292-9.792,0.028-15,0c-10.977-20.474,2.212-51.998-5-74   c2.559-4.774,5.126-9.541,6-16c-5.48,5.853-9.906,12.761-15,19c3.953,23.279,1.157,49.645,3,73c-5.435,1.102-6.551-2.115-9-4   c1.701-2.966,4.014-5.319,3-11c-0.87-2.909-1.497-1.125-4-1c-0.698-8.969-0.18-19.153-3-26c-0.42-2.246-5.306-0.027-6-2   c1.526-3.621-0.833-8.172,0-14c-4.52,7.693-5.814-8.88-5-16c3.021,0.646,2.791,4.542,5,6c-2.613-11.271,3.882-16.763,7-25   c-2.36-3.354-5.203,4.573-8,1c0.499-25.832-9.339-41.327-13-63c11.001,0.387,21.525-9.612,31-7   C131.117,16.688,128.421,60.247,137.743,70.001z"/>
	<path fill-rule="evenodd" clip-rule="evenodd" d="M348.743,116.001c-3.014,6.893-1.151,13.578,0,23c-4.292,2.708-7.205,6.795-11,10   c-7.918-3.65-8.582-18.64-6-27c-7.262,0.585-9.422,11.747-6,17c-6.456,29.491-7.438,61.755-4,88c-6.867,5.208-11.98,17.251-8,30   c9.312,1.974,9.93-10.808,18-4c0.439,6.439-4.499,7.501-8,10c3.396,8.004-4.131,10.31-5,17c-3.931,0.735-7.598,1.735-11,3   c-2.772-1.895-5.482-3.851-8-6c-2.626-18.845,0.721-36.205,2-54c4.889-2.283,8.993-8.969,6-16c-5.769,10.754-18.033,18.571-20,30   c-13.702,0.137-26.897,16.822-23,38c1.211,6.582,8.094,11.347,3,19c-6.288,0.954-9.159-1.507-12-4c-4.585-0.252-4.142,4.525-9,4   c-3.671-8.859,4.973-13.556,8-19c0.362-11.638-1.534-25.534,3-33c6.833-2.152,13.151-7.93,11-16c7.474-4.626,4.809-15.51,8-23   c2.849-6.687,9.412-8.159,12-14c-2.704-13.819-2.318-25.756-3-43c4.881-8.786,17.099-10.235,20-21c-9.716-4.623-13.319-0.64-21,3   c-2.24,23.294-22.231,38.828-15,65c-2.164,1.836-2.104,5.895-2,10c-2.827,1.506-4.994,3.672-5,8c-3.815-0.148-4.815,2.518-8,3   c-2.957,26.043-32.135,25.865-33,54c-5.025,1.791-5.846,6.729-13,4c-1.276,5.826,1.989,15.186,6,19c-1.203,3.13-1.997,6.67-3,10   c-2.111,2.204-2.955-1.283-6-1c-0.226,4.178,1.626,4.723,0,8c-15.956,11.253-28.587-4.01-22-20c9.441,0.559,8.298,11.702,16,14   c5.296-6.855,1.156-23.394-5-28c0.129-12.695,3.224-26.194,8-37c-5.012-3.309-6.951,5.021-7,10c-15.562,11.438-25.915,28.085-33,48   c-7.393,0.382-19.379,16.263-29,14c-11.348-2.669-5.629-24.844-1-34c9.821,2.265,8.303,2.031,16-2c0.704,5.903-4.547,13.068-5,21   c7.051,0.897,7.585-7.42,11-12c2.986-4.005,8.052-6.558,10-11c3.508-8,3.997-18.149,6-28c4.842-3.913,3.79-10.265,7-15   c2.517-3.712,9.625-4.933,9-11c19.15,1.15,19.609-16.391,41-13c8.023-9.923,3.304-27.909,4-41c-4.335-0.668-2.692,4.641-3,8   c-10.258,11.408-20.241,23.092-29,36c-3.509,1.158-5.398,3.936-10,4c-2.955,3.045-4.431,7.569-7,11   c-29.744,7.59-51.158,23.509-70,42c-1.699,22.301-15.798,32.202-24,48c-5.055,1.611-10.185,3.148-12,8   c-7.717-2.832-12.714,4.553-19,0c-6.036-4.372-5.479-17.199-2-24c2.333,0,4.667,0,7,0c2.58,2.657,2.581,10.13,1,14   c6.575-3.092,16.038-3.296,23-6c0.034-4.367-2.761-5.905-3-10c5.095-6.5,5.069-19.2,9-31c1.261-3.784,4.368-6.929,5-10   c0.965-4.688-1.091-9.284,0-13c2.052-6.99,10.126-7.261,13-14c-1.718-2.948-7.896-1.438-10-4c-3.823,0.844-3.695,5.638-5,9   c-10.351,12.649-26.127,19.873-30,39c-3.39,2.609-7.713,4.286-9,9c-2.333,0-4.667,0-7,0c-14.879,12.121-22.518,31.482-40,41   c-9.406-7.492-13.179-31.142-6-41c2.983-2.482,6.474,0.931,8,3c2.89-1.777,3.281-6.053,8-6c3.932,4.669-2.644,12.047,1,19   c8.908-6.426,15.001-15.665,21-25c11.891-0.209,12.684-10.374,18-19c1.718-2.788,5.995-4.746,8-8c7.517-12.194,9.865-28.443,15-34   c2.562-2.772,6.883-2.489,11-5c5.512-3.361,11.332-7.904,20-11c18.935,3.039,32.953-5.975,49-9c-16.272-6.791-32.559,3.112-49,1   c-7.965-1.023-12.796-8.464-20-10c-16.325-3.482-31.971,3.84-48,0c-5.309-8.357-17.865-9.469-25-16c-2.458,2.875,0.048,10.715-7,9   c-3.974-3.693-3.884-11.449-7-16c10.115-15.203-5.91-27.055-4-46c2.163-1.504,6.22-1.114,7-4c-1.648-13.737-10.405-28.436-7-40   c3.574-12.137,20.864-10.024,32-16c-2.596-8.927,1.993-13.11,6-18c12.53-0.156,25.372,2.316,34-7c-0.438-3.438,0.395-5.605,1-8   c8.572-6,28.306-5.132,42-8c5.787-1.212,10.883-5.069,17-5c6.969,0.078,16.378,5.852,26,8c12.486,2.787,22.709,2.43,28,12   c15.711,7.623,34.708,11.958,45,25c8.728,0.272,12.601,5.399,19,8c4.491,0.491,7.493-0.507,11-1c20.396,13.625,56.889-0.7,71,19   c6.679-0.012,9.721,3.612,16,4c1.838,2.495,2.759,5.908,7,6c-1.216,6.549,1.617,9.049,4,12   C362.99,106.248,357.942,113.2,348.743,116.001z M117.743,13.001c-9.475-2.612-19.999,7.387-31,7c3.661,21.673,13.499,37.168,13,63   c2.797,3.573,5.64-4.354,8-1c-3.118,8.237-9.613,13.729-7,25c-2.209-1.458-1.979-5.354-5-6c-0.814,7.12,0.48,23.693,5,16   c-0.833,5.828,1.526,10.379,0,14c0.694,1.973,5.58-0.246,6,2c2.82,6.847,2.302,17.031,3,26c2.503-0.125,3.13-1.909,4,1   c1.014,5.681-1.299,8.034-3,11c2.449,1.885,3.565,5.102,9,4c-1.843-23.355,0.953-49.721-3-73c5.094-6.239,9.52-13.147,15-19   c-0.874,6.459-3.441,11.226-6,16c7.212,22.002-5.977,53.526,5,74c5.208,0.028,10.419,2.292,15,0c-2.018-3.316-0.889-9.777-4-12   c-0.157,1.177,0.172,2.839-1,3c-1.366-2.344-1.87-10.739,0-13c2.341,0.325,0.971,4.362,3,5c-0.055-18.612-9.393-27.94-13-43   c9.48-5.853,7.909-22.757,20-26c-5.342,10.433-12.312,18.44-11,31c0.754,7.227,6.725,12.817,10,20c4.146,9.093,4.655,18.431,10,24   c0,2,0,4,0,6c2.993,3.09,9.179,3.793,13,1c-2.768-6.641-3.709-13.604-5-21c-1.771-10.14-8.949-20.701-9-28   c-0.116-16.747,16.543-29.977,28-36c-0.583,14.188-17.125,17.315-19,30c-1.867,12.635,9.319,25.006,10,40   c13.165-2.939,2.561-24.623,4-37c8.88-6.124,10.509-24.819,22-25c-1.447,6.188-9.647,8.978-11,18c-1.468,9.788,4.078,28.284,10,27   c3.27-14.035-3.842-29.212,3-39c2.323,0.438,2.677,4.416,5,2c0.149-2.955-2.906-7.059,1-8c5.127,0.152,4.522,4.494,10,2   c-1.818-10.267,2.949-18.71,7-26c4.324-0.729,3.95,6.55,7,4c8.279-25.915-16.94-30.37-35-36c0.214,6.875,2.07,17.45-2,22   c2.788-20.558-5.593-34.934-21-34c-1.24,17.094,1.472,38.139-9,46c0.815-12.987,4.222-31.213,1-47c-9.892-5.572-26.411-13.223-39-7   c1.876,18.71,10.826,38.316,7,54C128.421,60.247,131.117,16.688,117.743,13.001z M45.743,38.001c-3.492,10.282,5.971,18.086,9,29   c2.222,8.006,3.457,26.685-5,31c3.66-19.303-3.21-32.323-9-45c-10.998,1.335-21.06,3.607-24,13c15.742,11.465,10.763,37.93,17,58   c4.738-0.738,6.875,1.125,11,1c5.471-3.196,1.728-15.605,9-17c5.937,1.918,2.714,7.468,3,14c1.587,4.746,6.626,6.041,5,14   c7.437-0.229,4.809-10.524,11-12c11.026,1.088,1.569,16.473,7,23c2.147-3.651-3.979-16.807,5-16c2.211,10.503-1.125,26.303,4,36   c0.857-11.02,3.474-21.153,3-33c-0.427-10.672-6.104-21.882-5-32c0.628-5.757,5.611-11.279,6-17c0.136-1.995-1.869-4.999-2-7   c-1.073-16.317-2.431-33.035-11-47C69.836,34.76,56.831,35.422,45.743,38.001z M239.743,65.001c4.073,0.296,10.971,2.741,16,5   c-1.596-3.684-5.089-3.927-3-9c-4.579-1.087-5.662-5.671-12-5C241.432,60.022,239.785,61.709,239.743,65.001z M271.743,103.001   c2.199-5.117,4.091,1.819,7,2c0.122-2.544,1.455-3.878,4-4c2.711,0.622,2.489,4.178,6,4c4.044-5.846,15.494-0.278,20-4   c-0.986-12.32,1.496-21.171,3-31c-4.838-1.164-7.11-0.732-14-1c-5.84,5.161-3.262,18.738-9,24c-8.528-3.492-0.057-15.797-1-24   c-4.692-0.307-6.976-3.024-12-3C273.236,80.538,269.51,88.905,271.743,103.001z M231.743,78.001c0.174,6.355-4.277,19.72,7,19   c0.004-1.786-2.693-5.817,0-7c10.355-0.689,15.968,3.366,23,6c1.774-1.893,0.729-6.604,1-10c-6.775-0.191-20.668,3.341-22-5   c2.952-4.762,13.048,1.879,18-2c-5.533-3.467-11.79-6.21-20-7C238.533,77.242,234.893,78.117,231.743,78.001z M316.743,79.001   c3.604,2.299,4.848,1.014,10,1c6.068,5.075,2.628,12.517,1,20c2.224-0.434,5.423-2.298,6,1c-2.088,6.579-12.389,4.945-13,13   c9.693-3.971,26.03-3.52,28-13c0.589-2.833-2.197-13.676-4-16c-2.96-3.815-7.34-1.765-12-4c-6.189-2.969-9.447-10.333-15-8   C318.469,76.06,316.018,75.942,316.743,79.001z M19.743,102.001c-1.434-8.802,3.193-23.718-7-28   C13.441,84.97,17.961,92.116,19.743,102.001z M314.743,102.001c2.083-1.991,0.032-4.271-2-5   C311.156,98.495,311.281,102.702,314.743,102.001z M259.743,104.001c-0.592-4.767-9.682-6.286-14-4   C251.684,99.67,253.417,107.947,259.743,104.001z M211.743,133.001c1.984-1.349-0.314-6.981,3-7c-0.433,3.766,2.112,4.554,4,6   c-2.787-6.466,2.269-16.065-3-21c-0.642,4.025,1.3,10.633-1,13c-3.768-3.899-1.627-13.706-5-18   C208.742,115.514,207.835,126.044,211.743,133.001z M17.743,132.001c1.983-1.968,0.637-5.712,0-8c2.111-0.889,2.956-3.044,6-3   c0.146-6.146,0.294-12.294-4-14C12.404,112.4,13.659,123.334,17.743,132.001z M276.743,114.001c-0.154,2.488,1.571,3.096,2,5   c3.056,0.723,3.645-1.022,6-1C285.867,113.02,279.7,111.774,276.743,114.001z M230.743,130.001c6.688-0.19,9.037-8.203,16-5   C246.61,115.984,226.745,111.712,230.743,130.001z M296.743,148.001c-4.648,12.167,1.812,26.596,7,36   c0.815-19.273,8.421-42.535,11-58C316.618,136.499,299.818,139.951,296.743,148.001z M262.743,136.001c2.423-2.244,5.324-4.009,7-7   c-0.998-1.097-5.452-3.753-7-1C266.528,129.942,258.958,134.06,262.743,136.001z M51.743,165.001c5.302-3.769,4.267-25.022,0-29   C49.61,144.465,52.221,156.339,51.743,165.001z M245.743,193.001c8.033-0.453,5.275-9.4,6-14c1.544-9.797,5.902-21.072,5-33   c2.336-0.998,1.215-5.452,3-7c-0.113-1.22-0.299-2.368-2-2C237.802,144.296,235.922,176.039,245.743,193.001z M202.743,149.001   c0.309,2.358,3.473,1.86,3,5c-5.749,8.251-17.877,10.122-22,20c5.518,0.821,7.943-6.683,13-3c-3.224,4.776-9.836,6.164-15,9   c-1.353,4.839,0.562,6.729-2,10c14.791,0.974,20.418-15.472,32-21c1.466-8.201,7.319-12.014,9-20   C213.505,151.779,206.822,138.357,202.743,149.001z M80.743,168.001c-0.411-6.406,0.65-13.224-2-15c-0.431,3.236,1.316,8.649-2,9   c-4.47-2.197-0.967-12.366-5-15C71.562,157.182,71.674,167.069,80.743,168.001z M106.743,169.001c-0.945-5.195-1.779-12.571-5-18   C101.296,159.114,102.074,166.003,106.743,169.001z M284.743,221.001c7.698-1.188,17.502-18.911,16-26   C291.18,199.263,281.28,206.852,284.743,221.001z M244.743,204.001c-0.104-3.104,3.146-2.854,2-7c-1.891,0.224-2.206-1.127-4-1   C245.245,199.043,240.794,202.822,244.743,204.001z M167.743,205.001c3.677-0.656,4.98-3.687,7-6c-3.868,0.535-4.882-1.785-9-1   C165.643,201.102,166.966,202.778,167.743,205.001z M140.743,201.001c0.31,5.356,6.374,4.959,6,11c-9.555-0.111-13.519-5.814-20-9   c-3.402,1.265-7.594,1.739-11,3c-0.178,5.512,8.175,2.492,11,5c2.255,2.162-0.828,3.411,0,7c13.702,0.035,25.563-1.77,32-9   C154.404,201.083,152.765,197.749,140.743,201.001z M102.743,212.001c0.606,0.576,4.743,2.341,5,0c-2.715,0.716,0.715-4.716-2-4   C105.336,209.928,101.866,208.791,102.743,212.001z M237.743,217.001c3.914,0.581,5.807-0.86,8-2   C246.423,206.361,237.273,211.671,237.743,217.001z M203.743,225.001c9.151,1.366,20.021-3.892,29-6   C224.285,209.004,207.73,216.478,203.743,225.001z M81.743,238.001c3.523-4.81,7.966-8.7,10-15   C84.077,223.016,81.311,233.217,81.743,238.001z M231.743,232.001c2.635,0.302,3.282-1.385,3-4   C230.607,227.74,230.721,229.188,231.743,232.001z M180.743,248.001c5.91-0.757,8.458-4.876,9-11c-1.352-0.314-1.91-1.424-4-1   C183.763,239.688,182.479,244.07,180.743,248.001z M308.743,271.001c3.353,0.687,3.655-1.678,4-4   C309.612,266.537,308.279,267.87,308.743,271.001z M135.743,301.001c4.027,0.977,4.027-5.977,0-5   C135.743,297.668,135.743,299.334,135.743,301.001z"/>
</g>
<metadata><rdf:RDF><cc:Work><dc:format>image/svg+xml</dc:format><dc:type rdf:resource="http://purl.org/dc/dcmitype/StillImage"/><cc:license rdf:resource="http://creativecommons.org/licenses/publicdomain/"/><dc:publisher><cc:Agent rdf:about="http://openclipart.org/"><dc:title>Open Clip Art Library</dc:title></cc:Agent></dc:publisher><dc:title>Flea</dc:title><dc:date>2006-11-18T17:21:01</dc:date><dc:description>a human flea stated as public domain at http://www.ase.org.uk/</dc:description><dc:source>http://openclipart.org/detail/1526/flea-by-johnny_automatic</dc:source><dc:creator><cc:Agent><dc:title>johnny_automatic</dc:title></cc:Agent></dc:creator><dc:subject><rdf:Bag><rdf:li>animal</rdf:li><rdf:li>animal</rdf:li><rdf:li>clip art</rdf:li><rdf:li>clipart</rdf:li><rdf:li>externalsource</rdf:li><rdf:li>flea</rdf:li><rdf:li>flea</rdf:li><rdf:li>human flea</rdf:li><rdf:li>human flea</rdf:li><rdf:li>image</rdf:li><rdf:li>insect</rdf:li><rdf:li>insect</rdf:li><rdf:li>media</rdf:li><rdf:li>png</rdf:li><rdf:li>public domain</rdf:li><rdf:li>svg</rdf:li></rdf:Bag></dc:subject></cc:Work><cc:License rdf:about="http://creativecommons.org/licenses/publicdomain/"><cc:permits rdf:resource="http://creativecommons.org/ns#Reproduction"/><cc:permits rdf:resource="http://creativecommons.org/ns#Distribution"/><cc:permits rdf:resource="http://creativecommons.org/ns#DerivativeWorks"/></cc:License></rdf:RDF></metadata></svg>
