<?xml version="1.0" encoding="UTF-8" standalone="no"?>
<!-- Created with Inkscape (http://www.inkscape.org/) -->
<svg xmlns:svg="http://www.w3.org/2000/svg" xmlns="http://www.w3.org/2000/svg" xmlns:dc="http://purl.org/dc/elements/1.1/" xmlns:cc="http://web.resource.org/cc/" xmlns:rdf="http://www.w3.org/1999/02/22-rdf-syntax-ns#" version="1.0" width="416.78171" height="188.92458" id="svg2">
  <defs id="defs4"/>
  <g transform="translate(13.39086,13.88582)" id="layer1">
    <path d="M 209.96202,148.74533 C 205.68709,147.1534 197.1019,142.47868 190.88383,138.35707 L 179.57824,130.86323 L 162.6322,129.21996 C 153.31187,128.31615 145.09557,127.21168 144.37375,126.76556 C 143.5959,126.28482 143.52838,127.05619 144.20797,128.65939 C 146.32043,133.64277 146.75939,139.1369 145.04508,139.1369 C 141.83695,139.1369 134.52494,134.50777 127.8063,128.22326 C 123.95731,124.62298 120.14003,122.17945 119.03007,122.60537 C 117.28573,123.27473 108.13263,121.82927 79.2411,116.32184 C 69.82514,114.52693 60.06293,110.78679 41.08473,101.70322 C 34.08939,98.355038 25.30263,94.266528 21.55857,92.617648 C 16.13176,90.227678 14.842054,89.013278 15.19917,86.629558 C 15.44555,84.984988 17.01806,82.733878 18.69362,81.627078 C 21.44421,79.810158 22.03528,79.931678 24.7797,82.878318 C 27.27513,85.557638 29.76584,86.285098 38.69161,86.941548 C 44.67138,87.381358 49.76211,87.607108 50.00434,87.443268 C 50.24658,87.279408 48.46158,84.886618 46.03768,82.125938 C 43.40274,79.124908 40.81049,77.421228 39.59116,77.889138 C 38.46947,78.319568 37.55173,77.930228 37.55173,77.023938 C 37.55173,76.117648 36.91579,75.769168 36.13853,76.249538 C 35.36127,76.729918 34.72537,76.608468 34.72543,75.979648 C 34.72554,74.718878 27.5036,74.617198 25.43124,75.848788 C 23.43626,77.034408 17.76694,74.461078 17.76694,72.369928 C 17.76694,69.348528 21.88753,64.371478 26.26174,62.109478 C 29.06128,60.661788 34.65577,59.997748 44.05324,59.997748 C 58.21081,59.997748 73.38148,57.680258 90.54669,52.895338 C 113.62353,46.462528 140.55575,42.390878 167.07542,41.325608 C 172.63502,41.102278 176.94757,40.535598 176.65884,40.066318 C 176.3701,39.597018 177.7337,38.484128 179.68904,37.593218 C 184.21884,35.529298 184.93169,35.555538 183.67466,37.739868 C 183.11554,38.711438 183.02503,39.188398 183.47349,38.799768 C 183.92197,38.411138 184.43778,37.457228 184.61972,36.679968 C 185.00075,35.052388 188.92313,31.845188 190.61394,31.778708 C 191.24275,31.753998 191.29978,32.528698 190.74066,33.500268 C 190.15004,34.526608 190.26312,34.773318 191.01055,34.089108 C 191.71811,33.441378 192.29703,32.251188 192.29703,31.444188 C 192.29703,29.399218 214.49282,17.470228 216.74811,18.303118 C 217.76005,18.676848 218.25783,18.448368 217.85428,17.795418 C 217.12038,16.607918 226.07178,13.362188 230.08069,13.362188 C 231.46496,13.362188 232.19581,14.717768 232.17595,17.248478 C 232.10296,26.552478 232.84774,29.050558 237.5194,35.170758 C 240.23981,38.734678 242.4656,41.900878 242.4656,42.206748 C 242.4656,43.239218 233.59292,45.865278 229.88923,45.928988 C 227.5942,45.968478 229.92915,47.228048 236.1062,49.282698 C 249.87405,53.862248 251.05178,54.441728 250.01172,56.124588 C 249.47091,56.999638 249.77532,57.187518 250.75398,56.582688 C 252.52333,55.489168 268.73511,60.582708 271.93359,63.237058 C 273.04218,64.157048 278.38117,64.722068 284.65239,64.583028 C 297.56771,64.296728 300.88354,65.088338 300.05371,68.259878 C 299.52128,70.294778 300.8392,70.572208 310.25276,70.406878 C 321.68062,70.206168 329.62168,67.844978 352.10369,57.962988 C 363.41349,52.991738 376.73614,49.971348 376.7016,52.386378 C 376.6769,54.114058 369.56664,67.915288 364.96805,75.161558 C 362.8815,78.449468 361.17432,82.068588 361.17432,83.204048 C 361.17432,84.339518 360.52801,85.667978 359.73807,86.156178 C 358.94813,86.644398 358.66768,87.635828 359.11488,88.359388 C 359.56206,89.082928 359.18369,89.674938 358.27405,89.674938 C 356.6608,89.674938 357.27435,96.538488 359.37753,102.01931 C 360.01742,103.68682 359.7211,103.9569 358.23478,103.06088 C 356.56352,102.05336 356.53166,102.22595 358.04421,104.09349 C 359.04304,105.32678 359.71857,106.87972 359.54537,107.54447 C 358.87552,110.11535 361.62507,121.733 364.15388,127.01669 C 365.61344,130.06631 366.51443,132.85465 366.15608,133.213 C 364.97554,134.39354 357.84153,130.67512 343.50933,121.40894 C 335.73673,116.38375 326.0887,110.57756 322.06925,108.50632 L 314.76117,104.74043 L 305.46416,107.25701 C 296.52976,109.67543 294.54697,111.11798 297.58036,112.99272 C 301.9705,115.70598 294.79718,125.87888 289.67416,124.20496 C 287.82455,123.6006 287.54496,123.7313 288.78126,124.62235 C 290.18363,125.63309 289.97691,126.46644 287.84531,128.3955 C 286.34061,129.75726 283.9408,131.09265 282.51242,131.36304 C 281.08404,131.63342 279.75639,131.98281 279.56207,132.13943 C 279.07862,132.52912 276.74733,133.08984 274.61587,133.32909 C 273.37541,133.46834 273.471,133.92047 274.9369,134.84745 C 276.3651,135.7506 277.81571,135.45141 279.52979,133.90018 C 281.757,131.88459 282.03517,131.87575 282.03517,133.82048 C 282.03517,135.02367 281.05254,136.38518 279.85156,136.84604 C 278.65057,137.30691 276.75239,139.87522 275.63338,142.5534 C 274.51436,145.23158 272.94163,147.82898 272.13841,148.3254 C 270.03328,149.62644 261.56525,144.01014 256.66059,138.05992 C 253.25721,133.93103 252.76786,132.5315 254.10326,130.74596 C 255.45158,128.94317 255.40801,128.84521 253.86589,130.21221 C 252.40488,131.50731 251.30011,131.46091 248.98785,130.00735 C 246.50838,128.44867 244.19562,128.4442 235.42644,129.98118 C 229.61174,131.00034 224.3496,131.52228 223.73277,131.14105 C 223.11595,130.75983 223.89879,132.74026 225.47243,135.54199 C 232.58301,148.2018 225.25464,154.44011 209.96202,148.74533 z M 272.76792,144.92149 C 273.20349,144.21672 272.28712,143.97291 270.73153,144.37972 C 267.43172,145.24263 267.0146,146.2029 269.93957,146.2029 C 271.05959,146.2029 272.33234,145.62627 272.76792,144.92149 z M 270.25852,138.49247 C 270.25852,137.36077 269.71819,136.76878 269.05779,137.17692 C 268.3974,137.58507 268.22294,138.511 268.67014,139.23456 C 269.81288,141.08356 270.25852,140.87536 270.25852,138.49247 z M 195.83003,138.60334 C 195.83003,138.30989 194.71713,137.19699 193.35693,136.13024 C 191.11551,134.3724 191.06552,134.42239 192.82336,136.66381 C 194.66952,139.01784 195.83003,139.76646 195.83003,138.60334 z M 224.09401,138.60334 C 224.09401,138.30989 222.98111,137.19699 221.62091,136.13024 C 219.37949,134.3724 219.32951,134.42239 221.08734,136.66381 C 222.9335,139.01784 224.09401,139.76646 224.09401,138.60334 z M 265.46985,136.13831 C 264.59788,135.26633 264.20205,133.72526 264.59022,132.71369 C 264.97839,131.70212 263.9748,130.16739 262.35999,129.30317 C 260.74518,128.43896 259.42398,128.15007 259.42398,128.66123 C 259.42398,129.17238 258.31109,128.72875 256.95089,127.67541 C 254.60071,125.85542 254.60086,125.90519 256.95397,128.67696 C 258.31587,130.28115 258.95181,132.12098 258.36717,132.76547 C 257.78253,133.40994 257.98567,133.54991 258.8186,133.07647 C 259.65152,132.60305 261.39414,133.455 262.69106,134.9697 C 263.988,136.4844 265.5005,137.7237 266.05218,137.7237 C 266.60388,137.7237 266.34183,137.01028 265.46985,136.13831 z M 260.65692,131.01101 C 258.89908,128.76959 258.94906,128.71961 261.19048,130.47744 C 263.54452,132.3236 264.29313,133.48411 263.13001,133.48411 C 262.83656,133.48411 261.72367,132.37121 260.65692,131.01101 z M 144.08844,134.63872 C 143.68029,133.97833 142.75437,133.80387 142.03081,134.25105 C 140.18181,135.39381 140.39,135.83944 142.77289,135.83944 C 143.9046,135.83944 144.49659,135.29912 144.08844,134.63872 z M 193.78483,132.19161 C 192.57987,130.24196 196.1765,129.44073 199.18027,130.98967 C 201.13881,131.99961 201.55073,131.91089 200.76979,130.64729 C 199.99689,129.39673 200.61116,129.23517 203.07235,130.04172 C 204.91852,130.64673 208.19793,131.0212 210.35993,130.87387 C 212.52193,130.72656 215.52832,131.2683 217.04082,132.07776 C 219.19689,133.23165 219.62975,133.12985 219.04514,131.60635 C 218.31466,129.70275 223.77573,128.79378 246.70519,127.00243 C 256.77368,126.21584 261.07856,125.32882 262.70084,123.70654 C 263.76968,122.63769 265.25884,123.12174 267.81252,125.3681 C 270.94003,128.11926 271.09066,128.14992 268.95297,125.60024 C 266.3136,122.45219 265.65718,120.08381 267.78925,121.4015 C 268.50384,121.84315 270.02062,121.2724 271.15984,120.13316 C 272.84429,118.44871 274.04346,118.36843 277.58007,119.70337 C 281.92529,121.3435 282.56785,123.54119 279.95651,127.83131 C 278.88416,129.59306 279.03238,129.6548 280.83402,128.19688 C 282.02631,127.23204 283.27187,126.5961 283.60195,126.78368 C 283.93202,126.97124 283.76422,126.57027 283.22905,125.89261 C 282.69389,125.21496 282.58896,123.79292 282.99586,122.73255 C 283.44489,121.56242 282.29052,120.25515 280.05904,119.40674 C 278.03686,118.63791 276.38237,117.60713 276.38237,117.1161 C 276.38237,116.62508 277.2952,116.57361 278.41086,117.00173 C 279.52654,117.42985 280.66984,117.08874 280.95151,116.24369 C 281.31687,115.14761 282.2718,115.13972 284.28313,116.21616 C 286.68009,117.49896 287.13709,117.26728 287.33273,114.67012 C 287.49504,112.51534 287.21692,112.17489 286.38885,113.51471 C 285.60382,114.78493 284.90613,114.91471 284.28298,113.90645 C 283.13188,112.04393 308.48901,103.93974 317.01388,103.44559 C 320.44305,103.24681 323.28509,102.28864 323.71253,101.18721 C 324.12087,100.13498 325.43655,99.650748 326.63626,100.11111 C 327.88451,100.59012 328.44822,100.35058 327.95413,99.551148 C 327.47927,98.782788 327.7277,98.154128 328.5062,98.154128 C 329.2847,98.154128 329.67928,96.895618 329.38306,95.357448 C 329.08684,93.819268 329.34394,92.252068 329.9544,91.874788 C 331.56715,90.878058 329.32217,77.879878 327.42824,77.248578 C 326.54741,76.954968 326.19593,76.117368 326.64718,75.387218 C 327.09843,74.657098 326.9434,74.150788 326.30268,74.262078 C 323.41659,74.763438 321.51438,74.006058 322.33298,72.681528 C 322.82525,71.885018 322.38583,71.408068 321.35649,71.621628 C 320.32714,71.835208 318.71256,73.281828 317.76853,74.836348 C 316.0521,77.662738 316.0521,77.662738 315.86116,74.836348 C 315.70082,72.462988 315.48886,72.576258 314.53875,75.542938 C 313.50506,78.770638 313.39512,78.812588 313.26642,76.028548 C 313.15458,73.608948 312.48609,73.148378 310.02153,73.792868 C 307.15977,74.541238 307.12413,74.677078 309.56491,75.533248 C 312.03723,76.400488 312.04815,76.524888 309.73023,77.414358 C 306.51243,78.649138 300.17533,77.060688 301.26773,75.293158 C 301.73053,74.544348 303.47497,73.380608 305.14427,72.707088 C 307.43908,71.781188 307.59649,71.460648 305.78966,71.392928 C 304.47533,71.343648 303.00051,71.949658 302.51231,72.739598 C 302.02411,73.529528 301.1005,73.851898 300.45987,73.455958 C 299.35722,72.774488 296.85371,79.286568 297.34854,81.549038 C 297.47604,82.131988 297.01336,82.608938 296.32037,82.608938 C 295.20163,82.608938 292.66333,76.052808 293.01262,74.065428 C 293.08714,73.641428 291.44262,73.336038 289.35814,73.386768 C 287.27366,73.437498 284.77169,72.512538 283.79821,71.331288 C 282.25242,69.455588 282.13733,69.496798 282.8895,71.656648 C 283.49336,73.390638 283.02035,74.129748 281.30672,74.129748 C 279.42236,74.129748 279.22313,74.564038 280.43667,76.026268 C 281.30235,77.069358 281.5922,78.341228 281.08078,78.852668 C 280.56934,79.364088 280.87287,79.782538 281.75529,79.782538 C 282.63769,79.782538 282.98644,80.755148 282.53028,81.943868 C 281.81297,83.813138 281.45398,83.767508 279.87355,81.606158 C 278.86852,80.231688 278.34531,78.623138 278.71089,78.031628 C 279.07647,77.440108 278.66458,76.956138 277.79557,76.956138 C 276.92657,76.956138 276.58144,76.364138 277.02861,75.640598 C 277.47581,74.917038 277.16493,73.906798 276.3378,73.395598 C 275.51067,72.884408 275.02334,71.091638 275.25485,69.411648 C 275.58304,67.030088 274.66391,66.059258 271.08288,65.004998 C 268.55678,64.261328 266.48998,63.168388 266.48998,62.576258 C 266.48998,61.984128 265.6004,61.841028 264.51313,62.258248 C 263.42585,62.675468 262.12082,62.344608 261.61303,61.523008 C 260.99969,60.530568 259.52867,60.789968 257.23049,62.295798 C 255.0995,63.692068 253.77119,63.957368 253.77119,62.986688 C 253.77119,60.832248 249.93808,60.987278 249.05432,63.177448 C 248.6285,64.232748 248.29661,63.948268 248.22996,62.470848 C 248.1686,61.110648 247.16448,59.997748 245.99859,59.997748 C 244.8327,59.997748 243.87879,59.324278 243.87879,58.501148 C 243.87879,57.678018 244.40874,57.332078 245.05646,57.732378 C 245.70418,58.132698 246.23413,57.562258 246.23413,56.464758 C 246.23413,55.367248 245.75849,54.763248 245.17716,55.122528 C 244.59584,55.481808 243.79811,54.976878 243.40447,54.000458 C 242.97268,52.929458 242.64448,53.206268 242.57717,54.698258 C 242.51492,56.077948 241.37219,57.161788 239.9925,57.149718 C 237.87899,57.131218 237.82762,56.928888 239.6392,55.758158 C 241.17954,54.762708 241.25331,54.382318 239.90909,54.366588 C 238.89164,54.354698 238.45222,53.709018 238.9326,52.931758 C 239.41297,52.154498 239.13254,51.518558 238.3094,51.518558 C 237.48627,51.518558 236.8128,52.032948 236.8128,52.661648 C 236.8128,53.290358 235.85733,55.039188 234.68954,56.547948 C 232.61561,59.227388 232.58848,59.227968 233.52168,56.572708 C 234.2744,54.431008 233.97531,54.046818 232.11195,54.761868 C 229.81144,55.644648 228.68686,53.760058 230.8067,52.574548 C 231.38965,52.248528 231.04654,52.185218 230.04424,52.433858 C 229.04193,52.682498 226.95572,52.101318 225.40821,51.142348 C 223.13331,49.732618 222.36248,49.771678 221.38249,51.346308 C 220.04432,53.496458 217.01552,52.323718 217.04965,49.668648 C 217.06555,48.432428 217.34696,48.413058 218.10955,49.595678 C 218.86613,50.768968 219.62324,50.693378 220.90023,49.317078 C 222.00319,48.128368 222.13413,47.107908 221.25353,46.563668 C 220.48402,46.088068 219.85441,46.409958 219.85441,47.278958 C 219.85441,48.147968 219.29053,48.510468 218.60134,48.084528 C 217.0452,47.122778 213.87801,50.723888 215.156,52.001888 C 215.66744,52.513308 215.42181,52.931758 214.61018,52.931758 C 212.67722,52.931758 209.75006,49.375178 210.81037,48.314878 C 211.26347,47.861768 210.46304,47.679618 209.03161,47.910108 C 207.60018,48.140598 205.47511,47.615928 204.30922,46.744178 C 202.42496,45.335278 202.42496,45.459668 204.30922,47.863628 C 206.31658,50.424658 206.25552,50.475648 203.15807,48.824968 C 200.59891,47.461168 200.23693,46.660358 201.49464,45.144928 C 202.84086,43.522838 202.51296,43.481428 199.4771,44.890188 C 197.48334,45.815378 195.76051,47.844238 195.6486,49.398758 C 195.48232,51.708408 195.32923,51.613888 194.81125,48.881858 C 194.46261,47.043028 192.96652,45.221898 191.48659,44.834888 C 190.00667,44.447868 189.20489,43.469328 189.70488,42.660348 C 190.27711,41.734448 189.91344,41.622388 188.72333,42.357918 C 187.25093,43.267908 187.50575,43.973248 189.87526,45.546538 C 192.48127,47.276868 192.63429,47.850188 190.94184,49.542628 C 188.29425,52.190228 186.54333,52.074558 188.76403,49.398758 C 190.24578,47.613348 189.9813,47.278958 187.08737,47.278958 C 185.19761,47.278958 182.417,46.345278 180.90824,45.204098 C 177.18645,42.389098 168.97924,42.358178 168.97924,45.159158 C 168.97924,46.325048 169.65272,47.278958 170.47585,47.278958 C 171.29898,47.278958 171.66094,46.774948 171.28021,46.158918 C 170.8995,45.542888 172.41001,44.900028 174.63691,44.730338 C 176.86382,44.560658 179.08314,45.064678 179.56874,45.850398 C 180.05433,46.636108 179.74064,47.278958 178.87164,47.278958 C 177.99887,47.278958 177.75399,48.069688 178.32456,49.045458 C 178.89266,50.017038 177.97629,49.600508 176.28815,48.119828 C 174.60003,46.639168 173.21884,46.088048 173.21884,46.895108 C 173.21884,47.702188 171.94608,48.695358 170.39049,49.102148 C 168.8349,49.508948 167.91852,49.265138 168.3541,48.560368 C 168.78968,47.855588 167.67766,47.288698 165.88295,47.300598 C 163.43108,47.316868 163.11287,47.634378 164.60298,48.577788 C 166.02758,49.479718 165.55037,49.772138 162.90859,49.616058 C 160.58706,49.478878 159.72556,48.903728 160.57215,48.056218 C 161.30975,47.317828 161.89391,45.727978 161.87027,44.523218 C 161.8349,42.720078 161.57261,42.770048 160.38685,44.805858 C 158.71278,47.680088 155.40155,48.068938 154.36999,45.512458 C 153.97795,44.540888 153.56229,45.653778 153.44629,47.985558 C 153.26638,51.602288 153.06835,51.809908 152.09837,49.398758 C 151.473,47.844238 151.15865,46.222598 151.39981,45.795098 C 151.64099,45.367608 150.3306,45.017838 148.48786,45.017838 C 146.64512,45.017838 145.45184,45.526598 145.83614,46.148398 C 146.22043,46.770208 145.54343,47.278958 144.33167,47.278958 C 143.1199,47.278958 142.12846,46.643018 142.12846,45.865758 C 142.12846,45.088498 140.6976,44.526328 138.94876,44.616498 C 136.52903,44.741248 136.36429,44.935698 138.25946,45.430048 C 139.62919,45.787348 140.38016,46.677858 139.92831,47.408958 C 139.47647,48.140078 138.52205,48.376888 137.80741,47.935208 C 137.09234,47.493288 136.92071,48.207558 137.42573,49.523628 C 138.22311,51.601558 138.54522,51.641238 139.88265,49.826298 C 140.72921,48.677448 142.23817,48.012408 143.23587,48.348428 C 144.23358,48.684448 145.98241,48.185448 147.12217,47.239528 C 148.62412,45.993018 149.19446,45.965968 149.19446,47.141258 C 149.19446,48.033118 147.31148,49.139408 145.01006,49.599698 C 139.6454,50.672628 140.43419,55.200208 146.3933,57.539268 C 148.09537,58.207358 148.0448,58.382328 146.12346,58.472978 C 144.82305,58.534338 141.80147,56.626958 139.40886,54.234348 C 135.62808,50.453558 134.93666,50.202038 134.12667,52.312818 C 133.26298,54.563588 133.04214,54.545818 131.11206,52.070128 C 129.31065,49.759468 129.14452,49.732698 129.88179,51.871858 C 130.87786,54.761888 129.36381,55.095368 126.67366,52.578458 C 125.12478,51.129338 124.92707,51.397748 125.57321,54.072348 C 126.08912,56.207848 125.78976,57.139758 124.70557,56.773358 C 123.79516,56.465688 123.12951,54.802088 123.22637,53.076458 C 123.35316,50.817428 122.8026,50.169148 121.25998,50.761108 C 119.40823,51.471698 119.38434,51.259818 121.08389,49.199738 C 122.86455,47.041348 122.76751,46.966858 120.05638,48.411078 C 118.40975,49.288238 116.66092,49.604338 116.17008,49.113508 C 115.67927,48.622678 115.27768,48.910038 115.27768,49.752058 C 115.27768,50.594088 117.02651,51.921758 119.16398,52.702428 C 121.30144,53.483088 122.21781,54.172028 121.20037,54.233388 C 120.18292,54.294748 119.75312,55.139878 120.24527,56.111458 C 120.73742,57.083028 120.22787,56.765058 119.11297,55.404858 C 116.43442,52.136958 115.31393,52.277338 115.99154,55.795898 C 116.29873,57.391008 115.93949,58.286978 115.18075,57.818048 C 114.43144,57.354958 114.18424,56.384058 114.63144,55.660508 C 115.07861,54.936958 114.77102,54.344958 113.94789,54.344958 C 113.12475,54.344958 112.45105,54.821908 112.45078,55.404858 C 112.45052,55.987798 110.22473,56.586688 107.50459,56.735708 C 104.78445,56.884748 102.55889,56.339748 102.55889,55.524608 C 102.55889,54.709488 103.41148,54.369728 104.45353,54.769608 C 105.4956,55.169488 107.23912,54.946028 108.32802,54.273058 C 109.96196,53.263228 109.98366,52.730548 108.45222,51.224108 C 106.93426,49.730918 106.67925,49.758488 107.05084,51.375588 C 107.38342,52.822968 105.89652,53.370198 101.49899,53.418888 C 98.19563,53.455458 95.49289,54.034278 95.49289,54.705168 C 95.49289,55.376058 94.75869,55.471208 93.86134,54.916608 C 92.77578,54.245698 92.61689,54.534598 93.38657,55.779958 C 94.21977,57.128108 93.90407,57.406358 92.25799,56.774698 C 90.33758,56.037768 90.06547,56.789238 90.55396,61.480738 C 90.88999,64.708028 90.52808,67.063748 89.69623,67.063748 C 88.90475,67.063748 88.54446,65.240988 88.89557,63.013178 C 89.63621,58.313668 88.0375,54.958608 85.73544,56.381348 C 84.85861,56.923268 84.61013,58.117628 85.18326,59.035508 C 85.7564,59.953368 86.36245,61.976228 86.53004,63.530748 C 86.69763,65.085268 86.50575,65.567308 86.10362,64.601938 C 85.53935,63.247288 84.67591,63.219518 82.32017,64.480298 C 78.58867,66.477328 72.59067,67.264758 73.60439,65.624518 C 74.00954,64.968988 73.72247,64.050368 72.96648,63.583138 C 72.21048,63.115918 71.94213,61.641108 72.37014,60.305798 C 72.97,58.434298 72.83315,58.319398 71.77288,59.804358 C 70.61164,61.430768 70.27814,61.430768 69.63135,59.804358 C 69.083,58.425528 68.83353,58.557208 68.75368,60.267648 C 68.69232,61.581978 69.27805,63.050378 70.05531,63.530748 C 72.27787,64.904368 71.70472,67.065688 69.35682,66.164718 C 68.1954,65.719028 67.59699,64.785078 68.02703,64.089278 C 68.45706,63.393458 68.09791,62.824148 67.22891,62.824148 C 66.3599,62.824148 66.0977,62.029228 66.64623,61.057648 C 67.41426,59.697268 67.23141,59.671888 65.85083,60.947228 C 64.86482,61.858058 63.18168,62.266968 62.1105,61.855928 C 61.03934,61.444868 60.16291,61.890408 60.16291,62.845998 C 60.16291,64.139458 59.56211,64.087808 57.81175,62.643888 C 55.67979,60.885188 55.61855,61.000818 57.15486,63.884048 C 59.16666,67.659608 57.78881,68.092118 54.90385,64.590648 C 53.12788,62.435168 52.95919,62.417258 53.59031,64.451238 C 54.34552,66.885158 51.31736,67.263848 49.25152,64.993818 C 48.64595,64.328388 49.04368,64.302258 50.13557,64.935728 C 51.46354,65.706158 51.78992,65.552488 51.12177,64.471408 C 50.40171,63.306308 49.16585,63.482798 46.69141,65.104108 C 44.02735,66.849678 43.55853,67.911018 44.59559,69.848798 C 45.33033,71.221658 45.57265,72.703758 45.13408,73.142318 C 44.69551,73.580888 47.64285,75.615068 51.68372,77.662738 C 55.72459,79.710408 59.37651,81.040008 59.7991,80.617418 C 60.22169,80.194828 59.52617,79.449488 58.2535,78.961118 C 56.98083,78.472758 56.24702,77.575678 56.62282,76.967618 C 56.99862,76.359558 56.20005,75.949238 54.84821,76.055808 C 50.51301,76.397518 52.16781,72.277338 56.60439,71.683198 C 62.75996,70.858868 62.8157,69.929618 56.69579,70.159688 C 53.75534,70.270228 51.09474,71.193848 50.69177,72.243968 C 49.58308,75.133148 47.61601,74.484288 48.3996,71.487868 C 48.96976,69.307568 50.36638,68.875488 56.39319,69.014768 C 63.08145,69.169348 63.66759,69.451098 63.35927,72.363248 C 63.17412,74.112078 63.68861,75.542938 64.50258,75.542938 C 65.31654,75.542938 65.58949,76.178878 65.10911,76.956138 C 64.62874,77.733398 63.59977,78.369338 62.82251,78.369338 C 62.04525,78.369338 61.80234,77.733398 62.28271,76.956138 C 62.76309,76.178878 62.52017,75.542938 61.74291,75.542938 C 59.1686,75.542938 58.5294,78.373508 60.89843,79.282588 C 62.57705,79.926738 62.75281,80.468508 61.5286,81.225108 C 60.2907,81.990168 60.67849,83.420738 62.96044,86.507248 C 64.68167,88.835348 65.78405,91.931348 65.41018,93.387238 C 64.79623,95.777908 64.7145,95.753178 64.56644,93.131858 C 64.34644,89.236618 56.94215,82.282108 47.44412,77.049668 C 43.16919,74.694618 40.82196,72.756228 42.22803,72.742148 C 43.63411,72.728058 44.38508,72.070228 43.89688,71.280298 C 43.40868,70.490358 42.30915,70.276708 41.45351,70.805518 C 40.49703,71.396658 40.20193,70.974478 40.68736,69.709468 C 41.12161,68.577838 40.59374,66.444148 39.51432,64.967948 C 38.4333,63.489558 37.55173,63.077528 37.55173,64.050648 C 37.55173,65.053788 36.78825,65.386308 35.78523,64.820028 C 34.37203,64.022178 34.37203,64.203338 35.78523,65.725868 C 37.8422,67.941968 38.16161,70.433878 36.23618,69.243908 C 35.51262,68.796708 34.53835,69.049378 34.07112,69.805368 C 33.6039,70.561378 32.32669,70.836498 31.23291,70.416758 C 30.13912,69.997038 28.09268,70.323448 26.68527,71.142118 C 24.58489,72.363868 25.15052,72.638298 29.84165,72.673568 C 38.3388,72.737458 49.80744,80.107888 55.76037,89.330468 C 60.88469,97.269308 65.59196,99.068428 68.6786,94.267828 C 70.10997,92.041628 70.17916,92.076908 69.37169,94.621128 C 68.68308,96.790828 68.86284,97.062388 70.14534,95.789898 C 71.42834,94.516938 70.62577,92.906708 66.68683,88.850908 C 60.63439,82.618888 61.10368,80.273598 67.22891,86.141938 C 69.54448,88.360388 71.86961,89.744888 72.3959,89.218608 C 72.92218,88.692318 72.63081,88.261738 71.74839,88.261738 C 70.85947,88.261738 70.49878,87.158878 70.93957,85.788638 C 71.53463,83.938828 71.39494,83.790598 70.38529,85.200538 C 69.28631,86.735178 68.87725,86.673268 68.18426,84.867368 C 67.54541,83.202578 68.16213,82.717838 70.65637,82.924268 C 73.00502,83.118648 73.74106,83.838038 73.16608,85.377228 C 72.44014,87.320568 72.63854,87.326828 75.00819,85.435338 C 76.55317,84.202108 77.21999,84.054348 76.60257,85.082038 C 75.93472,86.193678 76.35806,86.848538 77.7445,86.848538 C 80.56335,86.848538 80.51695,86.211508 77.4746,83.142248 C 75.11758,80.764388 75.13416,80.699398 77.8279,81.757588 C 82.09913,83.435458 87.0137,83.786978 87.0137,82.414608 C 87.0137,81.744228 85.46138,81.195738 83.56411,81.195738 C 81.66683,81.195738 79.65956,80.459618 79.10353,79.559928 C 78.41595,78.447418 79.03359,78.170208 81.03418,78.693378 C 83.30384,79.286898 83.79514,78.934208 83.18485,77.149498 C 82.63219,75.533288 83.05501,75.687258 84.58824,77.660518 C 85.79514,79.213808 87.25466,80.012638 87.83161,79.435688 C 88.40858,78.858728 87.7281,77.113138 86.31945,75.556598 C 84.24922,73.269018 83.32533,73.049358 81.49969,74.410628 C 79.85334,75.638238 79.91301,75.361728 81.71981,73.390608 C 84.15834,70.730308 84.2459,70.733858 87.12205,73.610008 C 90.46548,76.953438 93.18943,87.214218 91.85214,91.427658 C 91.22694,93.397458 91.45904,93.954188 92.60912,93.243388 C 93.53831,92.669118 95.12773,93.368178 96.22323,94.832908 C 98.03675,97.257708 98.11969,97.191028 97.36579,93.914528 C 96.59292,90.555638 96.65597,90.514728 98.64492,93.084248 C 100.02471,94.866798 101.60031,95.455668 103.27282,94.813858 C 105.62862,93.909858 105.58148,93.598938 102.60879,90.434638 L 99.40889,87.028518 L 102.75039,87.742358 C 105.63644,88.358908 105.75715,88.242078 103.63611,86.885248 C 100.4757,84.863528 97.64764,79.782538 99.68277,79.782538 C 100.48738,79.782538 101.14569,80.676908 101.14569,81.770038 C 101.14569,83.067758 102.24921,83.548148 104.32538,83.154238 C 107.28848,82.592018 107.31255,82.642398 104.67868,83.893808 C 102.55627,84.902208 102.40961,85.261428 104.08985,85.336018 C 107.02303,85.466218 108.18993,84.196628 107.29076,81.853418 C 106.89136,80.812588 105.5043,80.298808 104.20843,80.711678 C 102.33539,81.308438 102.25485,81.175658 103.8156,80.064108 C 105.37895,78.950718 104.94709,78.215328 101.6958,76.454388 C 99.13114,75.065328 98.47795,74.221868 99.93939,74.186328 C 101.21907,74.155208 104.26995,76.412008 106.71909,79.201428 C 109.61083,82.494948 111.94762,83.975518 113.38405,83.424298 C 115.18845,82.731888 115.26918,82.181718 113.82225,80.438268 C 112.84669,79.262798 112.44174,77.907818 112.92234,77.427208 C 114.61414,75.735418 117.94568,80.044538 118.37569,84.480678 C 118.61493,86.948888 119.44662,88.870078 120.22387,88.749978 C 121.00113,88.629888 122.08588,89.257818 122.63441,90.145358 C 123.18615,91.038108 123.52776,90.378598 123.39901,88.669258 C 123.22167,86.315048 122.73188,85.939938 121.34177,87.093628 C 119.94607,88.251938 119.51728,87.883278 119.51728,85.524978 C 119.51728,83.779918 120.14572,82.830528 120.96549,83.337178 C 121.762,83.829448 122.2909,83.707998 122.14082,83.067278 C 121.99074,82.426568 122.38081,79.426488 123.00766,76.400428 C 124.1205,71.028238 124.18901,70.976348 125.91397,74.199428 C 126.8856,76.014928 127.58398,79.553558 127.46595,82.063058 C 127.27547,86.113008 127.73,86.699128 131.51021,87.278278 C 133.85258,87.637138 136.50738,87.338408 137.40975,86.614428 C 138.42432,85.800418 139.36347,85.804588 139.87072,86.625338 C 140.32187,87.355308 139.09516,88.998208 137.14467,90.276208 C 133.88414,92.412598 133.52762,92.415508 132.72055,90.312298 C 132.01664,88.477958 131.60601,88.398208 130.64784,89.909738 C 129.75316,91.321128 129.44751,91.350898 129.4313,90.028238 C 129.41941,89.056658 128.87972,88.261738 128.23201,88.261738 C 127.58428,88.261738 127.05433,89.180318 127.05433,90.303018 C 127.05433,91.425728 127.68698,92.220658 128.4602,92.069518 C 129.23343,91.918388 130.33592,93.384578 130.91019,95.327728 C 131.93585,98.798208 131.95682,98.802988 132.0952,95.597618 C 132.174,93.772208 132.86885,92.725608 133.67232,93.222178 C 134.46225,93.710398 134.68196,94.800088 134.16056,95.643738 C 133.59004,96.566868 133.87139,96.770448 134.86716,96.155028 C 135.77719,95.592608 136.17561,94.572348 135.75253,93.887778 C 135.32946,93.203228 136.23118,91.975298 137.75638,91.159028 C 142.07727,88.846568 142.81125,89.395908 139.87439,92.744248 C 138.39371,94.432388 137.91788,95.385418 138.81697,94.862098 C 139.89784,94.232978 140.20976,94.835738 139.73762,96.641188 C 139.27906,98.394738 138.1885,99.112628 136.68971,98.647578 C 134.88518,98.087638 134.97803,98.430338 137.09907,100.15857 C 139.41724,102.04741 139.4849,102.39373 137.53578,102.39373 C 136.26719,102.39373 134.81715,101.72691 134.31346,100.9119 C 133.68003,99.887008 132.82157,99.908178 131.52947,100.98053 C 129.41018,102.73938 127.22175,100.55094 128.70307,98.154128 C 129.18344,97.376868 129.14611,96.044578 128.6201,95.193488 C 128.08009,94.319738 126.53574,96.165478 125.0728,99.433088 C 122.36445,105.48239 120.38051,106.68167 119.00622,103.10033 C 118.55883,101.93444 118.96775,100.97079 119.91492,100.95889 C 121.18737,100.94289 121.21102,100.66612 120.00552,99.898988 C 118.51109,98.947978 118.10408,98.105328 118.10408,95.962408 C 118.10408,95.534228 115.87829,96.881588 113.15788,98.956538 C 107.92996,102.94407 106.79734,102.21548 110.34663,97.148138 C 111.69802,95.218768 111.95735,93.776078 111.05323,93.217298 C 110.26765,92.731768 109.62488,93.288438 109.62488,94.454328 C 109.62488,95.620218 108.92081,97.009268 108.06029,97.541098 C 107.00545,98.193018 106.77765,97.414448 107.36113,95.151408 L 108.22658,91.794728 L 106.54668,95.071458 C 105.45946,97.192138 103.97812,98.115788 102.34795,97.689498 C 100.96259,97.327208 99.96636,97.676028 100.1341,98.464638 C 100.58883,100.60246 92.55281,101.92842 86.90022,100.64829 C 85.99106,100.4424 84.93358,101.1353 84.55026,102.18808 C 83.40314,105.33866 100.26922,103.22686 104.53612,99.685638 C 108.15385,96.683198 107.14565,100.16171 103.3701,103.70865 C 101.48449,105.48008 99.2587,106.50731 98.42391,105.99138 C 97.5891,105.47545 96.90609,106.04476 96.90609,107.25652 C 96.90609,108.46828 97.58745,109.45972 98.42023,109.45972 C 99.253,109.45972 98.9292,110.4649 97.70065,111.69345 C 96.4721,112.922 95.79469,114.45754 96.19531,115.10575 C 96.59592,115.75396 96.12482,116.59179 95.1484,116.96758 C 94.17197,117.34338 94.75989,117.58365 96.45488,117.50152 C 98.18696,117.4176 99.15128,116.70702 98.6567,115.87905 C 98.17273,115.06884 98.82486,115.25559 100.10591,116.29408 C 101.38695,117.33257 103.09887,117.77199 103.91019,117.27057 C 104.72149,116.76916 105.38528,117.02526 105.38528,117.83968 C 105.38528,118.65411 106.81615,119.25598 108.56498,119.17715 C 110.31382,119.09833 113.97047,119.53069 116.69088,120.13793 C 121.10548,121.12334 121.43875,121.00075 119.7917,118.99733 C 118.27335,117.15042 118.27335,116.8022 119.7917,117.03222 C 120.80666,117.18599 122.59098,117.89295 123.75687,118.60323 C 125.55798,119.70051 125.59739,119.55003 124.01903,117.60229 C 122.99735,116.34148 121.08706,115.51681 119.77395,115.76968 C 117.10164,116.28433 105.63088,107.32986 107.09145,105.86929 C 107.6048,105.35593 109.34021,106.1614 110.94789,107.65919 C 112.97358,109.54641 115.21548,110.18512 118.2505,109.73968 C 121.35735,109.28369 122.07508,108.74524 120.72035,107.88675 C 119.17141,106.9052 119.21109,106.68198 120.93047,106.70504 C 123.20811,106.7356 130.94059,110.73929 128.88334,110.82285 C 128.20521,110.85038 128.35869,111.72635 129.22437,112.76945 C 130.09005,113.81253 130.34629,115.11803 129.79378,115.67053 C 129.24127,116.22305 129.98706,116.21545 131.45108,115.65365 C 133.2262,114.97247 133.79263,115.15045 133.15144,116.18791 C 132.62263,117.04356 132.78045,118.10856 133.50215,118.55459 C 136.03425,120.11951 134.16045,115.09054 131.44664,113.03793 C 127.74941,110.2415 130.77253,110.28831 134.77166,113.08941 C 136.51212,114.30848 137.50928,115.99659 136.98755,116.84076 C 136.43413,117.73622 136.69357,117.97105 137.61032,117.40446 C 138.51796,116.84352 140.07859,118.16771 141.30507,120.53949 C 143.97399,125.70057 146.18971,126.31522 166.01944,127.39516 C 178.04493,128.05009 181.88137,127.85806 181.12792,126.63895 C 179.6599,124.26365 182.45684,124.63341 184.49019,127.08346 C 185.43897,128.22665 187.56663,129.02158 189.21833,128.84996 C 190.87002,128.67833 192.31793,129.33283 192.43587,130.30441 C 192.77157,133.06957 192.94857,133.48411 193.79363,133.48411 C 194.22814,133.48411 194.22416,132.90249 193.78483,132.19161 z M 226.13546,121.77734 C 225.75252,120.77942 223.70567,119.82003 221.58691,119.64536 C 219.46814,119.47067 217.52263,118.6973 217.26355,117.92674 C 216.6315,116.04691 212.78841,116.129 212.78841,118.02232 C 212.78841,118.84546 213.35772,119.16707 214.05354,118.73704 C 214.74934,118.307 215.67273,118.87786 216.10549,120.00562 C 216.75632,121.70169 216.2934,121.78321 213.42718,120.47726 C 211.52134,119.60891 209.96202,118.45202 209.96202,117.90641 C 209.96202,117.36079 208.37217,117.08891 206.42902,117.30221 C 202.95432,117.68364 201.6545,116.04663 204.18852,114.48052 C 204.89939,114.04117 205.76264,114.48059 206.10682,115.45701 C 206.45102,116.43344 206.66433,114.30684 206.58082,110.73126 C 206.45255,105.23762 205.99103,104.22386 203.60262,104.18932 C 198.32083,104.11295 197.24322,103.80868 197.24322,102.39373 C 197.24322,101.61647 198.03815,101.13951 199.00972,101.33383 C 199.99845,101.53158 200.97085,99.999408 201.21827,97.853908 C 201.61202,94.439488 202.10846,94.110318 205.76216,94.841048 C 209.36589,95.561798 209.79399,95.297938 209.28755,92.668178 C 208.9705,91.021898 209.03798,89.674938 209.43751,89.674938 C 210.46266,89.674938 214.6492,93.978268 214.01656,94.381718 C 213.7297,94.564648 212.42278,95.532408 211.11225,96.532288 C 209.29199,97.921088 207.95753,97.975088 205.45945,96.761038 C 202.33663,95.243348 202.31291,95.270748 204.93262,97.369558 C 206.44138,98.578328 208.12219,99.567328 208.66772,99.567328 C 209.21328,99.567328 210.03834,100.55427 210.50124,101.76053 C 211.0511,103.19344 210.77531,103.60297 209.70568,102.94189 C 208.58186,102.24735 208.38038,102.7428 209.06312,104.52202 C 209.61017,105.94758 209.45408,107.48704 208.71627,107.94304 C 207.92622,108.43131 208.23712,110.22052 209.47261,112.29562 C 210.62642,114.23354 211.21582,114.6732 210.78241,113.27262 C 210.34901,111.87205 210.551,111.07012 211.23128,111.49056 C 212.90519,112.52511 215.17683,109.577 216.37053,104.82094 C 217.09486,101.93503 217.80967,101.28318 219.08727,102.34349 C 220.04085,103.13489 221.18967,103.4138 221.6402,102.96327 C 222.09071,102.51276 222.26627,103.90276 222.03033,106.05217 C 221.79438,108.20159 220.57234,110.71264 219.31468,111.63226 C 216.59362,113.62195 216.32219,115.25368 218.79451,114.75922 C 219.76608,114.5649 220.40202,115.20084 220.20771,116.17242 C 220.01339,117.14399 220.55929,117.93892 221.42081,117.93892 C 222.36593,117.93892 222.65161,116.60176 222.14106,114.56762 C 221.60562,112.43424 222.06829,110.5545 223.40107,109.44839 C 225.11993,108.02185 225.50721,108.12205 225.50721,109.99329 C 225.50721,111.25434 224.9308,112.28612 224.22631,112.28612 C 223.52182,112.28612 223.27801,113.558 223.68453,115.11252 C 224.09105,116.66704 224.92589,117.93892 225.53972,117.93892 C 226.15356,117.93892 226.3232,116.66704 225.91668,115.11252 C 225.34948,112.94354 225.87332,112.28612 228.16878,112.28612 C 230.08367,112.28612 231.15222,113.17601 231.13837,114.75922 C 231.11966,116.89701 230.90998,116.9449 229.59185,115.11252 C 228.29693,113.31237 228.18433,113.35882 228.84517,115.42057 C 229.27318,116.75587 228.97185,118.25106 228.17554,118.74321 C 227.37924,119.23534 227.06909,120.52759 227.48631,121.61486 C 227.90354,122.70213 227.92693,123.59171 227.5383,123.59171 C 227.14967,123.59171 226.51839,122.77524 226.13546,121.77734 z M 208.54882,101.85195 C 208.54882,101.55398 207.27606,100.97735 205.72047,100.57055 C 204.16488,100.16376 203.2485,100.40755 203.68408,101.11232 C 204.44473,102.34309 208.54882,102.96708 208.54882,101.85195 z M 229.7468,120.85053 C 229.7468,119.43948 230.69372,117.49913 231.85104,116.53863 C 233.00837,115.57814 233.64035,114.2827 233.25544,113.65989 C 232.87052,113.03709 233.35447,112.17374 234.3309,111.74135 C 235.53325,111.20888 235.42207,110.99593 233.9864,111.08148 C 232.82051,111.15095 230.63216,111.13246 229.1234,111.04036 C 226.46141,110.87788 226.45812,110.81594 229.01184,108.94861 C 232.02641,106.74432 233.12835,102.40434 230.68166,102.37209 C 229.75333,102.35985 229.96114,101.75529 231.16,100.98053 C 232.32589,100.22707 232.64386,99.591128 231.8666,99.567328 C 231.08934,99.543528 231.40731,98.897838 232.5732,98.132488 C 234.09989,97.130278 234.23651,96.444388 233.06145,95.681028 C 230.45369,93.986958 230.29637,92.497498 232.5732,91.058228 C 234.41512,89.893868 234.39149,89.715378 232.39293,89.696568 C 231.12791,89.684668 229.30121,88.721028 228.3336,87.555138 C 227.366,86.389248 225.38031,85.435338 223.92097,85.435338 C 222.46162,85.435338 221.26761,84.858938 221.26761,84.154438 C 221.26761,83.449948 222.63992,83.232418 224.31719,83.671028 C 226.88965,84.343738 227.24201,83.991388 226.5693,81.418928 C 226.13068,79.741658 226.34822,78.369338 227.05271,78.369338 C 228.65877,78.369338 228.09354,75.170568 226.25473,73.853278 C 225.49606,73.309788 225.42459,72.361948 226.09491,71.733478 C 226.76175,71.108278 227.64425,71.550658 228.05601,72.716548 C 228.46777,73.882438 228.53969,75.018518 228.21584,75.241198 C 227.89198,75.463858 228.54002,76.210308 229.65593,76.899978 C 231.33055,77.934948 231.36445,78.539988 229.85007,80.364708 C 227.966,82.634868 228.13253,82.778848 234.96888,84.790258 C 236.14086,85.135078 236.29585,86.549908 235.47512,89.411608 C 234.82454,91.680038 234.81294,94.378498 235.44933,95.408198 C 236.12607,96.503188 235.70995,99.013948 234.44699,101.45627 C 232.41294,105.38967 232.43944,105.57894 234.90348,104.71607 C 237.39159,103.84476 237.39653,103.89556 235.00477,105.75612 C 232.84302,107.43775 232.79106,107.82773 234.63451,108.53512 C 235.88991,109.01687 236.63946,108.64677 236.44254,107.64236 C 236.25755,106.69877 237.25986,106.02185 238.66988,106.1381 C 241.09929,106.3384 241.10631,106.20886 238.80415,103.665 C 237.38363,102.09534 237.05258,100.98053 238.00697,100.98053 C 238.9047,100.98053 239.6392,99.640618 239.6392,98.002928 C 239.6392,95.822748 240.26041,95.263728 241.95888,95.915478 C 243.81875,96.629188 243.95279,96.413098 242.63511,94.825378 C 241.46095,93.410608 241.40387,91.760868 242.43521,89.048238 C 243.22919,86.959938 243.87879,83.702898 243.87879,81.810338 C 243.87879,79.917798 244.45252,78.369338 245.15374,78.369338 C 246.6192,78.369338 249.07822,85.111388 248.76181,88.261738 C 248.64471,89.427628 248.45203,91.849928 248.33364,93.644638 C 248.18822,95.849258 247.54538,96.563478 246.35189,95.846458 C 245.06397,95.072708 245.09054,95.408498 246.44995,97.085918 C 247.7207,98.653918 247.89403,100.20306 246.99422,101.9501 C 246.26805,103.35999 245.95895,105.30845 246.30732,106.28002 C 246.65569,107.2516 246.35779,108.04652 245.64529,108.04652 C 244.9328,108.04652 244.34986,108.97247 244.34986,110.10416 C 244.34986,111.23586 244.87981,111.83426 245.52753,111.43395 C 246.17524,111.03364 246.70519,111.69755 246.70519,112.90931 C 246.70519,115.93174 245.94844,115.6971 242.0151,111.45517 C 239.24507,108.46783 238.47113,108.19576 237.79028,109.97001 C 237.2173,111.46317 237.59688,111.89653 239.00457,111.35635 C 240.13088,110.92415 241.0524,110.97703 241.0524,111.47387 C 241.0524,111.97069 239.62153,112.95233 237.8727,113.65528 C 235.83351,114.47494 235.49558,114.96549 236.93056,115.02294 C 238.16123,115.07221 239.16814,116.06643 239.16814,117.23232 C 239.16814,119.80105 237.30283,120.03855 236.3934,117.58562 C 235.92843,116.33149 234.97202,116.61646 233.09594,118.56812 C 231.20517,120.53508 231.13427,120.8062 232.84673,119.52119 C 234.88965,117.9882 235.21077,118.11376 235.04015,120.37882 C 234.77758,123.86446 229.7468,124.31277 229.7468,120.85053 z M 243.36774,103.10033 C 242.87224,101.80907 243.36551,100.98053 244.62974,100.98053 C 247.78469,100.98053 247.10869,98.785998 243.87879,98.542688 C 242.32428,98.425588 241.0524,98.874198 241.0524,99.539568 C 241.0524,101.39884 242.6818,105.22013 243.47459,105.22013 C 243.86322,105.22013 243.81514,104.26622 243.36774,103.10033 z M 234.25138,85.883168 C 233.23122,85.474938 232.01235,85.525128 231.54274,85.994718 C 231.07315,86.464318 231.90782,86.798328 233.39756,86.736968 C 235.04387,86.669158 235.37873,86.334288 234.25138,85.883168 z M 237.5194,122.17851 C 237.03902,121.40126 237.31946,120.76532 238.14259,120.76532 C 238.96572,120.76532 239.6392,121.40126 239.6392,122.17851 C 239.6392,122.95577 239.35876,123.59171 239.016,123.59171 C 238.67325,123.59171 237.99977,122.95577 237.5194,122.17851 z M 244.2028,119.34579 C 243.27917,117.86682 243.07976,116.31295 243.75965,115.89275 C 244.43955,115.47256 245.42585,116.23799 245.95145,117.59373 C 246.84713,119.90415 247.02893,119.89316 248.85068,117.41839 C 250.72102,114.87765 250.78599,114.88868 250.57339,117.71107 C 250.45188,119.32421 250.06729,120.35888 249.71875,120.01034 C 249.37022,119.6618 248.36439,119.97473 247.4836,120.70573 C 246.4192,121.58908 245.31894,121.13302 244.2028,119.34579 z M 240.94427,119.70542 C 240.8848,119.12247 240.62311,117.53262 240.36271,116.17242 C 240.10233,114.81221 240.53699,113.69932 241.32863,113.69932 C 242.12028,113.69932 242.43168,114.57574 242.02062,115.64692 C 241.60958,116.7181 241.98669,118.30795 242.85866,119.17992 C 244.03042,120.35166 244.0016,120.76532 242.74823,120.76532 C 241.81552,120.76532 241.00374,120.28836 240.94427,119.70542 z M 253.60881,118.19841 C 255.19979,117.08578 255.0155,116.53478 252.62436,115.25508 C 250.24476,113.98155 249.42522,114.14035 248.33643,116.08592 C 247.29618,117.94474 247.07159,117.45866 247.34789,113.94642 C 247.54452,111.44679 248.07248,109.03458 248.52112,108.58593 C 248.96977,108.13728 249.02615,106.96052 248.6464,105.97093 C 248.26666,104.98132 249.03636,103.75705 250.35686,103.25034 C 252.31357,102.49948 252.44662,102.70392 251.07606,104.35536 C 250.15111,105.46985 249.93254,106.71433 250.59035,107.12086 C 252.23527,108.13749 255.71978,105.82157 254.80718,104.31822 C 253.90277,102.82839 257.36827,99.395878 258.56679,100.59441 C 259.03825,101.06586 259.42398,100.67214 259.42398,99.719458 C 259.42398,98.766778 260.0908,98.399448 260.90581,98.903138 C 261.91582,99.527358 261.85169,100.46471 260.70443,101.84709 C 259.77867,102.96257 259.42981,104.28382 259.9292,104.78321 C 260.42858,105.2826 260.84692,104.79027 260.85882,103.68916 C 260.87711,101.99741 261.08168,102.00521 262.17878,103.73945 C 264.03318,106.67082 262.53202,108.2967 259.47948,106.66303 C 257.57808,105.64543 256.6786,105.79702 256.12962,107.22765 C 254.37755,111.79345 260.69582,112.25649 263.7049,107.78279 C 264.84807,106.08322 267.11751,103.38048 268.74812,101.7767 C 270.37872,100.17291 272.44972,97.463818 273.35035,95.756478 C 274.70746,93.183778 274.56279,92.404688 272.50542,91.206558 C 270.14701,89.833118 270.14655,89.758738 272.49608,89.717908 C 273.85628,89.694268 274.96917,88.961128 274.96917,88.088698 C 274.96917,87.016988 275.54217,86.955468 276.73567,87.899048 C 279.89412,90.396118 286.27477,90.912738 286.27477,88.671418 C 286.27477,86.956098 286.59873,86.970618 288.39457,88.766448 C 289.56045,89.932338 290.5241,92.680508 290.536,94.873488 C 290.55132,97.694708 290.91838,98.291198 291.7912,96.913188 C 292.46967,95.842018 293.69856,95.382058 294.52208,95.891028 C 295.43276,96.453848 295.81181,95.738408 295.48953,94.064948 C 294.77252,90.341838 296.20023,85.288968 297.70622,86.219718 C 298.37598,86.633658 298.70354,88.865368 298.43414,91.179098 C 298.16475,93.492818 298.55325,95.762208 299.2975,96.222168 C 300.04173,96.682128 300.52538,95.556158 300.37228,93.720008 C 299.89121,87.950748 300.35608,85.435338 301.90336,85.435338 C 302.7265,85.435338 303.00693,86.071278 302.52656,86.848538 C 302.04618,87.625798 302.33905,88.261738 303.17739,88.261738 C 304.03524,88.261738 304.41925,89.818928 304.05575,91.823518 C 303.69155,93.831968 303.98766,95.028228 304.73472,94.566528 C 305.46338,94.116178 306.05955,92.152558 306.05955,90.202908 C 306.05955,87.384728 306.60068,86.829828 308.6993,87.495898 C 310.15115,87.956698 313.06755,87.676528 315.1802,86.873308 C 318.14034,85.747868 318.87757,85.820648 318.39445,87.190618 C 318.04966,88.168368 316.72994,88.881158 315.46175,88.774598 C 314.19357,88.668028 313.45549,89.065488 313.82158,89.657848 C 314.18768,90.250188 316.16097,90.734828 318.20669,90.734828 C 320.25241,90.734828 322.48007,91.609248 323.15703,92.677978 C 323.83398,93.746718 324.44485,93.985188 324.51452,93.207928 C 324.81839,89.817328 325.96333,84.845288 326.58289,84.225708 C 328.82588,81.982738 326.72828,92.792998 324.32857,95.843748 C 321.43122,99.527138 313.2087,101.4495 315.38029,97.935778 C 315.93489,97.038418 315.78174,96.679318 315.03995,97.137768 C 314.29817,97.596208 312.92264,96.740558 311.98323,95.236328 C 310.63408,93.075998 310.64889,92.496778 312.05368,92.479698 C 313.25524,92.465068 313.14453,92.013678 311.71235,91.088128 C 308.6686,89.121118 308.07841,89.334238 308.07841,92.400388 C 308.07841,93.899398 308.65756,95.012288 309.36544,94.873488 C 310.07329,94.734698 310.97607,95.512488 311.3716,96.601928 C 311.89889,98.054288 311.25645,98.364558 308.96352,97.764948 C 306.58594,97.143198 306.03031,97.452748 306.64564,99.056248 C 307.26505,100.67043 306.75229,100.94233 304.46049,100.21494 C 302.44672,99.575788 301.7827,99.776948 302.43299,100.82913 C 303.26857,102.18113 298.50268,103.20876 294.40066,102.56108 C 293.81772,102.46904 293.34076,103.10753 293.34076,103.97996 C 293.34076,105.07591 292.68555,105.02242 291.22096,103.80693 C 290.05507,102.83932 289.10116,101.17161 289.10116,100.1009 C 289.10116,99.030168 288.30624,98.144388 287.33467,98.132488 C 286.157,98.118068 286.27477,97.654208 287.68797,96.740928 C 288.85385,95.987468 289.08597,95.361278 288.2038,95.349368 C 285.76254,95.316438 281.75822,102.05576 283.5581,103.16815 C 284.37844,103.67513 285.43126,103.7083 285.89773,103.24184 C 286.36418,102.77538 285.96638,102.39373 285.0137,102.39373 C 284.06102,102.39373 283.67459,101.75779 284.15497,100.98053 C 285.47499,98.844688 287.68797,99.287278 287.68797,101.68713 C 287.68797,102.85302 288.36144,103.80693 289.18457,103.80693 C 290.0077,103.80693 290.28172,104.45324 289.79352,105.24317 C 289.30532,106.03311 288.31387,106.31356 287.59031,105.86638 C 286.86677,105.41919 286.27477,105.79483 286.27477,106.70112 C 286.27477,107.60973 285.29093,107.97138 284.08157,107.5073 C 282.82393,107.02471 282.25667,107.26162 282.75177,108.0627 C 283.22664,108.83106 282.35876,109.45972 280.82314,109.45972 C 279.28751,109.45972 277.78873,110.18686 277.49248,111.07557 C 277.09716,112.26156 276.06895,112.21782 273.62744,110.91116 C 270.78584,109.39039 270.41982,109.44053 271.11616,111.25516 C 271.69253,112.75717 271.2103,113.19087 269.46989,112.73574 C 267.89955,112.32508 266.41663,113.27827 265.37359,115.36879 C 263.829,118.46456 263.7797,118.41138 264.4811,114.40592 L 265.2235,110.16632 L 262.9852,114.05262 C 260.54698,118.28606 258.01078,119.1867 258.01078,115.81912 C 258.01078,114.65323 257.44551,113.69932 256.75461,113.69932 C 256.06371,113.69932 255.58675,114.74377 255.69471,116.02032 C 255.80266,117.29687 254.93708,118.61715 253.77119,118.9543 C 252.02237,119.46001 251.99395,119.32772 253.60881,118.19841 z M 261.34824,114.40592 C 261.79563,113.24003 261.54569,112.28612 260.79284,112.28612 C 260.03997,112.28612 259.42398,113.24003 259.42398,114.40592 C 259.42398,115.57181 259.67392,116.52572 259.97939,116.52572 C 260.28486,116.52572 260.90083,115.57181 261.34824,114.40592 z M 251.50582,111.10846 C 251.90613,110.46073 251.33569,109.93078 250.23819,109.93078 C 249.14069,109.93078 248.57025,110.46073 248.97056,111.10846 C 249.37087,111.75617 249.94131,112.28612 250.23819,112.28612 C 250.53507,112.28612 251.10551,111.75617 251.50582,111.10846 z M 280.30079,101.60147 C 279.26122,100.56191 285.90644,93.940678 288.1055,93.824948 C 289.04174,93.775688 288.31817,93.138518 286.49756,92.409008 C 282.92885,90.979078 280.06901,91.876528 281.38893,94.012178 C 281.83611,94.735728 281.21054,95.327728 279.99878,95.327728 C 278.59082,95.327728 277.79557,96.602968 277.79557,98.860728 C 277.79557,100.80388 278.5375,102.39373 279.44431,102.39373 C 280.3511,102.39373 280.73652,102.03722 280.30079,101.60147 z M 320.45652,95.775558 C 319.43636,95.367328 318.21748,95.417528 317.74788,95.887118 C 317.27829,96.356708 318.11297,96.690718 319.60271,96.629358 C 321.24901,96.561548 321.58387,96.226678 320.45652,95.775558 z M 279.20877,92.584738 C 279.20877,90.666658 276.71514,89.406408 275.81184,90.867968 C 274.96724,92.234558 276.19101,93.914528 278.03111,93.914528 C 278.67882,93.914528 279.20877,93.316128 279.20877,92.584738 z M 198.27957,116.35035 C 199.2382,115.38455 200.37851,114.95034 200.81362,115.38545 C 201.24873,115.82056 200.4644,116.61076 199.07067,117.14146 C 197.05658,117.90838 196.89426,117.74606 198.27957,116.35035 z M 194.5977,112.52166 C 195.48761,111.09667 197.0855,109.93078 198.14855,109.93078 C 199.63374,109.93078 199.53834,110.53081 197.73667,112.52166 C 196.44708,113.94663 194.84921,115.11252 194.18582,115.11252 C 193.52244,115.11252 193.70778,113.94663 194.5977,112.52166 z M 169.36238,109.38768 C 169.24826,107.87279 169.61261,106.63332 170.17204,106.63332 C 170.73147,106.63332 171.32968,104.93569 171.50141,102.8608 C 171.901,98.032508 172.31566,97.683068 177.64542,97.683068 C 181.68055,97.683068 181.84412,97.516438 179.49511,95.798788 C 178.07783,94.762448 177.67572,93.914528 178.60153,93.914528 C 179.52735,93.914528 180.28484,92.324678 180.28484,90.381538 C 180.28484,88.438388 180.95831,86.848538 181.78144,86.848538 C 182.60457,86.848538 182.88501,86.212598 182.40463,85.435338 C 181.92426,84.658078 182.36368,83.971928 183.38113,83.910568 C 184.80385,83.824768 184.82311,83.634398 183.46453,83.086208 C 181.36705,82.239858 181.07715,78.369338 183.11123,78.369338 C 183.88849,78.369338 184.53417,79.164268 184.54607,80.135838 C 184.5619,81.427438 184.84684,81.463708 185.60597,80.270788 C 187.38856,77.469568 189.14232,77.551358 190.28877,80.489138 C 191.33267,83.164098 191.3971,83.145158 191.49109,80.135838 C 191.60794,76.395638 193.80556,75.833738 194.25468,79.429238 C 195.66277,90.701948 193.18748,101.61163 190.28667,96.918018 C 189.3476,95.398558 188.55057,95.349658 186.45922,96.683228 C 183.89207,98.320208 183.89294,98.343768 186.49081,97.521878 C 188.86001,96.772328 188.94033,96.951648 187.19741,99.099658 C 185.89449,100.70542 185.82705,101.16501 186.99753,100.4618 C 187.96911,99.878108 188.76403,100.07399 188.76403,100.89712 C 188.76403,101.72025 187.65114,102.43843 186.29093,102.49306 C 184.17616,102.57799 184.22735,102.76835 186.64423,103.80693 C 189.12779,104.87415 188.98767,105.03353 185.4891,105.12081 C 182.13303,105.20452 181.64849,104.77613 182.40463,102.39373 C 183.03105,100.42005 182.65859,99.567328 181.17006,99.567328 C 179.99767,99.567328 178.66258,100.1755 178.20318,100.91881 C 177.74379,101.66213 176.59336,102.08432 175.64667,101.85702 C 174.7,101.62972 174.40239,101.7105 174.98534,102.03651 C 176.89587,103.10498 176.09392,105.5412 174.08539,104.77046 C 172.75852,104.26128 172.33382,104.81486 172.77045,106.48447 C 173.12513,107.84083 172.5501,109.66865 171.4926,110.5463 C 169.98772,111.79525 169.52477,111.54346 169.36238,109.38768 z M 192.89206,89.321638 C 192.83069,86.018278 192.41052,84.258088 191.95834,85.410098 C 190.5888,88.899218 187.47847,91.322078 185.59517,90.366838 C 184.61763,89.871018 185.02441,90.446028 186.49912,91.644668 C 187.97384,92.843298 189.72267,93.488858 190.38542,93.079258 C 191.04817,92.669658 191.59043,93.007988 191.59043,93.831128 C 191.59043,94.654258 191.9084,95.327728 192.29703,95.327728 C 192.68566,95.327728 192.95342,92.624988 192.89206,89.321638 z M 182.6614,111.36522 C 180.92241,109.62624 181.65386,106.63332 183.81783,106.63332 C 186.17259,106.63332 186.46631,107.85207 184.75956,110.54086 C 184.13544,111.52411 183.19126,111.89507 182.6614,111.36522 z M 132.23607,108.75312 C 132.23607,106.80352 131.86577,105.86348 130.84431,105.22013 C 130.22729,104.8315 130.49034,103.80156 131.42888,102.93138 C 132.69393,101.75845 133.81991,101.84983 135.78218,103.28468 C 138.08267,104.96682 138.1221,105.22013 136.08352,105.22013 C 134.57919,105.22013 134.02971,105.98038 134.55141,107.33992 C 134.99881,108.50581 134.66088,109.45972 133.80046,109.45972 C 132.94004,109.45972 132.23607,109.14175 132.23607,108.75312 z M 144.59083,106.02166 C 144.9523,104.13073 146.22702,102.20795 147.42352,101.7488 C 150.63999,100.51454 151.26645,101.93683 148.6561,104.54717 C 147.39767,105.8056 146.36806,107.42572 146.36806,108.14747 C 146.36806,108.8692 145.8203,109.45972 145.15083,109.45972 C 144.48135,109.45972 144.22935,107.91259 144.59083,106.02166 z M 153.84698,107.69322 C 153.81501,106.72165 153.2983,104.08304 152.69875,101.82965 C 152.07362,99.480178 152.14866,98.048438 152.87465,98.473098 C 153.57095,98.880418 155.41253,98.667738 156.96705,98.000498 C 159.47316,96.924828 159.39309,96.824758 156.26045,97.117448 C 153.95542,97.332808 152.86241,96.797038 153.11577,95.575988 C 153.32933,94.546638 152.85238,94.107218 152.05587,94.599498 C 151.25935,95.091768 150.60765,96.342878 150.60765,97.379738 C 150.60765,98.416598 149.49476,99.688618 148.13456,100.20646 C 146.15163,100.96137 146.01158,100.79527 147.42796,99.368418 C 148.39953,98.389648 149.19446,96.444158 149.19446,95.045088 C 149.19446,93.646028 149.93639,92.501328 150.84319,92.501328 C 151.74999,92.501328 152.08333,92.092748 151.58394,91.593348 C 151.08455,91.093958 149.83957,91.379508 148.81732,92.227908 C 147.39326,93.409768 146.90962,93.119268 146.74889,90.985548 C 146.63351,89.453848 147.06992,88.528718 147.71871,88.929668 C 149.04057,89.746638 150.96203,85.738818 149.99705,84.177458 C 148.99168,82.550728 154.23529,79.944128 156.14225,81.122688 C 157.10403,81.717098 160.62499,81.692658 163.96661,81.068378 C 167.30822,80.444098 171.8699,80.480678 174.10366,81.149668 L 178.16504,82.366008 L 173.92544,82.692908 C 171.59366,82.872698 167.68468,82.885118 165.23883,82.720498 C 162.07341,82.507458 160.18139,83.292698 158.67369,85.445258 C 157.3549,87.328078 156.20173,87.896818 155.618,86.952318 C 155.10235,86.117978 153.92305,85.445078 152.99735,85.456968 C 151.93914,85.470578 151.83895,85.864098 152.72745,86.516868 C 153.50471,87.087918 154.14065,88.509048 154.14065,89.674938 C 154.14065,90.840818 155.09456,91.880358 156.26045,91.985018 C 157.42634,92.089678 159.21802,92.248668 160.24198,92.338318 C 161.4419,92.443388 161.78482,93.506058 161.20665,95.327728 C 160.69205,96.949108 160.9527,98.154128 161.81801,98.154128 C 162.64766,98.154128 163.25114,97.677178 163.1591,97.094228 C 162.56188,93.311818 163.38002,92.199708 165.47859,93.941378 C 167.27809,95.434818 167.48488,95.347398 166.74059,93.407818 C 165.8773,91.158098 164.40261,90.533168 160.95992,90.958178 C 160.04695,91.070878 158.82973,90.402208 158.25498,89.472248 C 157.5458,88.324768 157.95113,88.065818 159.51636,88.666458 C 160.78486,89.153218 162.21768,88.912438 162.7004,88.131398 C 163.26089,87.224518 164.38232,87.374498 165.80343,88.546408 C 167.75314,90.154218 167.84279,90.031438 166.52726,87.555138 C 165.19464,85.046668 165.48167,84.712058 169.07899,84.580448 C 171.30828,84.498898 172.79622,84.975848 172.38553,85.640348 C 171.97486,86.304848 172.63027,86.848538 173.84203,86.848538 C 175.05379,86.848538 176.04524,87.552518 176.04524,88.412928 C 176.04524,89.273348 175.13491,89.627998 174.02229,89.201048 C 172.60845,88.658508 172.15849,89.251258 172.52794,91.169648 C 173.12554,94.272738 171.7662,94.723008 169.28654,92.243348 C 168.00045,90.957258 167.89376,91.542888 168.82358,94.784948 C 169.76136,98.054838 169.44125,99.727018 167.39329,102.25614 C 165.94212,104.04826 165.0657,106.01759 165.44571,106.63245 C 165.8257,107.2473 165.29235,108.07434 164.26046,108.4703 C 163.22858,108.86628 162.38431,108.29697 162.38431,107.20519 C 162.38431,106.11341 162.84623,105.22013 163.41079,105.22013 C 163.97535,105.22013 164.76262,104.37221 165.16031,103.33586 C 165.558,102.29951 164.99009,101.45159 163.89831,101.45159 C 162.80653,101.45159 161.91325,102.10309 161.91325,102.89937 C 161.91325,103.69564 161.05641,103.17534 160.00916,101.74315 C 158.67007,99.911818 157.80244,99.628858 157.08511,100.78949 C 156.52414,101.69718 155.31417,102.00217 154.3963,101.46726 C 153.47844,100.93234 153.90264,101.83581 155.33899,103.47495 C 156.77534,105.11411 157.53273,107.13124 157.02208,107.95748 C 155.75645,110.00532 153.91805,109.85231 153.84698,107.69322 z M 199.71632,108.48556 C 196.07178,107.53315 196.70957,105.57343 200.66408,105.57343 C 202.98603,105.57343 203.84541,106.19764 203.33928,107.51657 C 202.92917,108.58531 202.50269,109.38595 202.39152,109.29579 C 202.28037,109.20563 201.07653,108.84102 199.71632,108.48556 z M 116.17671,105.91861 C 115.73103,104.75719 115.94483,103.80693 116.65183,103.80693 C 118.56749,103.80693 119.75707,106.31832 118.27521,107.23416 C 117.56672,107.67203 116.62239,107.08004 116.17671,105.91861 z M 190.19887,103.53703 C 190.18697,102.2227 190.81317,100.7543 191.59043,100.27393 C 193.37897,99.168548 193.37897,101.03936 191.59043,103.80693 C 190.40984,105.63375 190.21752,105.59645 190.19887,103.53703 z M 156.26045,103.18373 C 156.26045,102.84098 156.89639,102.1675 157.67365,101.68713 C 158.45091,101.20675 159.08685,101.48719 159.08685,102.31032 C 159.08685,103.13345 158.45091,103.80693 157.67365,103.80693 C 156.89639,103.80693 156.26045,103.52649 156.26045,103.18373 z M 263.07498,102.58465 C 262.5297,101.70239 262.75704,100.98053 263.58017,100.98053 C 264.40331,100.98053 265.07678,100.30705 265.07678,99.483918 C 265.07678,98.660788 264.50747,98.339168 263.81166,98.769208 C 263.11585,99.199248 262.16922,98.567818 261.70805,97.366018 C 261.16089,95.940138 261.4384,95.532488 262.50672,96.192768 C 263.60009,96.868498 263.84415,96.423468 263.24149,94.852968 C 262.74517,93.559568 262.95507,92.501328 263.70793,92.501328 C 264.4608,92.501328 265.07678,91.948818 265.07678,91.273498 C 265.07678,90.598208 263.10096,90.275728 260.68606,90.556908 C 254.49663,91.277558 253.22699,90.009378 255.96078,85.837078 C 257.31011,83.777748 257.54977,82.727058 256.52582,83.359898 C 255.41222,84.048128 255.10198,83.885578 255.69568,82.924948 C 256.21708,82.081288 255.99737,80.991598 255.20744,80.503388 C 254.4175,80.015178 253.81423,78.540368 253.86683,77.226038 C 253.93943,75.412138 254.33197,75.602478 255.49598,78.016038 C 256.33942,79.764878 258.04521,81.185998 259.28664,81.174108 C 261.11112,81.156608 261.17214,80.917038 259.60504,79.924338 C 258.53873,79.248878 257.95522,77.829438 258.30835,76.770048 C 258.7477,75.452008 259.51741,75.903318 260.7463,78.199528 C 262.21861,80.950578 262.19763,81.773528 260.6298,82.767018 C 259.42709,83.529138 259.32384,83.986888 260.35158,84.000498 C 261.3299,84.013448 261.66412,85.252188 261.18432,87.086898 C 260.53619,89.565398 260.85394,89.970898 262.84541,89.206698 C 264.19981,88.686968 265.55395,88.261738 265.85461,88.261738 C 266.15528,88.261738 266.03523,87.307828 265.58784,86.141938 C 265.13789,84.969418 265.54712,84.022138 266.5036,84.022138 C 267.53706,84.022138 267.93544,85.159348 267.4937,86.848538 C 267.07058,88.466568 267.45326,89.684188 268.38878,89.696568 C 269.46331,89.710798 269.52487,90.073798 268.56854,90.756468 C 267.7686,91.327518 267.20072,93.140228 267.3066,94.784718 C 267.566,98.814328 264.37732,104.69189 263.07498,102.58465 z M 210.71244,99.638228 C 210.25616,98.899968 211.13073,97.628098 212.65593,96.811828 C 216.66455,94.666478 217.32177,94.964638 215.61481,98.154128 C 213.9848,101.19983 212.0412,101.78823 210.71244,99.638228 z M 220.23715,100.12672 C 220.70675,99.657118 221.92562,99.606928 222.94578,100.01516 C 224.07313,100.46628 223.73828,100.80115 222.09197,100.86896 C 220.60223,100.93032 219.76755,100.59631 220.23715,100.12672 z M 100.43909,92.501328 C 99.95871,91.724068 100.20163,91.088128 100.97889,91.088128 C 101.75615,91.088128 102.78511,91.724068 103.26549,92.501328 C 103.74586,93.278588 103.50295,93.914528 102.72569,93.914528 C 101.94843,93.914528 100.91946,93.278588 100.43909,92.501328 z M 154.84725,89.674938 C 154.84725,88.897678 155.12769,88.261738 155.47044,88.261738 C 155.8132,88.261738 156.48668,88.897678 156.96705,89.674938 C 157.44743,90.452198 157.16699,91.088128 156.34386,91.088128 C 155.52073,91.088128 154.84725,90.452198 154.84725,89.674938 z M 201.48282,88.884928 C 201.48282,87.673168 200.84688,87.074758 200.06962,87.555138 C 199.29236,88.035508 198.65642,87.708438 198.65642,86.828308 C 198.65642,84.252518 203.29997,85.898368 203.69736,88.615038 C 203.89634,89.975238 203.47946,91.088128 202.77098,91.088128 C 202.06249,91.088128 201.48282,90.096688 201.48282,88.884928 z M 213.84831,90.152198 C 214.81989,89.760168 216.40974,89.760168 217.38131,90.152198 C 218.35289,90.544238 217.55796,90.864998 215.61481,90.864998 C 213.67166,90.864998 212.87674,90.544238 213.84831,90.152198 z M 225.50721,88.968338 C 225.50721,87.802448 225.75714,86.848538 226.06261,86.848538 C 226.36808,86.848538 226.98406,87.802448 227.43146,88.968338 C 227.87885,90.134228 227.62891,91.088128 226.87606,91.088128 C 226.12319,91.088128 225.50721,90.134228 225.50721,88.968338 z M 215.99755,87.407918 C 216.46716,86.938328 217.68603,86.888138 218.70619,87.296368 C 219.83354,87.747488 219.49868,88.082358 217.85237,88.150158 C 216.36264,88.211528 215.52796,87.877518 215.99755,87.407918 z M 131.67774,85.598898 C 129.26237,84.651028 129.47035,84.174608 133.79754,80.743158 C 137.5273,77.785468 138.16188,76.660948 136.6479,75.692078 C 134.2766,74.174558 135.81506,71.138548 138.44414,72.147418 C 139.47702,72.543778 140.23874,74.264828 140.1369,75.972008 C 139.92271,79.561728 141.88254,82.010318 145.7614,82.999198 C 147.28459,83.387508 146.18583,83.766618 143.27177,83.858208 C 140.40292,83.948368 137.66264,84.658078 137.18226,85.435338 C 136.18642,87.046638 135.42455,87.069268 131.67774,85.598898 z M 202.54272,84.881288 C 198.85666,82.083168 199.52948,80.032888 204.66252,78.421728 C 208.63145,77.175968 208.72743,77.047858 205.36912,77.478758 C 202.05787,77.903618 201.48282,77.468698 201.48282,74.539428 C 201.48282,71.413998 201.68471,71.303348 203.70357,73.322198 C 206.56905,76.187688 207.02201,76.120348 206.19348,72.952078 C 205.7429,71.229008 206.28093,70.361208 207.79981,70.361208 C 209.12145,70.361208 209.77928,71.154408 209.36118,72.243898 C 208.96383,73.279378 209.21414,75.558158 209.9174,77.307878 C 211.29537,80.736228 211.90389,78.844358 211.39421,72.716548 C 211.23258,70.773398 211.6133,69.687648 212.24023,70.303778 C 212.86717,70.919888 213.41101,73.781618 213.44876,76.663168 C 213.50363,80.851938 214.05861,81.903538 216.21684,81.908328 C 217.70153,81.911628 219.18034,82.706548 219.5031,83.674828 C 220.32168,86.130588 216.26064,85.879278 213.6969,83.315538 C 212.53101,82.149648 211.10771,81.195738 210.53402,81.195738 C 209.96033,81.195738 209.90502,81.609818 210.41112,82.115898 C 211.24724,82.952018 207.40292,86.758638 205.72242,86.758638 C 205.33379,86.758638 203.90293,85.913848 202.54272,84.881288 z M 313.12555,82.608938 C 313.12555,81.054418 313.36935,79.782538 313.66733,79.782538 C 313.9653,79.782538 314.5417,81.054418 314.94822,82.608938 C 315.35474,84.163458 315.11094,85.435338 314.40644,85.435338 C 313.70195,85.435338 313.12555,84.163458 313.12555,82.608938 z M 154.84725,78.369338 C 153.28979,77.362828 153.22132,76.993678 154.58919,76.977778 C 156.37416,76.957028 156.19146,75.262708 153.6725,68.476948 C 152.97304,66.592688 153.12321,66.592688 155.0241,68.476948 C 157.64356,71.073498 159.33211,76.956138 157.45794,76.956138 C 156.70757,76.956138 156.48668,77.592078 156.96705,78.369338 C 158.0514,80.123868 157.56218,80.123868 154.84725,78.369338 z M 165.57199,75.535088 C 165.68937,71.569748 167.3614,67.841898 167.73413,70.714508 C 168.38891,75.761018 168.06926,78.901598 166.85944,79.308018 C 166.08218,79.569128 165.50283,77.871318 165.57199,75.535088 z M 183.49397,76.102328 C 183.96358,75.632738 185.18245,75.582538 186.20261,75.990768 C 187.32996,76.441888 186.9951,76.776768 185.34879,76.844568 C 183.85906,76.905928 183.02438,76.571918 183.49397,76.102328 z M 256.59759,68.987578 C 256.59759,67.929478 257.23353,67.063748 258.01078,67.063748 C 258.78804,67.063748 259.42398,66.072308 259.42398,64.860538 C 259.42398,63.648778 260.03215,63.033218 260.77547,63.492608 C 261.51878,63.951998 261.72867,65.365738 261.24191,66.634238 C 260.6503,68.175938 260.90503,68.601818 262.01022,67.918778 C 262.91957,67.356758 263.66358,67.496268 263.66358,68.228808 C 263.66358,68.961318 262.07373,69.864568 260.13058,70.236028 C 257.76148,70.688918 256.59759,70.277628 256.59759,68.987578 z M 45.41584,68.625038 C 44.98581,67.929218 45.55183,67.007688 46.67367,66.577198 C 48.03426,66.055088 48.45173,66.476308 47.92755,67.842318 C 47.0166,70.216228 46.49896,70.377548 45.41584,68.625038 z M 208.54882,67.853758 C 208.54882,67.510998 209.18476,66.837528 209.96202,66.357148 C 210.73928,65.876778 211.37522,66.157208 211.37522,66.980338 C 211.37522,67.803478 210.73928,68.476948 209.96202,68.476948 C 209.18476,68.476948 208.54882,68.196508 208.54882,67.853758 z M 250.5419,66.075298 C 251.12345,64.559798 251.67305,64.302328 252.03144,65.377508 C 252.34381,66.314628 253.27927,66.661168 254.11024,66.147598 C 255.00324,65.595708 255.20874,65.881058 254.61273,66.845398 C 252.97721,69.491728 249.48445,68.830978 250.5419,66.075298 z M 62.56554,65.171358 C 62.16956,64.139488 62.73886,63.295208 63.83065,63.295208 C 66.05583,63.295208 66.48588,65.069558 64.55059,66.265628 C 63.85478,66.695668 62.9615,66.203248 62.56554,65.171358 z M 93.43345,65.748198 C 92.98626,65.024648 93.26671,64.033218 94.05664,63.544998 C 94.84658,63.056788 95.49289,63.648778 95.49289,64.860538 C 95.49289,67.342868 94.64489,67.708368 93.43345,65.748198 z M 166.19377,65.705748 C 165.05039,64.982658 164.48281,64.023108 164.93249,63.573448 C 165.38217,63.123768 166.5545,63.725118 167.5377,64.909788 C 169.57638,67.366248 169.18547,67.597758 166.19377,65.705748 z M 95.13959,62.706388 C 91.95383,59.217218 92.02452,58.681288 95.54894,59.602938 C 97.13429,60.017508 98.09371,60.694388 97.681,61.107098 C 97.26829,61.519828 97.6389,62.710938 98.50459,63.754018 C 100.94695,66.696878 97.92369,65.755648 95.13959,62.706388 z M 113.86448,63.530748 C 111.92133,62.419948 111.00486,61.488578 111.82788,61.461038 C 112.65089,61.433488 114.55871,62.344638 116.06747,63.485808 C 119.55663,66.124878 118.44218,66.147618 113.86448,63.530748 z M 243.87879,64.320758 C 243.87879,63.589368 244.50746,62.602418 245.27581,62.127558 C 246.0769,61.632458 246.31381,62.199718 245.83121,63.457348 C 244.89173,65.905608 243.87879,66.353548 243.87879,64.320758 z M 198.65642,62.824148 C 197.38272,62.001018 197.20842,61.445588 198.21972,61.432588 C 199.14542,61.420688 200.29585,62.046888 200.77622,62.824148 C 201.86057,64.578678 201.37135,64.578678 198.65642,62.824148 z M 106.28743,60.704348 C 105.79691,59.426048 106.28026,58.584558 107.50508,58.584558 C 108.7299,58.584558 109.21326,59.426048 108.72274,60.704348 C 108.27533,61.870238 107.72739,62.824148 107.50508,62.824148 C 107.28277,62.824148 106.73483,61.870238 106.28743,60.704348 z M 149.84294,61.316928 C 148.39292,58.970728 149.6944,58.645388 151.72328,60.846888 C 152.72549,61.934388 152.92201,62.824148 152.15997,62.824148 C 151.39794,62.824148 150.35529,62.145898 149.84294,61.316928 z M 120.93047,59.997748 C 119.65677,59.174618 119.48247,58.619188 120.49377,58.606188 C 121.41947,58.594288 122.5699,59.220498 123.05027,59.997748 C 124.13462,61.752278 123.6454,61.752278 120.93047,59.997748 z M 132.23607,59.914348 C 132.23607,59.091218 132.82074,58.779098 133.53533,59.220738 C 134.24993,59.662388 135.83978,59.018548 137.06833,57.789998 C 138.29688,56.561448 139.30206,56.110448 139.30206,56.787768 C 139.30206,58.634188 136.16154,61.410948 134.07323,61.410948 C 133.06279,61.410948 132.23607,60.737478 132.23607,59.914348 z M 214.20161,59.997748 C 214.20161,59.220498 214.48205,58.584558 214.82481,58.584558 C 215.16756,58.584558 215.84104,59.220498 216.32141,59.997748 C 216.80179,60.775008 216.52135,61.410948 215.69822,61.410948 C 214.87509,61.410948 214.20161,60.775008 214.20161,59.997748 z M 99.73249,56.700298 C 99.73249,55.145778 99.91244,54.138868 100.13238,54.462718 C 100.35232,54.786578 101.29614,56.058458 102.22974,57.289118 C 103.59427,59.087798 103.51582,59.526688 101.82984,59.526688 C 100.67463,59.526688 99.73249,58.257078 99.73249,56.700298 z M 154.89734,59.551548 C 154.86979,58.917508 155.53777,57.108498 156.38175,55.531518 C 157.76039,52.955498 157.58099,52.756488 154.61525,53.572108 C 151.6755,54.380568 151.59981,54.301858 153.92356,52.852798 C 157.59427,50.563788 159.26459,52.971268 156.91979,57.171358 C 155.83498,59.114508 154.92486,60.185598 154.89734,59.551548 z M 95.49289,57.961358 C 95.49289,57.618608 96.12883,56.945128 96.90609,56.464758 C 97.68335,55.984378 98.31929,56.264818 98.31929,57.087948 C 98.31929,57.911078 97.68335,58.584558 96.90609,58.584558 C 96.12883,58.584558 95.49289,58.304118 95.49289,57.961358 z M 146.75079,54.904348 C 147.2204,54.434748 148.43927,54.384558 149.45943,54.792788 C 150.58678,55.243908 150.25192,55.578778 148.60562,55.646588 C 147.11588,55.707948 146.2812,55.373938 146.75079,54.904348 z M 161.24239,52.989588 C 160.9418,52.503218 161.92368,52.012778 163.42435,51.899738 C 164.92503,51.786698 166.15284,52.184638 166.15284,52.784048 C 166.15284,54.084108 162.02561,54.256858 161.24239,52.989588 z M 170.01558,51.343198 C 170.97421,50.377388 172.11452,49.943178 172.54963,50.378288 C 172.98474,50.813398 172.20042,51.603608 170.80669,52.134308 C 168.7926,52.901218 168.63028,52.738898 170.01558,51.343198 z M 204.66252,51.963848 C 206.02272,51.604948 207.13562,50.684478 207.13562,49.918338 C 207.13562,49.152198 207.77156,48.918388 208.54882,49.398758 C 211.10435,50.978168 210.02822,52.312738 206.07572,52.465828 C 203.93826,52.548628 203.30232,52.322728 204.66252,51.963848 z M 180.28484,48.824468 C 180.28484,48.119968 181.55671,47.876178 183.11123,48.282688 C 184.66575,48.689208 185.93763,49.265608 185.93763,49.563578 C 185.93763,49.861558 184.66575,50.105358 183.11123,50.105358 C 181.55671,50.105358 180.28484,49.528958 180.28484,48.824468 z M 197.94982,48.692158 C 197.46945,47.914898 197.74988,47.278958 198.57302,47.278958 C 199.39615,47.278958 200.06962,47.914898 200.06962,48.692158 C 200.06962,49.469418 199.78919,50.105358 199.44643,50.105358 C 199.10367,50.105358 198.4302,49.469418 197.94982,48.692158 z M 270.72958,129.63218 C 270.72958,129.15987 270.33267,129.17036 269.84754,129.65548 C 269.36242,130.14061 267.79373,129.1337 266.36156,127.41792 C 264.92938,125.70213 263.73646,124.88418 263.7106,125.60024 C 263.63571,127.67373 268.15748,132.08055 269.50525,131.24758 C 270.17863,130.83141 270.72958,130.10447 270.72958,129.63218 z M 184.52443,129.1611 C 184.52443,128.33797 183.88849,128.05754 183.11123,128.53791 C 182.33397,129.01829 181.69803,129.69176 181.69803,130.03452 C 181.69803,130.37727 182.33397,130.65771 183.11123,130.65771 C 183.88849,130.65771 184.52443,129.98423 184.52443,129.1611 z M 356.22812,126.41811 C 354.8213,124.86359 353.06244,123.59171 352.31954,123.59171 C 351.57663,123.59171 352.47011,124.84244 354.30507,126.37109 C 358.62358,129.96879 359.45994,129.98922 356.22812,126.41811 z M 138.44703,126.17795 C 137.75997,125.06626 138.19563,124.82024 139.77684,125.42701 C 142.99041,126.66016 142.75023,125.43711 139.42984,123.6601 C 137.2168,122.47571 136.81592,122.65748 137.20192,124.67028 C 137.82876,127.93895 137.77846,127.83131 138.67887,127.83131 C 139.11337,127.83131 139.00905,127.0873 138.44703,126.17795 z M 272.14278,123.59171 C 272.14278,122.81445 271.4693,122.17851 270.64617,122.17851 C 269.82304,122.17851 269.5426,122.81445 270.02298,123.59171 C 270.50335,124.36897 271.17683,125.00491 271.51958,125.00491 C 271.86234,125.00491 272.14278,124.36897 272.14278,123.59171 z M 355.15402,119.63179 C 355.04698,118.21083 353.76212,116.99466 352.24737,116.88056 C 349.59574,116.68082 349.59401,116.73812 352.17374,119.3433 C 355.48245,122.68464 355.38327,122.67504 355.15402,119.63179 z M 287.68797,120.20991 C 287.68797,119.90444 286.70103,119.27579 285.49477,118.8129 C 284.23713,118.3303 283.66987,118.56721 284.16497,119.3683 C 284.99489,120.71113 287.68797,121.35448 287.68797,120.20991 z M 292.48573,119.11196 C 291.79867,118.00026 292.23433,117.75424 293.81554,118.36101 C 297.16584,119.64664 296.72761,118.3383 293.17022,116.43445 C 291.06389,115.30717 290.45873,115.29239 291.13383,116.38472 C 291.66212,117.23953 291.26192,117.94865 290.24447,117.96055 C 288.90025,117.97628 288.97402,118.35667 290.51436,119.35212 C 293.30666,121.15664 293.71843,121.10648 292.48573,119.11196 z M 358.52328,117.56206 C 357.12758,116.17676 356.96526,116.33908 357.73217,118.35317 C 358.26287,119.74689 359.05308,120.53122 359.48819,120.09611 C 359.9233,119.661 359.48909,118.52069 358.52328,117.56206 z M 92.66649,115.11252 C 93.83238,114.35906 94.15035,113.74261 93.37309,113.74261 C 92.59583,113.74261 91.00598,114.35906 89.84009,115.11252 C 88.67421,115.86598 88.35624,116.48243 89.13349,116.48243 C 89.91075,116.48243 91.5006,115.86598 92.66649,115.11252 z M 293.85493,113.00083 C 293.40925,111.83941 292.4074,111.28296 291.6286,111.76428 C 290.75793,112.3024 290.95101,113.1073 292.12999,113.85433 C 294.70316,115.48477 294.79135,115.44113 293.85493,113.00083 z M 357.74227,112.46327 C 357.74227,110.27582 357.3033,110.08816 355.22396,111.38672 C 352.83902,112.87613 352.83634,113.01118 355.17348,113.93665 C 356.5308,114.47412 357.66403,114.95857 357.69179,115.0132 C 357.71955,115.06782 357.74227,113.92036 357.74227,112.46327 z M 79.70999,112.24315 C 81.84417,112.20424 81.83401,112.06416 79.60268,110.76436 C 78.18664,109.93948 74.8794,109.76615 71.83009,110.35698 C 66.87059,111.31792 66.75413,111.45192 70.05531,112.39905 C 71.99846,112.95654 74.43524,113.1592 75.47039,112.84939 C 76.50553,112.53959 78.41335,112.26679 79.70999,112.24315 z M 350.69215,108.5585 C 350.54334,107.54464 350.13822,106.53774 349.79186,106.32092 C 349.4455,106.10412 349.3156,106.18619 349.50316,106.5033 C 349.69073,106.82042 349.22388,107.82732 348.4657,108.74086 C 347.52359,109.87604 347.70062,110.40186 349.02495,110.40186 C 350.09071,110.40186 350.84095,109.57234 350.69215,108.5585 z M 65.16722,106.72734 C 64.65488,105.89838 63.61222,105.22013 62.8502,105.22013 C 62.08816,105.22013 62.28468,106.10989 63.28689,107.19739 C 65.31576,109.3989 66.61725,109.07355 65.16722,106.72734 z M 69.28835,108.14418 C 69.73554,107.42062 69.56108,106.49469 68.9007,106.08654 C 68.24029,105.6784 67.69997,106.27039 67.69997,107.40209 C 67.69997,109.78498 68.14561,109.99318 69.28835,108.14418 z M 84.5406,108.52379 C 83.56902,108.13175 81.97917,108.13175 81.0076,108.52379 C 80.03603,108.91582 80.83095,109.23659 82.7741,109.23659 C 84.71725,109.23659 85.51217,108.91582 84.5406,108.52379 z M 76.87623,106.22203 C 78.03198,104.82943 77.65479,104.36173 75.28276,104.24626 C 73.57355,104.16307 72.97399,104.40246 73.95041,104.77826 C 74.92683,105.15406 75.36625,106.04316 74.9269,106.75403 C 73.72718,108.69522 75.14473,108.30835 76.87623,106.22203 z M 54.46179,101.91677 C 53.09815,100.65787 52.91535,100.68677 53.67959,102.04043 C 54.31206,103.16066 53.74163,103.84326 52.12043,103.90626 C 49.85193,103.99439 49.88233,104.13223 52.39032,105.12986 C 55.69976,106.4463 57.06847,104.32327 54.46179,101.91677 z M 70.7269,102.33709 C 70.14726,101.39922 71.03214,101.17185 73.17175,101.70886 C 75.01606,102.17174 78.40802,101.75786 80.70946,100.78911 C 83.01089,99.820358 86.10962,98.990158 87.59548,98.944238 C 89.08136,98.898308 90.61564,97.906818 91.00499,96.740928 C 91.59421,94.976588 91.34405,94.925518 89.51308,96.436368 C 87.5422,98.062678 87.49577,97.720658 89.06698,93.150348 C 90.03153,90.344648 90.52128,86.482798 90.15534,84.568468 L 89.48997,81.087838 L 87.54523,84.836328 C 85.24436,89.271268 85.01371,91.268488 87.14965,88.261738 C 88.29533,86.648948 88.44474,87.155958 87.77434,90.381538 C 87.28969,92.713308 85.57796,95.734028 83.97047,97.094228 C 80.71853,99.845928 71.48052,100.42726 69.08426,98.030998 C 67.97793,96.924688 67.28214,96.924688 66.59841,98.030998 C 65.08793,100.47501 59.44864,99.817278 55.5377,96.740928 C 53.56145,95.186408 51.32104,93.914528 50.55901,93.914528 C 46.98756,93.914528 24.06743,86.483338 23.17246,85.035228 C 22.61573,84.134418 21.71704,83.840558 21.17539,84.382208 C 20.63374,84.923868 20.91162,86.235848 21.79289,87.297708 C 22.67418,88.359588 22.99671,89.626888 22.50967,90.113948 C 22.02261,90.601008 23.01367,90.731898 24.71201,90.404818 C 26.59001,90.043158 28.1207,90.646068 28.61859,91.943558 C 29.06886,93.116938 30.34214,93.729728 31.44809,93.305328 C 32.68902,92.829148 33.08497,93.138788 32.48222,94.114058 C 31.89376,95.066208 32.28589,95.431788 33.46871,95.033728 C 34.54848,94.670348 36.27878,95.382788 37.3138,96.616888 C 39.027,98.659628 39.13195,98.654668 38.48476,96.561508 C 37.88859,94.633298 38.49709,94.432048 42.2557,95.314308 C 44.7207,95.892908 50.55316,97.985048 55.21672,99.963488 C 64.00191,103.69048 72.35321,104.96852 70.7269,102.33709 z M 48.29793,98.536868 C 47.82833,98.067268 47.49433,98.901948 47.55569,100.39169 C 47.6235,102.038 47.95837,102.37285 48.40949,101.2455 C 48.81772,100.22536 48.76753,99.006458 48.29793,98.536868 z M 45.21829,98.189418 C 44.38603,97.357158 43.09781,97.415918 41.77951,98.346278 C 40.01758,99.589728 40.07751,99.703348 42.14463,99.038398 C 43.51486,98.597608 44.61772,98.958298 44.61772,99.847208 C 44.61772,100.72963 45.05228,101.01703 45.58341,100.48591 C 46.11454,99.954788 45.95024,98.921368 45.21829,98.189418 z M 348.97496,99.870158 C 349.3524,99.259448 348.48272,98.759778 347.04233,98.759778 C 345.60194,98.759778 344.73226,99.259448 345.10969,99.870158 C 345.48712,100.48086 346.35681,100.98053 347.04233,100.98053 C 347.72784,100.98053 348.59754,100.48086 348.97496,99.870158 z M 353.2419,95.069138 C 352.83376,94.408758 351.90783,94.234298 351.18427,94.681488 C 349.33527,95.824228 349.54346,96.269868 351.92636,96.269868 C 353.05806,96.269868 353.65005,95.729548 353.2419,95.069138 z M 78.5345,94.772328 C 78.5345,94.466848 77.54757,93.838208 76.3413,93.375308 C 75.08367,92.892718 74.51641,93.129628 75.01151,93.930708 C 75.84142,95.273548 78.5345,95.916888 78.5345,94.772328 z M 84.1873,86.342888 C 84.1873,84.547368 83.53454,85.349088 81.47437,89.674938 C 79.88784,93.006228 79.91726,93.051318 81.98953,90.464728 C 83.19831,88.955968 84.1873,87.101148 84.1873,86.342888 z M 113.36168,88.967328 C 113.47377,87.024738 112.99682,85.435338 112.30178,85.435338 C 110.83604,85.435338 110.5876,90.166588 111.98022,91.559198 C 112.49838,92.077368 112.97534,92.500878 113.04012,92.500328 C 113.10488,92.499778 113.2496,90.909928 113.36168,88.967328 z M 109.62488,88.026198 C 109.62488,86.342148 109.18252,85.406638 108.64185,85.947308 C 107.11445,87.474708 106.89998,91.088128 108.33672,91.088128 C 109.04522,91.088128 109.62488,89.710268 109.62488,88.026198 z M 351.28192,88.884928 C 351.28192,88.542168 350.64598,88.261738 349.86873,88.261738 C 349.09147,88.261738 348.45553,88.935208 348.45553,89.758338 C 348.45553,90.581468 349.09147,90.861908 349.86873,90.381538 C 350.64598,89.901158 351.28192,89.227688 351.28192,88.884928 z M 77.38628,88.709568 C 76.36613,88.301328 75.14725,88.351528 74.67764,88.821118 C 74.20805,89.290718 75.04273,89.624718 76.53246,89.563358 C 78.17877,89.495558 78.51363,89.160688 77.38628,88.709568 z M 352.31493,81.629608 C 350.93993,81.271298 349.03211,81.294858 348.07533,81.681968 C 347.11856,82.069078 348.24355,82.362238 350.57532,82.333438 C 352.9071,82.304638 353.68993,81.987908 352.31493,81.629608 z M 125.65774,79.014988 C 125.19747,77.815578 124.51781,77.137328 124.14738,77.507768 C 123.77694,77.878208 123.89303,78.859548 124.40536,79.688518 C 125.79885,81.943218 126.61332,81.505198 125.65774,79.014988 z M 348.45553,76.150098 C 348.45553,75.761468 347.18365,76.124188 345.62913,76.956138 C 344.07461,77.788088 342.80273,78.786758 342.80273,79.175388 C 342.80273,79.564018 344.07461,79.201288 345.62913,78.369338 C 347.18365,77.537388 348.45553,76.538728 348.45553,76.150098 z M 339.97633,70.513338 C 339.97633,70.170578 339.34039,69.890148 338.56313,69.890148 C 337.78587,69.890148 337.14993,70.563618 337.14993,71.386748 C 337.14993,72.209888 337.78587,72.490318 338.56313,72.009948 C 339.34039,71.529568 339.97633,70.856098 339.97633,70.513338 z M 280.88695,67.511578 C 279.86678,67.103348 278.6479,67.153548 278.17831,67.623138 C 277.70872,68.092728 278.54339,68.426738 280.03313,68.365378 C 281.67944,68.297568 282.0143,67.962698 280.88695,67.511578 z M 349.08067,67.195548 C 349.51625,66.490768 348.59987,66.246978 347.04428,66.653768 C 343.74447,67.516678 343.32735,68.476948 346.25232,68.476948 C 347.37234,68.476948 348.64509,67.900318 349.08067,67.195548 z M 354.80492,65.666728 C 355.30002,64.865648 354.73276,64.628738 353.47512,65.111328 C 351.02687,66.050808 350.57893,67.063748 352.61172,67.063748 C 353.3431,67.063748 354.33005,66.435088 354.80492,65.666728 z M 78.5345,64.237348 C 78.5345,63.460088 77.89856,62.824148 77.1213,62.824148 C 76.34404,62.824148 75.7081,62.227738 75.7081,61.498778 C 75.7081,60.769828 76.97998,60.269218 78.5345,60.386308 C 80.08902,60.503408 81.3609,61.137358 81.3609,61.795088 C 81.3609,62.452818 82.09318,62.538388 82.98818,61.985238 C 85.41545,60.485108 80.44351,57.306298 77.05562,58.192248 C 74.11475,58.961308 73.78788,59.858478 75.1527,63.415168 C 76.09885,65.880798 78.5345,66.472958 78.5345,64.237348 z M 360.02609,63.271978 C 359.00593,62.863748 357.78705,62.913948 357.31746,63.383538 C 356.84787,63.853128 357.68254,64.187138 359.17228,64.125778 C 360.81859,64.057968 361.15344,63.723098 360.02609,63.271978 z M 46.2959,61.858778 C 45.27575,61.450548 44.05687,61.500748 43.58726,61.970338 C 43.11767,62.439928 43.95235,62.773938 45.44209,62.712578 C 47.08839,62.644778 47.42325,62.309898 46.2959,61.858778 z M 257.49881,60.427918 C 255.99358,58.922688 252.23708,58.658808 253.14125,60.121818 C 253.57946,60.830838 254.96037,61.410948 256.20992,61.410948 C 257.45948,61.410948 258.03949,60.968588 257.49881,60.427918 z M 234.84021,50.488098 C 234.37061,50.018508 234.03661,50.853178 234.09797,52.342918 C 234.16578,53.989228 234.50065,54.324088 234.95177,53.196728 C 235.36,52.176588 235.30981,50.957688 234.84021,50.488098 z M 113.30509,49.074898 C 112.83549,48.605308 112.50149,49.439978 112.56285,50.929718 C 112.63066,52.576028 112.96553,52.910888 113.41665,51.783538 C 113.82488,50.763388 113.77468,49.544488 113.30509,49.074898 z M 132.41143,46.902108 C 131.01573,45.516798 130.85341,45.679118 131.62032,47.693208 C 132.15102,49.086938 132.94122,49.871258 133.37633,49.436158 C 133.81144,49.001048 133.37724,47.860728 132.41143,46.902108 z M 166.85944,44.452568 C 167.33982,43.675308 166.74141,43.039368 165.52965,43.039368 C 164.31789,43.039368 163.32645,43.675308 163.32645,44.452568 C 163.32645,45.229818 163.92485,45.865758 164.65624,45.865758 C 165.38763,45.865758 166.37907,45.229818 166.85944,44.452568 z M 229.0402,38.799768 C 230.90385,37.998938 231.14454,37.558768 229.7468,37.507538 C 228.58091,37.464798 226.6731,38.046308 225.50721,38.799768 C 222.92392,40.469208 225.15519,40.469208 229.0402,38.799768 z M 195.83003,35.973368 C 198.41331,34.303928 196.18204,34.303928 192.29703,35.973368 C 190.43339,36.774198 190.19269,37.214388 191.59043,37.265598 C 192.75632,37.308328 194.66414,36.726828 195.83003,35.973368 z M 233.45182,32.504568 C 231.93658,30.192028 230.01552,29.064158 227.9609,29.280768 C 226.09113,29.477908 224.94002,28.907208 225.14199,27.883198 C 225.40865,26.531318 224.63522,26.517268 221.609,27.819028 C 216.24843,30.124928 211.82126,33.146968 213.80377,33.146968 C 214.7081,33.146968 215.79411,32.586958 216.21713,31.902508 C 217.33061,30.100858 224.02247,29.061528 224.94089,30.547578 C 225.36959,31.241218 226.46731,31.716518 227.38027,31.603818 C 230.61298,31.204738 233.0318,31.746238 232.11439,32.663638 C 231.60297,33.175078 231.90556,34.462318 232.78685,35.524198 C 235.43419,38.714058 235.95899,36.331008 233.45182,32.504568 z M 211.37522,34.476758 C 211.37522,33.653628 210.73928,33.373198 209.96202,33.853568 C 209.18476,34.333948 208.54882,35.007418 208.54882,35.350178 C 208.54882,35.692938 209.18476,35.973368 209.96202,35.973368 C 210.73928,35.973368 211.37522,35.299898 211.37522,34.476758 z M 228.3336,34.965448 C 227.16772,34.533818 225.47549,33.599238 224.57312,32.888598 C 223.54084,32.075648 222.54279,32.226978 221.88167,33.296698 C 221.23939,34.335938 221.4272,34.628338 222.3648,34.048878 C 223.20845,33.527478 224.29816,33.747188 224.78636,34.537118 C 225.27457,35.327058 226.74938,35.923158 228.06371,35.861798 C 230.00668,35.771088 230.05713,35.603518 228.3336,34.965448 z M 209.98887,30.994828 C 211.48231,29.195328 211.39489,28.988538 209.4553,29.732818 C 208.17948,30.222398 207.13562,31.190858 207.13562,31.884968 C 207.13562,33.702288 207.95368,33.447068 209.98887,30.994828 z M 200.06962,28.101328 C 200.06962,27.712698 198.79774,28.075418 197.24322,28.907378 C 195.68871,29.739328 194.41683,30.737988 194.41683,31.126618 C 194.41683,31.515248 195.68871,31.152518 197.24322,30.320568 C 198.79774,29.488618 200.06962,28.489958 200.06962,28.101328 z M 230.6046,25.258788 C 230.1328,24.029338 229.7468,21.485578 229.7468,19.605998 C 229.7468,17.726428 229.04283,16.188578 228.18241,16.188578 C 227.32199,16.188578 226.94518,17.041178 227.34506,18.083228 C 227.74494,19.125298 227.55811,20.809548 226.9299,21.826018 C 226.28629,22.867398 226.49759,24.484428 227.41395,25.530408 C 229.67897,28.115768 231.63696,27.949098 230.6046,25.258788 z M 213.53241,23.527508 C 213.0973,23.092398 211.95699,23.526608 210.99836,24.492408 C 209.61305,25.888118 209.77538,26.050438 211.78947,25.283518 C 213.18319,24.752818 213.96752,23.962618 213.53241,23.527508 z M 219.1378,21.857558 C 219.6329,21.056468 219.06565,20.819568 217.80801,21.302158 C 215.35976,22.241638 214.91182,23.254578 216.9446,23.254578 C 217.67599,23.254578 218.66294,22.625918 219.1378,21.857558 z M 224.74025,20.525828 C 225.18744,19.802268 225.01298,18.876348 224.35259,18.468198 C 223.69219,18.060048 223.15187,18.652038 223.15187,19.783748 C 223.15187,22.166638 223.59751,22.374828 224.74025,20.525828 z " style="fill:black" id="path1886"/>
  </g>
  <metadata>
    <rdf:RDF>
      <cc:Work>
        <dc:format>image/svg+xml</dc:format>
        <dc:type rdf:resource="http://purl.org/dc/dcmitype/StillImage"/>
        <cc:license rdf:resource="http://creativecommons.org/licenses/publicdomain/"/>
        <dc:publisher>
          <cc:Agent rdf:about="http://openclipart.org/">
            <dc:title>Open Clip Art Library</dc:title>
          </cc:Agent>
        </dc:publisher>
        <dc:title>Chum Salmon</dc:title>
        <dc:date>2006-10-17T19:40:11</dc:date>
        <dc:description>A line art drawing of a Chum Salmon(other names are a dog salmon or a Keta salmon) by Bob Savannah for the US Fish and Wildlife Service. Source URL:http://www.fws.gov/pictures/lineart/bobsavannah/pacificsalmons.html</dc:description>
        <dc:source>http://openclipart.org/detail/717/chum-salmon-by-ryanlerch</dc:source>
        <dc:creator>
          <cc:Agent>
            <dc:title>ryanlerch</dc:title>
          </cc:Agent>
        </dc:creator>
        <dc:subject>
          <rdf:Bag>
            <rdf:li>chum slamon</rdf:li>
            <rdf:li>chum slamon</rdf:li>
            <rdf:li>clip art</rdf:li>
            <rdf:li>clipart</rdf:li>
            <rdf:li>dog salmon</rdf:li>
            <rdf:li>dog salmon</rdf:li>
            <rdf:li>fish</rdf:li>
            <rdf:li>fish</rdf:li>
            <rdf:li>fws</rdf:li>
            <rdf:li>fws</rdf:li>
            <rdf:li>fws lineart</rdf:li>
            <rdf:li>fws lineart</rdf:li>
            <rdf:li>image</rdf:li>
            <rdf:li>keta</rdf:li>
            <rdf:li>keta</rdf:li>
            <rdf:li>keta salmon</rdf:li>
            <rdf:li>keta salmon</rdf:li>
            <rdf:li>line art</rdf:li>
            <rdf:li>line art</rdf:li>
            <rdf:li>media</rdf:li>
            <rdf:li>oncorhynchus</rdf:li>
            <rdf:li>oncorhynchus</rdf:li>
            <rdf:li>oncorhynchus keta</rdf:li>
            <rdf:li>oncorhynchus keta</rdf:li>
            <rdf:li>pacific</rdf:li>
            <rdf:li>pacific</rdf:li>
            <rdf:li>pacific salmon</rdf:li>
            <rdf:li>pacific salmon</rdf:li>
            <rdf:li>png</rdf:li>
            <rdf:li>public domain</rdf:li>
            <rdf:li>salmon</rdf:li>
            <rdf:li>salmon</rdf:li>
            <rdf:li>svg</rdf:li>
          </rdf:Bag>
        </dc:subject>
      </cc:Work>
      <cc:License rdf:about="http://creativecommons.org/licenses/publicdomain/">
        <cc:permits rdf:resource="http://creativecommons.org/ns#Reproduction"/>
        <cc:permits rdf:resource="http://creativecommons.org/ns#Distribution"/>
        <cc:permits rdf:resource="http://creativecommons.org/ns#DerivativeWorks"/>
      </cc:License>
    </rdf:RDF>
  </metadata>
</svg>
