<?xml version="1.0" encoding="UTF-8" standalone="no"?>
<!-- Created with Inkscape (http://www.inkscape.org/) -->
<svg xmlns:dc="http://purl.org/dc/elements/1.1/" xmlns:cc="http://creativecommons.org/ns#" xmlns:rdf="http://www.w3.org/1999/02/22-rdf-syntax-ns#" xmlns:svg="http://www.w3.org/2000/svg" xmlns="http://www.w3.org/2000/svg" xmlns:sodipodi="http://sodipodi.sourceforge.net/DTD/sodipodi-0.dtd" xmlns:inkscape="http://www.inkscape.org/namespaces/inkscape" id="svg2477" sodipodi:version="0.32" inkscape:version="0.46" width="581.70142" height="618.57959" version="1.0" sodipodi:docname="arbre.svg" inkscape:output_extension="org.inkscape.output.svg.inkscape">
  <defs id="defs2480">
    <inkscape:perspective sodipodi:type="inkscape:persp3d" inkscape:vp_x="0 : 526.18109 : 1" inkscape:vp_y="0 : 1000 : 0" inkscape:vp_z="744.09448 : 526.18109 : 1" inkscape:persp3d-origin="372.04724 : 350.78739 : 1" id="perspective2484"/>
  </defs>
  <sodipodi:namedview inkscape:window-height="834" inkscape:window-width="1440" inkscape:pageshadow="2" inkscape:pageopacity="0.0" guidetolerance="10.0" gridtolerance="10.0" objecttolerance="10.0" borderopacity="1.0" bordercolor="#666666" pagecolor="#ffffff" id="base" showgrid="false" inkscape:zoom="0.73566879" inkscape:cx="302.5" inkscape:cy="314" inkscape:window-x="-4" inkscape:window-y="-4" inkscape:current-layer="svg2477"/>
  <path style="fill:#101010" d="M 163.454,617.74862 C 173.48151,600.04408 210.35984,598.60412 226.51105,582.03663 C 240.04245,559.77419 254.59363,534.15663 257.65282,507.01086 C 259.47309,463.82447 262.61047,415.98517 234.28234,379.78197 C 221.28672,358.66462 210.54865,406.42959 191.94077,405.00534 C 180.64471,422.74914 150.39166,452.16893 138.74611,420.21877 C 123.7343,409.95404 109.03739,403.28933 103.77205,383.21543 C 88.145295,403.44074 62.803265,393.51006 48.894185,377.49954 C 24.541265,366.81353 49.436855,348.50066 34.011045,336.80468 C 25.212765,327.24905 25.907675,318.53992 33.138625,309.97291 C 9.1783151,309.2247 -11.166485,291.39426 6.9476151,269.73865 C 0.66315505,255.31451 -4.2504849,223.7223 14.856985,247.62891 C 23.144145,261.54682 12.425905,283.3419 12.415165,290.27438 C 29.455915,290.80906 40.691995,304.15459 52.011045,309.92828 C 43.062775,322.48751 36.301505,318.22977 47.809915,332.51804 C 67.470205,341.18809 53.500085,354.73874 48.693935,357.53663 C 65.538945,362.81947 74.359345,394.31024 90.011045,373.30525 C 99.039895,357.95658 119.39627,355.07502 121.10129,376.28321 C 119.51548,398.16631 150.81515,399.09734 147.56094,418.99926 C 169.46779,422.85961 171.40116,387.16382 193.88205,385.63597 C 203.70795,377.98934 227.68819,357.70787 199.12947,360.70537 C 177.13579,355.53433 162.45793,336.25222 173.01104,314.77898 C 157.92429,323.3704 143.88522,309.06445 131.81295,312.35506 C 110.26709,323.41678 100.51427,292.9275 109.93327,283.66488 C 108.70632,261.91105 132.60785,286.28028 116.54575,291.2472 C 121.75664,309.49606 140.60728,288.06288 150.63605,304.18031 C 172.90399,304.41052 177.14449,274.02172 164.46546,262.03376 C 155.13082,245.50111 175.45434,222.66092 196.0666,225.87308 C 211.36369,214.42343 199.92952,232.64964 197.73079,239.16569 C 222.27119,243.28582 244.81959,222.91631 244.85722,199.71137 C 262.67954,188.69319 226.32462,143.31634 250.84113,154.53663 C 257.57974,168.69259 263.717,190.72159 260.13179,201.15128 C 249.09782,213.28904 261.94281,240.02885 279.82353,235.53663 C 295.64923,252.68897 278.50407,264.48543 262.06216,266.83514 C 246.08309,258.12436 285.18724,246.98793 259.28392,246.03663 C 249.65322,233.57971 236.18309,235.78738 233.58721,251.21625 C 235.21932,272.8173 248.55529,284.73977 261.51104,278.24023 C 256.0898,292.73748 232.42731,307.625 213.90648,301.83072 C 203.73283,272.18277 219.95059,325.82852 194.30747,314.51921 C 184.18652,313.34822 202.17693,282.43044 184.58901,284.97314 C 184.66286,301.09716 169.69717,310.89196 184.78589,321.8362 C 175.22483,335.93803 202.85656,351.77378 216.23889,342.60418 C 238.99492,333.39577 251.15732,345.68812 255.88861,364.03663 C 266.67142,378.00081 307.84973,384.91767 290.15713,352.78517 C 286.00311,337.92207 321.40518,316.51394 309.46323,338.58691 C 301.20402,354.56279 311.07603,375.09962 317.71229,387.02613 C 330.28542,396.04768 343.40868,390.61532 360.06503,396.18563 C 363.7712,424.13563 389.26794,403.75396 405.96017,402.54722 C 424.10217,415.73099 439.00182,399.10397 447.01105,385.80456 C 454.28004,373.42022 449.46452,329.72144 466.98719,354.31231 C 470.97595,380.21597 434.84327,417.8225 475.00647,421.03217 C 484.42402,422.24843 482.98981,442.78303 497.72351,431.67747 C 495.65417,407.38506 514.53655,379.84179 496.36817,360.30563 C 502.42503,332.99502 561.93135,370.88551 556.01641,329.35213 C 561.98799,316.78221 581.07688,290.22464 552.15559,296.38175 C 538.97796,294.90767 560.31879,268.57848 539.00824,269.28663 C 526.2612,257.04472 513.73047,249.35464 495.35014,249.93688 C 507.44225,238.00163 523.27821,227.04602 533.89873,210.95213 C 527.95561,194.44423 501.257,210.11802 510.9792,185.08963 C 517.36349,159.48263 485.44549,179.29914 494.48062,194.84335 C 485.18523,223.9956 433.56766,187.66753 449.30023,226.91538 C 459.79576,236.29853 482.4028,242.49957 488.74551,254.79683 C 472.40284,256.4832 456.75572,272.24699 439.01105,260.91605 C 427.01906,287.64323 386.16832,280.82241 377.20651,256.72612 C 384.95238,241.52311 407.20431,271.42775 419.81159,260.32113 C 433.97727,245.90582 441.15159,215.29617 426.30307,204.18316 C 438.76482,191.37927 454.55014,189.36123 474.08993,190.88925 C 487.85067,186.55982 474.33044,161.4802 497.64277,162.26401 C 517.08402,144.82447 494.54753,135.97865 480.88191,125.45511 C 474.84135,99.070706 446.15091,110.40794 427.69927,100.40654 C 414.13581,106.32283 432.23291,126.80331 422.7911,137.87896 C 419.28413,156.98018 372.38998,150.88837 391.2565,137.99117 C 423.68506,136.8408 411.06223,101.49799 391.2946,95.536625 C 376.4336,95.427995 360.07907,76.881144 385.49387,78.681478 C 404.60938,85.50648 413.29649,98.520369 432.5911,91.134837 C 456.54921,97.612046 490.68796,93.122286 497.31774,123.03742 C 526.15437,128.36343 518.29662,157.14766 524.9106,174.63843 C 521.43433,194.1692 565.16088,204.75176 540.05374,228.52453 C 511.31532,245.50294 554.67077,260.00108 561.44154,276.20956 C 583.16823,290.14915 589.62336,312.51365 569.85826,333.94664 C 574.53867,363.90662 543.22649,367.15857 520.14566,364.33557 C 515.23663,381.37165 515.32293,415.97149 510.01104,438.79584 C 491.19187,463.29384 469.28366,431.27202 447.86994,427.19926 C 440.63271,438.40988 434.15824,461.54915 416.41442,469.07805 C 395.73926,496.09444 360.37185,474.03652 368.26304,442.52569 C 369.66782,426.54731 351.71315,409.50754 340.9037,407.59214 C 315.62202,428.21402 331.48607,460.29896 331.0741,487.17746 C 330.48717,515.66814 331.48731,545.1623 341.98455,571.90867 C 358.7185,584.40376 380.39833,591.33097 401.51105,591.53664 C 405.57353,608.35698 379.20973,597.68014 370.41264,597.91437 C 349.71527,595.28181 313.59377,604.03927 325.51946,574.64151 C 323.0531,548.99494 305.03903,522.17074 316.03344,496.82364 C 311.09301,484.29529 317.79049,470.15849 312.95852,457.08944 C 310.19689,436.67732 321.13613,383.80732 286.97023,397.88295 C 279.06605,409.81888 266.35297,427.99769 285.47807,435.05932 C 286.4052,450.9987 270.63855,459.35803 274.74981,475.9396 C 273.79169,486.82232 277.29963,526.4026 278.07823,495.08478 C 273.31751,476.63835 284.64522,460.84044 290.16603,449.23193 C 309.61668,461.04591 281.03822,477.13791 294.3549,491.48524 C 281.09831,505.32143 304.00252,510.80417 298.90143,527.40519 C 293.91253,544.66406 296.82117,563.13353 284.3677,574.55118 C 274.1199,586.05769 265.24891,585.47793 273.51104,601.53664 C 249.01979,596.82666 223.5911,599.35364 201.1811,611.55179 C 189.36282,614.29364 175.33084,620.89346 163.454,617.74862 z M 256.82997,587.53664 C 260.30129,566.0906 278.34602,545.31836 273.93666,528.56549 C 272.4753,547.88707 233.94011,579.07179 256.19659,588.82635 L 256.82997,587.53663 L 256.82997,587.53664 z M 284.81856,560.28664 C 278.89246,547.16662 275.41397,576.42977 284.81856,560.28664 z M 289.53173,529.78664 C 288.00409,511.02489 281.22749,530.68603 289.53173,529.78664 z M 393.62644,463.84661 C 410.73928,455.17356 425.9053,441.82429 431.80289,423.64384 C 409.53648,411.7675 368.15403,419.44425 382.79717,452.59779 C 382.53584,464.069 380.43627,469.15815 393.62644,463.84661 z M 216.97588,283.10236 C 225.60308,263.17316 175.56675,249.45095 196.54579,270.11381 C 195.02784,285.85234 211.35575,281.19525 216.97588,283.10236 z M 294.76104,599.45773 C 289.71911,578.06532 336.47619,589.35964 309.24692,599.22186 C 304.43623,599.5142 299.56784,600.17318 294.76104,599.45773 z M 361.52871,345.78664 C 351.05342,334.98602 335.13762,313.14391 355.64673,302.07087 C 369.95636,303.38209 391.64886,281.4758 399.75248,302.84213 C 413.88945,327.17094 445.23783,272.67601 440.78907,307.93074 C 429.99907,327.333 403.77967,319.19167 395.44596,333.64778 C 385.98051,338.48512 373.85263,348.42616 361.52871,345.78664 z M 378.98186,330.09118 C 400.40769,333.13991 385.48975,292.51049 372.02047,316.65264 C 350.75643,320.39319 367.63023,336.11605 378.98186,330.09118 z M 52.629745,298.60336 C 39.000005,280.94761 50.166765,274.51052 61.223085,284.51699 C 74.720175,287.9193 104.77214,255.56833 95.574215,284.08062 C 87.529705,293.14738 63.207975,305.1404 52.629745,298.60336 z M 318.47634,282.11491 C 305.53573,274.60092 321.61326,233.81153 329.92595,260.24859 C 314.38015,290.94882 358.57235,257.62965 364.57424,262.23906 C 371.8066,288.46346 333.90985,281.35643 318.47634,282.11491 z M 14.761035,241.95654 C 8.3770851,228.26531 34.220775,221.59588 18.209545,209.13783 C 35.918795,195.3431 51.776665,232.77507 27.485255,237.47796 C 26.759595,244.31879 19.434705,243.63633 14.761035,241.95654 z M 345.01105,239.23521 C 332.2169,233.65786 318.55643,218.43287 331.45042,203.38061 C 352.36264,195.90478 332.95895,228.23632 343.15238,229.18188 C 356.18395,224.22092 376.14308,233.9891 354.08674,240.9886 L 349.11268,240.4602 L 345.01105,239.23521 L 345.01105,239.23521 z M 215.67772,206.36996 C 221.40451,184.07558 203.35497,170.56535 181.94197,176.94641 C 176.64366,151.31162 193.65231,154.25273 211.77549,152.42749 C 226.39106,147.84103 211.44291,134.72777 221.83388,132.03663 C 212.66054,123.2941 196.62113,132.85906 206.09106,111.56953 C 218.47636,99.822902 229.50149,69.277542 200.92803,80.036625 C 183.68616,88.637005 171.68945,66.925641 153.14658,73.512618 C 144.11437,81.779598 126.06781,80.806788 132.57736,99.638495 C 107.63723,117.50193 122.13892,81.382903 108.27686,80.730142 C 90.759325,74.731731 75.589135,84.495829 57.526135,85.234292 C 50.204075,98.907832 34.415055,108.49841 58.221715,115.35031 C 61.086475,125.98742 73.858585,150.53115 90.231365,133.72891 C 115.91407,135.93092 91.623905,162.33726 81.238765,160.93293 C 88.256205,190.72537 48.555255,173.55944 68.644885,155.41826 C 62.963765,144.73496 45.516185,137.02638 45.185355,122.03663 C 26.689765,120.87645 22.366705,95.061126 37.997565,88.133924 C 53.290355,67.68176 88.218345,60.925501 112.46034,66.446056 C 131.1209,80.92131 149.1523,55.788608 170.07312,61.059881 C 184.15457,67.088297 211.63765,77.895164 206.71277,49.193842 C 208.78988,28.26357 228.00308,7.2500922 249.51104,6.5366262 C 249.45127,20.873225 232.81783,28.780672 223.01104,31.83566 C 216.23525,52.423543 214.50287,70.19126 237.22835,71.536625 C 242.98462,65.585035 247.35569,30.190996 260.84206,56.619122 C 265.94041,77.869355 295.18287,65.680579 297.90912,52.287573 C 312.77169,58.621097 332.10501,54.299105 342.64197,68.079325 C 362.84443,78.108744 315.55369,97.682408 345.67621,90.470528 C 370.03931,97.033443 327.38904,110.83276 328.47518,99.45996 C 315.76405,113.18871 317.55519,117.10604 333.82341,108.97106 C 352.29438,101.45299 361.0443,119.92746 337.45608,119.78428 C 319.01006,119.04389 304.30731,158.34124 335.93147,144.27861 C 346.67997,164.96549 295.15418,151.37835 284.20468,167.84762 C 273.56206,189.95303 258.69843,181.92331 255.58305,158.52702 C 249.50162,142.38076 239.62561,126.55974 232.25986,148.69982 C 226.12682,164.66585 200.75637,166.62095 225.92403,176.11089 C 230.23184,187.08777 237.62114,210.86777 215.67772,206.36996 z M 280.2741,148.75578 C 291.02997,137.67571 301.25398,91.597307 274.61405,113.97631 C 241.12754,110.01112 268.06484,181.79841 280.2741,148.75578 z M 301.51528,148.03663 C 301.73244,133.26828 320.74527,95.962104 299.19784,97.297829 C 309.30376,111.54659 291.81971,141.35797 301.51528,148.03663 z M 235.63277,110.70369 C 234.19495,75.440827 222.78525,124.55718 235.63277,110.70369 z M 251.01104,106.47761 C 248.13076,104.57205 248.67744,109.91238 251.01104,106.47761 z M 253.32491,84.6165 C 265.29972,66.677597 235.53685,93.711281 253.32491,84.6165 z M 304.03939,77.466815 C 307.03415,53.018102 292.32283,93.484752 304.03939,77.466815 z M 26.351365,201.48107 C 19.539995,187.26771 55.631085,165.73176 49.511035,189.44383 C 47.637435,196.95386 35.290175,191.985 34.003695,202.74084 C 31.648475,202.76982 28.048915,203.95775 26.351365,201.48107 z M 126.98543,194.98876 C 112.94147,181.59895 107.48089,163.02837 109.76105,145.57042 C 101.59118,131.96208 123.23818,119.50171 131.01062,110.21869 C 146.92709,120.57926 179.16377,81.59137 164.7727,114.31039 C 151.52887,123.11788 142.67557,141.68283 163.01106,132.03663 C 168.13998,144.61041 145.50914,137.17686 158.9703,151.07131 C 149.05796,169.49673 169.83793,164.23098 174.79456,170.93201 C 162.92508,181.45209 145.88504,198.86622 126.98543,194.98876 L 126.98543,194.98876 z M 146.67372,173.78104 C 143.40147,160.62602 131.87262,149.09894 141.03066,170.51187 C 140.48108,177.70056 153.13146,185.71463 146.67372,173.78104 z M 131.01104,134.03663 C 122.68109,122.71194 124.70577,143.42166 131.01105,134.03663 L 131.01104,134.03663 z M 373.67772,75.36996 C 375.22011,64.7733 390.66443,41.797102 367.1081,46.866478 C 355.40852,43.518387 357.09854,18.895519 334.05902,22.594429 C 313.06246,0.069590231 287.0792,29.298894 260.31059,15.706946 C 249.47516,-3.8192298 294.45993,13.51022 304.3107,0.12482523 C 317.83696,-0.78529077 333.9035,3.2476312 339.91222,13.334025 C 364.77179,12.167985 373.03107,40.658944 394.02589,41.831878 C 391.77028,54.487256 394.93335,81.824487 373.67772,75.36996 z" id="path2488"/>
  <metadata>
    <rdf:RDF>
      <cc:Work>
        <dc:format>image/svg+xml</dc:format>
        <dc:type rdf:resource="http://purl.org/dc/dcmitype/StillImage"/>
        <cc:license rdf:resource="http://creativecommons.org/licenses/publicdomain/"/>
        <dc:publisher>
          <cc:Agent rdf:about="http://openclipart.org/">
            <dc:title>Open Clip Art Library</dc:title>
          </cc:Agent>
        </dc:publisher>
        <dc:title>arbre</dc:title>
        <dc:date>2012-08-14T11:50:37</dc:date>
        <dc:description/>
        <dc:source>http://openclipart.org/detail/171727/arbre-by-fofo_es-171727</dc:source>
        <dc:creator>
          <cc:Agent>
            <dc:title>fofo_es</dc:title>
          </cc:Agent>
        </dc:creator>
        <dc:subject>
          <rdf:Bag>
            <rdf:li>albero</rdf:li>
            <rdf:li>arbre</rdf:li>
            <rdf:li>baum</rdf:li>
            <rdf:li>clip art</rdf:li>
            <rdf:li>clipart</rdf:li>
            <rdf:li>tree</rdf:li>
            <rdf:li>zuhaitz</rdf:li>
            <rdf:li>árbol</rdf:li>
            <rdf:li>árbore</rdf:li>
            <rdf:li>árvore</rdf:li>
          </rdf:Bag>
        </dc:subject>
      </cc:Work>
      <cc:License rdf:about="http://creativecommons.org/licenses/publicdomain/">
        <cc:permits rdf:resource="http://creativecommons.org/ns#Reproduction"/>
        <cc:permits rdf:resource="http://creativecommons.org/ns#Distribution"/>
        <cc:permits rdf:resource="http://creativecommons.org/ns#DerivativeWorks"/>
      </cc:License>
    </rdf:RDF>
  </metadata>
</svg>
