<?xml version="1.0" encoding="UTF-8" standalone="no"?>
<!-- Created with Inkscape (http://www.inkscape.org/) -->
<svg xmlns:dc="http://purl.org/dc/elements/1.1/" xmlns:cc="http://creativecommons.org/ns#" xmlns:rdf="http://www.w3.org/1999/02/22-rdf-syntax-ns#" xmlns:svg="http://www.w3.org/2000/svg" xmlns="http://www.w3.org/2000/svg" xmlns:sodipodi="http://sodipodi.sourceforge.net/DTD/sodipodi-0.dtd" xmlns:inkscape="http://www.inkscape.org/namespaces/inkscape" width="744.09448819" height="1052.3622047" id="svg2" version="1.1" inkscape:version="0.48.4 r9939" sodipodi:docname="New document 1">
  <defs id="defs4"/>
  <sodipodi:namedview id="base" pagecolor="#ffffff" bordercolor="#666666" borderopacity="1.0" inkscape:pageopacity="0.0" inkscape:pageshadow="2" inkscape:zoom="0.49497475" inkscape:cx="419.01274" inkscape:cy="523.54637" inkscape:document-units="px" inkscape:current-layer="layer1" showgrid="false" inkscape:window-width="1440" inkscape:window-height="838" inkscape:window-x="-8" inkscape:window-y="-8" inkscape:window-maximized="1"/>
  <g inkscape:label="Layer 1" inkscape:groupmode="layer" id="layer1">
    <path style="fill:#000000;fill-opacity:1;stroke:none" d="m 316.1374,150.00075 c 32.90749,-2.9538 67.60163,-17.93311 99.46155,-4.69549 19.56018,7.69854 52.531,34.7316 54.34655,40.16374 -6.48755,-12.077 -12.85835,-24.23256 -21.77523,-34.67536 29.13972,3.23539 21.64316,-15.45566 -4.07748,-6.54145 -23.35552,6.0461 -43.68002,-18.6837 -66.33474,-8.09142 -20.54021,4.61333 -41.08043,9.22665 -61.62065,13.83998 z m 83.87971,520.14354 c 23.78569,-50.1534 56.28397,-96.92081 67.56978,-152.23714 -21.08581,42.64471 -36.55679,88.08441 -57.80283,130.80981 -3.25564,7.14245 -6.5113,14.28488 -9.76695,21.42733 z M 266.43092,881.84908 c 7.92529,0.44456 41.49399,-11.50584 25.2047,2.01986 -6.16915,4.40989 -17.62631,-2.36003 -25.2047,-2.01986 z m -3.10668,-16.65094 c 6.2019,-9.31831 36.7171,-15.00467 31.47924,-8.26719 -9.52734,6.09087 -20.79593,5.88834 -31.47924,8.26719 z m 125.81958,58.67472 c 14.64899,9.17363 35.51238,11.00294 47.74332,-3.03952 -2.44082,-1.88849 -24.29832,13.30068 -35.20486,5.29846 -4.17947,-0.75297 -8.35897,-1.50595 -12.53846,-2.25894 z m -2.32999,-29.33737 c 15.16403,6.94157 33.42986,12.3872 48.97794,6.17732 20.06234,-19.45506 -7.71651,1.93559 -19.51679,-3.90735 -9.82039,-0.75667 -19.64076,-1.51331 -29.46115,-2.26997 z m 6.21331,-73.73984 c 7.24935,17.88869 23.46452,28.58585 39.58908,36.9021 26.48098,6.72459 1.67151,-3.35202 -8.3047,-11.35136 -10.42813,-8.5169 -20.85626,-17.03384 -31.28438,-25.55074 z m -88.53969,-88.01211 c 10.90555,-12.48956 25.80688,-10.32414 40.53228,-8.80404 14.26487,1.80649 19.56524,30.76311 4.65311,8.94583 -13.91781,-6.71581 -30.75963,-4.70293 -45.18539,-0.14186 z m 4.65997,-43.60961 c 17.67874,1.65778 38.00128,-3.82094 53.58981,3.96453 -4.75749,10.54227 -41.3943,-5.90698 -53.58981,-3.96453 z m -3.10666,-26.16575 c 13.29596,2.45978 68.19658,-18.335 52.03649,0.7929 -17.39593,0.70033 -34.682,1.34755 -52.03649,-0.7929 z m 0,-51.53861 c 22.30361,0.4025 82.71163,-33.78084 34.97415,-3.7539 -10.2544,7.16148 -24.22703,14.27979 -34.97415,3.7539 z M 290.50748,506.80652 c 32.08798,-2.16031 79.722,-5.16548 92.42302,32.50899 -24.60249,-23.03976 -60.84058,-25.98281 -92.42302,-32.50899 z m -22.52325,-38.05927 c 12.89294,-16.02417 28.87906,-33.67611 51.36227,-29.33738 19.80095,2.12596 41.42939,-5.24121 59.70068,3.96453 15.65769,19.34417 27.4475,37.22433 4.63094,11.3426 -9.22316,-15.81107 -28.94773,-6.77438 -43.71682,-9.46306 -23.02251,-4.91383 -39.86383,6.28474 -58.23181,18.17058 -4.58177,1.77427 -9.16352,3.5485 -13.74526,5.32273 z m 31.84322,-103.07722 c 31.54221,-10.96913 97.26869,-0.53991 100.0926,23.19236 -22.56625,-15.01979 -50.279,-23.39166 -77.70258,-22.76108 -7.46335,-0.14386 -14.92667,-0.28753 -22.39002,-0.43128 z m -21.74658,-42.81671 c 35.78902,-25.14809 93.36318,-39.0312 127.3729,-4.75742 -32.12783,-21.94748 -73.59822,-13.18612 -107.95631,-2.37869 -6.71611,1.62019 -13.02006,4.57816 -19.41659,7.13611 z m 2.32999,-47.5741 c 32.67327,-26.99601 75.3447,-19.09357 112.28861,-9.15553 17.72753,-1.57098 62.11036,39.9085 27.41382,12.52536 -35.06683,-24.47643 -92.89443,-46.01841 -129.0233,-12.28999 -3.59017,2.93509 -7.1508,5.90789 -10.67913,8.92016 z m 226.00922,333.81164 c -11.71817,67.05549 -26.15402,134.04377 -42.89704,199.71293 -16.28322,14.02989 -8.60538,98.60374 -14.05188,44.50356 -3.80492,-39.51734 24.49363,-70.65388 27.63397,-109.74581 9.70245,-44.8394 20.18134,-89.50036 29.31495,-134.47068 z m 38.8332,-32.50896 c -2.65872,44.38212 -7.21675,90.11436 -23.29991,131.62168 -20.21011,29.50688 -27.76687,62.78951 -33.39657,97.52691 -9.95687,-14.58344 20.91304,-81.02698 -6.56232,-40.53687 10.50301,-23.10591 46.17611,-70.60666 48.61132,-109.28015 -5.24848,-18.44225 -31.20826,17.27892 -10.714,-9.74864 22.6818,-14.29163 22.35001,-61.70356 25.36148,-69.58293 z m 46.59984,-177.60999 c -7.51202,42.12624 -14.18637,85.39408 -35.72654,122.89976 -9.15348,16.35331 -4.58821,63.26293 -11.64996,23.78704 -31.33873,26.08573 5.64039,-37.23214 5.77774,-56.94136 6.00552,-22.25212 4.50361,-36.96548 0.76866,-6.0821 9.7944,33.01665 21.86692,-34.28805 28.72337,-45.40085 4.21079,-12.69536 8.24692,-25.45137 12.10673,-38.26249 z M 461.76191,955.58893 c 18.33471,-32.95874 18.22095,-69.65185 18.17065,-103.82519 4.11537,-19.29618 10.67945,-66.23822 -0.0795,-20.70345 -16.50431,40.25305 3.04381,61.02084 -11.76231,103.78021 -1.99017,6.95335 -4.1078,13.86848 -6.32892,20.74843 z m 2.71832,19.42609 c -15.78161,-23.02998 -16.90754,-70.97713 -13.87337,-85.79067 -7.33136,33.61471 -9.93142,60.52629 13.87337,85.79067 z m -89.70469,20.21899 c 19.54671,22.06049 90.70663,14.88659 92.42303,-17.84028 -7.14587,25.90807 -43.34545,-13.11755 -40.63258,12.63711 32.49299,-10.0025 -10.15059,22.38016 -15.28724,-5.89745 -31.3897,0.15563 -10.24461,5.591 -4.1697,12.58633 -10.31887,3.68848 -22.05284,1.06093 -32.33351,-1.48571 z M 363.5139,883.43487 c -0.78282,28.79104 15.05895,88.04701 14.68876,95.15444 1.14569,-30.69501 -7.83832,-64.38546 -14.68876,-95.15444 z m -93.19968,98.71628 c 24.95574,-21.82022 81.55286,-2.11094 91.50175,3.21421 -30.19708,-5.80554 -61.02494,-9.35074 -91.50175,-3.21421 z m 101.743,4.75739 c -9.46429,45.75756 -77.36733,17.70396 -106.79131,4.75741 -5.55621,-9.4077 43.90653,16.35115 62.90978,11.10065 17.62593,2.3094 33.96759,0.3646 43.88153,-15.85806 z m -34.56156,-11.89352 c 3.31731,-29.26284 43.22782,8.66836 18.25161,-16.25449 -9.02367,-3.36516 -20.49118,6.82007 -18.25161,16.25449 z m -38.05653,-5.15386 c -2.20841,-23.64851 45.58079,-9.46552 8.93162,-17.44384 -7.35672,1.63331 -9.99273,10.79958 -8.93162,17.44384 z m -38.05654,10.30773 c -10.83093,-28.19072 41.50011,-24.8835 27.57157,-19.4261 -12.96831,-6.40027 -24.01918,13.0856 -27.57157,19.4261 z m -1.16501,-104.2666 c 12.93587,36.57339 -15.01895,76.73323 -4.65997,107.4382 -6.8265,-25.74817 21.2924,-41.27219 8.93164,-68.98246 1.18417,-13.04936 -1.33766,-25.8326 -4.27167,-38.45574 z M 386.9402,612.02994 c -0.58275,38.8247 4.89702,76.0107 -3.8443,114.37591 -2.02509,15.36251 -12.02238,68.83356 -6.94211,26.35044 6.01149,-46.76877 7.46435,-93.7382 10.78641,-140.72635 z M 222.93773,545.65871 c 6.79707,43.99389 -1.5917,88.62213 7.70612,132.11231 4.70899,46.49719 18.3631,91.43565 19.05199,138.4715 -1.10755,19.83207 13.52688,74.34941 8.96843,24.37566 -14.11593,-44.30205 -7.60737,-91.72797 -17.56777,-136.39329 -13.33304,-48.30195 -8.14938,-99.04246 -16.92124,-148.2629 l -0.90085,-7.54386 -0.33668,-2.75942 0,0 z m 112.37913,408.65795 c 30.48146,-22.35634 6.24192,-38.13837 -15.10258,-18.22165 -26.58619,-24.56937 -18.14347,17.95488 6.04103,19.62333 -33.73131,-19.21874 4.32433,-16.04593 17.70753,-20.50449 -1.95006,6.6482 -4.10869,13.73661 -8.64598,19.10281 z m 67.54967,-426.38665 c -32.83027,86.57492 -30.63797,181.09487 -34.04943,272.48379 5.08275,45.90189 -13.68381,89.01623 -18.12308,133.99922 -1.64335,-45.13387 20.84154,-88.51976 14.02621,-134.27833 -10.2396,-61.39745 15.34502,-121.74605 7.94115,-183.05876 9.03077,-30.21918 14.81438,-61.22545 30.20515,-89.14592 z m -129.60752,-7.28864 c 5.57065,41.38024 15.23941,82.27289 13.96156,124.20213 2.88981,45.03595 6.64991,89.89262 11.85011,134.82564 1.48868,38.03702 2.65691,75.53794 1.99507,113.39097 -3.20012,17.26285 1.03902,59.96382 2.42923,18.4202 4.68539,-43.15586 6.69971,-85.50316 -2.47533,-127.74248 3.70756,-44.52605 -15.77199,-87.36578 -5.79325,-132.46125 -7.27232,-38.17935 -5.85172,-76.32998 -18.49234,-114.32316 l -1.82076,-8.50234 -1.65429,-7.80971 0,0 z M 135.96292,378.23214 c 8.48908,42.65244 22.08991,83.88538 38.99987,123.62415 14.23387,40.34895 20.59031,83.61927 44.41272,120.50821 14.3674,30.88988 -9.47278,-29.25899 -10.37107,-39.4892 -16.49894,-20.52149 -33.63971,-96.26061 0.14593,-39.41862 9.13833,22.80096 11.82173,29.37021 3.92014,1.18292 -19.06262,-31.28428 -42.33974,-58.94282 -48.18611,-97.59206 -12.59726,-21.43545 -19.82517,-45.72683 -28.92143,-68.8154 z m 99.95157,74.00793 c -10.4659,18.80129 -34.10057,101.32182 2.76375,76.08937 -10.01642,-15.40277 33.81521,-65.95279 7.12083,-35.67393 -1.30414,19.10396 -23.86069,53.30306 -24.95852,14.04911 1.6037,-18.90527 8.13861,-37.01299 15.07394,-54.46455 z m 196.608,30.83665 c 10.30298,19.85799 -24.58004,60.39003 14.82798,50.45996 24.95116,-8.03025 19.52574,-79.14391 8.96457,-70.29134 15.57542,20.33963 -2.27659,89.45438 -24.006,59.2406 12.471,-2.9113 5.8245,-34.37056 0.21334,-39.40922 z M 218.88977,169.6643 c -39.40369,13.27569 -50.06774,57.89479 -59.68493,94.23552 -2.53447,15.76108 -27.47221,49.66913 -3.5149,16.63484 11.7574,-26.37196 34.99116,-44.26279 29.53445,-72.89752 9.98098,-13.87629 18.14057,-29.51707 33.66538,-37.97284 z m 54.36924,345.93106 c -6.72742,-38.13807 -55.0791,-61.41628 -38.99209,-103.72325 -0.42473,-34.94436 50.60839,-86.45301 2.75953,-103.34257 -7.70422,-15.22558 -19.06567,-64.34142 -4.5653,-25.16472 -1.18895,21.5349 29.43784,40.18409 34.34495,29.05913 -1.99717,44.4152 -36.62708,80.73192 -30.89161,126.36015 4.90778,20.6603 34.36933,54.5912 24.11548,11.08692 -2.57725,-15.75541 1.55827,-59.53925 6.10018,-60.09929 -2.51034,41.26581 -5.92126,85.4089 7.12886,125.82363 z M 56.331193,271.14487 c 36.694916,15.42946 21.22513,65.51377 57.664347,81.85728 13.77443,21.30778 37.87515,30.95494 49.03642,57.26326 20.76638,15.45522 50.14853,50.14619 62.67193,27.90704 15.57506,-0.26997 -5.31391,-21.122 -16.15025,-1.63104 -40.34736,-4.1147 -46.5045,-49.98343 -69.41379,-70.82154 -28.09956,-8.72141 -46.535412,-52.2394 -56.806241,-82.16735 -6.388605,-8.33087 -17.736456,-9.69265 -27.002416,-12.40765 z M 293.57883,55.849063 C 247.50649,49.295098 201.5064,30.404277 154.69894,34.943988 115.82215,55.343362 75.589257,82.616132 65.118142,128.73567 47.014583,166.02416 30.078097,213.15016 46.767432,254.1687 58.232757,279.65475 37.473134,215.0903 45.521809,202.06074 54.761523,159.73526 91.481275,131.58656 90.929803,86.68571 111.07628,65.007233 150.22702,27.724498 163.97131,60.334403 c -35.19963,-40.309276 34.59601,-7.855734 54.36928,-15.137989 24.87618,6.908164 49.23027,11.774766 75.23824,10.652649 z M 233.03434,259.42118 c 12.53972,-30.42979 39.60131,36.58288 11.4928,2.26086 -23.25953,17.15533 39.04191,19.76676 -0.23116,27.86941 41.78659,19.13202 -0.31792,-74.60897 -11.26164,-30.13027 z M 189.78298,93.974358 c 16.91396,36.487822 57.47014,69.857722 40.73681,112.670492 2.82694,15.79836 -12.93089,66.49886 2.3052,27.04148 26.35696,-40.31393 -4.52566,-82.25578 19.38911,-123.05977 1.76598,-21.921114 53.62514,-59.591573 14.21398,-31.202856 -26.44974,16.185599 -24.85433,67.335566 -37.3423,79.650446 -6.6658,-25.29934 -24.59612,-44.27911 -39.3028,-65.099792 z M 297.42314,58.091721 c 12.44179,25.198973 58.43964,1.201355 82.99853,2.819049 18.14858,-15.527089 70.23671,-8.86971 69.57777,-0.299384 -29.64234,-35.477352 -73.06496,5.043524 -109.70268,1.900782 -14.53284,1.934861 -29.23271,1.609924 -42.87362,-4.420447 z m 182.3292,28.593989 c 17.08729,3.316201 49.07946,61.78637 44.00667,45.75773 -8.1751,-21.5399 -21.49163,-38.853541 -44.00667,-45.75773 z m -13.72959,20.18398 c 24.43523,7.82094 36.2869,49.72032 40.931,60.52333 -7.10655,-26.04131 -10.63336,-53.11518 -40.931,-60.52333 z M 456.6866,65.941062 c 38.1932,-6.802374 77.36398,-13.848385 116.42708,-13.455999 37.67165,-12.919951 72.1701,14.729862 98.8532,38.685965 C 639.60033,61.855678 599.03136,59.075215 559.1236,57.062294 529.49884,48.449875 522.68753,79.752504 529.17894,92.85304 534.97116,45.284043 483.26116,74.598328 456.6866,65.941062 z m 54.36925,109.890578 c 34.36559,-23.52068 33.29221,-79.590756 80.7301,-83.539271 35.58278,-1.481711 71.41103,26.081691 70.8448,64.476611 -4.4143,47.11933 -5.47638,-14.07685 -19.69633,-28.96756 -16.0614,-30.819571 -90.69447,-30.463506 -75.02027,15.87237 -21.35176,-3.70886 -31.04827,26.65992 -56.8583,32.15785 z m 132.05709,129.57785 c 18.13646,-26.62048 53.49616,19.13692 58.9903,-26.41892 16.25742,-39.05173 -15.29854,-88.85217 14.81487,-120.18532 -5.44143,-25.75814 -35.90982,-58.1143 -45.52366,-68.443968 33.1933,36.143988 26.28125,80.239298 30.00612,125.336178 -1.25668,32.1838 -2.16304,77.95487 -41.81411,70.47325 -8.74656,2.43505 -12.22747,12.17232 -16.47352,19.23878 z m -132.03286,82.85824 c 31.9233,-22.1716 58.07473,-53.95537 70.28809,-91.58016 -6.79115,44.49838 -28.82933,74.80954 -70.28809,91.58016 z m -36.89155,66.60375 c 40.36913,-2.54451 74.26626,-25.85321 105.6263,-48.76348 10.05052,-31.58935 47.01516,-36.75205 62.42453,-53.33579 -9.66263,-19.46072 -1.40324,-65.91231 -11.1647,-21.98987 21.2998,49.53214 -62.12366,24.36554 -64.85144,72.55051 -20.52064,32.31699 -60.94148,35.44021 -92.03469,51.53863 z M 457.49025,284.79403 c 7.56164,-23.04052 43.06417,-11.29046 12.42664,3.56807 -35.06567,4.87007 19.29144,9.1643 12.08877,7.67242 -4.83285,13.8651 -44.74604,0.45151 -24.51541,-11.24049 z m -4.27167,-3.56805 c 7.4172,-17.57102 26.28221,-34.8628 41.93988,-15.06512 -19.46114,-27.41396 -32.56034,-7.95638 -41.93988,15.06512 z m 54.54218,-75.67905 c 12.01765,16.96729 9.20534,55.71722 8.23776,65.0373 6.64489,-16.16489 6.94767,-72.49913 7.41085,-67.53896 -4.31667,8.76363 -8.54188,6.44866 -15.64861,2.50166 z m -43.28054,124.44251 c -0.77318,25.30876 -7.24613,50.71645 1.55334,75.32567 0.76325,11.48451 1.57211,35.24571 3.25939,38.83985 1.22086,-17.61655 3.70276,-35.29887 -1.70606,-52.33661 8.72417,-22.03781 28.45299,-43.56226 28.93073,-70.45171 5.38912,-27.62994 -14.68765,62.54516 -28.09119,50.66747 4.56958,-18.65118 2.8468,-14.31752 -0.0628,-30.15115 16.56612,-21.75342 31.08173,-45.31198 41.93985,-70.56824 -13.08452,22.73606 -27.34704,44.63288 -42.7165,65.81083 -1.03555,-2.37871 -2.07113,-4.75739 -3.10668,-7.13611 z m 6.21332,118.93528 c -30.91738,12.27575 -49.59417,55.74176 -68.84653,69.83364 18.65473,-16.50225 19.96032,-64.70958 19.70032,-98.66292 1.02605,-21.02774 2.15579,-57.05384 2.06393,-14.97302 9.68647,24.2368 -19.62652,74.98109 1.2591,80.27578 11.64328,-16.53198 23.73443,-34.89571 45.82318,-36.47348 z" id="path3892" inkscape:connector-curvature="0"/>
  </g>
  <metadata>
    <rdf:RDF>
      <cc:Work>
        <dc:format>image/svg+xml</dc:format>
        <dc:type rdf:resource="http://purl.org/dc/dcmitype/StillImage"/>
        <cc:license rdf:resource="http://creativecommons.org/licenses/publicdomain/"/>
        <dc:publisher>
          <cc:Agent rdf:about="http://openclipart.org/">
            <dc:title>Open Clip Art Library</dc:title>
          </cc:Agent>
        </dc:publisher>
        <dc:title>elephant</dc:title>
        <dc:date>2013-02-11T08:08:38</dc:date>
        <dc:description/>
        <dc:source>http://openclipart.org/detail/175015/elephant-by-artbejo-175015</dc:source>
        <dc:creator>
          <cc:Agent>
            <dc:title>artbejo</dc:title>
          </cc:Agent>
        </dc:creator>
        <dc:subject>
          <rdf:Bag>
            <rdf:li>clip art</rdf:li>
            <rdf:li>clipart</rdf:li>
            <rdf:li>elephant</rdf:li>
          </rdf:Bag>
        </dc:subject>
      </cc:Work>
      <cc:License rdf:about="http://creativecommons.org/licenses/publicdomain/">
        <cc:permits rdf:resource="http://creativecommons.org/ns#Reproduction"/>
        <cc:permits rdf:resource="http://creativecommons.org/ns#Distribution"/>
        <cc:permits rdf:resource="http://creativecommons.org/ns#DerivativeWorks"/>
      </cc:License>
    </rdf:RDF>
  </metadata>
</svg>
