<?xml version="1.0" encoding="UTF-8" standalone="no"?>
<!-- Created with Inkscape (http://www.inkscape.org/) -->
<svg xmlns:dc="http://purl.org/dc/elements/1.1/" xmlns:cc="http://creativecommons.org/ns#" xmlns:rdf="http://www.w3.org/1999/02/22-rdf-syntax-ns#" xmlns:svg="http://www.w3.org/2000/svg" xmlns="http://www.w3.org/2000/svg" xmlns:sodipodi="http://sodipodi.sourceforge.net/DTD/sodipodi-0.dtd" xmlns:inkscape="http://www.inkscape.org/namespaces/inkscape" width="708.66138" height="677.08667" id="svg2" sodipodi:version="0.32" inkscape:version="0.46" version="1.0" sodipodi:docbase="/home/melwe/Utile/Ecles/ImagesMemory" sodipodi:docname="lion.svg" inkscape:output_extension="org.inkscape.output.svg.inkscape">
  <defs id="defs4">
    <inkscape:perspective sodipodi:type="inkscape:persp3d" inkscape:vp_x="0 : 354.33069 : 1" inkscape:vp_y="0 : 1000 : 0" inkscape:vp_z="708.66138 : 354.33069 : 1" inkscape:persp3d-origin="354.33069 : 236.22046 : 1" id="perspective5010"/>
  </defs>
  <sodipodi:namedview id="base" pagecolor="#ffffff" bordercolor="#666666" borderopacity="1.0" inkscape:pageopacity="0.0" inkscape:pageshadow="2" inkscape:zoom="0.98994949" inkscape:cx="113.07079" inkscape:cy="385.88915" inkscape:document-units="px" inkscape:current-layer="layer1" inkscape:window-width="1600" inkscape:window-height="1130" inkscape:window-x="0" inkscape:window-y="24" width="20cm" height="20cm" units="cm" showgrid="false"/>
  <g inkscape:label="Calque 1" inkscape:groupmode="layer" id="layer1" transform="translate(-114.88125,-314.6365)">
    <g id="g4341" transform="matrix(1.4094107,0,0,1.4094107,-50.981089,-105.72933)">
      <path style="opacity:1;fill:#000000;fill-opacity:1;stroke-width:3;stroke-miterlimit:4;stroke-dasharray:none" d="M 186.01765,421.42902 C 171.36542,434.93203 148.71901,452.35443 147.08147,476.98096 C 142.92375,509.5947 141.65913,542.74929 142.54118,575.51802 C 147.15456,602.77425 147.254,633.12421 126.53061,653.94127 C 127.78931,675.73586 132.99713,699.35321 132.85285,722.80306 C 131.74983,743.83688 175.13954,743.50993 176.96737,739.1171 C 169.21639,732.80033 151.77246,717.98678 154.79408,721.90503 C 155.05563,712.92642 193.17261,724.17742 180.40352,743.88264 C 162.77491,752.44506 128.99245,748.94814 122.42994,725.98569 C 127.17658,701.75298 116.54945,678.22629 117.78239,654.10393 C 142.82457,636.82517 135.61299,602.68943 133.20262,577.01581 C 133.49126,546.58272 133.99175,516.01694 137.23694,485.77046 C 139.69128,457.31959 160.69759,437.79893 182.20575,421.93152 C 185.07991,419.03321 197.39343,413.91704 186.01765,421.42902 z" id="path2221"/>
      <path style="opacity:1;fill:#000000;fill-opacity:1;stroke-width:3;stroke-miterlimit:4;stroke-dasharray:none" d="M 230.39079,551.40576 C 225.01527,551.72591 208.93531,558.12758 223.01474,551.17347 C 205.38817,568.42715 194.0202,591.84507 186.1883,614.87805 C 185.26911,641.9 156.82174,662.42978 159.95023,687.43618 C 172.24902,697.85278 165.92714,723.56957 153.97609,701.54613 C 140.47335,675.871 168.77407,657.80314 172.53875,634.13849 C 178.90656,607 192.12519,581.78138 208.78984,559.63899 C 210.35238,552.85725 251.79941,537.23705 230.39079,551.40576 z" id="path2223"/>
      <path style="opacity:1;fill:#000000;fill-opacity:1;stroke-width:3;stroke-miterlimit:4;stroke-dasharray:none" d="M 235.36261,545.52863 C 253.00403,547.54469 281.68273,568.18537 276.9693,582.79406 C 258.78586,577.12434 245.82631,548.4979 228.72729,550.03736 L 232.42599,547.68064 L 235.36261,545.52863 L 235.36261,545.52863 z" id="path2225"/>
      <path style="opacity:1;fill:#000000;fill-opacity:1;stroke-width:3;stroke-miterlimit:4;stroke-dasharray:none" d="M 282.75748,580.59363 C 296.1645,596.71871 327.76386,604.26163 339.17759,605.95825 C 317.73428,616.60201 288.774,601.4229 276.2134,584.44753 C 277.51306,582.08653 280.46758,581.43223 282.75748,580.59363 z" id="path2227"/>
      <path style="opacity:1;fill:#000000;fill-opacity:1;stroke-width:3;stroke-miterlimit:4;stroke-dasharray:none" d="M 284.99057,594.63257 C 280.54078,619.02627 281.90277,644.42043 272.36577,667.7047 C 269.45863,696.99282 299.09265,709.55288 320.05696,717.65691 C 299.02574,726.526 271.11574,705.94126 264.11633,684.95452 C 261.88891,660.27444 276.97877,637.5023 273.41612,612.43048 C 273.08339,604.74674 276.03007,595.59629 284.99057,594.63257 z" id="path2229"/>
      <path style="opacity:1;fill:#000000;fill-opacity:1;stroke-width:3;stroke-miterlimit:4;stroke-dasharray:none" d="M 215.48381,574.32251 C 215.33242,603.555 241.89645,628.16426 235.06935,658.16442 C 231.6914,671.30336 215.855,680.6508 225.95949,661.90953 C 230.23611,636.14252 215.27846,613.01885 206.60164,590.02238 C 204.43359,583.06358 208.74737,576.41161 215.48381,574.32251 z" id="path2231"/>
      <path style="opacity:1;fill:#000000;fill-opacity:1;stroke-width:3;stroke-miterlimit:4;stroke-dasharray:none" d="M 231.33644,683.60034 C 258.74798,692.74097 258.45867,736.90187 289.83845,737.51063 C 304.9794,737.22163 319.50712,741.92908 323.85062,733.66142 C 334.59547,734.69016 300.79267,748.86165 291.80399,744.82141 C 262.31903,747.72051 252.45797,717.46911 236.56485,699.29708 C 234.49046,692.55461 217.47567,687.93305 231.33644,683.60034 z" id="path2233"/>
      <path style="opacity:1;fill:#000000;fill-opacity:1;stroke-width:3;stroke-miterlimit:4;stroke-dasharray:none" d="M 198.84137,612.10651 C 203.40002,619.85653 235.73673,642.54157 214.79139,643.23335 C 211.37853,634.7904 178.37405,619.04486 198.84137,612.10651 z" id="path2235"/>
      <path style="opacity:1;fill:#000000;fill-opacity:1;stroke-width:3;stroke-miterlimit:4;stroke-dasharray:none" d="M 193.71294,622.40533 C 194.20065,633.2492 232.70266,650.68879 205.63953,649.12878 C 198.71604,644.57131 174.26142,627.33259 193.71294,622.40533 z" id="path2237"/>
      <path style="opacity:1;fill:#000000;fill-opacity:1;stroke-width:3;stroke-miterlimit:4;stroke-dasharray:none" d="M 191.81569,416.7287 C 206.67398,411.10908 187.15787,422.19467 200.30929,411.95319 C 230.91627,392.85852 266.98925,412.43644 300.08107,409.15887 C 311.88863,407.43317 341.56842,408.67419 313.7965,414.44294 C 278.06459,419.32213 242.67373,406.79582 207.00427,410.40111 C 220.53351,404.56594 169.74251,433.69255 191.81569,416.7287 L 191.81569,416.7287 z" id="path2273"/>
      <path style="opacity:1;fill:#000000;fill-opacity:1;stroke-width:3;stroke-miterlimit:4;stroke-dasharray:none" d="M 396.84113,349.11884 C 377.29818,369.45627 348.08725,390.98109 344.41057,419.32156 C 354.66207,444.19229 382.38405,460.36965 380.7732,490.46989 C 384.67243,515.5789 383.13772,541.72443 394.73238,565.1369 C 402.00077,592.14201 423.09561,612.49345 447.34008,625.22549 C 465.46132,635.64065 491.19747,628.45135 506.4526,622.91217 C 522.41536,609.28313 541.8607,593.76975 540.9412,570.58933 C 539.35714,556.92011 557.98131,545.79323 550.76979,566.07505 C 547.36832,595.10853 523.8183,616.19532 499.23377,628.82576 C 474.67125,639.4538 442.11358,640.13666 422.50027,619.49391 C 396.83929,605.17962 387.51275,577.29336 379.3884,551.03126 C 372.65372,525.93231 375.00412,499.68646 368.09962,474.48364 C 360.80536,450.23293 323.12711,432.76095 339.46089,403.6189 C 359.5127,386.58012 370.94705,359.13721 396.84113,349.11884 z" id="path2275"/>
      <path style="opacity:1;fill:#000000;fill-opacity:1;stroke-width:3;stroke-miterlimit:4;stroke-dasharray:none" d="M 457.72668,386.54114 C 449.05708,411.16461 440.21132,435.64785 436.66841,461.48065 C 425.90299,486.84539 435.30671,515.44944 456.34867,532.33372 C 476.42257,549.65589 505.15097,555.38427 530.83177,550.43133 C 540.68871,536.28906 563.83715,523.16327 576.78355,507.74148 C 590.77254,487.38741 597.9378,463.49937 605.68858,440.3426 C 611.64627,412.27341 611.08731,383.17484 610.00721,354.69284 C 605.1014,326.24387 575.71163,315.49518 552.70641,305.92703 C 525.61523,304.66364 497.27947,301.2196 471.05046,309.99176 C 456.93135,313.66774 429.96619,318.91438 427.85098,324.51153 C 429.49393,323.77724 405.22048,342.60938 397.0913,344.49646 C 400.03103,340.84121 433.01116,319.28056 429.71556,320.95567 C 455.2699,306.89297 485.76061,300.56402 514.48757,299.02541 C 541.33487,296.95334 568.66549,298.10794 591.09752,314.7479 C 616.8966,325.86444 623.10309,355.56182 619.58665,380.79378 C 619.10095,410.40741 617.72073,441.02456 602.93959,467.58784 C 602.69964,489.98675 567.14869,526.04051 564.11722,522.59985 C 547.26698,539.12818 529.33761,561.85744 502.69658,558.04927 C 473.28406,556.63184 443.3643,542.6602 430.25692,514.97567 C 413.06207,491.1798 432.59269,464.48617 432.43584,439.19197 C 440.78459,422.12842 439.27362,396.81831 457.72668,386.54114 z" id="path2277"/>
      <path style="opacity:1;fill:#000000;fill-opacity:1;stroke-width:3;stroke-miterlimit:4;stroke-dasharray:none" d="M 348.34491,604.90118 C 356.02405,631.45916 401.74824,626.52919 396.52567,660.51077 C 406.44511,694.40605 417.46636,728.76513 419.3604,764.21896 C 410.73389,775.40021 412.32694,737.30397 408.1656,729.79075 C 400.2843,703.34163 395.42555,676.06354 386.92222,649.85542 C 383.21618,627.35681 339.1995,632.07998 345.66118,606.51957 L 348.34491,604.90118 L 348.34491,604.90118 z" id="path2337"/>
      <path style="opacity:1;fill:#000000;fill-opacity:1;stroke-width:3;stroke-miterlimit:4;stroke-dasharray:none" d="M 452.37006,639.3371 C 450.25995,669.54861 452.57613,700.93182 462.91168,729.3446 C 468.84551,740.29685 499.67616,754.39501 490.22318,762.95414 C 468.72831,749.40769 450.35756,728.93173 448.75389,702.39229 C 448.48075,683.75876 437.18915,651.37118 452.37006,639.3371 z" id="path2345"/>
      <path style="opacity:1;fill:#000000;fill-opacity:1;stroke-width:3;stroke-miterlimit:4;stroke-dasharray:none" d="M 423.68927,765.63708 C 439.66632,778.13279 476.80747,771.27185 483.96646,773.05327 C 467.4034,779.26695 428.89007,784.18474 423.60822,765.69208 L 423.68927,765.63708 z" id="path2347"/>
      <path style="opacity:1;fill:#000000;fill-opacity:1;stroke-width:3;stroke-miterlimit:4;stroke-dasharray:none" d="M 442.08911,745.16327 C 457.4637,738.95167 460.50788,750.45277 442.54451,748.60074 C 434.57212,751.97155 437.80379,746.45556 442.08911,745.16327 L 442.08911,745.16327 z" id="path2349"/>
      <path style="opacity:1;fill:#000000;fill-opacity:1;stroke-width:3;stroke-miterlimit:4;stroke-dasharray:none" d="M 499.37592,632.2699 C 486.0383,662.12608 479.97497,696.34727 485.46067,728.52963 C 472.56971,742.12668 478.11844,704.06618 477.71309,694.88753 C 479.32712,674.33214 484.40222,654.01953 492.96858,635.25011 L 496.17225,633.76 L 499.37592,632.2699 L 499.37592,632.2699 z" id="path2351"/>
      <path style="opacity:1;fill:#000000;fill-opacity:1;stroke-width:3;stroke-miterlimit:4;stroke-dasharray:none" d="M 479.94623,739.44897 C 501.30511,731.55162 474.55082,748.72015 477.67005,741.14637 L 479.94623,739.44897 L 479.94623,739.44897 z" id="path2353"/>
      <path style="opacity:1;fill:#000000;fill-opacity:1;stroke-width:3;stroke-miterlimit:4;stroke-dasharray:none" d="M 495.73596,736.95471 C 514.68302,731.49614 515.64643,777.75263 504.04535,748.63478 C 502.36333,743.5163 482.02561,742.4256 495.73596,736.95471 z" id="path2355"/>
      <path style="opacity:1;fill:#000000;fill-opacity:1;stroke-width:3;stroke-miterlimit:4;stroke-dasharray:none" d="M 499.3074,764.81189 C 534.11682,762.70401 481.74648,778.1231 499.3074,764.81189 z" id="path2357"/>
      <path style="opacity:1;fill:#000000;fill-opacity:1;fill-rule:nonzero;stroke-width:3;stroke-miterlimit:4;stroke-dasharray:none" d="M 516.21851,383.9426 C 528.1495,378.10661 540.89838,401.5319 532.27786,397.09552 C 536.25856,385.13245 505.78271,392.71546 516.21851,383.9426 z" id="path4317"/>
      <path style="opacity:1;fill:#000000;fill-opacity:1;fill-rule:nonzero;stroke-width:3;stroke-miterlimit:4;stroke-dasharray:none" d="M 521.44604,389.05042 C 517.88287,399.6515 542.42502,404.93165 522.10853,404.01208 C 517.22184,401.52054 513.5449,390.15413 521.44604,389.05042 z" id="path4319"/>
      <path style="opacity:1;fill:#000000;fill-opacity:1;fill-rule:nonzero;stroke-width:3;stroke-miterlimit:4;stroke-dasharray:none" d="M 502.62531,421.10544 C 505.06706,406.99187 548.88015,403.93951 518.21377,411.07245 C 511.62919,411.18611 509.87065,420.84849 502.62531,421.10544 z" id="path4321"/>
      <path style="opacity:1;fill:#000000;fill-opacity:1;fill-rule:nonzero;stroke-width:3;stroke-miterlimit:4;stroke-dasharray:none" d="M 509.12265,436.14105 C 518.34211,460.01575 554.65619,443.42362 564.89148,469.22705 C 546.03032,464.36155 536.61753,450.06685 515.73623,451.44738 C 508.46671,449.66783 503.05004,442.67159 509.12265,436.14105 z" id="path4323"/>
      <path style="opacity:1;fill:#000000;fill-opacity:1;fill-rule:nonzero;stroke-width:3;stroke-miterlimit:4;stroke-dasharray:none" d="M 575.53516,424.8833 C 588.11294,438.24573 575.71851,476.63959 571.47971,470.35694 C 590.19811,458.51835 562.48855,437.29321 575.53516,424.8833 z" id="path4325"/>
      <path style="opacity:1;fill:#000000;fill-opacity:1;fill-rule:nonzero;stroke-width:3;stroke-miterlimit:4;stroke-dasharray:none" d="M 507.7623,448.67728 C 500.46205,466.33685 480.3579,502.68656 516.91326,495.80821 C 533.82165,504.33237 540.93331,508.98147 549.90217,489.02966 C 572.11465,459.50653 544.09085,515.93028 527.68966,505.00915 C 510.99628,495.38971 477.28469,503.13846 493.30244,474.03463 C 498.64311,466.10291 502.1744,455.54509 507.7623,448.67728 z" id="path4327"/>
      <path style="opacity:1;fill:#000000;fill-opacity:1;fill-rule:nonzero;stroke-width:3;stroke-miterlimit:4;stroke-dasharray:none" d="M 584.3927,412.88992 C 575.52699,405.76589 575.68773,431.71605 572.3605,416.85343 C 572.14589,413.5958 595.12039,404.42484 584.3927,412.88992 z" id="path4329"/>
      <path style="opacity:1;fill:#000000;fill-opacity:1;fill-rule:nonzero;stroke-width:3;stroke-miterlimit:4;stroke-dasharray:none" d="M 587.97253,413.88052 C 581.36164,424.97625 564.85682,429.54136 587.97253,413.88052 z" id="path4331"/>
      <path style="opacity:1;fill:#000000;fill-opacity:1;fill-rule:nonzero;stroke-width:3;stroke-miterlimit:4;stroke-dasharray:none" d="M 539.30328,422.21106 C 549.11951,430.45304 553.17372,459.35543 540.79509,435.05022 C 538.23208,431.83339 531.28278,424.10165 539.30328,422.21106 z" id="path4333"/>
      <path style="opacity:1;fill:#000000;fill-opacity:1;fill-rule:nonzero;stroke-width:3;stroke-miterlimit:4;stroke-dasharray:none" d="M 548.50635,428.9874 C 572.30707,432.29524 563.27249,452.80428 553.06786,447.37749 C 591.34118,442.48915 534.29571,439.97609 548.50635,428.9874 z" id="path4335"/>
      <path style="opacity:1;fill:#000000;fill-opacity:1;fill-rule:nonzero;stroke-width:3;stroke-miterlimit:4;stroke-dasharray:none" d="M 523.05292,451.62601 C 523.65628,463.77457 513.10636,470.49869 525.17089,457.38459 C 539.25934,445.53175 557.2976,475.14182 548.14603,473.16996 C 561.95157,459.45104 550.46127,480.12771 545.45012,473.9336 C 547.84555,460.22128 520.39872,450.8713 516.26404,469.12815 C 513.90823,464.59934 518.60093,454.12218 523.05292,451.62601 z" id="path4337"/>
      <path style="opacity:1;fill:#000000;fill-opacity:1;fill-rule:nonzero;stroke-width:3;stroke-miterlimit:4;stroke-dasharray:none" d="M 505.92746,485.87286 C 513.01585,470.20463 520.61753,495.58059 536.64387,491.66706 C 525.91703,505.21261 542.16842,481.69005 531.64406,492.66473 C 520.31484,502.94227 502.76265,477.55774 514.21044,481.0587 C 514.23946,483.81213 494.54917,494.18503 505.92746,485.87286 z" id="path4339"/>
    </g>
  </g>
  <metadata>
    <rdf:RDF>
      <cc:Work>
        <dc:format>image/svg+xml</dc:format>
        <dc:type rdf:resource="http://purl.org/dc/dcmitype/StillImage"/>
        <cc:license rdf:resource="http://creativecommons.org/licenses/publicdomain/"/>
        <dc:publisher>
          <cc:Agent rdf:about="http://openclipart.org/">
            <dc:title>Open Clip Art Library</dc:title>
          </cc:Agent>
        </dc:publisher>
        <dc:title>lion</dc:title>
        <dc:date>2008-10-27T01:13:58</dc:date>
        <dc:description/>
        <dc:source>http://openclipart.org/detail/19781/lion-by-melwe</dc:source>
        <dc:creator>
          <cc:Agent>
            <dc:title>melwe</dc:title>
          </cc:Agent>
        </dc:creator>
        <dc:subject>
          <rdf:Bag>
            <rdf:li>animal</rdf:li>
            <rdf:li>calligraphic</rdf:li>
            <rdf:li>clip art</rdf:li>
            <rdf:li>clipart</rdf:li>
            <rdf:li>image</rdf:li>
            <rdf:li>line art</rdf:li>
            <rdf:li>mammal</rdf:li>
            <rdf:li>media</rdf:li>
            <rdf:li>nature</rdf:li>
            <rdf:li>public domain</rdf:li>
            <rdf:li>svg</rdf:li>
          </rdf:Bag>
        </dc:subject>
      </cc:Work>
      <cc:License rdf:about="http://creativecommons.org/licenses/publicdomain/">
        <cc:permits rdf:resource="http://creativecommons.org/ns#Reproduction"/>
        <cc:permits rdf:resource="http://creativecommons.org/ns#Distribution"/>
        <cc:permits rdf:resource="http://creativecommons.org/ns#DerivativeWorks"/>
      </cc:License>
    </rdf:RDF>
  </metadata>
</svg>
