<?xml version="1.0" encoding="UTF-8" standalone="no"?>
<!-- Created with Inkscape (http://www.inkscape.org/) -->
<svg xmlns:dc="http://purl.org/dc/elements/1.1/" xmlns:cc="http://creativecommons.org/ns#" xmlns:rdf="http://www.w3.org/1999/02/22-rdf-syntax-ns#" xmlns:svg="http://www.w3.org/2000/svg" xmlns="http://www.w3.org/2000/svg" xmlns:sodipodi="http://sodipodi.sourceforge.net/DTD/sodipodi-0.dtd" xmlns:inkscape="http://www.inkscape.org/namespaces/inkscape" width="708.66144" height="493.07727" id="svg2" sodipodi:version="0.32" inkscape:version="0.46" version="1.0" sodipodi:docbase="/home/melwe/Utile/Ecles/ImagesMemory" sodipodi:docname="rhino.svg" inkscape:output_extension="org.inkscape.output.svg.inkscape">
  <defs id="defs4">
    <inkscape:perspective sodipodi:type="inkscape:persp3d" inkscape:vp_x="0 : 354.33069 : 1" inkscape:vp_y="0 : 1000 : 0" inkscape:vp_z="708.66138 : 354.33069 : 1" inkscape:persp3d-origin="354.33069 : 236.22046 : 1" id="perspective5238"/>
  </defs>
  <sodipodi:namedview id="base" pagecolor="#ffffff" bordercolor="#666666" borderopacity="1.0" inkscape:pageopacity="0.0" inkscape:pageshadow="2" inkscape:zoom="0.7" inkscape:cx="132.11569" inkscape:cy="361.6481" inkscape:document-units="px" inkscape:current-layer="layer1" inkscape:window-width="1600" inkscape:window-height="1130" inkscape:window-x="0" inkscape:window-y="24" width="20cm" height="20cm" units="cm" showgrid="false"/>
  <g inkscape:label="Calque 1" inkscape:groupmode="layer" id="layer1" transform="translate(-42.636555,-148.63444)">
    <g id="g2300" transform="matrix(0.3915695,0,0,0.3915695,245.08856,218.21696)">
      <path style="opacity:1;fill:#000000;fill-opacity:1;stroke-width:3;stroke-miterlimit:4;stroke-dasharray:none" d="M -458.62317,907.27637 C -469.21663,869.18164 -452.01357,830.93113 -432.08328,799.35352 C -415.2814,749.43137 -428.33987,696.54334 -433.18215,645.93088 C -432.18318,616.55952 -418.70261,588.80099 -425.45459,558.81071 C -430.33409,505.98038 -452.76026,457.551 -474.1106,409.77709 C -487.17893,375.93281 -503.9172,343.24323 -514.39343,308.55891 C -520.80624,271.13482 -514.83033,232.07871 -503.77581,196.20802 C -464.6986,102.14862 -414.50389,12.236521 -351.85231,-68.096616 C -305.78502,-115.08399 -254.59777,-165.36705 -186.28944,-174.72979 C -149.47588,-180.51251 -111.03097,-178.3609 -76.475271,-163.78871 C -38.653484,-152.12498 4.8340488,-146.66531 41.086647,-166.12886 C 32.241002,-160.15084 10.914723,-149.90654 32.758612,-162.89807 C 71.518572,-186.71592 117.57323,-169.66933 157.82206,-160.44672 C 207.41229,-155.77514 250.66769,-127.43359 299.55937,-119.26767 C 342.67152,-108.89983 381.36485,-84.766599 425.0141,-76.767354 C 456.37043,-70.962624 488.08732,-78.932335 516.1868,-92.616926 C 558.43165,-105.74993 603.2051,-94.088335 642.02746,-76.187063 C 678.07511,-66.444522 715.7196,-55.795324 743.20501,-29.036255 C 796.15557,7.2325652 860.03347,39.512757 883.72914,103.54566 C 913.36796,161.0955 951.53661,216.02743 963.61872,280.74768 C 977.5668,297.22784 1010.7521,345.86503 967.20442,342.34761 C 931.43772,323.59736 930.14218,277.34476 916.042,243.83467 C 895.90293,191.0359 861.21876,145.38397 838.72029,93.73338 C 802.71577,39.12329 741.64524,10.231358 690.34232,-27.374047 C 652.0207,-48.852671 607.34865,-54.427544 567.741,-72.792438 C 529.98568,-82.672932 490.07912,-74.387732 455.4096,-58.175962 C 402.0311,-43.163367 350.34318,-69.909015 302.05483,-89.282535 C 266.12091,-103.39019 227.41673,-108.35352 192.07206,-123.89005 C 155.14657,-136.35249 116.56223,-143.32089 78.746159,-151.65965 C 65.302348,-153.30523 9.9879636,-150.37402 44.855447,-162.44213 C 9.0333534,-132.55083 -41.132202,-126.32306 -85.557176,-137.61531 C -115.97019,-145.80634 -145.74979,-158.49878 -178.00727,-156.37719 C -209.5555,-156.98113 -239.9406,-147.35192 -269.32304,-137.37819 C -260.82732,-145.74094 -224.67826,-157.91122 -254.20629,-141.37817 C -284.82105,-117.10778 -313.40343,-89.461811 -337.08951,-58.463174 C -386.194,8.4490087 -427.00277,81.174062 -460.61391,156.97271 C -478.97263,196.35727 -488.49925,240.88395 -483.71817,284.32229 C -472.5086,330.75323 -449.07902,373.29715 -431.49219,417.53586 C -402.10454,481.39038 -378.3487,555.90471 -401.79253,625.44363 C -401.77426,649.45981 -392.28977,675.13614 -393.26211,700.41856 C -393.59819,733.30876 -386.27291,769.51063 -406.25223,798.49615 C -418.78965,819.23534 -433.16735,842.3939 -427.01321,867.74618 C -424.57199,887.6582 -438.89937,904.82122 -458.62317,907.27637 z" id="path2242"/>
      <path style="opacity:1;fill:#000000;fill-opacity:1;stroke-width:3;stroke-miterlimit:4;stroke-dasharray:none" d="M 978.02765,233.23846 C 1006.9864,221.12151 956.30295,248.75538 982.22146,233.61905 C 1007.7166,213.08754 1051.2976,199.19358 1072.9725,232.62882 C 1095.0989,267.28598 1081.2124,309.99205 1079.8762,348.13721 C 1075.7352,381.18852 1079.0482,414.73404 1089.8656,446.15305 C 1098.3408,495.54887 1074.5174,541.93731 1063.218,588.65625 C 1064.8768,614.14467 1081.8851,684.67932 1037.0031,669.56291 C 1030.3962,639.92887 1030.3969,607.31204 1037.8673,577.54849 C 1049.3167,538.77408 1068.5449,498.47548 1055.8478,457.39561 C 1046.9504,419.77329 1042.2672,380.78758 1049.8017,342.49754 C 1054.0624,307.50535 1058.7048,265.32285 1032.2999,237.62518 C 1008.4395,229.30267 986.1014,234.29657 966.79364,249.13938 C 933.55546,261.80849 974.29577,237.39648 978.02765,233.23846 z" id="path2244"/>
      <path style="opacity:1;fill:#000000;fill-opacity:1;stroke-width:3;stroke-miterlimit:4;stroke-dasharray:none" d="M 964.26257,738.80707 C 981.30012,694.99764 1034.2955,682.83169 1076.6261,685.93643 C 1105.8007,690.68499 1162.8434,682.51894 1171.7962,674.12108 C 1160.9693,681.88973 1132.256,691.23439 1160.5386,679.78091 C 1163.3638,693.93441 1119.4738,709.98031 1098.7539,707.16939 C 1064.2974,709.23458 1029.0395,702.95958 995.26205,712.39228 C 1002.999,702.19874 1036.79,684.50692 1010.6051,704.13474 C 999.05435,719.82706 983.84033,734.36988 964.26257,738.80707 z" id="path2246"/>
      <path style="opacity:1;fill:#000000;fill-opacity:1;stroke-width:3;stroke-miterlimit:4;stroke-dasharray:none" d="M 1038.6368,792.86298 C 1060.0101,785.5268 1071.479,792.29323 1059.4319,793.90895 C 1086.7775,775.18004 1097.1074,740.07024 1126.7775,724.73899 C 1140.6474,711.72228 1162.0443,663.14375 1180.98,685.72711 C 1169.2901,711.92594 1135.1128,719.5778 1123.4585,746.84707 C 1101.4576,776.56006 1069.7388,799.79631 1034.6279,810.73439 C 1002.2428,815.36407 1026.7571,801.52501 1038.6368,792.86298 z" id="path2248"/>
      <path style="opacity:1;fill:#000000;fill-opacity:1;stroke-width:3;stroke-miterlimit:4;stroke-dasharray:none" d="M 1048.6881,819.46136 C 1053.3318,852.6042 1048.3798,894.5014 1079.8198,916.09235 C 1092.4392,936.42365 1154.3511,932.57352 1145.2471,930.75981 C 1108.6635,950.82392 1176.0161,911.85285 1149.7646,928.22089 C 1134.2465,935.57717 1174.0979,908.75794 1176.394,900.94712 C 1197.4712,864.6554 1216.5243,826.31972 1229.7192,786.0459 C 1242.0963,753.55036 1250.5264,718.82253 1266.5343,688.14671 C 1282.7098,670.84866 1304.7517,686.55762 1284.8982,704.53677 C 1259.6348,771.3871 1243.7939,844.43589 1196.6663,900.37057 C 1188.8567,911.43167 1154.8033,934.69163 1151.0333,932.86 C 1167.9581,923.7561 1128.8187,949.92125 1119.2245,950.26832 C 1069.8192,967.86955 1018.4795,919.76314 1019.3831,870.45885 C 1013.9651,843.40762 1022.4337,828.69893 1048.6881,819.46136 z" id="path2250"/>
      <path style="opacity:1;fill:#000000;fill-opacity:1;stroke-width:3;stroke-miterlimit:4;stroke-dasharray:none" d="M 1101.6866,768.75745 C 1113.5255,785.32319 1156.41,774.40853 1156.4157,781.68633 C 1130.7511,794.92433 1189.4864,762.01503 1158.1337,779.60388 C 1169.9383,771.78939 1204.8319,754.08467 1174.1797,770.9487 C 1182.2019,765.92921 1209.6784,751.08605 1185.7381,764.13644 C 1195.9194,756.97384 1223.2326,744.21378 1197.0736,759.14238 C 1192.1384,757.73997 1221.7973,734.37634 1221.7363,719.46561 C 1227.3583,706.45171 1270.4519,690.74627 1249.5076,716.70119 C 1240.5743,738.4596 1200.8968,769.10296 1193.1218,766.23958 C 1208.7281,756.69187 1214.448,755.09738 1195.5698,765.26269 C 1175.4164,776.37709 1211.122,756.30486 1188.925,769.00016 C 1172.4589,778.26794 1183.3945,771.45513 1168.3751,780.38873 C 1147.1928,793.81354 1161.7706,781.66604 1166.3436,782.73372 C 1142.7861,801.51364 1105.0032,810.91579 1080.0073,790.17267 C 1073.8352,777.14247 1094.8466,775.33929 1101.6866,768.75745 z" id="path2252"/>
      <path style="opacity:1;fill:#000000;fill-opacity:1;stroke-width:3;stroke-miterlimit:4;stroke-dasharray:none" d="M 725.30347,649.94537 C 730.82574,686.4987 739.89955,722.72879 740.62718,759.80175 C 747.55779,795.90451 753.82946,836.75491 784.13236,861.41273 C 803.89064,894.76412 828.90445,924.39337 858.19485,949.44596 C 877.24716,980.29851 880.4321,1027.7166 921.48951,1039.2132 C 960.2253,1048.4459 1000.6173,1038.7812 1039.0151,1031.91 C 1049.6757,1031.5664 1084.6452,1015.085 1078.2428,1021.2094 C 1045.8928,1039.7609 1087.0661,1005.5288 1089.7955,992.91932 C 1095.6072,973.22583 1130.582,975.33933 1111.7219,997.93518 C 1091.2223,1024.7318 1058.2663,1039.6889 1026.6127,1049.1366 C 983.7489,1060.8854 938.05602,1067.8855 893.91532,1060.182 C 851.64392,1049.279 847.74001,1001.476 828.30487,970.43596 C 807.39863,947.56896 783.09245,927.82924 767.35622,900.66567 C 744.65201,870.74872 716.71181,841.49109 713.34642,802.0426 C 705.08616,765.9655 708.96002,728.02117 696.23481,692.92226 C 689.00451,671.83425 705.74976,654.54951 725.30347,649.94537 z" id="path2254"/>
      <path style="opacity:1;fill:#000000;fill-opacity:1;stroke-width:3;stroke-miterlimit:4;stroke-dasharray:none" d="M 878.70911,720.85419 C 875.8753,740.04501 905.85959,774.19416 866.23229,772.57626 C 832.33052,766.94016 848.72228,717.12171 878.70911,720.85419 z" id="path2256"/>
      <path style="opacity:1;fill:#000000;fill-opacity:1;stroke-width:3;stroke-miterlimit:4;stroke-dasharray:none" d="M 764.07147,271.28424 C 790.33369,303.29354 831.07118,316.24188 866.94534,333.64043 C 875.12784,363.10498 820.20111,358.25689 807.17017,339.69304 C 785.73364,324.66897 734.44369,314.27075 741.27617,283.21804 C 748.10401,277.8107 757.33532,276.82346 764.07147,271.28424 z" id="path2258"/>
      <path style="opacity:1;fill:#000000;fill-opacity:1;stroke-width:3;stroke-miterlimit:4;stroke-dasharray:none" d="M 773.51068,288.70959 C 762.99763,329.44064 792.09968,365.95015 794.63975,405.2236 C 787.46714,437.23402 741.90102,417.66519 755.99375,389.20652 C 748.22792,360.57016 720.1311,312.67907 759.3291,295.61893 C 764.18467,293.61189 769.19776,291.78814 773.51068,288.70959 z" id="path2260"/>
      <path style="opacity:1;fill:#000000;fill-opacity:1;stroke-width:3;stroke-miterlimit:4;stroke-dasharray:none" d="M 648.25177,545.28833 C 643.86087,587.01149 644.34699,630.77318 660.92805,670.00282 C 661.64875,691.94842 706.22962,725.09359 666.9734,735.55895 C 631.48265,728.10391 632.97281,684.42639 620.59518,657.56615 C 611.13286,626.32093 613.79055,593.30303 615.9759,561.23131 C 626.73451,555.91695 637.49315,550.60266 648.25177,545.28833 z" id="path2262"/>
      <path style="opacity:1;fill:#000000;fill-opacity:1;stroke-width:3;stroke-miterlimit:4;stroke-dasharray:none" d="M 368.02933,540.74591 C 417.8371,534.64359 469.80203,544.11903 513.4516,569.14514 C 543.25863,569.75668 557.01151,626.39161 517.14394,617.10465 C 494.96777,591.47315 465.13234,574.8207 432.09806,568.09125 C 405.07742,556.82361 369.36567,564.40494 345.61084,556.88808 C 351.32684,549.4005 361.93033,547.72568 368.02933,540.74591 z" id="path2264"/>
      <path style="opacity:1;fill:#000000;fill-opacity:1;stroke-width:3;stroke-miterlimit:4;stroke-dasharray:none" d="M 534.75623,659.00098 C 500.62673,717.92879 485.48314,785.37461 479.75147,852.64835 C 474.80139,882.81861 466.07494,913.91645 480.52417,943.26368 C 483.23284,973.55689 522.78084,1006.7391 497.78569,1034.0482 C 457.25667,1036.8757 460.23594,974.76917 445.40027,947.26054 C 434.09505,911.79258 447.18011,874.35825 451.3828,838.58944 C 458.69855,782.08868 470.98656,723.82835 502.52566,675.61187 C 511.67409,667.29383 524.36635,665.20513 534.75623,659.00098 z" id="path2266"/>
      <path style="opacity:1;fill:#000000;fill-opacity:1;stroke-width:3;stroke-miterlimit:4;stroke-dasharray:none" d="M 229.73776,446.67847 C 214.33101,482.93129 241.94952,516.27859 255.60839,548.00006 C 287.34842,586.87483 301.77109,636.63248 313.61673,684.48564 C 324.60489,737.07919 327.9154,790.75004 331.60803,844.17258 C 338.32682,882.95546 343.9481,923.15684 331.54814,961.55503 C 321.44077,995.71444 310.46378,1037.3499 274.12063,1052.2112 C 245.72279,1062.8347 287.38901,1026.2266 287.07678,1013.5674 C 306.10204,970.42989 311.38579,921.29432 301.38872,875.2357 C 294.94913,807.16643 293.12674,738.01726 274.62484,671.76532 C 263.19057,634.52634 249.09516,597.66619 225.68573,566.02561 C 211.19412,535.11208 177.07578,493.3251 201.45315,460.87774 C 209.74706,454.13627 220.05996,450.83102 229.73776,446.67847 z" id="path2268"/>
      <path style="opacity:1;fill:#000000;fill-opacity:1;stroke-width:3;stroke-miterlimit:4;stroke-dasharray:none" d="M 343.32825,1034.0015 C 359.33659,1062.6384 284.08543,1076.2088 320.18919,1045.8527 C 327.52875,1041.1893 335.91024,1038.5212 343.32825,1034.0015 z" id="path2270"/>
      <path style="opacity:1;fill:#000000;fill-opacity:1;stroke-width:3;stroke-miterlimit:4;stroke-dasharray:none" d="M 398.48251,1038.4832 C 439.25921,1056.2733 386.80323,1108.2916 372.62525,1064.2964 C 366.66942,1047.8605 389.13816,1044.9997 398.48251,1038.4832 z" id="path2272"/>
      <path style="opacity:1;fill:#000000;fill-opacity:1;stroke-width:3;stroke-miterlimit:4;stroke-dasharray:none" d="M 463.27023,1041.4987 C 507.56328,1052.6834 428.26099,1094.3973 441.75957,1055.4814 C 448.92976,1050.8205 456.10006,1046.1596 463.27023,1041.4987 z" id="path2274"/>
      <path style="opacity:1;fill:#000000;fill-opacity:1;stroke-width:3;stroke-miterlimit:4;stroke-dasharray:none" d="M 582.24402,689.48737 C 600.08968,726.64115 627.02786,764.97911 617.31981,808.43932 C 612.97835,843.11793 603.95426,884.34345 630.76384,912.70805 C 654.93832,946.37144 660.08635,1000.8718 625.25702,1029.317 C 598.66739,1041.207 608.54457,1013.1699 616.95947,1001.0165 C 625.57006,964.70242 599.14307,933.99174 584.31906,903.62498 C 568.7931,854.35347 603.88672,799.21773 573.85258,753.01054 C 557.22578,730.22381 542.85496,696.97726 582.24402,689.48737 z" id="path2276"/>
      <path style="opacity:1;fill:#000000;fill-opacity:1;stroke-width:3;stroke-miterlimit:4;stroke-dasharray:none" d="M 736.99475,852.57178 C 717.84964,890.62555 741.57778,932.52438 765.33295,962.37383 C 769.47435,984.74611 834.36067,997.34917 797.8756,1018.8785 C 761.92331,1025.595 741.42779,988.1166 722.52557,964.39033 C 707.1484,937.21087 683.85829,901.13083 705.67987,871.07373 C 713.5391,861.50747 725.33276,855.98147 736.99475,852.57178 z" id="path2278"/>
      <path style="opacity:1;fill:#000000;fill-opacity:1;stroke-width:3;stroke-miterlimit:4;stroke-dasharray:none" d="M 752.10699,1009.6789 C 800.16103,1026.3716 720.65191,1072.6278 727.53602,1025.2831 C 733.93161,1017.4845 745.39559,1017.0892 752.10699,1009.6789 z" id="path2280"/>
      <path style="opacity:1;fill:#000000;fill-opacity:1;stroke-width:3;stroke-miterlimit:4;stroke-dasharray:none" d="M 683.34552,1010.1989 C 720.14336,1032.8206 634.79144,1058.1816 662.83843,1022.5037 C 669.79371,1018.6026 676.40584,1014.1264 683.34552,1010.1989 z" id="path2282"/>
      <path style="opacity:1;fill:#000000;fill-opacity:1;stroke-width:3;stroke-miterlimit:4;stroke-dasharray:none" d="M -295.08817,187.49364 C -292.67177,229.05293 -269.83883,266.22111 -253.82229,303.61465 C -221.87304,356.50273 -197.93762,414.1381 -160.64775,463.77757 C -117.4147,513.91928 -57.276112,545.21918 -1.5433515,579.29563 C 55.840808,617.3962 120.75688,641.72035 187.09175,659.05008 C 203.45556,671.3393 247.78347,652.55078 245.23247,673.76659 C 211.97966,698.00352 168.2516,682.10327 132.59362,672.19925 C 76.106779,656.41574 21.581669,633.60799 -27.380952,601.11709 C -86.532709,565.73122 -149.64836,532.0585 -194.29142,478.23081 C -233.03465,424.46384 -259.15944,363.08053 -293.08418,306.37325 C -305.74275,281.04445 -313.71306,254.20998 -324.95847,228.56524 C -331.42094,204.28536 -315.22754,194.11745 -295.08817,187.49364 z" id="path2284"/>
      <path style="opacity:1;fill:#000000;fill-opacity:1;stroke-width:3;stroke-miterlimit:4;stroke-dasharray:none" d="M -206.19473,440.03177 C -200.72891,475.61791 -236.00172,496.03868 -259.09169,515.85118 C -289.04946,539.51966 -312.44121,576.15569 -305.5127,615.73355 C -307.25465,671.1455 -295.08146,725.53573 -283.16242,779.20693 C -284.56752,815.24036 -256.86839,851.75243 -268.90048,885.54889 C -280.06006,907.30622 -305.77862,899.92228 -299.7469,875.11859 C -310.24465,825.40995 -317.85919,775.15195 -329.9917,725.83504 C -337.37666,681.13899 -339.52875,635.24118 -335.85014,590.18145 C -324.36563,547.57787 -282.41316,526.18041 -253.84616,496.53686 C -238.90288,477.07042 -235.03079,444.62515 -206.19473,440.03177 z" id="path2286"/>
      <path style="opacity:1;fill:#000000;fill-opacity:1;stroke-width:3;stroke-miterlimit:4;stroke-dasharray:none" d="M -322.9617,883.93488 C -292.8908,909.80353 -375.0059,925.89676 -342.73631,894.9212 C -336.14479,891.25906 -329.55323,887.59699 -322.9617,883.93488 z" id="path2288"/>
      <path style="opacity:1;fill:#000000;fill-opacity:1;stroke-width:3;stroke-miterlimit:4;stroke-dasharray:none" d="M -377.40091,879.39606 C -349.64216,906.83447 -430.72163,927.23883 -399.62534,892.21415 C -392.21719,887.94147 -384.80905,883.66876 -377.40091,879.39606 z" id="path2290"/>
      <path style="opacity:1;fill:#000000;fill-opacity:1;stroke-width:3;stroke-miterlimit:4;stroke-dasharray:none" d="M -250.1217,477.35535 C -226.636,507.8701 -211.6655,548.74948 -224.57541,586.784 C -232.14586,628.42265 -251.47329,666.62032 -261.92998,707.46067 C -259.2265,746.71116 -202.37057,753.82412 -203.28927,794.67674 C -204.70664,830.52407 -181.27484,869.42339 -203.87781,902.64057 C -227.57166,926.81527 -234.18305,888.13955 -228.17682,870.92115 C -232.17344,833.2142 -230.09992,784.32691 -268.58758,764.07546 C -305.44916,743.90664 -291.89513,703.20921 -278.51006,673.07775 C -263.84263,630.30098 -244.5347,583.90869 -256.76697,538.28563 C -271.75886,518.43403 -287.67455,484.34832 -251.48966,478.23453 L -250.1217,477.35535 z" id="path2292"/>
      <path style="opacity:1;fill:#000000;fill-opacity:1;stroke-width:3;stroke-miterlimit:4;stroke-dasharray:none" d="M -56.985172,583.87122 C -73.832851,637.08117 -122.36219,681.64329 -115.86864,740.93675 C -105.22367,791.00061 -63.114958,824.13459 -33.138191,862.69037 C 1.0293846,876.71835 -36.216417,923.49761 -56.333964,890.62819 C -77.030558,865.40024 -98.175699,840.62772 -119.38693,815.86479 C -144.19581,785.05907 -159.48713,741.53099 -140.95245,703.78096 C -127.18518,668.07966 -102.09435,637.93391 -89.490769,601.70469 C -81.207892,591.70372 -67.167123,591.01425 -56.985172,583.87122 z" id="path2294"/>
      <path style="opacity:1;fill:#000000;fill-opacity:1;stroke-width:3;stroke-miterlimit:4;stroke-dasharray:none" d="M -123.22469,880.26013 C -98.417722,907.91167 -173.9258,931.87892 -149.47912,894.50713 C -141.28524,888.77037 -131.78679,885.35781 -123.22469,880.26013 z" id="path2296"/>
      <path style="opacity:1;fill:#000000;fill-opacity:1;stroke-width:3;stroke-miterlimit:4;stroke-dasharray:none" d="M -82.212128,879.87427 C -40.646603,887.32859 -103.13068,934.4298 -108.31639,897.30235 C -100.05882,890.8459 -90.83621,885.79925 -82.212128,879.87427 z" id="path2298"/>
    </g>
  </g>
  <metadata>
    <rdf:RDF>
      <cc:Work>
        <dc:format>image/svg+xml</dc:format>
        <dc:type rdf:resource="http://purl.org/dc/dcmitype/StillImage"/>
        <cc:license rdf:resource="http://creativecommons.org/licenses/publicdomain/"/>
        <dc:publisher>
          <cc:Agent rdf:about="http://openclipart.org/">
            <dc:title>Open Clip Art Library</dc:title>
          </cc:Agent>
        </dc:publisher>
        <dc:title>rhino</dc:title>
        <dc:date>2008-10-27T01:14:55</dc:date>
        <dc:description/>
        <dc:source>http://openclipart.org/detail/19783/rhino-by-melwe</dc:source>
        <dc:creator>
          <cc:Agent>
            <dc:title>melwe</dc:title>
          </cc:Agent>
        </dc:creator>
        <dc:subject>
          <rdf:Bag>
            <rdf:li>animal</rdf:li>
            <rdf:li>calligraphic</rdf:li>
            <rdf:li>clip art</rdf:li>
            <rdf:li>clipart</rdf:li>
            <rdf:li>image</rdf:li>
            <rdf:li>line art</rdf:li>
            <rdf:li>mammal</rdf:li>
            <rdf:li>media</rdf:li>
            <rdf:li>nature</rdf:li>
            <rdf:li>public domain</rdf:li>
            <rdf:li>rhino</rdf:li>
            <rdf:li>svg</rdf:li>
          </rdf:Bag>
        </dc:subject>
      </cc:Work>
      <cc:License rdf:about="http://creativecommons.org/licenses/publicdomain/">
        <cc:permits rdf:resource="http://creativecommons.org/ns#Reproduction"/>
        <cc:permits rdf:resource="http://creativecommons.org/ns#Distribution"/>
        <cc:permits rdf:resource="http://creativecommons.org/ns#DerivativeWorks"/>
      </cc:License>
    </rdf:RDF>
  </metadata>
</svg>
