<?xml version="1.0" encoding="UTF-8" standalone="no"?>
<!-- Created with Inkscape (http://www.inkscape.org/) -->
<svg xmlns:dc="http://purl.org/dc/elements/1.1/" xmlns:cc="http://creativecommons.org/ns#" xmlns:rdf="http://www.w3.org/1999/02/22-rdf-syntax-ns#" xmlns:svg="http://www.w3.org/2000/svg" xmlns="http://www.w3.org/2000/svg" xmlns:sodipodi="http://sodipodi.sourceforge.net/DTD/sodipodi-0.dtd" xmlns:inkscape="http://www.inkscape.org/namespaces/inkscape" width="606.79895" height="708.66144" id="svg2" sodipodi:version="0.32" inkscape:version="0.46" version="1.0" sodipodi:docbase="/home/melwe/Utile/Ecles/ImagesMemory" sodipodi:docname="elephant.svg" inkscape:output_extension="org.inkscape.output.svg.inkscape">
  <defs id="defs4">
    <inkscape:perspective sodipodi:type="inkscape:persp3d" inkscape:vp_x="0 : 354.33069 : 1" inkscape:vp_y="0 : 1000 : 0" inkscape:vp_z="708.66138 : 354.33069 : 1" inkscape:persp3d-origin="354.33069 : 236.22046 : 1" id="perspective3488"/>
  </defs>
  <sodipodi:namedview id="base" pagecolor="#ffffff" bordercolor="#666666" borderopacity="1.0" inkscape:pageopacity="0.0" inkscape:pageshadow="2" inkscape:zoom="0.98994949" inkscape:cx="323.56385" inkscape:cy="342.76129" inkscape:document-units="px" inkscape:current-layer="layer1" inkscape:window-width="1600" inkscape:window-height="1130" inkscape:window-x="0" inkscape:window-y="24" width="20cm" height="20cm" units="cm" showgrid="false"/>
  <g inkscape:label="Calque 1" inkscape:groupmode="layer" id="layer1" transform="translate(-188.49518,-219.56451)">
    <g id="g2273" transform="matrix(2.2598388,0,0,2.2598388,-122.71173,-276.19251)">
      <path style="opacity:1;fill:#000000;fill-opacity:1;fill-rule:nonzero;stroke-width:3;stroke-miterlimit:4;stroke-dasharray:none" d="M 137.88657,246.08961 C 143.74865,236.85414 167.28401,231.09679 162.39968,232.81499 C 175.81417,223.45675 191.74021,218.82664 208.01142,222.96501 C 215.6907,227.08188 234.87113,219.20002 236.12095,226.36317 C 219.76131,231.16828 202.29901,225.69631 185.5719,226.00109 C 175.57384,226.38857 174.61431,226.83888 171.45222,229.55503 C 166.52273,232.53129 162.78387,233.09545 170.00792,230.03907 C 166.82934,231.98478 159.34892,235.64312 167.36928,231.32451 C 154.5658,238.41622 148.64093,238.74771 137.88657,246.08961 L 137.88657,246.08961 z" id="path2221"/>
      <path style="opacity:1;fill:#000000;fill-opacity:1;fill-rule:nonzero;stroke-width:3;stroke-miterlimit:4;stroke-dasharray:none" d="M 215.80461,243.97296 C 228.18526,235.66754 238.55383,227.94828 249.95614,222.1093 C 266.07472,216.61064 284.38074,220.11871 299.90957,226.37463 C 308.43054,221.93343 325.57391,240.98777 308.90904,235.51984 C 294.21809,228.50999 277.49863,224.10778 261.30838,223.54233 C 253.61292,225.24673 246.33781,223.77284 244.34677,226.5986 C 240.40329,228.96694 233.70185,232.66241 241.73334,227.96817 C 233.37424,233.70765 225.59402,240.73112 215.80461,243.97296 z" id="path2223"/>
      <path style="opacity:1;fill:#000000;fill-opacity:1;fill-rule:nonzero;stroke-width:3;stroke-miterlimit:4;stroke-dasharray:none" d="M 309.25824,221.71252 C 327.04815,223.22515 344.927,224.09134 362.68267,221.94942 C 378.35519,221.71896 394.05132,229.23687 404.6675,240.38012 C 412.22569,248.90676 389.47159,254.2696 396.38583,251.9676 C 392.5532,254.68541 381.6295,260.05388 387.25487,257.84936 C 377.98611,269.03327 378.10828,289.84956 360.97108,293.86781 C 373.93345,286.53006 349.26474,300.56693 361.27355,293.65092 C 359.67976,295.65491 347.15826,301.05555 354.79981,296.64237 C 344.88101,311.02125 340.46936,330.19453 325.56414,340.52646 C 318.65547,345.5927 302.78565,339.87487 319.08249,337.88373 C 334.06253,341.26322 336.57576,312.98817 346.96068,301.9916 C 346.39617,297.43969 363.48529,291.66683 354.69968,296.2091 C 360.01834,292.0277 363.39641,293.17229 368.00346,287.24695 C 370.44244,276.19389 384.32873,253.96892 387.57913,255.9876 C 390.38065,254.3329 395.76293,251.04096 389.69495,254.62639 C 409.9219,247.84352 389.23357,233.24679 377.77936,230.94348 C 361.02126,220.50972 340.80743,230.79044 322.58975,226.88484 C 319.4368,226.1012 297.21778,228.79149 309.25824,221.71252 z" id="path2225"/>
      <path style="opacity:1;fill:#000000;fill-opacity:1;fill-rule:nonzero;stroke-width:3;stroke-miterlimit:4;stroke-dasharray:none" d="M 143.86461,250.01196 C 145.15594,269.27454 165.14252,277.5732 174.93993,291.92983 C 190.727,301.46146 211.2858,308.33563 217.52744,327.63228 C 220.91136,334.23816 232.64892,347.95748 218.10236,342.50725 C 209.8298,329.09739 204.22509,312.36073 187.81086,306.18618 C 168.92521,299.0297 157.40973,282.54516 143.44565,268.91857 C 139.76069,263.34217 132.42047,251.71092 143.86461,250.01196 z" id="path2227"/>
      <path style="opacity:1;fill:#000000;fill-opacity:1;fill-rule:nonzero;stroke-width:3;stroke-miterlimit:4;stroke-dasharray:none" d="M 232.50104,316.40161 C 239.14072,322.24316 229.65409,343.55591 227.99815,327.56811 C 225.88861,322.58501 226.0748,317.31868 232.50104,316.40161 z" id="path2229"/>
      <path style="opacity:1;fill:#000000;fill-opacity:1;fill-rule:nonzero;stroke-width:3;stroke-miterlimit:4;stroke-dasharray:none" d="M 198.57957,290.89389 C 206.88301,299.31824 223.51485,301.89689 227.77788,291.03955 C 230.31449,284.02553 247.42484,273.81978 236.05475,286.48301 C 228.07472,300.85618 203.48037,309.16902 193.35982,294.10458 C 195.04681,292.9442 197.02261,292.25399 198.57957,290.89389 z" id="path2231"/>
      <path style="opacity:1;fill:#000000;fill-opacity:1;fill-rule:nonzero;stroke-width:3;stroke-miterlimit:4;stroke-dasharray:none" d="M 231.39915,245.06332 C 216.23939,254.10286 229.97165,272.54278 229.82021,281.85133 C 219.97092,285.00838 219.6652,266.16802 217.29361,260.69344 C 219.37885,253.83635 224.0022,246.81536 231.39915,245.06332 z" id="path2233"/>
      <path style="opacity:1;fill:#000000;fill-opacity:1;fill-rule:nonzero;stroke-width:3;stroke-miterlimit:4;stroke-dasharray:none" d="M 302.22156,242.30614 C 315.0783,251.58644 312.59095,271.22336 314.83644,284.48515 C 303.92327,292.15999 308.7559,268.09652 305.15133,261.56166 C 307.38169,253.13847 291.05414,245.26679 302.22156,242.30614 z" id="path2235"/>
      <path style="opacity:1;fill:#000000;fill-opacity:1;fill-rule:nonzero;stroke-width:3;stroke-miterlimit:4;stroke-dasharray:none" d="M 233.63368,261.47714 C 248.71755,267.61568 218.0417,270.3954 233.63368,261.47714 L 233.63368,261.47714 z" id="path2237"/>
      <path style="opacity:1;fill:#000000;fill-opacity:1;fill-rule:nonzero;stroke-width:3;stroke-miterlimit:4;stroke-dasharray:none" d="M 302.74493,258.91156 C 314.36106,265.32283 293.38206,273.6644 298.08928,261.7068 L 300.4171,260.30919 L 302.74493,258.91156 L 302.74493,258.91156 z" id="path2239"/>
      <path style="opacity:1;fill:#000000;fill-opacity:1;fill-rule:nonzero;stroke-width:3;stroke-miterlimit:4;stroke-dasharray:none" d="M 196.78674,297.8302 C 193.65211,314.35517 224.94703,304.9309 222.53037,312.28273 C 212.41168,316.3935 190.56692,313.94085 191.48596,300.61475 L 193.88598,299.31979 L 196.78674,297.8302 L 196.78674,297.8302 z" id="path2241"/>
      <path style="opacity:1;fill:#000000;fill-opacity:1;fill-rule:nonzero;stroke-width:3;stroke-miterlimit:4;stroke-dasharray:none" d="M 231.91634,302.04404 C 239.38972,318.67009 249.31796,336.88898 243.05575,355.57094 C 239.67846,376.46578 234.78481,397.10957 225.83525,416.36895 C 222.16897,427.37853 212.01665,449.13753 201.86049,446.09854 C 204.96823,442.47438 212.22336,442.77962 204.26998,445.60709 C 216.85724,433.6703 219.57743,415.23937 227.26708,400.22441 C 232.50614,382.47114 236.17387,364.17416 238.75304,345.89593 C 238.82844,331.33614 231.25528,318.47696 225.73916,305.47595 C 227.79822,304.33197 229.85729,303.18801 231.91634,302.04404 z" id="path2243"/>
      <path style="opacity:1;fill:#000000;fill-opacity:1;fill-rule:nonzero;stroke-width:3;stroke-miterlimit:4;stroke-dasharray:none" d="M 204.11859,446.9082 C 208.88755,458.72187 227.78336,459.58371 232.88621,447.17181 C 244.38721,435.16399 249.67349,419.06738 258.06873,404.98976 C 267.53287,378.42298 275.16584,351.08746 280.98027,323.46779 C 279.51374,314.92035 303.29593,300.85163 289.90965,315.01498 C 282.80547,330.06725 282.96974,348.36635 276.31056,364.10441 C 270.99825,383.64487 265.59511,403.38704 254.66723,420.69652 C 245.68376,436.16128 236.18118,457.2017 216.50987,459.99557 C 209.63896,462.54984 190.75826,452.28667 204.11859,446.9082 z" id="path2245"/>
      <path style="opacity:1;fill:#000000;fill-opacity:1;fill-rule:nonzero;stroke-width:3;stroke-miterlimit:4;stroke-dasharray:none" d="M 299.17352,276.05441 C 306.32334,278.70969 312.97857,301.47489 301.23306,290.18605 C 297.57929,286.27363 288.85394,278.2115 299.17352,276.05441 z" id="path2247"/>
      <path style="opacity:1;fill:#000000;fill-opacity:1;fill-rule:nonzero;stroke-width:3;stroke-miterlimit:4;stroke-dasharray:none" d="M 296.91565,306.81583 C 298.27644,295.16922 310.97805,302.22728 296.91565,306.81583 z" id="path2249"/>
      <path style="opacity:1;fill:#000000;fill-opacity:1;fill-rule:nonzero;stroke-width:3;stroke-miterlimit:4;stroke-dasharray:none" d="M 309.4212,296.466 C 315.25698,299.59107 334.85997,297.41882 318.59524,302.67786 C 314.35758,303.27434 296.08639,302.2743 309.4212,296.466 z" id="path2251"/>
      <path style="opacity:1;fill:#000000;fill-opacity:1;fill-rule:nonzero;stroke-width:3;stroke-miterlimit:4;stroke-dasharray:none" d="M 302.90036,306.35986 C 311.78628,307.26345 315.82448,310.83549 318.99443,304.53859 C 332.03213,298.49077 310.98235,317.01809 304.5603,312.19669 C 298.7805,312.2518 296.0921,309.06521 302.90036,306.35986 z" id="path2253"/>
      <path style="opacity:1;fill:#000000;fill-opacity:1;fill-rule:nonzero;stroke-width:3;stroke-miterlimit:4;stroke-dasharray:none" d="M 274.28363,384.69101 C 279.69032,386.49403 307.5467,384.14858 290.57722,390.22762 C 286.48669,390.54526 260.33281,390.30824 274.28363,384.69101 z" id="path2255"/>
      <path style="opacity:1;fill:#000000;fill-opacity:1;fill-rule:nonzero;stroke-width:3;stroke-miterlimit:4;stroke-dasharray:none" d="M 286.85141,388.50723 C 288.71869,408.18644 290.2965,428.43135 286.61643,447.97108 C 283.34186,465.29568 276.76156,481.53109 271.34956,498.22092 C 264.39389,506.23159 275.23886,525.65164 263.20223,526.63343 C 258.46159,503.90612 273.56993,484.0925 277.53725,462.52072 C 284.6319,439.71774 282.28123,415.3314 281.04196,392.11372 C 282.32753,390.12214 285.06447,389.88568 286.85141,388.50723 z" id="path2257"/>
      <path style="opacity:1;fill:#000000;fill-opacity:1;fill-rule:nonzero;stroke-width:3;stroke-miterlimit:4;stroke-dasharray:none" d="M 338.08435,331.47995 C 337.96435,358.79618 337.11242,386.90951 325.82048,412.29361 C 321.92097,430.51139 313.17778,447.00169 306.92689,464.46397 C 303.78206,482.29679 295.72748,503.21147 307.63667,519.47621 C 310.29316,534.00389 292.29135,515.943 295.27652,507.9753 C 294.4578,493.27553 297.81405,478.57298 301.52246,464.42068 C 304.88614,452.24522 312.6436,441.51568 315.59333,429.40943 C 318.49346,411.47946 329.4724,395.60319 329.27066,376.99445 C 335.17614,362.79725 325.66884,343.85279 335.50427,332.38201 L 338.08435,331.47995 L 338.08435,331.47995 z" id="path2259"/>
      <path style="opacity:1;fill:#000000;fill-opacity:1;fill-rule:nonzero;stroke-width:3;stroke-miterlimit:4;stroke-dasharray:none" d="M 268.61465,523.50275 C 276.89051,531.05509 297.15227,526.62922 300.8391,528.52805 C 289.58715,535.99933 274.6983,532.96107 263.62832,527.32484 C 264.43136,525.29059 266.9854,524.67017 268.61465,523.50275 z" id="path2261"/>
      <path style="opacity:1;fill:#000000;fill-opacity:1;fill-rule:nonzero;stroke-width:3;stroke-miterlimit:4;stroke-dasharray:none" d="M 252.63063,434.18689 C 259.75346,449.26328 262.44069,466.28189 264.62262,482.59793 C 266.55123,488.6124 263.29509,512.93408 257.20639,499.64398 C 261.19817,484.02778 256.46492,469.51163 252.2573,454.53373 C 252.16791,448.22332 242.93749,436.35787 252.63063,434.18689 z" id="path2263"/>
      <path style="opacity:1;fill:#000000;fill-opacity:1;fill-rule:nonzero;stroke-width:3;stroke-miterlimit:4;stroke-dasharray:none" d="M 283.79865,410.05139 C 276.94218,420.59538 287.52855,441.05856 276.48248,446.04257 C 274.04919,435.57959 271.18343,415.37747 283.79865,410.05139 L 283.79865,410.05139 z" id="path2265"/>
      <path style="opacity:1;fill:#000000;fill-opacity:1;fill-rule:nonzero;stroke-width:3;stroke-miterlimit:4;stroke-dasharray:none" d="M 367.05255,364.32281 C 354.28717,375.9606 351.11101,393.96742 344.24755,409.12811 C 335.86379,425.24688 337.07717,443.00908 338.62261,460.34325 C 337.15755,471.36225 332.5292,491.37572 321.45941,492.52607 C 330.90841,478.68932 335.12228,461.25409 330.94677,444.57753 C 330.28733,422.68746 342.21059,403.15438 349.3828,383.12986 C 352.84123,375.1505 357.92889,366.45773 367.05255,364.32281 z" id="path2267"/>
      <path style="opacity:1;fill:#000000;fill-opacity:1;fill-rule:nonzero;stroke-width:3;stroke-miterlimit:4;stroke-dasharray:none" d="M 361.97574,298.33679 C 376.6942,311.08052 377.8554,330.82391 384.74523,346.73033 C 389.88909,364.64571 378.42489,381.79769 374.65329,398.92351 C 366.13331,421.76412 356.31936,444.57753 354.87991,469.26709 C 355.88267,481.73493 359.21195,502.38605 338.86154,497.27979 C 332.79268,499.06837 320.19381,496.02447 332.87495,492.87875 C 338.90865,492.52612 359.2457,497.10878 348.35117,485.69413 C 347.15998,467.56001 351.84675,449.46202 356.69442,432.1448 C 364.51519,415.15519 369.23896,397.17342 375.13594,379.53369 C 386.21599,362.01403 373.38388,345.80719 371.72713,327.91598 C 374.67083,316.84898 346.33675,304.0336 361.97574,298.33679 z" id="path2269"/>
      <path style="opacity:1;fill:#000000;fill-opacity:1;fill-rule:nonzero;stroke-width:3;stroke-miterlimit:4;stroke-dasharray:none" d="M 327.82968,421.71252 C 334.43895,421.75877 347.61936,417.11924 334.83144,423.87094 C 330.51558,426.13755 316.30091,427.47207 327.82968,421.71252 z" id="path2271"/>
    </g>
  </g>
  <metadata>
    <rdf:RDF>
      <cc:Work>
        <dc:format>image/svg+xml</dc:format>
        <dc:type rdf:resource="http://purl.org/dc/dcmitype/StillImage"/>
        <cc:license rdf:resource="http://creativecommons.org/licenses/publicdomain/"/>
        <dc:publisher>
          <cc:Agent rdf:about="http://openclipart.org/">
            <dc:title>Open Clip Art Library</dc:title>
          </cc:Agent>
        </dc:publisher>
        <dc:title>elephant</dc:title>
        <dc:date>2008-10-27T01:12:01</dc:date>
        <dc:description/>
        <dc:source>http://openclipart.org/detail/19776/elephant-by-melwe</dc:source>
        <dc:creator>
          <cc:Agent>
            <dc:title>melwe</dc:title>
          </cc:Agent>
        </dc:creator>
        <dc:subject>
          <rdf:Bag>
            <rdf:li>animal</rdf:li>
            <rdf:li>calligraphic</rdf:li>
            <rdf:li>clip art</rdf:li>
            <rdf:li>clipart</rdf:li>
            <rdf:li>image</rdf:li>
            <rdf:li>line art</rdf:li>
            <rdf:li>mammal</rdf:li>
            <rdf:li>media</rdf:li>
            <rdf:li>nature</rdf:li>
            <rdf:li>public domain</rdf:li>
            <rdf:li>svg</rdf:li>
          </rdf:Bag>
        </dc:subject>
      </cc:Work>
      <cc:License rdf:about="http://creativecommons.org/licenses/publicdomain/">
        <cc:permits rdf:resource="http://creativecommons.org/ns#Reproduction"/>
        <cc:permits rdf:resource="http://creativecommons.org/ns#Distribution"/>
        <cc:permits rdf:resource="http://creativecommons.org/ns#DerivativeWorks"/>
      </cc:License>
    </rdf:RDF>
  </metadata>
</svg>
