<?xml version="1.0" encoding="UTF-8" standalone="no"?>
<!-- Created with Inkscape (http://www.inkscape.org/) -->
<svg xmlns:dc="http://purl.org/dc/elements/1.1/" xmlns:cc="http://creativecommons.org/ns#" xmlns:rdf="http://www.w3.org/1999/02/22-rdf-syntax-ns#" xmlns:svg="http://www.w3.org/2000/svg" xmlns="http://www.w3.org/2000/svg" xmlns:sodipodi="http://sodipodi.sourceforge.net/DTD/sodipodi-0.dtd" xmlns:inkscape="http://www.inkscape.org/namespaces/inkscape" version="1.0" width="708.66144" height="564.12213" viewBox="0 0 1 1" id="body" sodipodi:version="0.32" inkscape:version="0.46" sodipodi:docname="hippo.svg" sodipodi:docbase="/home/melwe/Utile/Ecles/ImagesMemory" inkscape:output_extension="org.inkscape.output.svg.inkscape">
  <sodipodi:namedview inkscape:window-height="1130" inkscape:window-width="1600" inkscape:pageshadow="2" inkscape:pageopacity="0.0" guidetolerance="10.0" gridtolerance="10.0" objecttolerance="10.0" borderopacity="1.0" bordercolor="#666666" pagecolor="#ffffff" id="base" width="20cm" height="20cm" units="cm" inkscape:zoom="0.61792762" inkscape:cx="19.841448" inkscape:cy="352.85313" inkscape:window-x="0" inkscape:window-y="24" inkscape:current-layer="body" showgrid="false"/>
  <defs id="defs58">
    <inkscape:perspective sodipodi:type="inkscape:persp3d" inkscape:vp_x="0 : 354.33069 : 1" inkscape:vp_y="0 : 1000 : 0" inkscape:vp_z="708.66138 : 354.33069 : 1" inkscape:persp3d-origin="354.33069 : 236.22046 : 1" id="perspective4260"/>
  </defs>
  <title id="title3">SVG drawing</title>
  <desc id="desc5">This was produced by version 4.2 of GNU libplot, a free library for exporting 2-D vector graphics.</desc>
  <g id="g4262" transform="matrix(1.0021183,0,0,1.0021183,2.7139364e-4,2.3495311e-8)">
    <path d="M -0.051732858,0.76581725 L -0.054854215,0.76554235 L -0.057866754,0.76515289 L -0.060764747,0.76464889 L -0.06355965,0.76403035 L -0.06625719,0.76330299 L -0.068845911,0.76247253 L -0.071338415,0.76153326 L -0.073734128,0.7604909 L -0.076035914,0.75935118 L -0.078246064,0.75811982 L -0.080366295,0.75679109 L -0.0823989,0.75537073 L -0.084346741,0.75387019 L -0.08621211,0.75227801 L -0.08970402,0.74885884 L -0.092892959,0.74513039 L -0.095797825,0.74112131 L -0.098436374,0.73684877 L -0.10082808,0.73234142 L -0.10299126,0.72761643 L -0.10494369,0.72269671 L -0.10670482,0.7176109 L -0.10829299,0.71237046 L -0.10972595,0.70700402 L -0.11102317,0.70153449 L -0.11220299,0.69598477 L -0.11328315,0.69037205 L -0.11522183,0.67906072 L -0.11698582,0.66777801 L -0.11872462,0.65670149 L -0.11963125,0.65130069 L -0.12058655,0.64601442 L -0.12160944,0.64087135 L -0.12271881,0.63588863 L -0.12393293,0.63109491 L -0.12527031,0.62650738 C -0.13701577,0.56066679 -0.11063887,0.49545048 -0.077148148,0.44079524 C -0.03985452,0.39537234 0.018517716,0.37658692 0.071156964,0.35442243 C 0.12791411,0.33088339 0.18898962,0.31765342 0.25040303,0.32011614 C 0.31532725,0.31358706 0.37884256,0.33346065 0.44114943,0.3467479 C 0.46448801,0.3532197 0.5351624,0.33328884 0.52909151,0.34210882 C 0.44661896,0.38088237 0.35982233,0.32801976 0.27499015,0.32882157 C 0.19836514,0.32595794 0.12080086,0.33535065 0.050326919,0.36725149 C -0.0019973304,0.38764054 0.0006372093,0.38867144 -0.045558871,0.41352775 C -0.026160641,0.40029778 -0.08336738,0.45131049 -0.083501398,0.47318862 C -0.11186966,0.53093086 -0.12310025,0.59560881 -0.10307717,0.65800731 C -0.10851349,0.70297203 -0.06381165,0.7507832 -0.051732858,0.76581725 z" style="font-style:normal;font-variant:normal;font-weight:normal;font-stretch:normal;letter-spacing:normal;word-spacing:normal;text-anchor:start;fill:#000000;fill-opacity:1;fill-rule:nonzero;stroke:#000000;stroke-width:0;stroke-linecap:butt;stroke-linejoin:miter;stroke-miterlimit:10.43299961;stroke-dasharray:none;stroke-dashoffset:0;stroke-opacity:1" id="path4264"/>
    <path d="M 0.55079782,0.41994228 L 0.54948055,0.41421502 L 0.54844965,0.40848776 L 0.5477051,0.4027605 L 0.54718965,0.39697597 L 0.54690329,0.39113416 L 0.54684601,0.38534963 L 0.5470751,0.37950783 L 0.54753329,0.37372329 L 0.54822056,0.36793876 L 0.54913692,0.3622115 L 0.55033964,0.35654151 L 0.55171419,0.35098607 L 0.55337509,0.34543063 L 0.55526509,0.33998973 L 0.5573269,0.33460611 L 0.55967508,0.3293943 L 0.56225234,0.32429704 L 0.56500143,0.31931432 L 0.56803688,0.31444615 L 0.57124414,0.3097498 L 0.5746805,0.30522526 L 0.57834595,0.30087254 L 0.58224048,0.29674892 L 0.58636411,0.29273983 L 0.59065956,0.28901711 L 0.59518409,0.28546621 L 0.59988044,0.28220168 L 0.60486316,0.27916623 L 0.60996042,0.27635987 L 0.61534405,0.27383988 L 0.62089949,0.27160624 L 0.62662675,0.26965898 C 0.63619127,0.26290081 0.6762821,0.22504362 0.70090931,0.21593727 C 0.65938668,0.25843355 0.59128955,0.27601623 0.56809415,0.33472065 C 0.54747601,0.36003514 0.58573411,0.40843049 0.55079782,0.41994228 z" style="font-style:normal;font-variant:normal;font-weight:normal;font-stretch:normal;letter-spacing:normal;word-spacing:normal;text-anchor:start;fill:#000000;fill-opacity:1;fill-rule:nonzero;stroke:#000000;stroke-width:0;stroke-linecap:butt;stroke-linejoin:miter;stroke-miterlimit:10.43299961;stroke-dasharray:none;stroke-dashoffset:0;stroke-opacity:1" id="path4266"/>
    <path d="M 0.7281138,0.23168724 L 0.72530744,0.22962543 L 0.72273018,0.22750634 L 0.720382,0.22532998 L 0.71826291,0.22309635 L 0.71631564,0.22080545 L 0.71459747,0.21845727 L 0.71305111,0.21610909 L 0.71173384,0.21370364 L 0.71058838,0.21129819 L 0.70967202,0.20883547 L 0.70887021,0.20637275 L 0.70829748,0.20385276 L 0.70789657,0.20139003 L 0.70766748,0.19887004 L 0.70755294,0.19635004 L 0.70761021,0.19383005 L 0.7078393,0.19131006 L 0.70824021,0.18879006 L 0.70875566,0.18632734 L 0.70944293,0.18380734 L 0.71024475,0.18134462 L 0.71116111,0.17893917 L 0.71219202,0.17653372 L 0.71339474,0.17412828 L 0.71471201,0.17183737 L 0.71608655,0.16948919 L 0.71763291,0.16725556 L 0.71923655,0.1650792 L 0.72095472,0.16290285 L 0.72278745,0.16084103 L 0.72467744,0.15877922 L 0.72668198,0.15683195 L 0.7287438,0.15494195 L 0.73086288,0.15310923 L 0.73309652,0.15139105 L 0.73533015,0.14973015 L 0.73767832,0.14818379 L 0.74008377,0.1466947 L 0.7425465,0.14532016 L 0.74506649,0.14406016 L 0.74758648,0.14285743 L 0.75016375,0.14176925 L 0.75279829,0.14085289 L 0.75543283,0.1399938 L 0.75806737,0.13924926 L 0.76075918,0.13867653 L 0.763451,0.13821835 L 0.76620008,0.13787472 L 0.76889189,0.13764563 L 0.77164098,0.13764563 L 0.77433279,0.1377029 L 0.7770246,0.13793199 L 0.77977369,0.1383329 L 0.78240823,0.13890562 L 0.78510004,0.1395929 L 0.78773458,0.14050926 L 0.79031185,0.14154016 L 0.79288911,0.14274289 L 0.79540911,0.1441747 L 0.79787183,0.14577834 L 0.80027728,0.14755379 L 0.80268273,0.14950106 L 0.80497363,0.15167742 L 0.80726454,0.15402559 C 0.8297154,0.17384191 0.80697817,0.21593727 0.7985591,0.17160828 C 0.75073648,0.11708476 0.69712932,0.17017647 0.73401288,0.22790725 L 0.7281138,0.23168724 z" style="font-style:normal;font-variant:normal;font-weight:normal;font-stretch:normal;letter-spacing:normal;word-spacing:normal;text-anchor:start;fill:#000000;fill-opacity:1;fill-rule:nonzero;stroke:#000000;stroke-width:0;stroke-linecap:butt;stroke-linejoin:miter;stroke-miterlimit:10.43299961;stroke-dasharray:none;stroke-dashoffset:0;stroke-opacity:1" id="path4268"/>
    <path d="M 0.74907557,0.16719829 L 0.74999193,0.16668284 L 0.75085102,0.16616738 L 0.75171011,0.1657092 L 0.7525692,0.16530829 L 0.75337102,0.16490739 L 0.75411556,0.16456375 L 0.75491738,0.16422011 L 0.75566192,0.16393375 L 0.75634919,0.16364739 L 0.75703646,0.1634183 L 0.75772374,0.16318921 L 0.75835373,0.16301739 L 0.75898373,0.16290285 L 0.75955646,0.1627883 L 0.76012918,0.16267375 L 0.76070191,0.16261648 L 0.76121736,0.16255921 L 0.76173282,0.16255921 L 0.76224827,0.16255921 L 0.76270645,0.16261648 L 0.76316463,0.16267375 L 0.76356554,0.16273103 L 0.76402372,0.16284557 L 0.76442463,0.16296012 L 0.76476827,0.16307466 L 0.7651119,0.16324648 L 0.76545554,0.1634183 L 0.76579917,0.16364739 L 0.76608554,0.16387648 L 0.7663719,0.16410557 L 0.76665826,0.16433466 L 0.76688735,0.16462102 L 0.76711644,0.16490739 L 0.76734553,0.16519375 L 0.76757462,0.16553738 L 0.76774644,0.16588102 L 0.76791826,0.16622466 L 0.76809008,0.16656829 L 0.76820462,0.1669692 L 0.76831917,0.16731284 L 0.76843371,0.16771374 L 0.76854826,0.16811465 L 0.76860553,0.16857283 L 0.76872007,0.16897374 L 0.76877735,0.16943192 L 0.76883462,0.16983283 L 0.76883462,0.17029101 L 0.76883462,0.17074919 L 0.76889189,0.17120737 L 0.76889189,0.17166555 L 0.76883462,0.17218101 L 0.76883462,0.17263919 L 0.76877735,0.17309737 L 0.76872007,0.17361282 L 0.76872007,0.174071 L 0.76860553,0.17458646 L 0.76854826,0.17504464 L 0.76849098,0.17556009 L 0.76837644,0.17607554 L 0.76826189,0.17653372 L 0.76814735,0.17704918 L 0.7680328,0.17750736 L 0.76774644,0.17848099 L 0.76746008,0.17945463 L 0.76734553,0.17991281 L 0.76717371,0.18037099 L 0.7670019,0.18082917 L 0.76683008,0.18128735 L 0.76660099,0.18174553 L 0.76642917,0.18220371 L 0.76625735,0.18260462 L 0.76602826,0.1830628 L 0.76585644,0.18346371 L 0.76562735,0.18386462 L 0.76545554,0.18426553 L 0.76522645,0.18460916 L 0.76499736,0.18501007 L 0.76476827,0.18535371 L 0.76459645,0.18569734 L 0.76436736,0.18604098 L 0.76413827,0.18632734 L 0.76390918,0.1866137 L 0.76368009,0.18690007 L 0.763451,0.18718643 L 0.7632219,0.18741552 L 0.76299281,0.18770188 L 0.76270645,0.1878737 L 0.76247736,0.18810279 L 0.76224827,0.18827461 L 0.76201918,0.18844643 L 0.76179009,0.18856097 L 0.761561,0.18867552 L 0.76133191,0.18879006 L 0.76110282,0.18884733 L 0.76087373,0.18890461 L 0.76064464,0.18890461 L 0.76041555,0.18890461 L 0.76018646,0.18890461 L 0.76001464,0.18884733 L 0.75978555,0.18879006 L 0.75955646,0.18867552 L 0.75938464,0.18856097 L 0.75915555,0.18838915 L 0.75898373,0.18821734 L 0.75875464,0.18798824 L 0.75858282,0.18775915 L 0.75841101,0.18747279 L 0.75823919,0.18712916 L 0.75806737,0.18684279 L 0.75789555,0.18644188 L 0.75772374,0.18604098 L 0.75760919,0.18564007 L 0.75743737,0.18512461 L 0.75732283,0.18466643 L 0.75715101,0.18409371 L 0.75703646,0.18352098 L 0.75692192,0.18289098 L 0.75680737,0.18226098 L 0.7567501,0.18157371 L 0.75663556,0.18088644 L 0.75657828,0.18008463 L 0.75652101,0.17928281 L 0.75646374,0.17848099 L 0.75640647,0.17756463 L 0.75634919,0.17664827 L 0.75634919,0.17567464 C 0.74197377,0.17447191 0.72971743,0.1788819 0.74907557,0.16719829 z" style="font-style:normal;font-variant:normal;font-weight:normal;font-stretch:normal;letter-spacing:normal;word-spacing:normal;text-anchor:start;fill:#000000;fill-opacity:1;fill-rule:nonzero;stroke:#000000;stroke-width:0;stroke-linecap:butt;stroke-linejoin:miter;stroke-miterlimit:10.43299961;stroke-dasharray:none;stroke-dashoffset:0;stroke-opacity:1" id="path4270"/>
    <path d="M 0.82261359,0.14738197 L 0.82679449,0.14337289 L 0.83068903,0.13907744 L 0.8342972,0.13455291 L 0.83761901,0.12979928 L 0.84071174,0.12481656 L 0.84363264,0.11966203 L 0.84632445,0.11439295 L 0.84890172,0.10895205 L 0.85136444,0.10339661 L 0.85371262,0.097783897 L 0.85812261,0.086386649 L 0.8625326,0.074989401 L 0.86694259,0.063649426 L 0.86929076,0.058093983 L 0.87175349,0.052710359 L 0.87427348,0.047384007 L 0.87702257,0.042229473 L 0.8798862,0.037246756 L 0.88297892,0.03249313 L 0.886358,0.027911322 L 0.8899089,0.023615877 L 0.89380344,0.019606795 L 0.89798434,0.015884076 L 0.90250887,0.01244772 L 0.90737704,0.0094122717 L 0.90995431,0.0079804567 L 0.91264612,0.0067204594 L 0.91539521,0.0055177348 L 0.91831611,0.0043722828 L 0.92129429,0.0033986485 L 0.92438701,0.0024822869 L 0.92765155,0.0017377431 L 0.93097336,0.0010504718 C 0.99277049,-0.0049058788 1.0634449,0.014509533 1.1082893,0.058208529 C 1.1576583,0.11834476 1.0900766,0.17321191 1.0373859,0.19463187 C 0.99683685,0.22532998 1.0192304,0.29503074 1.0147059,0.32200613 C 0.97106418,0.28409167 1.0034232,0.19383005 1.0581185,0.17733554 C 1.1267311,0.16376193 1.1262157,0.051679452 1.056114,0.041828564 C 1.0109259,0.015769531 0.91459339,-0.021171298 0.88853436,0.043203107 C 0.87633529,0.080773934 0.84380446,0.15093287 0.81522543,0.15270832 L 0.82261359,0.14738197 z" style="font-style:normal;font-variant:normal;font-weight:normal;font-stretch:normal;letter-spacing:normal;word-spacing:normal;text-anchor:start;fill:#000000;fill-opacity:1;fill-rule:nonzero;stroke:#000000;stroke-width:0;stroke-linecap:butt;stroke-linejoin:miter;stroke-miterlimit:10.43299961;stroke-dasharray:none;stroke-dashoffset:0;stroke-opacity:1" id="path4272"/>
    <path d="M 1.0100668,0.36387241 L 1.0100668,0.36135241 L 1.0101241,0.35888969 L 1.0103532,0.35648424 L 1.0106395,0.35413606 L 1.0110977,0.35190243 L 1.0116132,0.34972607 L 1.0123005,0.34760699 L 1.013045,0.34554517 L 1.0138468,0.3435979 L 1.0147632,0.34170791 L 1.0157941,0.33993246 L 1.0168823,0.33815701 L 1.018085,0.3364961 L 1.0192877,0.33494974 L 1.020605,0.33346065 L 1.0219795,0.33202884 L 1.0234113,0.33071157 L 1.0249004,0.3293943 L 1.0263895,0.32824885 L 1.0279931,0.32716067 L 1.0295968,0.32612976 L 1.0312004,0.32515613 L 1.0328613,0.32435431 L 1.0345795,0.32355249 L 1.0362977,0.32286522 L 1.0380158,0.32223522 L 1.0397913,0.32171977 L 1.0415095,0.32131886 L 1.0432849,0.32097523 L 1.0450604,0.32068886 L 1.0467786,0.32051705 L 1.0484967,0.3204025 L 1.0502149,0.3204025 L 1.0519331,0.32051705 L 1.053594,0.32068886 L 1.0552549,0.32097523 L 1.0568585,0.32131886 L 1.0584049,0.32171977 L 1.0599513,0.3222925 L 1.0614403,0.3229225 L 1.0628722,0.32360977 L 1.0642467,0.32446886 L 1.0655067,0.32532794 L 1.0667667,0.32635885 L 1.0679121,0.32744703 L 1.0690003,0.32864976 L 1.0700312,0.32990975 L 1.0709476,0.33128429 L 1.0718067,0.33277338 L 1.0725512,0.33431974 L 1.0731812,0.33598065 L 1.073754,0.3377561 L 1.0741549,0.33964609 L 1.0744985,0.34159336 L 1.0747276,0.34365518 L 1.0747849,0.34583154 L 1.0747276,0.34812244 L 1.0745558,0.35047062 L 1.0742694,0.35293334 L 1.0738112,0.35551061 L 1.0732385,0.35820242 L 1.0728949,0.35957696 L 1.072494,0.3609515 L 1.0720358,0.36238332 L 1.0715776,0.36387241 L 1.0710621,0.36530422 L 1.0705467,0.36685058 C 1.0736967,0.41690683 1.1480365,0.4923864 1.0608103,0.50762091 C 0.9979823,0.52892059 0.93492517,0.49849166 0.87135258,0.49943093 C 0.91447885,0.47412789 1.0082914,0.52162406 1.0696303,0.50028429 C 1.1321147,0.48263287 1.047294,0.41610502 1.0557131,0.36667876 C 1.0549113,0.33305975 1.0408222,0.29858164 1.0283368,0.34938244 C 1.0247286,0.35636969 1.0184859,0.36307059 1.0100668,0.36387241 z" style="font-style:normal;font-variant:normal;font-weight:normal;font-stretch:normal;letter-spacing:normal;word-spacing:normal;text-anchor:start;fill:#000000;fill-opacity:1;fill-rule:nonzero;stroke:#000000;stroke-width:0;stroke-linecap:butt;stroke-linejoin:miter;stroke-miterlimit:10.43299961;stroke-dasharray:none;stroke-dashoffset:0;stroke-opacity:1" id="path4274"/>
    <path d="M 1.0632731,0.075905763 L 1.0656785,0.077795759 L 1.0681412,0.079857572 L 1.070604,0.082148476 L 1.0730094,0.084611198 L 1.0754721,0.087188465 L 1.0778203,0.08993755 L 1.0801112,0.09280118 L 1.0823448,0.095836628 L 1.0844639,0.098929349 L 1.0865257,0.10207934 L 1.0884157,0.10534388 L 1.0901912,0.10866569 L 1.0918521,0.1119875 L 1.0932839,0.11536659 L 1.0945439,0.11874567 L 1.0956321,0.12218203 L 1.0964912,0.12550384 L 1.0971212,0.12882565 L 1.0973503,0.13048655 L 1.0975221,0.13214746 L 1.0975794,0.13375109 L 1.0976366,0.13535472 L 1.0975794,0.13695836 L 1.0974648,0.13850472 L 1.097293,0.14005108 L 1.0970066,0.14154016 L 1.096663,0.14302925 L 1.0962621,0.14446107 L 1.0957466,0.14589288 L 1.0951739,0.14726742 L 1.0945439,0.14864197 L 1.0937994,0.14995924 L 1.0929403,0.15127651 L 1.0920239,0.15247923 L 1.090993,0.15368196 L 1.0898476,0.15482741 L 1.0886448,0.15597286 L 1.0873276,0.15700377 L 1.085953,0.15803467 L 1.0844067,0.15900831 L 1.082803,0.15992467 L 1.0810848,0.16078376 L 1.0792521,0.1615283 L 1.0773049,0.16227285 L 1.0753003,0.16296012 L 1.073124,0.16359012 C 1.1230084,0.13650018 1.0292531,0.099330257 1.0632731,0.075905763 z" style="font-style:normal;font-variant:normal;font-weight:normal;font-stretch:normal;letter-spacing:normal;word-spacing:normal;text-anchor:start;fill:#000000;fill-opacity:1;fill-rule:nonzero;stroke:#000000;stroke-width:0;stroke-linecap:butt;stroke-linejoin:miter;stroke-miterlimit:10.43299961;stroke-dasharray:none;stroke-dashoffset:0;stroke-opacity:1" id="path4276"/>
    <path d="M 1.0427695,0.075504854 L 1.0424258,0.077910304 L 1.0419104,0.080201208 L 1.0412804,0.082492112 L 1.0404786,0.084725743 L 1.0396195,0.086902102 L 1.0385886,0.089078461 L 1.0375004,0.091140275 L 1.0362977,0.093202088 L 1.0349804,0.09520663 L 1.0335486,0.097153898 L 1.0320022,0.099043894 L 1.0303986,0.10093389 L 1.0269622,0.10448479 L 1.0231822,0.10792115 L 1.0191159,0.11118569 L 1.0148777,0.11433568 L 1.0104105,0.11725658 L 1.0057714,0.12006294 L 1.0010177,0.12275475 L 0.99614958,0.12527475 L 0.99122413,0.12768019 L 0.98629869,0.1299711 L 0.98143052,0.13214746 L 0.97656235,0.13420927 L 0.97180872,0.13621381 L 0.96716964,0.13804654 L 0.96270238,0.13982199 L 0.95840693,0.14148289 L 0.95434058,0.14308652 L 0.95056059,0.14457561 L 0.94712423,0.1460647 L 0.94397424,0.14743924 L 0.94254242,0.14806924 L 0.94122515,0.14875651 L 0.94002243,0.14938651 L 0.93887698,0.15001651 L 0.93790334,0.15058924 L 0.93698698,0.15121923 L 0.93624244,0.15179196 L 0.93561244,0.15236469 L 0.93509698,0.15293741 L 0.93469608,0.15351014 L 0.93446698,0.15408286 L 0.93435244,0.15459832 C 0.91510885,0.20305094 0.87564802,0.24961356 0.89254344,0.30539708 C 0.89912979,0.37217693 0.9419697,0.4265859 1.0008459,0.45674566 C 1.0637312,0.49468876 0.95313785,0.46421973 0.94179788,0.43381371 C 0.8934598,0.39416961 0.87593439,0.33111248 0.87496075,0.2708617 C 0.89156981,0.21301637 0.91098522,0.13753108 0.98217506,0.1293411 C 0.98698596,0.13890562 1.0263322,0.086272104 1.0427695,0.075504854 z" style="font-style:normal;font-variant:normal;font-weight:normal;font-stretch:normal;letter-spacing:normal;word-spacing:normal;text-anchor:start;fill:#000000;fill-opacity:1;fill-rule:nonzero;stroke:#000000;stroke-width:0;stroke-linecap:butt;stroke-linejoin:miter;stroke-miterlimit:10.43299961;stroke-dasharray:none;stroke-dashoffset:0;stroke-opacity:1" id="path4278"/>
    <polygon points="183.21,116.11 183.4,116.02 183.58,115.92 183.75,115.83 183.92,115.73 184.08,115.64 184.24,115.55 184.39,115.46 184.53,115.36 184.67,115.27 184.8,115.18 184.93,115.09 185.05,115 185.17,114.91 185.28,114.82 185.38,114.73 185.48,114.64 185.58,114.55 185.67,114.47 185.75,114.38 185.83,114.29 185.91,114.21 185.98,114.12 186.05,114.04 186.11,113.96 186.16,113.87 186.22,113.79 186.26,113.71 186.31,113.63 186.35,113.55 186.38,113.47 186.41,113.4 186.44,113.32 186.46,113.25 186.48,113.17 186.5,113.1 186.51,113.03 186.52,112.96 186.52,112.89 186.52,112.82 186.52,112.75 186.51,112.69 186.5,112.62 186.49,112.56 186.48,112.5 186.46,112.44 186.43,112.38 186.41,112.32 186.38,112.26 186.35,112.21 186.32,112.16 186.28,112.1 186.24,112.05 186.2,112.01 186.16,111.96 186.11,111.91 186.07,111.87 186.02,111.83 185.96,111.79 185.91,111.75 185.85,111.71 185.79,111.68 185.73,111.64 185.67,111.61 185.61,111.58 185.54,111.56 185.48,111.53 185.41,111.51 185.34,111.49 185.27,111.47 185.2,111.45 185.12,111.43 185.05,111.42 184.97,111.41 184.89,111.4 184.82,111.4 184.74,111.39 184.66,111.39 184.58,111.39 184.5,111.39 184.42,111.4 184.34,111.4 184.26,111.41 184.17,111.43 184.09,111.44 184.01,111.46 183.93,111.48 183.84,111.5 183.76,111.53 183.68,111.55 183.6,111.58 183.51,111.62 183.43,111.65 183.35,111.69 183.27,111.73 183.19,111.77 183.11,111.82 183.03,111.87 182.95,111.92 182.88,111.98 182.8,112.03 182.72,112.1 182.65,112.16 182.58,112.23 182.5,112.3 182.43,112.37 182.36,112.44 182.3,112.52 182.23,112.61 182.17,112.69 182.1,112.78 182.04,112.87 181.98,112.97 181.92,113.07 181.87,113.17 181.81,113.27 181.76,113.38 181.71,113.49 181.67,113.61 181.62,113.73 181.58,113.85 181.54,113.97 181.5,114.1 181.47,114.24 181.43,114.37 181.4,114.51 181.38,114.65 181.35,114.8 181.33,114.95 183.21,116.11 " transform="matrix(5.7272602e-3,0,0,-5.7272602e-3,-0.1281116,1.0022901)" style="font-style:normal;font-variant:normal;font-weight:normal;font-stretch:normal;letter-spacing:normal;word-spacing:normal;text-anchor:start;fill:#000000;fill-opacity:1;fill-rule:nonzero;stroke:#000000;stroke-width:0;stroke-linecap:butt;stroke-linejoin:miter;stroke-miterlimit:10.43299961;stroke-dasharray:none;stroke-dashoffset:0;stroke-opacity:1" id="polygon4280"/>
    <path d="M 0.93595607,0.39130598 L 0.93498244,0.39038962 L 0.93412335,0.38947326 L 0.93326426,0.3885569 L 0.93246244,0.38764054 L 0.9317179,0.3866669 L 0.93103063,0.38569327 L 0.92971336,0.38368873 L 0.92862518,0.38162691 L 0.92765155,0.3795651 L 0.92684973,0.37738874 L 0.92616246,0.37521238 L 0.925647,0.37303602 L 0.92530337,0.37074512 L 0.92507428,0.36851149 L 0.92495973,0.36622058 L 0.92495973,0.36392968 L 0.92513155,0.36163877 L 0.92536064,0.35934787 L 0.92576155,0.35699969 L 0.92621973,0.35470879 L 0.92679246,0.35241789 L 0.92747973,0.35018425 L 0.92822427,0.34795062 L 0.92908336,0.34571699 L 0.92999972,0.34354063 L 0.93103063,0.34136427 L 0.93211881,0.33930246 L 0.93326426,0.33724065 L 0.93446698,0.3352361 L 0.93572698,0.33328884 L 0.93704425,0.33139884 L 0.93841879,0.32962339 L 0.93985061,0.32784794 L 0.94128242,0.32618703 L 0.94277151,0.32464067 L 0.9442606,0.32315159 L 0.94580696,0.32177704 L 0.94735332,0.32045977 L 0.94895695,0.31925705 L 0.95050331,0.31816887 L 0.95210695,0.31719523 L 0.95365331,0.31639342 L 0.95519967,0.31564887 L 0.9568033,0.31501888 L 0.95834966,0.3145607 L 0.95983875,0.31427433 L 0.96132784,0.31410251 L 0.96281692,0.31404524 L 0.96424874,0.31415979 L 0.96562328,0.31444615 L 0.96699782,0.31490433 L 0.96762782,0.31519069 L 0.96825782,0.31553433 L 0.96888782,0.31587797 L 0.96951782,0.31633615 L 0.97009054,0.31679433 L 0.97066327,0.31730978 L 0.971236,0.31782523 L 0.97180872,0.31845523 L 0.97232417,0.31908523 L 0.97283963,0.3197725 L 0.97335508,0.32051705 L 0.97381326,0.32131886 L 0.97427144,0.32217795 L 0.97472962,0.32309431 L 0.97513053,0.32401067 L 0.97553144,0.32504158 L 0.97587508,0.32607249 L 0.97621871,0.32716067 L 0.97656235,0.32836339 L 0.97684871,0.32956612 L 0.97713507,0.33082611 L 0.97736416,0.33214338 L 0.97759325,0.33351793 L 0.97776507,0.33494974 L 0.97793689,0.33643883 L 0.97810871,0.33804246 L 0.97822325,0.33964609 L 0.97828053,0.341307 L 0.9783378,0.34302518 L 0.97839507,0.34480063 L 0.9783378,0.34669062 L 0.9783378,0.34858062 C 0.97037691,0.38042419 1.047294,0.42727318 1.0141904,0.43696943 C 0.97564599,0.41599047 0.96338965,0.33305975 0.95182058,0.31908523 C 0.93773152,0.34113518 0.9561733,0.38139782 0.93595607,0.39130598 z" style="font-style:normal;font-variant:normal;font-weight:normal;font-stretch:normal;letter-spacing:normal;word-spacing:normal;text-anchor:start;fill:#000000;fill-opacity:1;fill-rule:nonzero;stroke:#000000;stroke-width:0;stroke-linecap:butt;stroke-linejoin:miter;stroke-miterlimit:10.43299961;stroke-dasharray:none;stroke-dashoffset:0;stroke-opacity:1" id="path4282"/>
    <path d="M 1.0407649,0.43327534 L 1.0419677,0.43320089 L 1.0431704,0.43313216 L 1.0443158,0.43307489 L 1.0453467,0.43302907 L 1.0463204,0.43298898 L 1.0472367,0.43296607 L 1.0480958,0.43294316 L 1.0488976,0.43293171 L 1.0496422,0.43292598 L 1.0502722,0.43293171 L 1.0509595,0.43293744 L 1.0515322,0.43295462 L 1.0520476,0.4329718 L 1.0525631,0.43299471 L 1.052964,0.43302335 L 1.0533649,0.43305771 L 1.0537658,0.43309207 L 1.0541095,0.43313216 L 1.0543958,0.43317225 L 1.0546249,0.43321234 L 1.0549113,0.43325816 L 1.0550831,0.43329825 L 1.0552549,0.43334407 L 1.0554267,0.43338416 L 1.0555413,0.43342998 L 1.0557131,0.43347007 L 1.0558849,0.43354453 L 1.0559994,0.43360753 L 1.056114,0.43364762 L 1.0562285,0.43367625 L 1.0563431,0.43367053 L 1.0564576,0.43364189 L 1.0566294,0.43357889 L 1.056744,0.43353307 L 1.0568585,0.4334758 L 1.0569731,0.4334128 L 1.0571449,0.43333262 L 1.0573167,0.43324671 L 1.0575458,0.43314362 L 1.0577749,0.43302907 L 1.0580613,0.43290307 L 1.0583476,0.43276562 L 1.0586913,0.43261098 L 1.0590349,0.43243916 L 1.0594931,0.43225589 L 1.0599513,0.43205544 L 1.0604094,0.4318378 L 1.0609822,0.43160871 L 1.0615549,0.43135671 L 1.0621849,0.43108753 L 1.0628722,0.43080117 L 1.0636167,0.43049762 L 1.0644185,0.43017117 L 1.0652776,0.42982753 L 1.066194,0.42944953 L 1.0672249,0.4291059 L 1.0682558,0.42864772 C 1.063044,0.43274271 1.0139614,0.45679147 1.0407649,0.43327534 z" style="font-style:normal;font-variant:normal;font-weight:normal;font-stretch:normal;letter-spacing:normal;word-spacing:normal;text-anchor:start;fill:#000000;fill-opacity:1;fill-rule:nonzero;stroke:#000000;stroke-width:0;stroke-linecap:butt;stroke-linejoin:miter;stroke-miterlimit:10.43299961;stroke-dasharray:none;stroke-dashoffset:0;stroke-opacity:1" id="path4284"/>
    <path d="M 0.92455882,0.50088565 L 0.90697614,0.52059888 L 0.8982707,0.53058722 L 0.88967981,0.54069011 L 0.88126074,0.55093045 L 0.87312803,0.56133116 L 0.86522441,0.57190941 L 0.85766443,0.58268811 L 0.85050535,0.59369018 L 0.84374718,0.60493279 L 0.83750447,0.61643885 L 0.83458357,0.62230357 L 0.83183448,0.62823701 L 0.82919994,0.63424491 L 0.82673722,0.64033871 L 0.82438904,0.6465127 L 0.82226996,0.65276686 L 0.82026542,0.65911267 L 0.81848997,0.66555011 L 0.81688633,0.67207919 L 0.81545452,0.6786999 C 0.81608452,0.74767329 0.75972828,0.81266624 0.78154914,0.87855264 C 0.79191548,0.89537361 0.84179991,0.96973864 0.79884546,0.94439323 C 0.75211102,0.89147907 0.75434465,0.82434413 0.78653185,0.76369244 C 0.79558093,0.69046942 0.81505361,0.61399904 0.86585441,0.55788907 C 0.88303619,0.53685857 0.90084797,0.51477998 0.92455882,0.50088565 z" style="font-style:normal;font-variant:normal;font-weight:normal;font-stretch:normal;letter-spacing:normal;word-spacing:normal;text-anchor:start;fill:#000000;fill-opacity:1;fill-rule:nonzero;stroke:#000000;stroke-width:0;stroke-linecap:butt;stroke-linejoin:miter;stroke-miterlimit:10.43299961;stroke-dasharray:none;stroke-dashoffset:0;stroke-opacity:1" id="path4286"/>
    <path d="M 0.63206765,0.82000286 L 0.63143765,0.8216294 L 0.63097947,0.82330749 L 0.63057856,0.8250314 L 0.6302922,0.82680685 L 0.63012038,0.82862239 L 0.63000583,0.83047802 L 0.62994856,0.83237374 L 0.63000583,0.83430956 L 0.63012038,0.83627974 L 0.63034947,0.83827855 L 0.63097947,0.84236781 L 0.63178128,0.84655444 L 0.63286946,0.85082125 L 0.63412946,0.85515106 L 0.63556128,0.85952668 L 0.63705036,0.86392522 L 0.63871127,0.86832948 L 0.64214762,0.87707501 L 0.6438658,0.88137618 L 0.64558398,0.88561436 L 0.64724489,0.88976089 L 0.64879125,0.89379861 L 0.65022306,0.89771033 L 0.65154033,0.90147314 L 0.65268578,0.90506986 L 0.65360214,0.90848903 L 0.65394578,0.9101213 L 0.65423214,0.91170203 L 0.65451851,0.91322548 L 0.65469032,0.91469166 L 0.6547476,0.91610056 L 0.6547476,0.91744647 L 0.65469032,0.91872365 L 0.65457578,0.9199321 L 0.65428942,0.92107755 L 0.65400305,0.92214855 L 0.65354487,0.92314509 L 0.65302942,0.92406145 L 0.65239942,0.92490336 L 0.65165488,0.92566509 L 0.65079579,0.92633518 L 0.64982215,0.92692508 L 0.64873397,0.92742908 L 0.64747398,0.92783572 L 0.64615671,0.92815072 L 0.64466762,0.92837408 C 0.62433585,0.90085459 0.60732588,0.84767698 0.63206765,0.82000286 z" style="font-style:normal;font-variant:normal;font-weight:normal;font-stretch:normal;letter-spacing:normal;word-spacing:normal;text-anchor:start;fill:#000000;fill-opacity:1;fill-rule:nonzero;stroke:#000000;stroke-width:0;stroke-linecap:butt;stroke-linejoin:miter;stroke-miterlimit:10.43299961;stroke-dasharray:none;stroke-dashoffset:0;stroke-opacity:1" id="path4288"/>
    <path d="M 0.65623668,0.94246887 L 0.66053213,0.94464523 L 0.66494212,0.94660853 L 0.66952393,0.94836222 L 0.67427755,0.94991488 L 0.67908845,0.95127453 L 0.68407117,0.95244976 L 0.68911116,0.95344803 L 0.69420842,0.95427791 L 0.69936295,0.95494685 L 0.70457476,0.95546345 L 0.70984384,0.95583572 L 0.71511292,0.95607111 L 0.72032473,0.95617821 L 0.72559381,0.95616504 L 0.73080561,0.95603904 L 0.73596015,0.95580937 L 0.74100014,0.95548292 L 0.74604012,0.95506827 L 0.7509083,0.954574 L 0.75571919,0.95400701 L 0.76041555,0.95337586 L 0.76494008,0.95268859 L 0.7692928,0.95195378 L 0.7734737,0.95117888 L 0.77748278,0.95037134 L 0.78132005,0.94954089 L 0.78487095,0.94869383 L 0.78819276,0.94783932 L 0.79128548,0.94698481 L 0.79414911,0.94613832 L 0.7966691,0.94530902 L 0.79890274,0.94450204 C 0.76053009,0.96915675 0.67759936,0.98161813 0.65383124,0.94407823 L 0.65623668,0.94246887 z" style="font-style:normal;font-variant:normal;font-weight:normal;font-stretch:normal;letter-spacing:normal;word-spacing:normal;text-anchor:start;fill:#000000;fill-opacity:1;fill-rule:nonzero;stroke:#000000;stroke-width:0;stroke-linecap:butt;stroke-linejoin:miter;stroke-miterlimit:10.43299961;stroke-dasharray:none;stroke-dashoffset:0;stroke-opacity:1" id="path4290"/>
    <path d="M 0.67748482,0.78951093 L 0.67754209,0.78951093 L 0.67771391,0.78938493 L 0.67800027,0.78914438 L 0.67834391,0.78878357 L 0.67885936,0.78831393 L 0.67943209,0.78773548 L 0.68006209,0.78705393 L 0.68080663,0.7862693 L 0.68166572,0.78539303 L 0.68258208,0.78441939 L 0.68355572,0.78335985 L 0.68464389,0.7822144 L 0.68578935,0.78098877 L 0.68699207,0.77968868 L 0.68825207,0.77830841 L 0.68962661,0.77686514 L 0.69249024,0.77378387 L 0.69552569,0.77047352 L 0.69879023,0.76696843 L 0.70216931,0.76329153 L 0.70572021,0.7594829 L 0.70938566,0.75556546 L 0.71310838,0.75157928 L 0.71688837,0.74754729 L 0.72450563,0.73948331 L 0.72834289,0.73551432 L 0.73206561,0.73163124 L 0.73573106,0.72785697 L 0.73933923,0.72423162 L 0.74277559,0.72077808 L 0.74604012,0.71753645 L 0.74919012,0.71452964 L 0.75062193,0.71313219 L 0.75205375,0.71179774 L 0.75342829,0.71054347 L 0.75474556,0.70936365 L 0.75600556,0.70826974 L 0.75715101,0.70726747 L 0.75829646,0.70635111 L 0.75932737,0.70553211 L 0.760301,0.70481048 L 0.76116009,0.70418621 L 0.76196191,0.70367648 L 0.76264918,0.70327557 L 0.76327918,0.70298348 L 0.76379463,0.70281739 C 0.75491738,0.72241608 0.70503294,0.7756166 0.6721012,0.79386937 L 0.67748482,0.78951093 z" style="font-style:normal;font-variant:normal;font-weight:normal;font-stretch:normal;letter-spacing:normal;word-spacing:normal;text-anchor:start;fill:#000000;fill-opacity:1;fill-rule:nonzero;stroke:#000000;stroke-width:0;stroke-linecap:butt;stroke-linejoin:miter;stroke-miterlimit:10.43299961;stroke-dasharray:none;stroke-dashoffset:0;stroke-opacity:1" id="path4292"/>
    <path d="M 0.65635123,0.76832007 L 0.65726759,0.76793061 L 0.65818395,0.76743807 L 0.65915759,0.76685389 L 0.66013122,0.76616662 L 0.66116213,0.76539916 L 0.66219303,0.76454007 L 0.66322394,0.7636008 L 0.66425485,0.76258708 L 0.66534303,0.7614989 L 0.66643121,0.76034199 L 0.66757666,0.75912209 L 0.66866484,0.75784491 L 0.67095574,0.75511873 L 0.67324665,0.75220928 L 0.67559482,0.74913947 L 0.677943,0.74594366 L 0.68029118,0.74266194 L 0.68263935,0.73932295 L 0.68498753,0.73596105 L 0.68727843,0.73260487 L 0.68951207,0.72930024 L 0.69168843,0.72606434 L 0.69386478,0.72294871 L 0.6959266,0.71997054 L 0.69793114,0.71716991 L 0.6988475,0.71584691 L 0.69982113,0.71458118 L 0.70068022,0.71337273 L 0.70159659,0.71223301 L 0.70245567,0.71116774 L 0.70325749,0.71016547 L 0.70405931,0.7092491 L 0.70480385,0.70841292 L 0.70549112,0.70766265 L 0.70617839,0.70699829 L 0.70686566,0.70643129 L 0.70743839,0.70596166 L 0.70801112,0.70560084 L 0.70858384,0.70534311 L 0.70904202,0.7051942 L 0.7095002,0.70515984 L 0.70990111,0.70525148 L 0.71024475,0.70545766 L 0.71053111,0.70580129 L 0.71081747,0.70627093 L 0.71098929,0.70687802 L 0.71116111,0.70762256 L 0.71127565,0.70851602 L 0.71133293,0.70955838 L 0.71133293,0.71074965 L 0.71121838,0.71210128 C 0.69747296,0.73431732 0.68252481,0.75937409 0.65635123,0.76832007 z" style="font-style:normal;font-variant:normal;font-weight:normal;font-stretch:normal;letter-spacing:normal;word-spacing:normal;text-anchor:start;fill:#000000;fill-opacity:1;fill-rule:nonzero;stroke:#000000;stroke-width:0;stroke-linecap:butt;stroke-linejoin:miter;stroke-miterlimit:10.43299961;stroke-dasharray:none;stroke-dashoffset:0;stroke-opacity:1" id="path4294"/>
    <path d="M 0.66872211,0.70346457 L 0.66918029,0.71003374 L 0.66935211,0.71654563 L 0.66923757,0.72300026 L 0.66883666,0.72940906 L 0.66814939,0.73576059 L 0.66723302,0.74205485 L 0.66608757,0.74830329 L 0.66471303,0.75450019 L 0.6631094,0.76064554 L 0.66127667,0.76673934 L 0.65927213,0.7727816 L 0.65709577,0.77877804 L 0.6547476,0.78472294 L 0.6522276,0.79062202 L 0.64953579,0.79647528 L 0.64672943,0.80227699 L 0.64071581,0.81374869 L 0.63430128,0.8250314 L 0.62754311,0.83614228 L 0.62055585,0.84707562 L 0.61339678,0.85784287 L 0.60618043,0.86844976 L 0.59902135,0.87889055 L 0.59191955,0.88917671 C 0.57685686,0.91761256 0.63985672,1.0053103 0.58636411,0.95580078 C 0.54816328,0.89593488 0.62124312,0.8501798 0.63750854,0.79697928 C 0.66282303,0.77053652 0.63779491,0.71693509 0.66872211,0.70346457 z" style="font-style:normal;font-variant:normal;font-weight:normal;font-stretch:normal;letter-spacing:normal;word-spacing:normal;text-anchor:start;fill:#000000;fill-opacity:1;fill-rule:nonzero;stroke:#000000;stroke-width:0;stroke-linecap:butt;stroke-linejoin:miter;stroke-miterlimit:10.43299961;stroke-dasharray:none;stroke-dashoffset:0;stroke-opacity:1" id="path4296"/>
    <path d="M 0.46414438,0.72966106 L 0.46752346,0.73576632 L 0.47061618,0.74193458 L 0.47330799,0.74816584 L 0.47571344,0.75444864 L 0.47777526,0.76078872 L 0.47955071,0.76717461 L 0.48109707,0.77361205 L 0.48229979,0.78008959 L 0.4833307,0.78660148 L 0.48407524,0.79315347 L 0.4845907,0.79973409 L 0.48487706,0.80634335 L 0.4849916,0.81298124 L 0.48493433,0.81963632 L 0.48464797,0.82630858 L 0.48424706,0.83299229 L 0.48298706,0.84639408 L 0.48126889,0.85981305 L 0.47920707,0.87320911 L 0.47685889,0.88656508 L 0.47439617,0.8998466 L 0.47187618,0.91303075 L 0.46941346,0.92608318 L 0.46712255,0.93897524 C 0.48103979,0.97463832 0.44530169,0.99092492 0.45183077,0.94680727 C 0.46099438,0.88309436 0.48945887,0.81402933 0.45618349,0.75306265 C 0.4521744,0.74498721 0.45349167,0.73145369 0.46414438,0.72966106 z" style="font-style:normal;font-variant:normal;font-weight:normal;font-stretch:normal;letter-spacing:normal;word-spacing:normal;text-anchor:start;fill:#000000;fill-opacity:1;fill-rule:nonzero;stroke:#000000;stroke-width:0;stroke-linecap:butt;stroke-linejoin:miter;stroke-miterlimit:10.43299961;stroke-dasharray:none;stroke-dashoffset:0;stroke-opacity:1" id="path4298"/>
    <path d="M 0.47176163,0.97327351 L 0.47302163,0.97444072 L 0.47439617,0.97554093 L 0.47582799,0.97657757 L 0.47737435,0.97755063 L 0.47897798,0.97846241 L 0.48063889,0.97931462 L 0.48241434,0.98010899 L 0.48418979,0.98084724 L 0.48607978,0.98153107 L 0.48802705,0.98216164 L 0.49209341,0.98327159 L 0.49633158,0.98419024 L 0.50074157,0.98493135 L 0.50532338,0.98550808 L 0.50996246,0.98593362 L 0.51471608,0.98622284 L 0.51952698,0.98638779 L 0.52433788,0.9864422 L 0.52914878,0.98639982 L 0.53395968,0.98627439 L 0.53865603,0.98607852 L 0.54329511,0.98582652 L 0.54781965,0.98553156 L 0.55217237,0.9852074 L 0.55635327,0.9848672 L 0.56036235,0.98452414 L 0.56408507,0.98419196 L 0.5675787,0.9838844 L 0.57078596,0.98361465 L 0.57227505,0.98349839 L 0.57364959,0.98339644 L 0.57496686,0.98331053 L 0.57616959,0.98324295 L 0.57731504,0.98319427 L 0.57828867,0.98316735 L 0.57920503,0.98316334 L 0.58006412,0.98318396 L 0.58075139,0.98323092 L 0.58138139,0.98330595 L 0.58183957,0.98341019 L 0.58218321,0.98354592 L 0.5824123,0.98371488 L 0.58252685,0.98391877 L 0.58252685,0.98415874 L 0.58235503,0.98443708 C 0.5473042,1.0048182 0.48585069,1.0013505 0.4617962,0.97866515 L 0.47176163,0.97327351 z" style="font-style:normal;font-variant:normal;font-weight:normal;font-stretch:normal;letter-spacing:normal;word-spacing:normal;text-anchor:start;fill:#000000;fill-opacity:1;fill-rule:nonzero;stroke:#000000;stroke-width:0;stroke-linecap:butt;stroke-linejoin:miter;stroke-miterlimit:10.43299961;stroke-dasharray:none;stroke-dashoffset:0;stroke-opacity:1" id="path4300"/>
    <path d="M 0.057130904,0.7252568 L 0.075097319,0.73816031 L 0.09328137,0.75076601 L 0.11162006,0.76310253 L 0.13007902,0.7751756 L 0.14858952,0.78700239 L 0.16711148,0.79860009 L 0.18559335,0.80998016 L 0.20397786,0.8211655 C 0.24803194,0.86747612 0.31353462,0.8567146 0.36691841,0.83608501 C 0.38841854,0.82521467 0.48401797,0.81306715 0.41940302,0.83002557 C 0.35731952,0.83798646 0.29264157,0.88045409 0.23102771,0.85649124 C 0.18605726,0.81993414 0.13133901,0.80004909 0.085967659,0.76409335 C 0.081248397,0.75631 0.03496068,0.7317916 0.057130904,0.7252568 z" style="font-style:normal;font-variant:normal;font-weight:normal;font-stretch:normal;letter-spacing:normal;word-spacing:normal;text-anchor:start;fill:#000000;fill-opacity:1;fill-rule:nonzero;stroke:#000000;stroke-width:0;stroke-linecap:butt;stroke-linejoin:miter;stroke-miterlimit:10.43299961;stroke-dasharray:none;stroke-dashoffset:0;stroke-opacity:1" id="path4302"/>
    <path d="M 0.22727062,0.87552865 L 0.23087307,0.87590092 L 0.23472179,0.87632474 L 0.2387996,0.87678865 L 0.24308359,0.87728119 L 0.24754512,0.87779665 L 0.25217275,0.87831783 L 0.2569321,0.87884473 L 0.26181173,0.87936591 L 0.27182871,0.880351 L 0.28203468,0.88119291 L 0.29226357,0.88181718 L 0.29732647,0.88202909 L 0.30233209,0.88215509 L 0.30724608,0.88218945 L 0.31205698,0.88212645 L 0.31673615,0.88195464 L 0.32126642,0.88165682 L 0.32561913,0.88123873 L 0.32977713,0.88067746 L 0.33371748,0.879973 L 0.33741729,0.87910819 L 0.34085365,0.87807728 L 0.34400364,0.87687456 L 0.34684436,0.87548283 L 0.34814445,0.87471538 L 0.34935863,0.87390211 L 0.35048117,0.87303156 L 0.35151781,0.8721152 L 0.35245708,0.87114157 L 0.35330471,0.87011639 L 0.35404925,0.86903394 L 0.35469071,0.86789421 L 0.35522907,0.86669721 L 0.35566434,0.86543722 C 0.33552729,0.82988811 0.40633341,0.87259629 0.35705034,0.880855 C 0.3241415,0.89262452 0.23044352,0.9011925 0.22727062,0.87552865 z" style="font-style:normal;font-variant:normal;font-weight:normal;font-stretch:normal;letter-spacing:normal;word-spacing:normal;text-anchor:start;fill:#000000;fill-opacity:1;fill-rule:nonzero;stroke:#000000;stroke-width:0;stroke-linecap:butt;stroke-linejoin:miter;stroke-miterlimit:10.43299961;stroke-dasharray:none;stroke-dashoffset:0;stroke-opacity:1" id="path4304"/>
    <path d="M -0.040009156,0.76248399 L -0.040037793,0.76561107 L -0.039940429,0.7686637 L -0.039734248,0.77165333 L -0.039413521,0.77456851 L -0.038445614,0.78020413 L -0.037059617,0.78558203 L -0.035284167,0.79071938 L -0.033142171,0.79563337 L -0.030650813,0.80033545 L -0.027833001,0.80483708 L -0.024717372,0.80915543 L -0.021326834,0.81330197 L -0.017678569,0.81728814 L -0.013801214,0.82113113 L -0.0097119499,0.82484812 L -0.0054394138,0.82844484 L -0.0010007871,0.83193847 L 0.0035752938,0.83534047 L 0.0082659199,0.838668 L 0.013053909,0.84193827 L 0.022813161,0.84834135 L 0.032675503,0.85466424 L 0.042451936,0.86101577 L 0.051959188,0.86750476 L 0.056558178,0.8708323 L 0.061019714,0.87424002 L 0.065320886,0.87773365 L 0.069438786,0.88133036 L 0.073356232,0.88504163 L 0.07703886,0.88888462 C 0.11147115,0.91722883 0.1916757,0.89284788 0.20545549,0.90043078 C 0.14939134,0.92110046 0.079616127,0.9191131 0.034760226,0.87508192 C 0.0048238365,0.84763117 -0.085335839,0.80791834 -0.040009156,0.76248399 z" style="font-style:normal;font-variant:normal;font-weight:normal;font-stretch:normal;letter-spacing:normal;word-spacing:normal;text-anchor:start;fill:#000000;fill-opacity:1;fill-rule:nonzero;stroke:#000000;stroke-width:0;stroke-linecap:butt;stroke-linejoin:miter;stroke-miterlimit:10.43299961;stroke-dasharray:none;stroke-dashoffset:0;stroke-opacity:1" id="path4306"/>
    <polygon points="43.98,37.312 43.98,37.312 " transform="matrix(5.7272602e-3,0,0,-5.7272602e-3,-0.1281116,1.0022901)" style="font-style:normal;font-variant:normal;font-weight:normal;font-stretch:normal;letter-spacing:normal;word-spacing:normal;text-anchor:start;fill:#000000;fill-opacity:1;fill-rule:nonzero;stroke:#000000;stroke-width:0;stroke-linecap:butt;stroke-linejoin:miter;stroke-miterlimit:10.43299961;stroke-dasharray:none;stroke-dashoffset:0;stroke-opacity:1" id="polygon4308"/>
    <path d="M 0.075652863,0.80546135 L 0.080956306,0.80502608 L 0.086374294,0.8048199 L 0.091895373,0.80483708 L 0.097496634,0.80507762 L 0.10316662,0.80554726 L 0.10888815,0.8062288 L 0.11463832,0.80712225 L 0.12039995,0.80823334 L 0.12616157,0.80955634 L 0.13190601,0.81107979 L 0.13760464,0.81280942 L 0.14325172,0.81474524 L 0.14883007,0.81687578 L 0.15431105,0.81920105 L 0.15968895,0.82172104 L 0.16493512,0.82443003 L 0.17004384,0.82732803 L 0.17499219,0.83040929 L 0.179763,0.83367383 L 0.18433908,0.83711592 L 0.18870325,0.84073554 L 0.19283261,0.84453272 L 0.19672142,0.84849598 L 0.20034105,0.85262534 L 0.20368004,0.85692078 L 0.20672121,0.86138232 L 0.20944166,0.86599849 L 0.21182993,0.87077502 L 0.21386883,0.8757062 L 0.21553547,0.88078627 L 0.21681837,0.88601526 L 0.21769464,0.89139316 C 0.18747189,0.87414265 0.16789612,0.82192722 0.11800595,0.82176686 C 0.11324087,0.8166696 0.058871991,0.81425269 0.075652863,0.80546135 z" style="font-style:normal;font-variant:normal;font-weight:normal;font-stretch:normal;letter-spacing:normal;word-spacing:normal;text-anchor:start;fill:#000000;fill-opacity:1;fill-rule:nonzero;stroke:#000000;stroke-width:0;stroke-linecap:butt;stroke-linejoin:miter;stroke-miterlimit:10.43299961;stroke-dasharray:none;stroke-dashoffset:0;stroke-opacity:1" id="path4310"/>
  </g>
  <metadata>
    <rdf:RDF>
      <cc:Work>
        <dc:format>image/svg+xml</dc:format>
        <dc:type rdf:resource="http://purl.org/dc/dcmitype/StillImage"/>
        <cc:license rdf:resource="http://creativecommons.org/licenses/publicdomain/"/>
        <dc:publisher>
          <cc:Agent rdf:about="http://openclipart.org/">
            <dc:title>Open Clip Art Library</dc:title>
          </cc:Agent>
        </dc:publisher>
        <dc:title>hippo</dc:title>
        <dc:date>2008-10-27T01:13:11</dc:date>
        <dc:description/>
        <dc:source>http://openclipart.org/detail/19779/hippo-by-melwe</dc:source>
        <dc:creator>
          <cc:Agent>
            <dc:title>melwe</dc:title>
          </cc:Agent>
        </dc:creator>
        <dc:subject>
          <rdf:Bag>
            <rdf:li>animal</rdf:li>
            <rdf:li>calligraphic</rdf:li>
            <rdf:li>clip art</rdf:li>
            <rdf:li>clipart</rdf:li>
            <rdf:li>image</rdf:li>
            <rdf:li>line art</rdf:li>
            <rdf:li>mammal</rdf:li>
            <rdf:li>media</rdf:li>
            <rdf:li>nature</rdf:li>
            <rdf:li>public domain</rdf:li>
            <rdf:li>svg</rdf:li>
          </rdf:Bag>
        </dc:subject>
      </cc:Work>
      <cc:License rdf:about="http://creativecommons.org/licenses/publicdomain/">
        <cc:permits rdf:resource="http://creativecommons.org/ns#Reproduction"/>
        <cc:permits rdf:resource="http://creativecommons.org/ns#Distribution"/>
        <cc:permits rdf:resource="http://creativecommons.org/ns#DerivativeWorks"/>
      </cc:License>
    </rdf:RDF>
  </metadata>
</svg>
