<?xml version="1.0" encoding="UTF-8" standalone="no"?>
<!-- Created with Inkscape (http://www.inkscape.org/) -->
<svg xmlns:dc="http://purl.org/dc/elements/1.1/" xmlns:cc="http://creativecommons.org/ns#" xmlns:rdf="http://www.w3.org/1999/02/22-rdf-syntax-ns#" xmlns:svg="http://www.w3.org/2000/svg" xmlns="http://www.w3.org/2000/svg" xmlns:sodipodi="http://sodipodi.sourceforge.net/DTD/sodipodi-0.dtd" xmlns:inkscape="http://www.inkscape.org/namespaces/inkscape" width="744.09448819" height="1052.3622047" id="svg3825" version="1.1" inkscape:version="0.47 r22583" sodipodi:docname="New document 3">
  <defs id="defs3827">
    <inkscape:perspective sodipodi:type="inkscape:persp3d" inkscape:vp_x="0 : 526.18109 : 1" inkscape:vp_y="0 : 1000 : 0" inkscape:vp_z="744.09448 : 526.18109 : 1" inkscape:persp3d-origin="372.04724 : 350.78739 : 1" id="perspective3833"/>
    <inkscape:perspective id="perspective3843" inkscape:persp3d-origin="0.5 : 0.33333333 : 1" inkscape:vp_z="1 : 0.5 : 1" inkscape:vp_y="0 : 1000 : 0" inkscape:vp_x="0 : 0.5 : 1" sodipodi:type="inkscape:persp3d"/>
  </defs>
  <sodipodi:namedview id="base" pagecolor="#ffffff" bordercolor="#666666" borderopacity="1.0" inkscape:pageopacity="0.0" inkscape:pageshadow="2" inkscape:zoom="0.35" inkscape:cx="375" inkscape:cy="520" inkscape:document-units="px" inkscape:current-layer="layer1" showgrid="false" inkscape:window-width="783" inkscape:window-height="699" inkscape:window-x="25" inkscape:window-y="25" inkscape:window-maximized="0"/>
  <g inkscape:label="Layer 1" inkscape:groupmode="layer" id="layer1">
    <g id="g3517" transform="matrix(5.5773879,0,0,5.5773879,-267.20164,-73.694241)" style="fill:#ffffff;fill-opacity:1;stroke:#000000;stroke-width:2.17306399;stroke-miterlimit:2.5999999;stroke-opacity:1;stroke-dasharray:none">
      <path d="m 310.66382,132.06057 c -1.82703,2.0443 -22.21039,-18.38308 -24.89334,-17.37811 -2.68295,1.00497 -6.73783,33.64192 -9.57527,34.01165 -2.83744,0.36973 -7.71546,-33.08881 -10.48084,-33.88783 -2.76539,-0.79903 -18.7793,19.34152 -21.17964,17.82892 -2.40034,-1.51259 5.69972,-26.09808 4.36486,-28.67057 -1.33487,-2.57249 -31.86305,-3.78032 -32.49182,-6.6501 -0.62876,-2.86978 27.66855,-10.399376 27.90248,-13.241764 0.23394,-2.842387 -18.99828,-18.90215 -17.89698,-21.393798 1.10131,-2.491647 26.85456,8.177399 28.59429,5.99159 1.73972,-2.185809 -3.39182,-29.683489 -0.75169,-30.507098 2.64013,-0.823608 18.50306,18.485327 21.32153,18.392972 2.81847,-0.09235 11.30312,-24.287685 14.18258,-23.722317 2.87947,0.565368 1.44329,25.667631 3.67226,27.34365 2.22897,1.676019 24.27161,-6.28288 25.90675,-4.004945 1.63514,2.277936 -12.63923,24.445025 -11.77955,27.07291 0.85968,2.627885 27.01183,5.1355 26.65457,7.852474 -0.35726,2.716973 -32.69913,3.875594 -34.04684,6.507203 -1.3477,2.631613 12.32368,32.410863 10.49665,34.455163 z" id="path2035" inkscape:flatsided="false" inkscape:randomized="-0.092" inkscape:rounded="0.1" sodipodi:arg1="0.79570711" sodipodi:arg2="1.144773" sodipodi:cx="275.15002" sodipodi:cy="88.090233" sodipodi:r1="57.019234" sodipodi:r2="32.818508" sodipodi:sides="9" sodipodi:type="star" style="color:#000000;fill:#ffffff;fill-opacity:1;fill-rule:nonzero;stroke:#000000;stroke-width:2.17306399;stroke-linecap:butt;stroke-linejoin:miter;stroke-miterlimit:2.5999999;stroke-opacity:1;stroke-dasharray:none;stroke-dashoffset:0;marker:none;visibility:visible;display:inline;overflow:visible" transform="translate(-162.3409,-10.78489)"/>
      <path d="m 194.51692,77.283737 c 0,20.659371 -17.86424,37.407103 -39.90091,37.407103 -22.03666,0 -39.90091,-16.747732 -39.90091,-37.407103 0,-20.659371 17.86425,-37.4071 39.90091,-37.4071 22.03667,0 39.90091,16.747729 39.90091,37.4071 z" id="path1305" sodipodi:cx="154.61601" sodipodi:cy="77.283737" sodipodi:rx="39.900909" sodipodi:ry="37.407101" sodipodi:type="arc" style="color:#000000;fill:#ffffff;fill-opacity:1;fill-rule:nonzero;stroke:#000000;stroke-width:2.34381628;stroke-linecap:butt;stroke-linejoin:miter;stroke-miterlimit:2.5999999;stroke-opacity:1;stroke-dasharray:none;stroke-dashoffset:0;marker:none;visibility:visible;display:inline;overflow:visible" transform="matrix(0.979973,0,0,0.87717,-39.12591,6.604884)"/>
    </g>
  </g>
  <metadata>
    <rdf:RDF>
      <cc:Work>
        <dc:format>image/svg+xml</dc:format>
        <dc:type rdf:resource="http://purl.org/dc/dcmitype/StillImage"/>
        <cc:license rdf:resource="http://creativecommons.org/licenses/publicdomain/"/>
        <dc:publisher>
          <cc:Agent rdf:about="http://openclipart.org/">
            <dc:title>Open Clip Art Library</dc:title>
          </cc:Agent>
        </dc:publisher>
        <dc:title>Sun Outline</dc:title>
        <dc:date>2010-07-01T20:07:28</dc:date>
        <dc:description/>
        <dc:source>http://openclipart.org/detail/69637/sun-outline-by-horse50</dc:source>
        <dc:creator>
          <cc:Agent>
            <dc:title>horse50</dc:title>
          </cc:Agent>
        </dc:creator>
        <dc:subject>
          <rdf:Bag>
            <rdf:li>black and white</rdf:li>
            <rdf:li>clip art</rdf:li>
            <rdf:li>clipart</rdf:li>
            <rdf:li>coloring book</rdf:li>
            <rdf:li>line art</rdf:li>
            <rdf:li>outline</rdf:li>
            <rdf:li>sun</rdf:li>
          </rdf:Bag>
        </dc:subject>
      </cc:Work>
      <cc:License rdf:about="http://creativecommons.org/licenses/publicdomain/">
        <cc:permits rdf:resource="http://creativecommons.org/ns#Reproduction"/>
        <cc:permits rdf:resource="http://creativecommons.org/ns#Distribution"/>
        <cc:permits rdf:resource="http://creativecommons.org/ns#DerivativeWorks"/>
      </cc:License>
    </rdf:RDF>
  </metadata>
</svg>
